<?xml version="1.0" standalone="no"?>
<!DOCTYPE svg PUBLIC "-//W3C//DTD SVG 1.1//EN" "http://www.w3.org/Graphics/SVG/1.1/DTD/svg11.dtd" >
<svg xmlns="http://www.w3.org/2000/svg" xmlns:xlink="http://www.w3.org/1999/xlink" version="1.1">
<metadata>
Created by FontForge 20170731 at Wed Jun 19 23:32:34 2019
 By Aleksey,,,
Copyright (c) 2015 by Nikita Prokopov
</metadata>
<defs>
<font id="FuraCodeNerdFontCompleteM-Regular" horiz-adv-x="601" >
  <font-face 
    font-family="FuraCode Nerd Font Mono"
    font-weight="400"
    font-stretch="normal"
    units-per-em="1000"
    panose-1="2 11 5 9 5 0 0 2 0 4"
    ascent="800"
    descent="-200"
    x-height="527"
    cap-height="689"
    bbox="-1777 -500 740 1050"
    underline-thickness="50"
    underline-position="-200"
    unicode-range="U+000D-1F310"
  />
<missing-glyph horiz-adv-x="600" 
d="M90 1050h420v-1400h-420v1400zM456 -298v1296h-311v-1296h311zM307 173q0 -11 -7.5 -17.5t-17.5 -6.5t-17.5 6.5t-7.5 17.5v84q53 3 72 19.5t19 57.5q0 33 -13 51t-48 18q-29 0 -52 -11q-7 -3 -13 -3q-24 0 -24 23q0 19 29.5 29t63.5 10q111 0 111 -115q0 -104 -95 -118
v-45zM247 85q0 15 10 25t25 10t25 -10t10 -25q0 -16 -10 -26.5t-25 -10.5t-25 10.5t-10 26.5z" />
    <glyph glyph-name="map-marker-plus" unicode="&#x671;" arabic-form="isolated" 
d="M200 349q31 0 51 20.5t20 51.5t-20 51t-51 20t-51.5 -20t-20.5 -51t20.5 -51.5t51.5 -20.5zM200 621q84 -2 141 -58t59 -142q-13 -122 -100.5 -242t-99.5 -130q-12 10 -100 130t-100 242q1 86 57.5 142t142.5 58zM372 191h85v86h58v-86h86v-56h-86v-86h-58v86h-85v56z
" />
    <glyph glyph-name="marker" unicode="&#x671;" arabic-form="final" 
d="M474 598q-22 1 -38 -15l-154 -154l150 -151l154 154q15 16 15 37.5t-15 39.5l-76 74q-16 16 -36 15zM257 404l-158 -158q-16 -17 -16.5 -38t16.5 -38l-99 -98h151l22 22q16 -14 37.5 -14t37.5 15l158 158z" />
    <glyph glyph-name="message-plus" unicode="&#x67b;" arabic-form="isolated" 
d="M542 636q25 0 42 -17t17 -43v-361q0 -25 -17 -43t-42 -18h-422l-120 -120v542q0 26 17 42.5t42 17.5h483zM271 516v-91h-90v-60h90v-91h59v91h90v60h-90v91h-59z" />
    <glyph glyph-name="microscope" unicode="&#x67b;" arabic-form="final" 
d="M200 527l52 -91q-65 -8 -107.5 -54t-44.5 -114q2 -70 49 -117t118 -48q53 0 93 27t60 73h-87v65h268v-65h-75q-21 -80 -83 -135h91v-66h-534v66h90q-41 38 -65.5 89.5t-24.5 110.5q2 94 56.5 164t143.5 95zM309 668l24 -45l29 18l117 -203l-115 -66l-118 202l30 17
l-25 44z" />
    <glyph glyph-name="move-resize" unicode="&#x67b;" arabic-form="initial" 
d="M219 636v-29h27v-81h-27v-27h81v27h-26v81h26v29h-81zM219 472q-23 -1 -38.5 -16.5t-16.5 -38.5v-328q1 -22 16.5 -37.5t38.5 -17.5h327q23 2 38.5 17.5t16.5 37.5v328q-1 23 -16.5 38.5t-38.5 16.5h-327zM0 417v-82h28v27h82v-27h27v82h-27v-27h-82v27h-28zM219 417h327
v-328h-327v328zM355 390v-28h27v-136h-108v27h-28v-82h28v27h108v-54h-27v-28h82v28h-28v54h82v-27h28v82h-28v-27h-82v136h28v28h-82z" />
    <glyph glyph-name="move-resize-variant" unicode="&#x67b;" arabic-form="medial" 
d="M37 636l-37 -38l136 -136h-95v-54h186v187h-54v-95zM281 462v-54h266v-160h54v160q-1 23 -16 38t-38 16h-266zM173 355v-267q2 -22 17 -37t37 -17h160v54h-160v267h-54zM411 263l-38 -38l136 -137h-68v-54h160v161h-54v-69z" />
    <glyph glyph-name="paw-off" unicode="&#x67e;" arabic-form="isolated" 
d="M2 588l38 38l545 -545l-37 -38l-61 60q-7 -4 -13 -8q-41 -14 -86 4t-90 23q-46 -5 -91 -24t-86 -3q-22 13 -35.5 37.5t-10.5 49.5q6 32 35 54.5t55 45.5q16 17 31.5 39t30.5 42zM191 626q28 3 51 -21.5t32 -64.5t-3 -69l-119 119q13 31 39 36zM405 626q27 -5 40 -34.5
t4.5 -71t-32.5 -65t-51 -19.5t-39 33.5t-4 70t31 65t51 21.5zM31 489q27 10 56.5 -6.5t47.5 -52.5t12.5 -67.5t-31.5 -43t-54.5 5.5t-47 52.5t-13.5 67t30 44.5zM570 489q25 -13 30 -44.5t-13.5 -67t-47 -52.5t-54.5 -5.5t-31.5 43t12.5 67.5t47.5 52.5t56.5 6.5z" />
    <glyph glyph-name="phone-minus" unicode="&#x67e;" arabic-form="final" 
d="M33 636q-15 0 -24 -9.5t-9 -23.5q6 -242 166.5 -402t401.5 -167q15 0 24 9.5t9 23.5v118q0 15 -9 24t-24 9q-62 0 -118 18q-19 7 -35 -8l-74 -73q-72 37 -127.5 93t-93.5 128l74 74q14 14 8 34q-18 56 -18 119q0 14 -10 23t-24 10h-117zM333 535v-67h268v67h-268z" />
    <glyph glyph-name="phone-plus" unicode="&#x67e;" arabic-form="initial" 
d="M33 636q-15 0 -24 -9.5t-9 -23.5q6 -242 166.5 -402t401.5 -167q15 0 24 9.5t9 23.5v118q0 15 -9 24t-24 9q-62 0 -118 18q-19 7 -35 -8l-74 -73q-72 37 -127.5 93t-93.5 128l74 74q14 14 8 34q-18 56 -18 119q0 14 -10 23t-24 10h-117zM434 636v-101h-101v-67h101v-100
h67v100h100v67h-100v101h-67z" />
    <glyph glyph-name="pot" unicode="&#x67e;" arabic-form="medial" 
d="M534 102q0 -28 -19 -48t-47 -20h-335q-28 0 -47 20t-19 48v200h-67v100h601v-100h-67v-200zM100 535h67v-67h-67v67zM268 535h65v-67h-65v67zM434 535h67v-67h-67v67zM501 636h67v-68h-67v68zM333 636h68v-68h-68v68zM167 636h66v-68h-66v68z" />
    <glyph glyph-name="pot-mix" unicode="&#x680;" arabic-form="isolated" 
d="M534 103q0 -28 -19 -48t-47 -20h-335q-28 0 -47 20t-19 48v200h-67v100h368l133 232l58 -35l-114 -197h156v-100h-67v-200z" />
    <glyph glyph-name="serial-port" unicode="&#x680;" arabic-form="final" 
d="M85 743h431v-86h85v-129h-129v-259h-343v259h-129v129h85v86zM516 485h85v-216h-85v216zM258 227h85v-300h-85v300zM0 485h85v-216h-85v216z" />
    <glyph glyph-name="shape-circle-plus" unicode="&#x680;" arabic-form="initial" 
d="M254 98q80 2 133.5 55.5t56.5 134.5h62q-1 -108 -73 -179t-179 -75q-109 4 -180 75t-74 179q3 107 74 179t180 74v-63q-82 -3 -135.5 -56.5t-54.5 -133.5q1 -81 54.5 -134.5t135.5 -55.5zM506 541h95v-63h-95v-95h-62v95h-95v63h95v95h62v-95z" />
    <glyph glyph-name="shape-polygon-plus" unicode="&#x680;" arabic-form="medial" 
d="M444 202v86h62v-127l-285 -127l-221 222l126 285h128v-63h-86l-92 -209l159 -159zM601 541v-63h-95v-95h-62v95h-95v63h95v95h62v-95h95z" />
    <glyph glyph-name="shape-rectangle-plus" unicode="&#x67a;" arabic-form="isolated" 
d="M506 493h95v-64h-95v-95h-62v95h-95v64h95v95h62v-95zM444 144v95h62v-157h-506v411h254v-64h-190v-285h380z" />
    <glyph glyph-name="shape-square-plus" unicode="&#x67a;" arabic-form="final" 
d="M506 541h95v-63h-95v-95h-62v95h-95v63h95v95h62v-95zM444 98v190h62v-254h-506v507h254v-63h-190v-380h380z" />
    <glyph glyph-name="skip-next-circle" unicode="&#x67a;" arabic-form="initial" 
d="M300 636q-128 -3 -212.5 -87.5t-87.5 -213.5q3 -129 87.5 -213.5t212.5 -87.5q129 3 213.5 87.5t87.5 213.5q-3 129 -87.5 213.5t-213.5 87.5zM181 455l149 -120l-149 -120v240zM361 455h59v-240h-59v240z" />
    <glyph glyph-name="skip-next-circle-outline" unicode="&#x67a;" arabic-form="medial" 
d="M300 636q-128 -3 -212.5 -87.5t-87.5 -213.5q3 -129 87.5 -213.5t212.5 -87.5q129 3 213.5 87.5t87.5 213.5q-3 129 -87.5 213.5t-213.5 87.5zM300 576q102 -3 170.5 -71t71.5 -170q-3 -102 -71.5 -170t-170.5 -71q-101 3 -169.5 71t-71.5 170q3 102 71.5 170t169.5 71z
M181 455v-240l149 120zM361 455v-240h59v240h-59z" />
    <glyph glyph-name="skip-previous-circle" unicode="&#x67f;" arabic-form="isolated" 
d="M300 636q-128 -3 -212.5 -87.5t-87.5 -213.5q3 -129 87.5 -213.5t212.5 -87.5q129 3 213.5 87.5t87.5 213.5q-3 129 -87.5 213.5t-213.5 87.5zM181 455h59v-240h-59v240zM420 455v-240l-149 120z" />
    <glyph glyph-name="skip-previous-circle-outline" unicode="&#x67f;" arabic-form="final" 
d="M300 636q129 -3 213.5 -87.5t87.5 -213.5q-3 -129 -87.5 -213.5t-213.5 -87.5q-128 3 -212.5 87.5t-87.5 213.5q3 129 87.5 213.5t212.5 87.5zM300 576q-101 -3 -169.5 -71t-71.5 -170q3 -102 71.5 -170t169.5 -71q102 3 170.5 71t71.5 170q-3 102 -71.5 170t-170.5 71z
M420 455v-240l-149 120zM240 455v-240h-59v240h59z" />
    <glyph glyph-name="spray" unicode="&#x67f;" arabic-form="initial" 
d="M225 636h75v-76h-75v76zM112 672h76v-75h-76v75zM112 560h76v-76h-76v76zM76 484v-73h-76v73h76zM76 597v-74h-76v74h76zM76 709v-73h-76v73h76zM337 -39q-31 0 -52 21t-21 52v377q0 31 21 52t52 21v39h39v113h113v-113h36v-39q32 0 53 -21t23 -52v-377q-2 -31 -23 -52
t-53 -21h-188zM337 411v-377h188v377h-188z" />
    <glyph glyph-name="stop-circle" unicode="&#x67f;" arabic-form="medial" 
d="M300 636q-128 -3 -212.5 -87.5t-87.5 -213.5q3 -129 87.5 -213.5t212.5 -87.5q129 3 213.5 87.5t87.5 213.5q-3 129 -87.5 213.5t-213.5 87.5zM210 425h181v-180h-181v180z" />
    <glyph glyph-name="stop-circle-outline" unicode="&#x679;" arabic-form="isolated" 
d="M300 636q-128 -3 -212.5 -87.5t-87.5 -213.5q3 -129 87.5 -213.5t212.5 -87.5q129 3 213.5 87.5t87.5 213.5q-3 129 -87.5 213.5t-213.5 87.5zM300 576q102 -3 170.5 -71t71.5 -170q-3 -102 -71.5 -170t-170.5 -71q-101 3 -169.5 71t-71.5 170q3 102 71.5 170t169.5 71z
M210 425v-180h181v180h-181z" />
    <glyph glyph-name="test-tube" unicode="&#x679;" arabic-form="final" 
d="M49 835v-99h51v-703q3 -85 59.5 -141.5t141 -56.5t141 56.5t58.5 141.5v703h52v99h-503zM251 134q-24 0 -38 12.5t-14 36.5t14 37t37 13t36.5 -13t13.5 -37t-13.5 -36.5t-35.5 -12.5zM350 334q-22 0 -35.5 14t-14 36.5t13.5 36.5t37 14t37 -14t14 -36.5t-14 -36.5
t-38 -14zM402 586h-203v150h203v-150z" />
    <glyph glyph-name="text-shadow" unicode="&#x679;" arabic-form="initial" 
d="M0 653h459v-106h-176v-424h-106v424h-177v106zM318 512h71v-71h-71v71zM424 512h71v-71h-71v71zM530 512h71v-71h-71v71zM318 406h71v-71h-71v71zM318 300h71v-71h-71v71zM318 194h71v-71h-71v71zM318 88h71v-71h-71v71z" />
    <glyph glyph-name="tune-vertical" unicode="&#x679;" arabic-form="medial" 
d="M67 636v-301h-67v-67h67v-234h66v234h67v67h-67v301h-66zM268 636v-168h-68v-66h68v-368h65v368h68v66h-68v168h-65zM468 636v-368h-67v-66h67v-168h66v168h67v66h-67v368h-66z" />
    <glyph glyph-name="cart-off" unicode="&#x6a4;" arabic-form="isolated" 
d="M601 68l-567 568l-34 -34l117 -116l58 -123l-36 -66q-6 -11 -6 -25q0 -22 14.5 -37t37.5 -16h197l37 -36q-21 -15 -22 -43q0 -22 15.5 -37t37.5 -15q27 0 42 22l76 -76zM196 272q-6 0 -6 7l1 4l24 43h62l53 -54h-134zM411 326q15 0 27 7t20 20l93 171q4 6 4 12
q0 12 -7 19.5t-19 8.5h-356zM184.5 193q-22.5 0 -37 -15.5t-14.5 -37.5t14.5 -37t37 -15t38 15t15.5 37t-15.5 37.5t-38 15.5z" />
    <glyph glyph-name="chart-gantt" unicode="&#x6a4;" arabic-form="final" 
d="M0 545h240v91h60v-602h-60v120h-120v91h120v60h-181v91h181v59h-240v90zM361 545h90v-90h-90v90zM361 396h150v-91h-150v91zM361 245h240v-91h-240v91z" />
    <glyph glyph-name="chart-scatterplot-hexbin" unicode="&#x6a4;" arabic-form="initial" 
d="M0 636h59v-542h542v-60h-601v602zM361 260l-61 -106h-122l-61 106l61 105h122zM363 500l-61 -104h-121l-61 104l61 106h121zM579 381l-61 -107h-121l-61 107l61 105h121z" />
    <glyph glyph-name="chart-timeline" unicode="&#x6a4;" arabic-form="medial" 
d="M0 636h59v-542h542v-60h-601v602zM150 396h301v-91h-301v91zM271 245h300v-91h-300v91zM120 576h481v-121h-59v61h-361v-61h-61v121z" />
    <glyph glyph-name="discord" unicode="&#x6a6;" arabic-form="isolated" 
d="M601 -11l-158 151l20 -61h-388q-32 1 -53.5 22.5t-21.5 52.5v452q0 32 21 53q22 21 54 22h451q32 -1 53.5 -22.5t21.5 -52.5v-617zM300 507q-62 -3 -99 -18t-37 -18q25 21 53.5 32.5t30.5 11.5l-5 5q-39 -3 -67 -18.5t-29 -17.5q-37 -83 -44 -141t-5 -60q35 -39 68.5 -46
t36.5 -4l22 27q-29 8 -45 23.5t-17 17.5q1 -2 38 -19t99 -20q63 3 100 20t38 19q-1 -2 -17 -17.5t-45 -23.5l22 -27q3 -3 36.5 4t68.5 46q2 2 -5 59.5t-44 141.5q-1 3 -29 18t-67 18l-5 -5q2 0 30.5 -11.5t53.5 -32.5q0 3 -37 18t-100 18zM238.5 392q15.5 0 25.5 -11.5
t10 -27t-10 -26.5t-25.5 -11t-25.5 11t-10 26.5t10 27t25.5 11.5zM364 392q15 0 25 -11.5t10 -27t-10.5 -26.5t-25.5 -11t-24.5 11t-9.5 26.5t10 27t25 11.5z" />
    <glyph glyph-name="file-restore" unicode="&#x6a6;" arabic-form="final" 
d="M376 709h-300q-32 0 -53 -21t-23 -52v-602q2 -31 23 -52t53 -21h449q32 0 53 21t23 52v450zM300 110q-57 0 -103 30.5t-68 82.5h64q18 -27 46 -41.5t61 -14.5q56 2 93.5 38t37.5 92t-37.5 94t-93.5 38q-38 0 -68 -19.5t-48 -52.5l61 -59h-151v149l48 -49q26 40 66.5 63
t91.5 23q80 -1 133.5 -54t55.5 -132q-2 -81 -55.5 -133.5t-133.5 -54.5z" />
    <glyph glyph-name="language-c" unicode="&#x6a6;" arabic-form="initial" 
d="M568 97l24 -145q-25 -12 -75.5 -22.5t-120.5 -10.5q-196 2 -296 115.5t-100 289.5q3 204 120.5 315.5t293.5 111.5q67 0 115.5 -11t71.5 -22l-36 -148l-61 20q-36 8 -85 8q-103 0 -170 -65.5t-70 -200.5q0 -120 64.5 -190t178.5 -70l79 5q38 9 67 20z" />
    <glyph glyph-name="language-cpp" unicode="&#x6a6;" arabic-form="medial" 
d="M249 231l10 -64q-11 -5 -33 -9.5t-52 -4.5q-86 1 -130 50.5t-44 126.5q3 90 53.5 138.5t127.5 48.5q30 0 51 -5t31 -9l-14 -65l-28 9q-15 3 -36 3q-45 0 -75 -28.5t-32 -87.5q0 -53 28.5 -83.5t78.5 -30.5l36 2q15 4 28 9zM262 361h51v52h53v-52h53v-52h-53v-52h-53v52
h-51v52zM444 361h53v52h51v-52h53v-52h-53v-52h-51v52h-53v52z" />
    <glyph glyph-name="xaml" unicode="&#x684;" arabic-form="isolated" 
d="M478 335l-89 -153h-177l-89 153l89 153h177zM601 335l-103 -178l-44 25l89 153l-89 153l44 25zM0 335l103 178l44 -25l-89 -153l89 -153l-44 -25z" />
    <glyph glyph-name="bandcamp" unicode="&#x684;" arabic-form="final" 
d="M601 516l-195 -362h-406l195 362h406z" />
    <glyph glyph-name="credit-card-plus" unicode="&#x684;" arabic-form="initial" 
d="M523 217h78v-52h-78v-78h-53v78h-78v52h78v79h53v-79zM470 478v53h-417v-53h417zM470 374h-417v-157h287v-52h-287q-22 1 -37 16t-16 36v314q1 22 16 36.5t37 15.5h417q22 -1 37.5 -15.5t15.5 -36.5v-183h-53v26z" />
    <glyph glyph-name="itunes" unicode="&#x684;" arabic-form="medial" 
d="M142 144q-30 -1 -90 -25t-51 -95q28 -85 117 -69.5t100 117.5v369q-2 1 1 13t22 17l291 60q2 2 12.5 0t12.5 -20v-259q0 -2 -3.5 -13t-22.5 -17q-30 0 -90 -21t-59 -92q21 -87 113.5 -77t105.5 112v544q0 4 -5.5 19t-36.5 9l-354 -72q-1 2 -15 -6.5t-16 -30.5v-427
q0 -2 -4.5 -16t-27.5 -20z" />
    <glyph glyph-name="bow-tie" unicode="&#x683;" arabic-form="isolated" 
d="M401 268l200 -100v334l-200 -100v-134zM200 268l-200 -100v334l200 -100v-134zM233 402h135v-134h-135v134z" />
    <glyph glyph-name="calendar-range" unicode="&#x683;" arabic-form="final" 
d="M200 369h-67v-68h67v68zM333 369h-65v-68h65v68zM468 369h-67v-68h67v68zM534 602h-33v67h-67v-67h-267v67h-67v-67h-33q-29 0 -48 -19.5t-19 -47.5v-467q0 -28 19.5 -47.5t47.5 -19.5h467q28 0 47.5 19.5t19.5 47.5v467q0 28 -19.5 47.5t-47.5 19.5zM534 68h-467v366
h467v-366z" />
    <glyph glyph-name="currency-usd-off" unicode="&#x683;" arabic-form="initial" 
d="M320 529q50 0 71.5 -22.5t22.5 -57.5h84q-2 50 -32.5 90t-88.5 54v83h-114v-81q-30 -8 -57 -21l57 -56q21 11 57 11zM48 636l-48 -49l129 -129q2 -58 41 -94t108 -55l133 -132q-9 -15 -31.5 -25.5t-59.5 -10.5q-59 2 -85.5 24t-28.5 56h-83q5 -62 44 -97.5t96 -48.5v-81
h114v81q56 11 93 43l83 -85l48 48z" />
    <glyph glyph-name="flash-red-eye" unicode="&#x683;" arabic-form="medial" 
d="M411 572q-14 0 -22.5 -8.5t-8.5 -22t8.5 -22.5t23 -9t22.5 9t8 22.5t-8 22t-23 8.5zM411 667q-65 0 -115.5 -34.5t-74.5 -91.5q24 -56 74.5 -91t116.5 -35t116.5 35t72.5 91q-22 57 -72.5 91.5t-117.5 34.5zM411 620q34 0 56.5 -22.5t22.5 -56.5t-22.5 -56.5t-56 -22.5
t-55.5 22.5t-22 56.5t22 56.5t55 22.5zM0 667v-379h95v-285l221 379h-126l36 80q-33 34 -52 79q17 42 46 74t68 52h-288z" />
    <glyph glyph-name="oar" unicode="&#x686;" arabic-form="isolated" 
d="M575 230q-41 42 -116 96t-135 35l-274 275l-50 -50l277 -276q-19 -59 36 -131t98 -113t76 -29.5t65 48.5q39 36 47 72.5t-24 72.5z" />
    <glyph glyph-name="piano" unicode="&#x686;" arabic-form="final" 
d="M59 606h483q25 0 42 -18t17 -43v-420q0 -25 -17 -43t-42 -18h-483q-25 0 -42 18t-17 43v420q0 25 17 43t42 18zM59 545v-420h122v180h-39v240h-83zM210 125h181v180h-38v240h-105v-240h-38v-180zM420 125h122v420h-83v-240h-39v-180z" />
    <glyph glyph-name="weather-lightning-rainy" unicode="&#x686;" arabic-form="initial" 
d="M96 292q11 -7 13.5 -17t-3.5 -20.5t-16.5 -13t-20.5 2.5q-32 18 -50 48.5t-19 69.5q1 59 40 97.5t97 39.5q22 49 65 79t99 30q72 -1 121.5 -47.5t56.5 -116.5h13q47 -1 78 -32t31 -77t-31 -77t-78 -32q-12 0 -19.5 7.5t-7.5 19.5t7.5 19.5t19.5 7.5q23 1 39 16.5t16 38.5
t-16 38.5t-39 16.5h-54v27q-1 58 -40 97t-97 40q-52 -1 -88.5 -33t-45.5 -82q-14 5 -30 5q-35 0 -58 -23t-24 -59q0 -23 11 -41.5t30 -28.5zM233 362h82l-55 -109h55l-102 -191l20 136h-69zM451 153q0 -27 -17 -45t-43.5 -18t-44 18t-18.5 45q4 35 31 72.5t31 41.5
q4 -4 30.5 -41.5t30.5 -72.5z" />
    <glyph glyph-name="weather-snowy-rainy" unicode="&#x686;" arabic-form="medial" 
d="M479 140q-1 -27 -18 -45t-43.5 -18t-44 18t-17.5 45q4 35 31 72.5t31 41.5q4 -4 30.5 -41.5t30.5 -72.5zM82 176q-3 11 3 20.5t17 12.5l62 17l-45 45q-9 9 -9 20.5t8.5 19.5t20 8t20.5 -9l45 -45l16 62q3 12 13 17.5t21.5 2.5t17 -12.5t2.5 -21.5l-16 -61l61 15
q12 4 22 -2t12.5 -17.5t-2.5 -21t-16 -12.5l-62 -16l45 -45q7 -10 7 -21.5t-8 -19.5t-19.5 -8t-19.5 8l-45 46l-16 -62q-4 -13 -13.5 -18t-21 -1.5t-17.5 13t-4 21.5l17 61l-61 -17q-12 -2 -21.5 3.5t-13.5 17.5zM0 349q1 59 40 97.5t97 39.5q22 48 65 78.5t99 30.5
q72 -1 121.5 -47.5t56.5 -116.5h13q47 -2 78 -32.5t31 -76.5t-31 -77t-78 -32q-12 0 -19.5 7.5t-7.5 19.5t7.5 19.5t19.5 7.5q23 1 39 16.5t16 38.5t-16 38.5t-39 16.5h-54v27q-1 58 -40 97t-97 40q-52 -1 -88.5 -33.5t-45.5 -81.5q-14 5 -30 5q-35 0 -58 -23t-23 -59
t23 -59q8 -8 8 -19t-8.5 -18.5t-19 -7.5t-18.5 8q-19 19 -30 43.5t-11 52.5z" />
    <glyph glyph-name="yin-yang" unicode="&#x687;" arabic-form="isolated" 
d="M300 636q129 -3 213.5 -87.5t87.5 -213.5q-3 -129 -87.5 -213.5t-213.5 -87.5q-128 3 -212.5 87.5t-87.5 213.5q3 129 87.5 213.5t212.5 87.5zM300 576q-103 -3 -170.5 -70.5t-70.5 -170.5q3 -103 70.5 -170.5t170.5 -70.5q-50 1 -84 35t-34 85.5t34 85.5t84.5 35
t84.5 35t34 85.5t-34 85.5t-85 35zM300.5 500q19.5 0 32 -13t12.5 -31.5t-12.5 -31.5t-32 -13t-32 13t-12.5 31.5t12.5 31.5t32 13zM300 260q-19 -2 -31.5 -14.5t-12.5 -31t12.5 -31.5t32 -13t32 13t12.5 31.5t-12.5 31t-32.5 14.5z" />
    <glyph glyph-name="tower-beach" unicode="&#x687;" arabic-form="final" 
d="M468 603v-135h33v-66h-13l113 -435h-69l-18 74l-214 122l-213 -122l-18 -74h-69l113 435h-13v66h33v135h-33v33l401 67v-100h-33zM143 253l-32 -123l122 72zM419 402h-237l-23 -81l141 -81l142 81zM490 130l-32 123l-90 -51z" />
    <glyph glyph-name="tower-fire" unicode="&#x687;" arabic-form="initial" 
d="M468 603v-135h33v-66h-13l113 -435h-69l-18 74l-214 122l-213 -122l-18 -74h-69l113 435h-13v66h33v135h-33v33l200 67l201 -67v-33h-33zM143 253l-32 -123l122 72zM419 402h-237l-23 -81l141 -81l142 81zM490 130l-32 123l-90 -51z" />
    <glyph glyph-name="delete-circle" unicode="&#x687;" arabic-form="medial" 
d="M300 636q129 -3 213.5 -87.5t87.5 -213.5q-3 -129 -87.5 -213.5t-213.5 -87.5q-128 3 -212.5 87.5t-87.5 213.5q3 129 87.5 213.5t212.5 87.5zM451 486h-75l-31 30h-89l-31 -30h-75v-61h301v61zM210 154h181q13 0 21 8.5t8 21.5v212h-239v-212q0 -13 8 -21.5t21 -8.5z
" />
    <glyph glyph-name="dna" unicode="&#x68d;" arabic-form="isolated" 
d="M0 709h76v-73q0 -41 18 -75t52 -68q51 -46 121 -91l-68 -45q-58 37 -105 83q-42 39 -67 87.5t-27 108.5v73zM525 709h76v-73q-2 -60 -27.5 -108.5t-66.5 -87t-88.5 -72t-97.5 -65t-95 -62.5t-79.5 -64.5t-52.5 -67.5t-18 -75v-73h-76v73q2 60 27.5 108.5t66.5 87t88.5 72
t97.5 65t95 62.5t79.5 64.5t52.5 67.5t18 75v73zM402 313q58 -37 105 -83q42 -39 67 -87.5t27 -108.5v-73h-76v73q0 41 -18 75t-52 68q-51 46 -121 91zM112 672h377v-36l-4 -19h-369l-4 19v36zM139 560h323q-12 -19 -33 -41l-20 -16h-219l-18 16q-21 22 -33 41zM192 167h219
l18 -16q21 -21 33 -41h-323q12 19 33 41zM116 53h369l4 -19v-36h-377v36z" />
    <glyph glyph-name="hamburger" unicode="&#x68d;" arabic-form="final" 
d="M0 215h601v-61q0 -25 -17 -42t-42 -18h-483q-25 1 -42 18t-17 42v61zM120 576h361q51 -1 85 -35t35 -86v-59h-601v59q1 52 35 86t85 35zM59 365h332l60 -60l60 60h31q25 0 42 -17t17 -43t-17 -43t-42 -17h-483q-25 0 -42 17t-17 43t17 43t42 17z" />
    <glyph glyph-name="gondola" unicode="&#x68c;" arabic-form="isolated" 
d="M479 388h-149v71l271 45l-7 44l-162 -27q2 7 2 14q0 19 -12.5 32t-32 13t-32 -13t-12.5 -30t10 -30l-25 -3v31h-59v-42l-17 -2q2 7 2 15q0 19 -12.5 32t-32 13t-32 -13t-12.5 -30.5t10 -29.5l-177 -29l7 -45l264 45v-61h-149q-24 -2 -41 -18.5t-18 -41.5v-178
q1 -25 18 -42t41 -18h357q24 1 41 18t18 42v178q-1 25 -18 41.5t-41 18.5zM122 328h67v-118h-67v118zM234 210v118h133v-118h-133zM479 210h-67v118h67v-118z" />
    <glyph glyph-name="inbox" unicode="&#x68c;" arabic-form="final" 
d="M534 235h-133q-2 -43 -30 -71t-70.5 -28t-70.5 28t-30 71h-133v333h467v-333zM534 636h-467q-29 0 -48 -20t-19 -48v-466q0 -28 19.5 -48t47.5 -20h467q28 0 47.5 20t19.5 48v466q0 28 -19.5 48t-47.5 20z" />
    <glyph glyph-name="reorder-horizontal" unicode="&#x68e;" arabic-form="isolated" 
d="M0 235h601v67h-601v-67zM0 102h601v66h-601v-66zM0 368h601v67h-601v-67zM0 568v-66h601v66h-601z" />
    <glyph glyph-name="reorder-vertical" unicode="&#x68e;" arabic-form="final" 
d="M171 722v-774h87v774h-87zM0 722v-774h85v774h-85zM343 722v-774h87v774h-87zM601 722h-85v-774h85v774z" />
    <glyph glyph-name="security-home" unicode="&#x688;" arabic-form="isolated" 
d="M268 302h65v-100h101v166h67l-201 167l-200 -167h67v-166h101v100zM300 703l301 -135v-200q-3 -143 -86 -254t-215 -147q-131 36 -214 147t-86 254v200z" />
    <glyph glyph-name="tag-heart" unicode="&#x688;" arabic-form="final" 
d="M584 348l-270 271q-17 17 -43 17h-212q-25 0 -42 -17t-17 -43v-211q0 -26 17 -43l270 -271q17 -17 42.5 -17t43.5 17l211 212q17 16 17 42t-17 43zM105 486q-18 0 -31 12.5t-13 32t12.5 32t31.5 12.5t32 -12.5t13 -32t-13 -32t-32 -12.5zM459 236l-129 -128l-128 128
q-21 21 -21 53.5t21 54t53 21.5t54 -21l21 -23l23 23q20 21 52 21t53.5 -21.5t21.5 -54t-21 -53.5z" />
    <glyph glyph-name="skull" unicode="&#x698;" arabic-form="isolated" 
d="M300 668q-128 -3 -212.5 -87.5t-87.5 -212.5q0 -77 35.5 -142t97.5 -107v-117h67v100h68v-100h65v100h68v-100h67v117q62 42 97.5 108t35.5 141q-3 128 -87.5 212.5t-213.5 87.5zM167.5 368q28.5 0 47 -19t18.5 -47t-18.5 -47.5t-47 -19.5t-48 19.5t-19.5 47.5t19.5 47
t48 19zM433.5 368q28.5 0 48 -19t19.5 -47t-19.5 -47.5t-48 -19.5t-47 19.5t-18.5 47.5t18.5 47t47 19zM300 268l50 -100h-99z" />
    <glyph glyph-name="solid" unicode="&#x698;" arabic-form="final" 
d="M0 636h601v-602h-601v602z" />
    <glyph glyph-name="alarm-snooze" unicode="&#x691;" arabic-form="isolated" 
d="M176 592l-38 46l-138 -116l38 -45zM601 522l-138 116l-38 -46l138 -117zM300 574q-115 -3 -191 -80t-79 -191q3 -115 79 -191.5t191 -79.5q116 3 192 79.5t79 191.5q-3 114 -79 191t-192 80zM300 92q-90 2 -149 61.5t-61 149.5q2 89 61 148.5t149 61.5q91 -2 150 -61.5
t61 -148.5q-2 -90 -61 -149.5t-150 -61.5zM210 362h109l-109 -125v-55h181v61h-109l109 127v53h-181v-61z" />
    <glyph glyph-name="baby-buggy" unicode="&#x691;" arabic-form="final" 
d="M347 651v-252h254q-3 107 -74 179t-180 73zM548 212q25 33 39 72t14 82h-461l-30 64h-110v-64h70l31 -65q27 -58 36 -75q-27 -15 -42.5 -40t-15.5 -57q2 -46 32.5 -78t78.5 -32q42 0 72.5 26.5t36.5 68.5h66q6 -42 36.5 -68.5t73.5 -26.5q46 0 78 32t32 78q-1 52 -37 83z
M190 81q-21 2 -34.5 15t-13.5 33.5t13.5 33.5t33.5 13t33.5 -13t13.5 -33.5t-13.5 -33.5t-32.5 -15zM475 81q-21 2 -34.5 15t-13.5 33.5t13.5 33.5t33.5 13t33.5 -13t13.5 -33.5t-13.5 -33.5t-32.5 -15z" />
    <glyph glyph-name="beaker" unicode="&#x6a9;" arabic-form="isolated" 
d="M0 636h601v-68q-28 0 -47 -18.5t-20 -47.5v-400q0 -28 -19 -48t-47 -20h-335q-28 0 -47 20t-19 48v400q-1 29 -20 47.5t-47 18.5v68zM133 568v-66h167v-34h-167v-33h100v-33h-100v-34h100v-33h-100v-33h167v-34h-167v-33h100v-33h-100v-100h335v466h-335z" />
    <glyph glyph-name="bomb" unicode="&#x6a9;" arabic-form="final" 
d="M198 509q1 44 30 73.5t72.5 29.5t72.5 -29.5t30 -73.5q0 -10 7 -16.5t17.5 -6.5t17 6.5t6.5 16.5v24h47v-24q-1 -29 -21 -49.5t-50.5 -20.5t-50.5 20.5t-20 49.5q-1 24 -16.5 39.5t-39.5 15.5t-39.5 -15.5t-15.5 -39.5h40v-41q70 -21 113 -78t44 -134q-1 -94 -63.5 -156
t-157.5 -66q-95 4 -157 66t-64 156q2 77 44.5 134t112.5 78v41h41zM537 509h64v-31h-64v31zM442 573v63h33v-63h-33zM503 561l45 45l23 -22l-46 -47z" />
    <glyph glyph-name="calendar-question" unicode="&#x6a9;" arabic-form="initial" 
d="M100 669v-67h-33q-29 0 -48 -19.5t-19 -47.5v-467q0 -28 19.5 -47.5t47.5 -19.5h467q28 0 47.5 19.5t19.5 47.5v467q0 28 -19.5 47.5t-47.5 19.5h-33v67h-67v-67h-267v67h-67zM67 434h467v-366h-467v366zM307 402q-44 0 -70.5 -20t-24.5 -59v-2h64q0 16 9 24t23 8
t23.5 -10t9.5 -26t-8 -26.5t-20 -18.5q-26 -17 -35.5 -31.5t-9.5 -39.5h65q0 16 5 25.5t17 17.5q22 11 37 30t15 44q0 38 -26.5 61t-73.5 23zM268 168v-67h65v67h-65z" />
    <glyph glyph-name="camera-burst" unicode="&#x6a9;" arabic-form="medial" 
d="M0 526h55v-382h-55v382zM110 526h54v-382h-54v382zM573 526h-327q-12 0 -19.5 -8t-7.5 -19v-328q0 -11 7.5 -19t19.5 -8h327q12 0 19.5 8t8.5 19v328q-1 11 -8.5 19t-19.5 8zM274 198l67 87l49 -59l69 87l87 -115h-272z" />
    <glyph glyph-name="code-tags-check" unicode="&#x6af;" arabic-form="isolated" 
d="M131 608l-131 -132l131 -131l41 40l-92 91l92 92zM298 608l-40 -40l91 -92l-91 -91l40 -40l131 131zM560 375l-232 -232l-104 105l-40 -40l144 -146l273 272z" />
    <glyph glyph-name="coins" unicode="&#x6af;" arabic-form="final" 
d="M382 554q94 -2 155 -63.5t64 -155.5q-3 -94 -64 -155.5t-155 -63.5q-94 2 -155.5 63.5t-63.5 155.5q2 94 63.5 155.5t155.5 63.5zM382 171q69 1 116 48t48 116q-1 69 -48 116t-116 48q-69 -1 -116 -48t-48 -116q1 -69 48 -116t116 -48zM54 335q1 -54 30.5 -95.5
t78.5 -59.5v-56q-72 19 -117.5 76t-45.5 135t45.5 135t117.5 76v-56q-49 -18 -78.5 -59.5t-30.5 -95.5z" />
    <glyph glyph-name="crop-rotate" unicode="&#x6af;" arabic-form="initial" 
d="M187 97q-63 31 -103 86.5t-47 126.5h-37q12 -118 95 -195.5t204 -80.5q9 0 17 2l-95 95zM302 636q-9 0 -17 -2l95 -95l34 34q63 -31 103 -86.5t47 -126.5h37q-12 118 -95 195.5t-204 80.5zM400 285h51v150q0 22 -15 36t-36 14h-150v-50h150v-150zM201 235v301h-51v-51
h-50v-50h50v-200q0 -21 15 -35.5t36 -14.5h199v-51h51v51h50v50h-300z" />
    <glyph glyph-name="developer-board" unicode="&#x6af;" arabic-form="medial" 
d="M601 425v61h-59v59q-2 25 -19 43t-42 18h-422q-25 0 -42 -18t-17 -43v-420q0 -25 17 -43t42 -18h422q25 0 42 18t19 43v59h59v61h-59v60h59v60h-59v60h59zM481 125h-422v420h422v-420zM120 305h151v-121h-151v121zM300 486h120v-90h-120v90zM120 486h151v-151h-151v151z
M300 365h120v-181h-120v181z" />
    <glyph glyph-name="do-not-disturb" unicode="&#x6b3;" arabic-form="isolated" 
d="M300 636q-128 -3 -212.5 -87.5t-87.5 -213.5q3 -129 87.5 -213.5t212.5 -87.5q129 3 213.5 87.5t87.5 213.5q-3 129 -87.5 213.5t-213.5 87.5zM451 305h-301v60h301v-60z" />
    <glyph glyph-name="do-not-disturb-off" unicode="&#x6b3;" arabic-form="final" 
d="M459 378v-56h-42l133 -134q24 35 37.5 75.5t13.5 86.5q-3 122 -83 202.5t-203 83.5q-45 0 -86 -13.5t-76 -37.5l206 -207h100zM36 629l-36 -37l80 -80q-24 -35 -37 -76t-13 -86q2 -122 82.5 -202.5t202.5 -83.5q46 0 87 13.5t75 37.5l80 -81l37 37zM172 322v56h42l57 -56
h-99z" />
    <glyph glyph-name="douban" unicode="&#x6b3;" arabic-form="initial" 
d="M601 560h-601v76h601v-76zM601 110v-76h-601v76h125l-39 149h-47v225h523v-225h-47l-39 -149h125zM112 335h377v76h-377v-76zM204 110h193l40 149h-273z" />
    <glyph glyph-name="emoticon-dead" unicode="&#x6b3;" arabic-form="medial" 
d="M300 636q-128 -3 -212.5 -87.5t-87.5 -213.5q3 -129 87.5 -213.5t212.5 -87.5q129 3 213.5 87.5t87.5 213.5q-3 129 -88 213.5t-213 87.5zM300 94q-103 3 -170.5 70.5t-70.5 170.5q3 103 70.5 170.5t170.5 70.5q104 -3 171.5 -70.5t70.5 -170.5q-3 -103 -70.5 -170.5
t-171.5 -70.5zM426 462l-31 -31l-32 31l-33 -31l33 -32l-33 -31l33 -33l32 33l31 -33l33 33l-33 31l33 32zM175 335l31 33l32 -33l33 33l-33 31l33 32l-33 31l-32 -31l-31 31l-33 -31l33 -32l-33 -31zM300.5 274q-53.5 0 -94.5 -28.5t-59 -75.5h307q-18 46 -59 75t-94.5 29z
" />
    <glyph glyph-name="emoticon-excited" unicode="&#x6b1;" arabic-form="isolated" 
d="M300 636q-128 -3 -212.5 -87.5t-87.5 -213.5q3 -129 87.5 -213.5t212.5 -87.5q129 3 213.5 87.5t87.5 213.5q-3 129 -88 213.5t-213 87.5zM300 94q-103 3 -170.5 70.5t-70.5 170.5q3 103 70.5 170.5t170.5 70.5q104 -3 171.5 -70.5t70.5 -170.5q-3 -103 -70.5 -170.5
t-171.5 -70.5zM330 397l33 -32l32 32l31 -32l33 32l-64 64zM206 397l32 -32l33 32l-65 64l-64 -64l33 -32zM300.5 170q53.5 0 94.5 29t59 75h-307q18 -46 59 -75t94.5 -29z" />
    <glyph glyph-name="folder-star" unicode="&#x6b1;" arabic-form="final" 
d="M542 516h-242l-60 60h-181q-25 -1 -42 -18t-17 -42v-362q0 -25 17 -42t42 -18h483q25 1 42 18t17 42v301q0 25 -17 43t-42 18zM480 184l-89 52l-89 -52l24 100l-78 68l102 8l41 95l41 -95l101 -8l-77 -68z" />
    <glyph glyph-name="format-color-text" unicode="&#x6b1;" arabic-form="initial" 
d="M190 243l110 293l111 -293h-221zM255 659l-255 -648h103l52 139h291l52 -139h103l-255 648h-91z" />
    <glyph glyph-name="format-section" unicode="&#x6b1;" arabic-form="medial" 
d="M483 715q-73 42 -158 43q-62 0 -101 -27t-41 -74q2 -49 47 -77.5t120 -52.5q96 -27 157.5 -74t63.5 -137q-2 -49 -25.5 -91.5t-64.5 -69.5q49 -49 49 -118q-5 -106 -80.5 -154t-174.5 -48q-110 -2 -206 57l32 74q79 -54 175 -54q67 0 108 28t43 83q2 44 -35 76t-129 62
q-106 35 -168.5 82.5t-64.5 131.5q2 49 29.5 91.5t69.5 65.5q-47 45 -50 113q3 89 72.5 139.5t174.5 50.5q98 0 186 -44zM268 264q79 -25 153 -65q51 40 51 104q0 37 -28 70t-94 56q-82 27 -165 68q-28 -17 -44 -45t-16 -63t33 -67.5t110 -57.5z" />
    <glyph glyph-name="gradient" unicode="&#x6ba;" arabic-form="isolated" 
d="M268 435h65v-67h-65v67zM200 368h68v-66h-68v66zM333 368h68v-66h-68v66zM401 435h67v-67h-67v67zM133 435h67v-67h-67v67zM534 636h-467q-28 0 -47.5 -20t-19.5 -48v-466q0 -28 19.5 -48t47.5 -20h467q28 0 47.5 20t19.5 48v466q0 28 -19.5 48t-47.5 20zM200 135h-67v67
h67v-67zM333 135h-65v67h65v-67zM468 135h-67v67h67v-67zM534 368h-66v-66h66v-67h-66v67h-67v-67h-68v67h-65v-67h-68v67h-67v-67h-66v67h66v66h-66v200h467v-200z" />
    <glyph glyph-name="home-outline" unicode="&#x6ba;" arabic-form="final" 
d="M209 109v183h183v-183h91v245l-183 183l-182 -183v-245h91zM300 622l301 -300h-57v-274h-214v182h-59v-182h-214v274h-57z" />
    <glyph glyph-name="message-bulleted" unicode="&#x6bb;" arabic-form="isolated" 
d="M542 636h-483q-25 0 -42 -17t-17 -43v-542l120 120h422q25 0 42 18t17 43v361q0 26 -17 42.5t-42 17.5zM181 274h-61v61h61v-61zM181 365h-61v60h61v-60zM181 455h-61v61h61v-61zM391 274h-151v61h151v-61zM481 365h-241v60h241v-60zM481 455h-241v61h241v-61z" />
    <glyph glyph-name="message-bulleted-off" unicode="&#x6bb;" arabic-form="final" 
d="M35 636l-35 -35l55 -55v-464l109 109h246l156 -157l35 35zM219 300h-55v55h55v-55zM164 382v55l55 -55h-55zM547 628h-435l161 -162v53h219v-55h-216l26 -27h190v-55h-134l191 -191q22 1 37 16.5t15 38.5v328q0 23 -15.5 38.5t-38.5 15.5z" />
    <glyph glyph-name="nuke" unicode="&#x6bb;" arabic-form="initial" 
d="M363 335h-123v30h-135q-44 1 -74.5 30.5t-30.5 75t30.5 75t74.5 30.5q47 -1 78 -35q11 42 42 68t75.5 26.5t75.5 -26t42 -68.5q31 34 78 35q44 -1 74.5 -30.5t30.5 -75t-30.5 -75t-74.5 -30.5h-133v-30zM240 187v35h-150v60h421v-60h-148v-35l179 -65q13 -6 21 -17t8 -26
q0 -19 -12.5 -32t-32.5 -13h-451q-19 0 -32 13t-13 32q0 15 8 26t21 17z" />
    <glyph glyph-name="power-plug" unicode="&#x6bb;" arabic-form="medial" 
d="M500 586v200h-99v-200h-201v200h-99v-200q-40 -2 -69.5 -31.5t-31.5 -69.5v-275l175 -176v-150h251v150l175 176v275q-2 40 -31.5 69.5t-69.5 31.5z" />
    <glyph glyph-name="power-plug-off" unicode="&#x6c0;" arabic-form="isolated" 
d="M201 654v-107q153 -154 308 -305q4 7 12.5 14t13.5 16v187q-1 28 -24 43t-43 23v129h-66v-134h-135v134h-66zM43 621l-43 -43l133 -135v-174l118 -118v-100h167v100q6 5 11.5 -3t11.5 -11l116 -121q25 22 44 45q-283 279 -558 558v2z" />
    <glyph glyph-name="publish" unicode="&#x6c0;" arabic-form="final" 
d="M0 680v-87h601v87h-601zM0 248h171v-258h259v258h171l-301 303z" />
    <glyph glyph-name="restore" unicode="&#x6c1;" arabic-form="isolated" 
d="M343 593q-108 -3 -181 -75.5t-76 -182.5h-86l111 -111l3 -4l115 115h-85q2 86 58.5 142.5t140.5 57.5q86 -1 142.5 -57.5t59.5 -142.5q-3 -86 -59.5 -142.5t-142.5 -57.5q-41 0 -77.5 15.5t-62.5 43.5l-41 -42q35 -35 81.5 -55t99.5 -20q110 3 182.5 75.5t75.5 182.5
q-3 110 -75.5 182.5t-182.5 75.5zM315 449v-142l123 -74l21 35l-101 60v121h-43z" />
    <glyph glyph-name="robot" unicode="&#x6c1;" arabic-form="final" 
d="M300.5 607q22.5 0 38 -15t16.5 -38q0 -15 -7.5 -28.5t-20.5 -18.5v-35h28q81 -3 134.5 -56.5t56.5 -135.5h27q12 0 19.5 -7.5t8.5 -19.5v-82q-1 -11 -8.5 -19t-19.5 -8h-27v-28q0 -23 -16 -38t-39 -15h-381q-23 0 -39 15t-16 38v28h-27q-12 0 -19.5 8t-8.5 19v82
q1 12 8.5 19.5t19.5 7.5h27q3 82 56.5 135.5t134.5 56.5h28v35q-13 6 -20.5 19t-7.5 28q1 23 16.5 38t38 15zM177 308q-29 -1 -48 -20.5t-19 -48t19.5 -47.5t48.5 -19t48.5 19t19.5 47.5t-19.5 48t-49.5 20.5zM424 308q-30 -1 -49.5 -20.5t-19.5 -48t19.5 -47.5t48.5 -19
t48.5 19t19.5 47.5t-19 48t-48 20.5z" />
    <glyph glyph-name="format-rotate-90" unicode="&#x6c1;" arabic-form="initial" 
d="M186 475l-186 -183l186 -185l183 185zM81 292l105 103l103 -103l-103 -104zM527 469q-38 39 -84.5 57.5t-97.5 18.5v92l-120 -122l120 -120v92q39 0 75.5 -14.5t65.5 -43.5q59 -62 59 -141t-59 -140q-29 -30 -65.5 -44.5t-75.5 -14.5q-41 0 -80 17l-43 -41
q58 -32 123 -32q51 0 97.5 19t84.5 55q74 79 74 181.5t-74 180.5z" />
    <glyph glyph-name="scanner" unicode="&#x6c1;" arabic-form="medial" 
d="M560 396l-519 189l-24 -62l469 -171h-419q-28 0 -47.5 -19.5t-19.5 -47.5v-133q0 -28 19.5 -47t47.5 -20h467q28 1 47.5 20t19.5 47v183q0 22 -11 38.5t-30 22.5zM133 185h-66v67h66v-67zM534 185h-334v67h334v-67z" />
    <glyph glyph-name="subway" unicode="&#x6be;" arabic-form="isolated" 
d="M195 244q13 0 21.5 -8.5t8.5 -21.5t-9 -21t-21.5 -8t-21 8t-8.5 21t8.5 21.5t21.5 8.5zM150 425h301v-151h-301v151zM406 244q13 0 21.5 -8.5t8.5 -21.5t-8.5 -21t-21 -8t-21.5 8t-9 21t8.5 21.5t21.5 8.5zM481 217v208q-1 57 -53 74t-128 16q-70 1 -123.5 -16t-56.5 -74
v-208q1 -34 23 -56t56 -22l-34 -34v-12h51l45 46h84l46 -46h45v12l-34 34q34 1 56 22.5t23 55.5zM475 611q61 -24 93.5 -71.5t32.5 -110.5v-395h-601v395q0 63 32.5 110.5t93.5 71.5q41 15 86.5 20t88 5t88 -5t86.5 -20z" />
    <glyph glyph-name="timer-sand-empty" unicode="&#x6be;" arabic-form="final" 
d="M0 835v-300l200 -200l-200 -200v-300h601v300l-200 200l200 200v300h-601zM500 110v-176h-399v176l199 200zM300 360l-199 200v176h399v-176z" />
    <glyph glyph-name="transit-transfer" unicode="&#x6be;" arabic-form="initial" 
d="M436 237h165v-45h-165v-52l-75 74l75 77v-54zM526 110v52l75 -75l-75 -76v54h-165v45h165zM225.5 539q-25.5 0 -43 17t-17.5 42.5t17.5 43t43 17.5t42.5 -17.5t17 -43t-17 -42.5t-42.5 -17zM113 436l-54 -22v-101h-59v141l158 65q12 5 23 5q32 -2 50 -29l28 -47
q21 -34 55 -54t77 -21v-60q-49 0 -92 21t-72 57l-18 -91l62 -62v-227h-61v181l-65 61l-52 -242h-63z" />
    <glyph glyph-name="unity" unicode="&#x6be;" arabic-form="medial" 
d="M258 163h-89l-169 172l169 172h89l45 78l234 59l64 -232l-45 -77l45 -77l-64 -232l-234 59zM263 173l177 -49l-101 177h-205zM500 159l47 176l-47 176l-102 -176zM263 497l-129 -128h205l101 177z" />
    <glyph glyph-name="update" unicode="&#x6d2;" arabic-form="isolated" 
d="M601 398h-227l92 93q-72 69 -165 70t-165 -67q-69 -70 -69 -162t69 -164q72 -68 165 -68t165 68q68 67 68 164h67q0 -51 -22 -108.5t-65 -101.5q-92 -88 -213 -88t-214 88q-87 90 -87 209.5t87 210.5q92 87 211 87t212 -87l91 94v-238zM317 468v-141l117 -71l-24 -40
l-142 86v166h49z" />
    <glyph glyph-name="watch-vibrate" unicode="&#x6d2;" arabic-form="final" 
d="M75 209v251h51v-251h-51zM475 209v251h51v-251h-51zM551 410h50v-151h-50v151zM0 259v151h50v-151h-50zM450 336q0 -37 -15.5 -67.5t-41.5 -51.5l-19 -107h-149l-18 107q-26 21 -41.5 51.5t-15.5 66.5t15.5 66.5t41.5 51.5l18 107h149l19 -107q26 -21 41.5 -51.5
t15.5 -65.5zM188 336q1 -48 32.5 -80t79 -32t79.5 32t32 79t-32 79t-79.5 32t-79 -32t-32.5 -78z" />
    <glyph glyph-name="angular" unicode="&#x6d3;" arabic-form="isolated" 
d="M300 657l301 -107l-46 -397l-255 -140l-254 140l-46 397zM300 587l-187 -422h69l39 95h159l39 -95h68zM356 318h-109l53 132z" />
    <glyph glyph-name="dolby" unicode="&#x6d3;" arabic-form="final" 
d="M0 545v-420h601v420h-601zM120 184h-61v302h61q66 -4 108.5 -46.5t42.5 -104.5t-42.5 -104.5t-108.5 -46.5zM542 184h-61q-66 4 -108.5 46.5t-42.5 104.5t42.5 104.5t108.5 46.5h61v-302z" />
    <glyph glyph-name="flash-outline" unicode="&#x6ad;" arabic-form="isolated" 
d="M49 835h503l-177 -350h177l-352 -650v399h-151v601zM150 736v-401h150v-133l101 182h-189l177 352h-239z" />
    <glyph glyph-name="format-font" unicode="&#x6ad;" arabic-form="final" 
d="M468 468h100v-401h33v-33h-133v33h33v101h-133l-51 -101h51v-33h-135v33h35zM501 435l-117 -233h117v233zM67 636h166q30 0 48.5 -19t18.5 -49v-366h-100v166h-100v-166h-100v366q0 30 19 48.5t48 19.5zM100 568v-133h100v133h-100z" />
    <glyph glyph-name="format-page-break" unicode="&#x6ad;" arabic-form="initial" 
d="M133 368h67v-66h-67v66zM268 368h65v-66h-65v66zM534 168h-133v195l200 -200v-161h-601v300h67v-235h467v101zM0 668h601v-300h-67v235h-467v-235h-67v300z" />
    <glyph glyph-name="format-pilcrow" unicode="&#x6ad;" arabic-form="medial" 
d="M198 384q-85 3 -141.5 59.5t-56.5 142.5t56.5 142.5t141.5 59.5h403v-102h-101v-804h-99v804h-102v-804h-101v502z" />
    <glyph glyph-name="garage" unicode="&#x6c7;" arabic-form="isolated" 
d="M601 12h-85v388h-431v-388h-85v474l300 172l301 -172v-474zM129 357h343v-87h-343v87zM129 228h343v-87h-343v87zM472 99v-87h-343v87h343z" />
    <glyph glyph-name="garage-open" unicode="&#x6c7;" arabic-form="final" 
d="M601 12h-85v388h-431v-388h-85v474l300 172l301 -172v-474zM129 357h343v-87h-343v87z" />
    <glyph glyph-name="github-face" unicode="&#x6c6;" arabic-form="isolated" 
d="M553 455q5 10 9 43t-14 80q0 3 -31.5 -1t-98.5 -46q-57 13 -118 11q-60 2 -117 -11q-67 44 -98.5 47t-31.5 0q-18 -47 -13.5 -80.5t8.5 -42.5q-47 -49 -48 -126q1 -142 83.5 -191.5t216.5 -46.5q133 -3 216.5 46t84.5 192q-1 77 -48 126zM300 128q-96 -4 -159.5 17
t-64.5 109q0 44 38 78q31 25 79 22t107 -6q60 3 108 6t79 -22q37 -34 39 -78q-3 -86 -66 -108t-160 -18zM206 316q-18 0 -31.5 -19t-13.5 -47.5t13.5 -48t32 -19.5t31.5 19t13 48t-13 48t-32 19zM395.5 316q-19.5 0 -32.5 -19t-13 -48t13 -48t31.5 -19t32 19t13.5 48
t-12.5 48t-32 19z" />
    <glyph glyph-name="google-keep" unicode="&#x6c6;" arabic-form="final" 
d="M59 636h483q25 0 42 -17t17 -43v-402l-139 -140h-403q-25 0 -42 17t-17 43v482q0 26 17 42.5t42 17.5zM451 184v-97l98 97h-98zM240 125h121v29h30v151q28 20 43.5 51.5t16.5 68.5q-1 64 -44 107t-107 44q-63 -1 -106 -44t-44 -107q1 -37 16.5 -68.5t43.5 -51.5v-151h30
v-29zM361 184h-121v31h121v-31zM361 245h-121v29h121v-29zM300 545q51 -1 85 -35t35 -85q0 -34 -16 -61.5t-43 -42.5v-16h-121v16q-27 15 -43 42.5t-16 61.5q1 51 35 85t84 35z" />
    <glyph glyph-name="google-photos" unicode="&#x6c8;" arabic-form="isolated" 
d="M451 335v151l-151 150v-150h-150l-150 -151h150v-151l150 -150v150h151l150 151h-150zM327 308l-27 -78l-26 78l-79 27l79 27l26 80l27 -80l79 -27z" />
    <glyph glyph-name="heart-half-full" unicode="&#x6c8;" arabic-form="final" 
d="M436 550q-35 0 -63 -18.5t-43 -47.5v-316q98 86 154 152t58 126q-2 44 -30.5 74t-75.5 30zM436 611q71 -2 117.5 -48.5t47.5 -116.5q-1 -84 -70 -164t-186 -183l-45 -40l-44 40q-117 103 -186 183t-70 164q1 70 48 117q46 46 117 48q39 0 74.5 -17t60.5 -45
q26 28 61.5 45t74.5 17z" />
    <glyph glyph-name="heart-half" unicode="&#x677;" arabic-form="isolated" 
d="M600 605v-722l-54 -48l-80 72q-212 187 -337 332.5t-128 295.5q3 129 87 213t212 87q107 -3 200.5 -69.5t99.5 -160.5z" />
    <glyph glyph-name="heart-half-outline" unicode="&#x6cb;" arabic-form="isolated" 
d="M109 535q2 -110 104.5 -228.5t278.5 -273.5v572q-26 53 -77 87q-52 33 -115 33q-84 0 -136.5 -54.5t-54.5 -135.5zM600 605v-722l-54 -48l-80 72q-212 187 -337 332.5t-128 295.5q3 129 87 213t212 87q107 -3 200.5 -69.5t99.5 -160.5z" />
    <glyph glyph-name="hexagon-multiple" unicode="&#x6cb;" arabic-form="final" 
d="M227 646q9 0 13 -7l68 -124l3 -9l-3 -9l-68 -122q-5 -8 -13 -9h-141q-10 1 -14 9l-69 122l-3 9l3 9l69 124q4 7 14 7h141zM227 304q9 -1 13 -9l68 -122l3 -9l-3 -9l-68 -124q-5 -7 -13 -7h-141q-10 0 -14 7l-69 124l-3 9l3 9l69 122q4 8 14 9h141zM514 475q9 0 14 -8
l70 -123l3 -9l-3 -9l-70 -123q-5 -8 -14 -8h-140q-9 0 -13 8l-70 123l-3 9l3 9l70 123q4 8 13 8h140z" />
    <glyph glyph-name="hook" unicode="&#x6c5;" arabic-form="isolated" 
d="M601 614q0 -66 -38 -114t-101 -64v-332q-2 -98 -67 -163t-165 -67q-98 2 -163 67t-67 163v232l230 -232h-139q2 -59 41 -98t99 -39t99 39t39 98v332q-61 18 -99 66.5t-40 113.5q2 78 55.5 129t131 51t130 -52t54.5 -130zM417 521q38 2 64.5 28t26.5 65t-26.5 65t-65 26
t-66 -26t-27.5 -65t27.5 -65t66.5 -28z" />
    <glyph glyph-name="hook-off" unicode="&#x6c5;" arabic-form="final" 
d="M366 407v-46l68 -65v111q54 16 81.5 61.5t13 100t-60.5 82t-101 13.5t-82 -60.5t-14 -101.5q9 -36 35 -60.5t60 -34.5zM401 602q28 -1 46.5 -20t18.5 -47t-18.5 -47t-46.5 -19t-48 19t-20 47t20 47t48 20zM559 1l-130 129q-19 -68 -76 -103t-126 -19q-56 14 -91.5 58
t-35.5 101v168l166 -168h-100q1 -42 29.5 -70t71.5 -28t71 28t28 70v25l-366 368l42 42l559 -558z" />
    <glyph glyph-name="infinity" unicode="&#x6c9;" arabic-form="isolated" 
d="M466 470q57 -1 95.5 -39t39.5 -96q-1 -58 -39.5 -95.5t-95.5 -39.5q-57 1 -96 40l-70 61l-70 -62q-18 -19 -43 -29t-52 -10q-57 1 -95.5 39t-39.5 96q1 58 39.5 96t95.5 39q57 -1 96 -40l69 -61l71 62q18 19 43 29t52 10zM195 275l68 60l-67 59q-26 26 -61.5 25.5
t-60 -24t-24.5 -60.5t24.5 -60.5t60 -24t60.5 24.5zM406 395l-68 -60l67 -59q26 -26 61.5 -25.5t60 24t24.5 60.5t-24.5 60.5t-60 24t-60.5 -24.5z" />
    <glyph glyph-name="language-swift" unicode="&#x6c9;" arabic-form="final" 
d="M454 102q-55 -31 -124 -32.5t-142 30.5q-61 25 -109 66.5t-79 93.5q30 -25 69 -42q76 -35 147 -34.5t127 34.5q-76 59 -140 129t-113 133q-18 21 -34 46q185 -143 192.5 -151t-118.5 180q114 -111 196.5 -171.5t86.5 -61.5l12 -5q4 11 7 22q16 65 -0.5 134t-61.5 131
q104 -65 155.5 -166.5t27.5 -201.5q-1 -4 -1 -11q47 -68 48.5 -117.5t-8.5 -40.5q-29 51 -70 50.5t-68 -15.5z" />
    <glyph glyph-name="language-typescript" unicode="&#x6d0;" arabic-form="isolated" 
d="M0 636h601v-602h-601v602zM357 139q12 -24 38 -40.5t66.5 -16.5t66.5 20t26 58q0 34 -19.5 54.5t-55.5 34.5l-14 6q-17 8 -26 15t-9 19q2 22 26.5 24t37.5 -24l43 29q-27 47 -80 45q-38 -2 -59.5 -22t-21.5 -54t18 -52.5t49 -30.5l14 -7q18 -8 29.5 -15.5t11.5 -21
t-10 -21.5t-30 -8t-32.5 10t-21.5 25zM333 360h-166v-50h50v-243h59v243h57v50z" />
    <glyph glyph-name="laptop-off" unicode="&#x6d0;" arabic-form="final" 
d="M25 541l33 32l443 -444l-32 -32l-50 50h-419v50h100q-21 0 -35.5 15t-14.5 36v250q0 8 3 15zM100 248h219l-219 218v-218zM501 248v250h-305l-51 50h356q21 -1 35.5 -15t14.5 -35v-250q0 -21 -14.5 -36t-35.5 -15h100v-50h-55l-100 101h55z" />
    <glyph glyph-name="lightbulb-on" unicode="&#x6d0;" arabic-form="initial" 
d="M300 499q69 -2 116 -48.5t48 -115.5q0 -46 -22 -83t-60 -59v-49q0 -11 -7.5 -18.5t-19.5 -9.5h-109q-12 2 -19.5 9.5t-7.5 18.5v49q-38 22 -60 59t-22 83q1 69 48 115.5t115 48.5zM355 89v-26q-1 -12 -8.5 -19.5t-19.5 -9.5h-53q-12 2 -19.5 9.5t-8.5 19.5v26h109z
M519 362h82v-54h-82v54zM0 362h82v-54h-82v54zM327 636v-82h-53v82h53zM107 567l58 -58l-39 -38l-57 57zM436 509l58 58l38 -39l-57 -57z" />
    <glyph glyph-name="lightbulb-on-outline" unicode="&#x6d0;" arabic-form="medial" 
d="M519 362h82v-54h-82v54zM0 362h82v-54h-82v54zM327 636v-82h-53v82h53zM107 567l58 -58l-39 -38l-57 57zM436 509l58 58l38 -39l-57 -57zM300 499q69 -2 116 -48.5t48 -115.5q0 -46 -22 -83t-60 -59v-49q0 -11 -7.5 -18.5t-19.5 -9.5h-109q-12 2 -19.5 9.5t-7.5 18.5v49
q-38 22 -60 59t-22 83q1 69 48 115.5t115 48.5zM355 89v-26q-1 -12 -8.5 -19.5t-19.5 -9.5h-53q-12 2 -19.5 9.5t-8.5 19.5v26h109zM274 171h53v58q38 10 60 38.5t22 67.5q-1 46 -32 76.5t-76.5 30.5t-76.5 -30.5t-32 -76.5q0 -39 22 -67.5t60 -38.5v-58z" />
    <glyph glyph-name="lock-pattern" unicode="&#x649;" arabic-form="initial" 
d="M133 636q58 -2 96 -40t39 -94q-1 -49 -28.5 -83t-71.5 -47v-76q18 -4 34 -13l151 150q-17 31 -19 69q2 56 39.5 94t94.5 38t95 -38t38 -95t-38 -94.5t-94 -39.5q-38 2 -67 19l-152 -152q17 -30 18 -68q-1 -56 -39 -94t-95 -38t-94.5 38t-39.5 94q2 49 29 83.5t71 46.5v76
q-44 13 -71 47t-29 83q2 56 39.5 94t93.5 40zM469 301q56 -1 94 -39t38 -95t-38 -95t-95 -38t-94.5 38t-37.5 95t37.5 95t95.5 39zM469 234q-28 0 -47.5 -20t-19.5 -48t19.5 -47t47.5 -19t47 19t19 47t-19 48t-47 20z" />
    <glyph glyph-name="loop" unicode="&#x649;" arabic-form="medial" 
d="M210 289v-210h-210v61h107q-37 38 -57 88t-20 107q3 122 84 202.5t202 83.5q121 -3 201.5 -83.5t83.5 -202.5q-3 -122 -83.5 -202.5t-201.5 -83.5h-16v60h16q96 2 159.5 66t66.5 160q-3 96 -66.5 160t-159.5 65q-96 -1 -160 -65.5t-66 -159.5q0 -44 15.5 -83.5
t44.5 -69.5v107h60z" />
    <glyph glyph-name="magnify-minus-outline" unicode="&#xfbea;" arabic-form="isolated" 
d="M430 257h-28l-9 10q26 29 39.5 66t13.5 79q-2 95 -64.5 158.5t-158.5 65.5q-94 -2 -157.5 -65.5t-65.5 -158.5q2 -95 65.5 -158t157.5 -65q42 0 79.5 14t66.5 39l9 -9v-27l171 -172l52 52zM223 257q-66 2 -109 45t-43 109.5t43 110t109.5 43.5t110 -43.5t43.5 -110
t-44 -109.5t-110 -45zM137 429h172v-33h-172v33z" />
    <glyph glyph-name="magnify-plus-outline" unicode="&#xfbeb;" arabic-form="final" 
d="M430 257l171 -171l-52 -52l-171 172v27l-9 9q-29 -25 -66.5 -39t-79.5 -14q-94 2 -157.5 64.5t-65.5 158.5q2 95 65.5 158.5t157.5 65.5q95 -2 158 -65.5t65 -158.5q0 -42 -13.5 -79t-39.5 -66l9 -10h28zM223 257q66 2 110 45t44 109.5t-43.5 110t-110 43.5t-109.5 -43.5
t-43 -110t43 -109.5t109 -45zM309 396h-69v-70h-34v70h-69v33h69v70h34v-70h69v-33z" />
    <glyph glyph-name="mailbox" unicode="&#xfbec;" arabic-form="isolated" 
d="M542 485h-302v-180h-59v241h180v120h-241v-181h-61q-25 0 -42 -17.5t-17 -42.5v-362q0 -25 17 -42t42 -17h483q25 0 42 17t17 42v362q0 25 -17 42.5t-42 17.5z" />
    <glyph glyph-name="medical-bag" unicode="&#xfbed;" arabic-form="final" 
d="M240 605l-59 -60v-59h-90q-27 -2 -42.5 -19.5t-18.5 -41.5l-30 -300q-2 -24 12.5 -41.5t47.5 -18.5h481q33 1 47.5 18.5t12.5 41.5l-30 300q-3 24 -19 41.5t-42 19.5h-90v59l-59 60h-121zM240 545h121v-59h-121v59zM271 396h59v-91h90v-60h-90v-90h-59v90h-90v60h90v91z
" />
    <glyph glyph-name="message-settings" unicode="&#xfbee;" arabic-form="isolated" 
d="M542 666h-483q-25 0 -42 -17t-17 -42v-542l120 120h422q25 0 42 17.5t17 42.5v362q0 25 -17 42t-42 17zM271 4h59v61h-59v-61zM150 4h60v61h-60v-61zM391 4h60v61h-60v-61z" />
    <glyph glyph-name="message-settings-variant" unicode="&#xfbef;" arabic-form="final" 
d="M345 396q0 -20 -12.5 -33t-32 -13t-32 13t-12.5 32t12.5 32t32 13t32 -13t12.5 -31zM601 576v-361q0 -25 -17 -43t-42 -18h-422l-120 -120v542q0 26 17 42.5t42 17.5h483q25 0 42 -17t17 -43zM444 356l-32 25q0 7 0.5 14.5t-0.5 14.5l32 25q5 5 2 10l-31 53q-3 5 -9 2
l-38 -14q-11 9 -25 14l-6 39q-1 6 -7 6h-59q-7 0 -9 -6l-6 -39q-13 -5 -25 -14l-37 14q-6 3 -9 -2l-30 -53q-3 -6 2 -10l31 -25q-2 -14 0 -29l-31 -25q-5 -4 -2 -9l30 -53q3 -6 9 -5l37 16q12 -10 25 -16l6 -39q2 -5 9 -5h59q7 0 9 5l6 41q13 6 25 14l36 -16q7 -1 10 5
l30 53q3 5 -2 9z" />
    <glyph glyph-name="minus-box-outline" unicode="&#xfbf0;" arabic-form="isolated" 
d="M534 102v466h-467v-466h467zM534 636q28 0 47.5 -20t19.5 -48v-466q0 -28 -19.5 -48t-47.5 -20h-467q-28 0 -47.5 20t-19.5 48v466q0 30 19.5 48.5t47.5 19.5h467zM468 368v-66h-335v66h335z" />
    <glyph glyph-name="network" unicode="&#xfbf1;" arabic-form="final" 
d="M451 636q26 0 43 -17.5t17 -42.5v-301q0 -25 -17 -42t-43 -19h-121v-59h31q13 -1 21.5 -9.5t8.5 -21.5h210v-59h-210q0 -13 -8.5 -21.5t-21.5 -9.5h-121q-13 1 -21.5 9.5t-8.5 21.5h-210v59h210q0 13 8.5 21.5t21.5 9.5h31v59h-121q-26 2 -43 19t-17 42v301q0 25 17 42.5
t43 17.5h301z" />
    <glyph glyph-name="download-network" unicode="&#xfbf2;" arabic-form="isolated" 
d="M451 636q26 0 43 -17.5t17 -42.5v-301q0 -25 -17 -42t-43 -19h-121v-59h31q13 -1 21.5 -9.5t8.5 -21.5h210v-59h-210q0 -13 -8.5 -21.5t-21.5 -9.5h-121q-13 1 -21.5 9.5t-8.5 21.5h-210v59h210q0 13 8.5 21.5t21.5 9.5h31v59h-121q-26 2 -43 19t-17 42v301q0 25 17 42.5
t43 17.5h301zM300 290l136 136h-106v120h-59v-120h-106z" />
    <glyph glyph-name="help-network" unicode="&#xfbf3;" arabic-form="final" 
d="M451 636q26 0 43 -17.5t17 -42.5v-301q0 -25 -17 -42t-43 -19h-121v-59h31q13 -1 21.5 -9.5t8.5 -21.5h210v-59h-210q0 -13 -8.5 -21.5t-21.5 -9.5h-121q-13 1 -21.5 9.5t-8.5 21.5h-210v59h210q0 13 8.5 21.5t21.5 9.5h31v59h-121q-26 2 -43 19t-17 42v301q0 25 17 42.5
t43 17.5h301zM306 576q-39 0 -63 -18t-23 -53v-2h58q0 15 8.5 21.5t21 6.5t21 -8t8.5 -22t-7 -24.5t-18 -17.5q-24 -16 -32.5 -28t-8.5 -36h59q0 14 4.5 22.5t15.5 15.5q19 12 33 28t14 39q0 34 -24 55t-67 21zM271 365v-60h59v60h-59z" />
    <glyph glyph-name="upload-network" unicode="&#xfbf4;" arabic-form="isolated" 
d="M451 636q26 0 43 -17.5t17 -42.5v-301q0 -25 -17 -42t-43 -19h-121v-59h31q13 -1 21.5 -9.5t8.5 -21.5h210v-59h-210q0 -13 -8.5 -21.5t-21.5 -9.5h-121q-13 1 -21.5 9.5t-8.5 21.5h-210v59h210q0 13 8.5 21.5t21.5 9.5h31v59h-121q-26 2 -43 19t-17 42v301q0 25 17 42.5
t43 17.5h301zM300 561l-135 -135h106v-121h59v121h106z" />
    <glyph glyph-name="npm" unicode="&#xfbf5;" arabic-form="final" 
d="M33 419v-135h67v100h33v-100h34v135h-134zM200 419v-168h68v33h65v135h-133zM300 384v-65h-32v65h32zM368 419v-135h66v100h34v-100h33v100h33v-100h34v135h-200zM0 452h601v-201h-301v-33h-133v33h-167v201z" />
    <glyph glyph-name="nut" unicode="&#xfbf6;" arabic-form="isolated" 
d="M601 185q-2 -20 -17 -30l-265 -147q-8 -6 -19 -6t-18 6l-265 147q-16 9 -17 30v300q2 20 17 30l265 147q8 6 19 6t18 -6l265 -147q16 -9 17 -30v-300zM300 502q-70 -1 -117.5 -48.5t-49.5 -118.5q2 -71 49.5 -118.5t117.5 -48.5q71 1 118.5 48.5t49.5 118.5
q-2 71 -49.5 118.5t-118.5 48.5z" />
    <glyph glyph-name="octagram" unicode="&#xfbf7;" arabic-form="final" 
d="M0 210l52 125l-52 125l125 50l50 126l125 -52l126 52l50 -126l125 -50l-52 -125l52 -125l-125 -50l-50 -126l-126 52l-125 -52l-50 126z" />
    <glyph glyph-name="page-layout-body" unicode="&#xfbf8;" arabic-form="initial" 
d="M76 709h449q32 0 53 -21t23 -52v-602q-2 -31 -23 -52t-53 -21h-449q-32 0 -53 21t-23 52v602q2 31 23 52t53 21zM76 484v-298h449v298h-449z" />
    <glyph glyph-name="page-layout-footer" unicode="&#xfbf9;" arabic-form="isolated" 
d="M76 709h449q32 0 53 -21t23 -52v-602q-2 -31 -23 -52t-53 -21h-449q-32 0 -53 21t-23 52v602q2 31 23 52t53 21zM76 186v-152h449v152h-449z" />
    <glyph glyph-name="page-layout-header" unicode="&#xfbfa;" arabic-form="final" 
d="M76 709h449q32 0 53 -21t23 -52v-602q-2 -31 -23 -52t-53 -21h-449q-32 0 -53 21t-23 52v602q2 31 23 52t53 21zM76 636v-152h449v152h-449z" />
    <glyph glyph-name="page-layout-sidebar-left" unicode="&#xfbfb;" arabic-form="initial" 
d="M76 709h449q32 0 53 -21t23 -52v-602q-2 -31 -23 -52t-53 -21h-449q-32 0 -53 21t-23 52v602q2 31 23 52t53 21zM76 484v-298h149v298h-149z" />
    <glyph glyph-name="page-layout-sidebar-right" unicode="&#x6cc;" arabic-form="isolated" 
d="M76 709h449q32 0 53 -21t23 -52v-602q-2 -31 -23 -52t-53 -21h-449q-32 0 -53 21t-23 52v602q2 31 23 52t53 21zM376 484v-298h149v298h-149z" />
    <glyph glyph-name="pencil-circle" unicode="&#x6cc;" arabic-form="final" 
d="M300 636q-128 -3 -212.5 -87.5t-87.5 -213.5q3 -129 87.5 -213.5t212.5 -87.5q129 3 213.5 87.5t87.5 213.5q-3 129 -87.5 213.5t-213.5 87.5zM393.5 483q7.5 0 12.5 -4l38 -39q10 -13 0 -23l-31 -30l-60 61l29 31q4 4 11.5 4zM334 431l63 -62l-182 -182h-63v62z" />
    <glyph glyph-name="pentagon" unicode="&#x6cc;" arabic-form="initial" 
d="M300 621l-300 -220l114 -352h373l114 352z" />
    <glyph glyph-name="pentagon-outline" unicode="&#x6cc;" arabic-form="medial" 
d="M300 545l229 -164l-88 -269h-281l-88 269zM300 621l-300 -220l114 -352h370l117 352z" />
    <glyph glyph-name="pillar" unicode="&#xfc00;" arabic-form="isolated" 
d="M100 568h401q14 0 23.5 -9t9.5 -23.5t-9.5 -24t-23.5 -9.5h-401q-14 0 -23.5 9.5t-9.5 24t9.5 23.5t23.5 9zM601 668v-65h-601v65h601zM401 468h67v-466h-67v466zM133 468h67v-466h-67v466zM268 468h65v-466h-65v466z" />
    <glyph glyph-name="pistol" unicode="&#xfc01;" arabic-form="isolated" 
d="M166 525h435v-108h-28v-27h-163q-12 -1 -19.5 -8.5t-7.5 -19.5v-27q0 -22 -15.5 -37.5t-38.5 -16.5h-92q-16 0 -24 -15l-66 -133q-8 -14 -24 -15h-92q-9 -5 -27.5 20t54.5 143q9 8 27 54.5t-54 54.5v135h27l13 28h82zM357 335v27q-2 12 -9.5 19.5t-18.5 8.5h-27
q-3 -1 -10.5 -17t10.5 -38q-23 0 -38 16t-17 39q-11 -1 -18.5 -8.5t-7.5 -19.5v-27q0 -11 7.5 -18.5t18.5 -7.5h82q11 0 18.5 7.5t9.5 18.5z" />
    <glyph glyph-name="plus-box-outline" unicode="&#xfc02;" arabic-form="isolated" 
d="M534 102v466h-467v-466h467zM534 636q28 0 47.5 -20t19.5 -48v-466q0 -28 -19.5 -48t-47.5 -20h-467q-28 0 -47.5 20t-19.5 48v466q0 30 19.5 48.5t47.5 19.5h467zM268 502h65v-134h135v-66h-135v-134h-65v134h-135v66h135v134z" />
    <glyph glyph-name="plus-outline" unicode="&#xfc03;" arabic-form="isolated" 
d="M0 447h188v189h225v-189h188v-224h-188v-189h-225v189h-188v224zM264 298v-188h73v188h188v74h-188v188h-73v-188h-188v-74h188z" />
    <glyph glyph-name="prescription" unicode="&#xfc04;" arabic-form="isolated" 
d="M0 646v-380h76v153h77l205 -207l-136 -135l54 -53l135 135l137 -135l53 53l-137 135l137 138l-53 52l-137 -136l-151 153h7q48 0 80 32t32 81t-32 81t-80 33h-267zM76 570h191q16 0 26.5 -10.5t10.5 -27t-10.5 -27t-26.5 -12.5h-191v77z" />
    <glyph glyph-name="printer-settings" unicode="&#xfc05;" arabic-form="isolated" 
d="M481 666v-120h-361v120h361zM511 395q13 1 21 9.5t8 21.5t-8 21.5t-21 8.5t-21.5 -8.5t-8.5 -21.5t8.5 -21.5t21.5 -9.5zM420 185v151h-239v-151h239zM511 516q39 -1 64.5 -26.5t25.5 -63.5v-181h-120v-121h-361v121h-120v181q0 38 25.5 63.5t64.5 26.5h421zM391 4v61h60
v-61h-60zM271 4v61h59v-61h-59zM150 4v61h60v-61h-60z" />
    <glyph glyph-name="react" unicode="&#xfc06;" arabic-form="isolated" 
d="M300.5 387q22.5 0 37 -15t14.5 -36.5t-14.5 -36.5t-37 -15t-37 15t-14.5 36.5t14.5 36.5t37 15zM171 110q14 -8 40 4.5t61 44.5q-23 25 -42 52q-36 4 -67 11q-11 -46 -8.5 -75t16.5 -37zM190 272l-8 14q-5 -13 -8 -24l26 -5zM374 292l23 43l-23 42q-14 22 -26 40
q-23 2 -47.5 2t-47.5 -2q-13 -17 -26 -40l-23 -42l23 -43q14 -22 26 -40q23 -1 47.5 -1t47.5 1q12 18 26 40zM300 481l-16 -20h33q-8 10 -17 20zM300 189q9 9 17 20h-33q8 -11 16 -20zM430 559q-14 8 -40 -4t-61 -44q23 -25 42 -53q36 -4 67 -10q11 45 8.5 74t-16.5 37z
M411 398l8 -15q5 14 8 25l-26 4zM452 596q30 -18 35 -61t-8 -97q54 -16 88 -42t34 -61.5t-34 -61t-88 -42.5q14 -54 8.5 -96.5t-36.5 -59.5t-70 -1.5t-81 54.5q-41 -39 -80 -54.5t-70 1.5t-36 59.5t8 96.5q-54 17 -88 42.5t-34 61t34 61.5t88 42q-14 54 -8.5 96.5t36.5 60
t70 1.5t80 -55q42 40 81 55.5t71 -0.5zM442 335q14 -32 25 -63q45 13 68.5 30t23.5 32.5t-23.5 33t-68.5 30.5q-11 -32 -25 -63zM159 335q-14 31 -25 63q-45 -13 -68.5 -30.5t-23.5 -33t23.5 -32.5t68.5 -30q11 31 25 63zM411 272l-10 -15l26 5q-3 12 -8 24zM329 159
q35 -32 61 -44.5t40 -4.5t16.5 37t-8.5 75q-31 -7 -67 -11q-19 -27 -42 -52zM190 398l10 14l-26 -4q3 -12 8 -25zM272 511q-35 32 -61 44t-40 4t-16.5 -37t8.5 -74q31 6 67 10q19 28 42 53z" />
    <glyph glyph-name="restart" unicode="&#xfc07;" arabic-form="isolated" 
d="M301 574q58 0 113 -22t98 -66q89 -94 89 -213.5t-89 -211.5q-53 -53 -119 -74t-134 -12l21 74q48 -6 95.5 11t84.5 54q67 68 67 158.5t-67 160.5q-33 34 -74.5 49.5t-84.5 15.5v-172l-187 187l187 185v-124zM88 60q-74 77 -86 176.5t40 189.5l54 -57q-30 -63 -18 -132.5
t62 -122.5q30 -30 66 -46l-18 -74q-56 23 -100 66z" />
    <glyph glyph-name="rewind-outline" unicode="&#xfc08;" arabic-form="isolated" 
d="M223 408l-103 -73l103 -73v146zM532 408l-103 -73l103 -73v146zM292 541v-412l-292 206zM601 541v-412l-292 206z" />
    <glyph glyph-name="rhombus" unicode="&#xfc09;" arabic-form="isolated" 
d="M588 372l-249 249q-17 15 -37 15.5t-37 -15.5l-249 -249q-16 -17 -16 -37t16 -37l249 -249q17 -15 36.5 -15.5t37.5 15.5l249 249q13 17 13 37t-13 37z" />
    <glyph glyph-name="rhombus-outline" unicode="&#xfc0a;" arabic-form="isolated" 
d="M588 372l-249 249q-17 15 -37 15.5t-37 -15.5l-249 -249q-16 -17 -16 -37t16 -37l249 -249q17 -15 36.5 -15.5t37.5 15.5l249 249q13 17 13 37t-13 37zM552 335l-250 -250l-250 250l250 250z" />
    <glyph glyph-name="roomba" unicode="&#xfc0b;" arabic-form="isolated" 
d="M300.5 635.5q60.5 0.5 115 -22t98.5 -65.5l-43 -43q-35 34 -79 52.5t-91.5 18.5t-91.5 -18.5t-79 -52.5l-43 43q44 43 98.5 65t115 22.5zM49 500l44 -42q-32 -57 -34 -123q3 -103 70.5 -170.5t170.5 -70.5q104 3 171.5 70.5t70.5 170.5q-2 66 -34 123l44 42
q49 -75 49 -165q-3 -129 -87.5 -213.5t-213.5 -87.5q-128 3 -212.5 87.5t-87.5 213.5q0 90 49 165zM300 516q76 -2 128 -53.5t53 -127.5q0 -37 -13.5 -69.5t-39.5 -57.5l-43 42q-35 -35 -84.5 -35t-84.5 35l-43 -42q-26 25 -39.5 57.5t-13.5 69.5q1 76 53 127.5t127 53.5z
M300.5 455q-13.5 0 -21.5 -8.5t-8 -21.5t8 -21t21.5 -8t21.5 8t8 21t-8 21.5t-21.5 8.5z" />
    <glyph glyph-name="run" unicode="&#xfc0c;" arabic-form="isolated" 
d="M395.5 588q31.5 0 53 22t21.5 54t-21 52.5t-53 20.5t-53 -20.5t-21 -52.5t21 -54t52.5 -22zM261 69l37 164l79 -76v-224h75v281l-79 74l23 113q36 -42 90 -67.5t115 -25.5v74q-55 1 -95.5 26t-65.5 65l-37 59q-23 35 -63 37q-9 0 -15 -1.5t-15 -1.5l-194 -83v-175h75v128
l66 26l-59 -305l-184 39l-14 -75z" />
    <glyph glyph-name="search-web" unicode="&#xfc0d;" arabic-form="isolated" 
d="M430 257l171 -171l-52 -52l-171 172v27l-9 9q-29 -25 -66.5 -39t-79.5 -14q-94 2 -157.5 64.5t-65.5 158.5q2 95 65.5 158.5t157.5 65.5q95 -2 158 -65.5t65 -158.5q0 -42 -13.5 -79t-39.5 -66l9 -10h28zM223 584l-19 -1q-6 -13 -14 -35t-16 -49h98q-7 27 -15.5 49
t-14.5 35q-9 1 -19 1zM372 499q-32 54 -92 75q13 -27 28 -75h64zM74 499h66q13 48 26 75q-60 -21 -92 -75zM52 412q0 -25 7 -52h75l-5 52l5 51h-75q-7 -24 -7 -51zM387 360q8 26 8 52.5t-8 50.5h-73q3 -25 3 -51t-3 -52h73zM167 463l-5 -51l5 -52h112q5 26 5 52t-5 51h-112z
M223 241h19q6 14 14.5 36t15.5 49h-98q8 -27 16 -49t14 -36h19zM372 326h-64q-15 -48 -28 -76q60 22 92 76zM74 326q32 -54 92 -76q-13 28 -26 76h-66z" />
    <glyph glyph-name="shovel" unicode="&#xfc0e;" arabic-form="isolated" 
d="M387 634l-84 -84q-18 -18 -18.5 -42t18.5 -43l42 -41l-136 -139l-84 87l-44 -43q-100 -113 -76 -183t35 -72q1 -11 71 -34t183 77l43 42l-85 85l137 134l41 -40q18 -18 42.5 -18.5t42.5 18.5l86 84zM473 381l-43 41l-85 86l44 42l126 -126z" />
    <glyph glyph-name="shovel-off" unicode="&#xfc0f;" arabic-form="isolated" 
d="M387 634l-84 -84q-18 -18 -18.5 -42t18.5 -43l42 -43l-21 -21l44 -44l22 22l40 -41q18 -18 43 -18.5t44 18.5l84 85zM473 381l-128 127l42 42l128 -127zM556 82l-42 -42l-235 233l-29 -29l84 -85l-39 -42q-114 -100 -184 -76.5t-71 33.5q-12 2 -35.5 71.5t76.5 183.5
l44 43l84 -87l29 31l-233 233l42 41z" />
    <glyph glyph-name="signal-2g" unicode="&#xfc10;" arabic-form="isolated" 
d="M271 109h-271v180q0 39 25.5 64.5t64.5 27.5h91v89h-181v91h181q38 -1 63 -27t27 -64v-89q-2 -39 -27 -64.5t-63 -27.5h-91v-89h181v-91zM601 381h-135v-92h45v-89h-91v270h181v91h-181q-38 -1 -63 -27t-27 -64v-270q2 -38 27 -64t63 -27h91q39 1 65 27q25 26 25 64v181z
" />
    <glyph glyph-name="signal-3g" unicode="&#xfc11;" arabic-form="isolated" 
d="M271 200v67q-2 30 -21 49t-47 19q28 1 47 20.5t21 47.5v67q-2 38 -27 64t-63 27h-181v-91h181v-89h-91v-92h91v-89h-181v-91h181q38 1 63 27t27 64zM601 200v181h-135v-92h45v-89h-91v270h181v91h-181q-38 -1 -63 -27t-27 -64v-270q2 -38 27 -64t63 -27h91q39 1 64.5 27
t25.5 64z" />
    <glyph glyph-name="signal-4g" unicode="&#xfc12;" arabic-form="isolated" 
d="M601 200v181h-135v-92h45v-89h-91v270h181v91h-181q-38 -1 -63 -27t-27 -64v-270q2 -38 27 -64t63 -27h91q39 1 64.5 27t25.5 64zM181 109h90v452h-90v-180h-91v180h-90v-272h181v-180z" />
    <glyph glyph-name="signal-hspa" unicode="&#xfc13;" arabic-form="isolated" 
d="M201 436h199v399h201v-1000h-201v399h-199v-399h-201v1000h201v-399z" />
    <glyph glyph-name="signal-hspa-plus" unicode="&#xfc14;" arabic-form="isolated" 
d="M511 455v-90h90v-91h-90v-90h-91v90h-90v91h90v90h91zM90 381h91v180h90v-452h-90v180h-91v-180h-90v452h90v-180z" />
    <glyph glyph-name="snowflake" unicode="&#xfc15;" arabic-form="isolated" 
d="M584 271l-75 -19l-65 36v94l65 36l75 -19l17 61l-58 16l15 57l-63 17l-19 -76l-64 -36l-81 46v73l56 54l-45 46l-42 -41l-43 41l-45 -46l56 -54v-73l-81 -46l-65 36l-19 76l-62 -17l16 -57l-57 -16l17 -61l74 19l65 -36v-94l-65 -36l-74 19l-17 -61l57 -16l-16 -57
l64 -17l19 76l63 36l81 -46v-73l-56 -54l45 -46l43 41l42 -41l45 46l-56 54v73l82 46l64 -36l21 -74l60 15l-15 57l56 16zM219 382l81 47l80 -47v-94l-80 -47l-81 47v94z" />
    <glyph glyph-name="source-commit" unicode="&#xfc16;" arabic-form="isolated" 
d="M578 335q-3 -101 -64.5 -175t-159.5 -98v-227h-110v227q-98 24 -159.5 98t-61.5 175t61.5 175t159.5 98v227h110v-227q99 -24 160 -98t64 -175zM299 502q-71 -3 -117.5 -49.5t-46.5 -117.5t46.5 -117.5t117.5 -46.5t117.5 46.5t46.5 117.5t-46.5 117.5t-117.5 49.5z" />
    <glyph glyph-name="source-commit-end" unicode="&#xfc17;" arabic-form="isolated" 
d="M601 216q-3 -127 -88.5 -212.5t-212.5 -88.5q-126 3 -211.5 88.5t-88.5 212.5q3 109 69 189t173 105v245h117v-245q107 -25 173 -105t69 -189zM300 395q-76 -2 -126 -52.5t-50 -127t50 -126.5t126.5 -50t126.5 50t50 126.5t-50 127t-127 52.5z" />
    <glyph glyph-name="source-commit-end-local" unicode="&#xfc18;" arabic-form="isolated" 
d="M300 516q127 -3 212.5 -88.5t88.5 -211.5q-3 -127 -88.5 -212.5t-212.5 -88.5q-126 3 -211.5 88.5t-88.5 212.5q3 126 88.5 211.5t211.5 88.5zM300 395q-76 -2 -126 -52.5t-50 -127t50 -126.5t126.5 -50t126.5 50t50 126.5t-50 127t-127 52.5zM242 634v121h117v-121h-117
z" />
    <glyph glyph-name="source-commit-local" unicode="&#xfc19;" arabic-form="isolated" 
d="M300 614q118 -3 197.5 -82.5t81.5 -196.5q-3 -117 -82 -196.5t-197 -82.5q-117 3 -196 82.5t-82 196.5q2 117 81.5 196.5t196.5 82.5zM300 502q-70 -3 -116.5 -49.5t-47 -117.5t46.5 -117.5t117.5 -46.5t117.5 46.5t46.5 117.5t-47 117.5t-117.5 49.5zM246 723v112h109
v-112h-109zM246 -165v112h109v-112h-109z" />
    <glyph glyph-name="source-commit-next-local" unicode="&#xfc1a;" arabic-form="isolated" 
d="M579 335q-3 -117 -82 -196.5t-197 -82.5q-117 3 -196 82.5t-82 196.5q2 101 63.5 175t160.5 98v227h109v-227q99 -24 160.5 -98t63.5 -175zM300 502q-70 -3 -116.5 -49.5t-47 -117.5t46.5 -117.5t117.5 -46.5t117.5 46.5t46.5 117.5t-47 117.5t-117.5 49.5zM246 -165v112
h109v-112h-109z" />
    <glyph glyph-name="source-commit-start" unicode="&#xfc1b;" arabic-form="isolated" 
d="M300 755q127 -3 212.5 -88.5t88.5 -212.5q-3 -109 -69 -189t-173 -105v-245h-117v245q-107 25 -173 105t-69 189q3 127 88.5 212.5t211.5 88.5zM300 634q-76 -3 -126 -53t-50 -126.5t50 -127t126.5 -50.5t126.5 50.5t50 127t-50 126.5t-127 53z" />
    <glyph glyph-name="source-commit-start-next-local" unicode="&#xfc1c;" arabic-form="isolated" 
d="M300 755q127 -3 212.5 -88.5t88.5 -212.5q-3 -126 -88.5 -211.5t-212.5 -88.5q-126 3 -211.5 88.5t-88.5 211.5q3 127 88.5 212.5t211.5 88.5zM300 634q-76 -3 -126 -53t-50 -126.5t50 -127t126.5 -50.5t126.5 50.5t50 127t-50 126.5t-127 53zM242 -85v121h117v-121h-117
z" />
    <glyph glyph-name="speaker-wireless" unicode="&#xfc1d;" arabic-form="isolated" 
d="M518 132l-41 41q32 32 50 73t18 89t-18 89t-50 73l41 41q39 -39 61 -91.5t22 -111.5t-22 -111.5t-61 -91.5zM437 214l-40 40q32 33 32 81t-32 81l40 40q23 -23 36.5 -54t13.5 -67t-13.5 -67t-36.5 -54zM56 593h230q24 0 40.5 -17t17.5 -41v-400q-1 -24 -17.5 -41
t-40.5 -17h-230q-24 0 -40 17t-16 41v400q0 24 16 41t40 17zM172 535q-24 0 -41 -16t-17 -40t17 -41t41 -17t40.5 17t16.5 41t-16.5 40t-40.5 16zM172 363q-49 -1 -81.5 -33.5t-32.5 -80.5t32.5 -80.5t81 -32.5t81 32.5t32.5 80.5t-32.5 80.5t-80.5 33.5zM172 307
q24 -2 40.5 -18t16.5 -40t-16.5 -40.5t-40.5 -16.5t-41 16.5t-17 40.5t17 40t41 18z" />
    <glyph glyph-name="stadium" unicode="&#xfc1e;" arabic-form="isolated" 
d="M90 606h60l90 -61l-90 -59v-41q67 10 150.5 10t150.5 -10v161h60l90 -61l-90 -59v-52q42 -10 66 -24t24 -29q-3 -33 -88 -54.5t-212.5 -21.5t-212.5 22t-88 54q0 15 24 29t66 24v172zM300 410q-75 2 -112.5 -4.5t-37.5 -25t37.5 -25t113 -6.5t113 6.5t37.5 25t-37.5 25
t-113.5 4.5zM300 252q86 1 159.5 14.5t124.5 37.5l-42 -240h-151v61q0 25 -18 42t-43 17h-59q-25 0 -43 -17t-18 -42v-61h-151l-42 240q50 -24 124 -37.5t159 -14.5z" />
    <glyph glyph-name="svg" unicode="&#xfc1f;" arabic-form="isolated" 
d="M93 375h113l-79 78q-24 0 -39.5 16.5t-15.5 39.5t15.5 38.5t39 15.5t39.5 -15.5t16 -39.5l79 -78v112q-15 17 -15 39t16 38t38.5 16.5t38.5 -16t16 -38t-15 -39.5v-112l79 78q1 24 16.5 39.5t39 15.5t39 -15.5t15.5 -38.5t-15.5 -39.5t-39.5 -16.5l-79 -78h113
q16 15 38 15t38.5 -16.5t16.5 -38.5t-16.5 -38.5t-38 -16.5t-38.5 15h-113l79 -78q24 -2 39.5 -17.5t15.5 -38.5t-15.5 -38.5t-39 -15.5t-39 15.5t-16.5 39.5l-79 78v-112q15 -17 15 -39t-16 -38.5t-38.5 -16.5t-38.5 16.5t-16 38t15 39.5v112l-79 -78q0 -24 -16 -39.5
t-39.5 -15.5t-39 15.5t-15.5 38.5t15.5 38.5t39.5 17.5l79 78h-113q-16 -15 -38 -15t-38.5 16.5t-16.5 38.5t16.5 38.5t38.5 16.5t38 -15z" />
    <glyph glyph-name="tag-plus" unicode="&#xfc20;" arabic-form="isolated" 
d="M584 348l-270 271q-19 17 -43 17h-212q-25 0 -42 -17t-17 -43v-211q0 -24 17 -43l13 -11q41 24 90 24q76 -1 127.5 -53t52.5 -128q0 -47 -23 -90l10 -13q19 -17 43.5 -17t42.5 17l211 212q17 16 17 41.5t-17 43.5zM105 486q-18 0 -31 12.5t-13 32t12.5 32t31.5 12.5
t32 -12.5t13 -32t-13 -32t-32 -12.5zM240 125h-90v-91h-60v91h-90v59h90v90h60v-90h90v-59z" />
    <glyph glyph-name="tag-remove" unicode="&#xfc21;" arabic-form="isolated" 
d="M584 348l-270 271q-19 17 -43 17h-212q-25 0 -42 -17t-17 -43v-211q0 -24 17 -43l13 -11q41 24 90 24q76 -1 127.5 -53t52.5 -128q0 -47 -23 -90l10 -13q19 -17 43.5 -17t42.5 17l211 212q17 16 17 41.5t-17 43.5zM105 486q-18 0 -31 12.5t-13 32t12.5 32t31.5 12.5
t32 -12.5t13 -32t-13 -32t-32 -12.5zM183 48l-63 64l-64 -64l-43 43l64 63l-64 64l43 42l64 -63l63 63l42 -42l-62 -64l62 -63z" />
    <glyph glyph-name="ticket-percent" unicode="&#xfc22;" arabic-form="isolated" 
d="M59 576q-25 -1 -42 -18t-17 -42v-120q25 -2 42 -19t17 -42t-17 -42t-42 -19v-120q0 -25 17 -42t42 -18h483q25 1 42 18t17 42v120q-25 2 -42 19t-17 42t17 42t42 19v120q0 25 -17 42t-42 18h-483zM406 486l45 -46l-256 -256l-45 46zM204 485q23 -2 37.5 -17t14.5 -37
t-14.5 -37t-37 -15t-37.5 15t-15 37t15 37t37 17zM397 292q22 -1 37 -16t15 -37t-15 -37t-37.5 -15t-37 15t-14.5 37t14.5 37t37.5 16z" />
    <glyph glyph-name="tilde" unicode="&#xfc23;" arabic-form="isolated" 
d="M1 245q-6 12 22 90t158 90q84 -7 123.5 -53t101.5 -52q85 7 104 52.5t15 52.5h75q6 -12 -22 -90t-158 -90q-87 7 -135 53t-90 52q-85 -7 -104 -52.5t-15 -52.5h-75z" />
    <glyph glyph-name="treasure-chest" unicode="&#xfc24;" arabic-form="isolated" 
d="M90 576h421q39 -1 64.5 -26.5t25.5 -63.5v-121h-210v31h-181v-31h-210v121q0 38 25.5 63.5t64.5 26.5zM271 365h59v-60h-59v60zM0 335h210v-30l61 -60h59l61 60v30h210v-241h-601v241z" />
    <glyph glyph-name="truck-trailer" unicode="&#xfc25;" arabic-form="isolated" 
d="M601 244v-61h-361q0 -38 -25.5 -63.5t-64.5 -25.5t-64 25.5t-27 63.5h-59v332q0 25 17 42t42 19h392q26 -2 43 -19t17 -42v-271h90zM150 214q-13 -1 -21.5 -9.5t-8.5 -21.5t8.5 -21t21.5 -8t21 8t8 21t-8 21.5t-21 9.5z" />
    <glyph glyph-name="view-parallel" unicode="&#xfc26;" arabic-form="isolated" 
d="M0 -2v674h151v-674h-151zM225 -2v674h151v-674h-151zM450 -2v674h151v-674h-151z" />
    <glyph glyph-name="view-sequential" unicode="&#xfc27;" arabic-form="isolated" 
d="M0 603h601v-135h-601v135zM0 402h601v-134h-601v134zM0 202h601v-135h-601v135z" />
    <glyph glyph-name="washing-machine" unicode="&#xfc28;" arabic-form="isolated" 
d="M406 366q44 -47 44 -106.5t-45 -104.5t-104.5 -45t-105.5 44zM76 709h449q32 0 53 -21t23 -52v-602q-2 -31 -23 -52t-53 -21h-449q-32 0 -53 21t-23 52v602q2 31 23 52t53 21zM112 636q-16 -2 -26 -12.5t-10 -26.5t10 -26.5t26.5 -10.5t26.5 10.5t10 26.5t-10 26.5
t-27 12.5zM225 636q-16 -2 -26.5 -12.5t-10.5 -26.5t10.5 -26.5t26.5 -10.5t26.5 10.5t10.5 26.5t-10.5 26.5t-26.5 12.5zM300 484q-94 -1 -158.5 -64.5t-65.5 -160.5q1 -94 65.5 -157.5t158.5 -67.5q95 4 159.5 67.5t65.5 157.5q-1 97 -65.5 160.5t-159.5 64.5z" />
    <glyph glyph-name="webpack" unicode="&#xfc29;" arabic-form="isolated" 
d="M601 185q-2 -20 -17 -30l-265 -147q-8 -6 -19 -6t-18 6l-265 147q-16 9 -17 30v300q2 20 17 30l265 147q8 6 19 6t18 -6l265 -147q16 -9 17 -30v-300zM300 596l-233 -131v-260l233 -131l234 131v260zM300 527l165 -93l-165 -96l-164 96zM468 238l-135 -77v120l135 77
v-120zM268 161l-135 77v120l135 -77v-120z" />
    <glyph glyph-name="widgets" unicode="&#xfc2a;" arabic-form="isolated" 
d="M0 594h249v-135l175 177l177 -177l-177 -175h136v-250h-249v250h113l-175 175v-114h-249v249zM0 284h249v-250h-249v250z" />
    <glyph glyph-name="wiiu" unicode="&#xfc2b;" arabic-form="isolated" 
d="M0 217q0 -51 31 -79.5t83 -28.5h384q44 0 73.5 26.5t29.5 69.5v281q0 27 -16.5 49t-39.5 23h-89v-232q-20 -133 -154 -132.5t-152 128.5v239h-68q-34 0 -58 -19t-24 -52v-273zM220 357q10 -99 80.5 -96.5t80.5 75.5v225h-161v-204z" />
    <glyph glyph-name="arrow-down-bold" unicode="&#xfc2c;" arabic-form="isolated" 
d="M185 639h231v-308h185l-301 -300l-300 300h185v308z" />
    <glyph glyph-name="arrow-down-bold-box" unicode="&#xfc2d;" arabic-form="isolated" 
d="M67 636h467q28 0 47.5 -20t19.5 -48v-466q0 -28 -19.5 -48t-47.5 -20h-467q-28 0 -47.5 20t-19.5 48v466q0 28 19.5 48t47.5 20zM300 168l168 167h-100v133h-135v-133h-100z" />
    <glyph glyph-name="arrow-down-bold-box-outline" unicode="&#xfc2e;" arabic-form="isolated" 
d="M300 168l-167 167h100v133h135v-133h100zM67 636h467q28 0 47.5 -20t19.5 -48v-466q0 -28 -19.5 -48t-47.5 -20h-467q-28 0 -47.5 20t-19.5 48v466q0 28 19.5 48t47.5 20zM67 568v-466h467v466h-467z" />
    <glyph glyph-name="arrow-left-bold" unicode="&#xfc2f;" arabic-form="isolated" 
d="M601 449v-228h-304v-183l-297 297l297 297v-183h304z" />
    <glyph glyph-name="arrow-left-bold-box" unicode="&#xfc30;" arabic-form="isolated" 
d="M601 568v-466q0 -28 -19.5 -48t-47.5 -20h-467q-28 0 -47.5 20t-19.5 48v466q0 28 19.5 48t47.5 20h467q28 0 47.5 -20t19.5 -48zM133 335l167 -167v100h134v134h-134v100z" />
    <glyph glyph-name="arrow-left-bold-box-outline" unicode="&#xfc31;" arabic-form="isolated" 
d="M133 335l167 167v-100h134v-134h-134v-100zM601 568v-466q0 -28 -19.5 -48t-47.5 -20h-467q-28 0 -47.5 20t-19.5 48v466q0 28 19.5 48t47.5 20h467q28 0 47.5 -20t19.5 -48zM534 568h-467v-466h467v466z" />
    <glyph glyph-name="arrow-right-bold" unicode="&#xfc32;" arabic-form="isolated" 
d="M0 221v228h304v183l297 -297l-297 -297v183h-304z" />
    <glyph glyph-name="arrow-right-bold-box" unicode="&#xfc33;" arabic-form="isolated" 
d="M0 102v466q0 28 19.5 48t47.5 20h467q28 0 47.5 -20t19.5 -48v-466q0 -28 -19.5 -48t-47.5 -20h-467q-28 0 -47.5 20t-19.5 48zM468 335l-168 167v-100h-133v-134h133v-100z" />
    <glyph glyph-name="arrow-right-bold-box-outline" unicode="&#xfc34;" arabic-form="isolated" 
d="M468 335l-168 -167v100h-133v134h133v100zM0 102v466q0 28 19.5 48t47.5 20h467q28 0 47.5 -20t19.5 -48v-466q0 -28 -19.5 -48t-47.5 -20h-467q-28 0 -47.5 20t-19.5 48zM67 102h467v466h-467v-466z" />
    <glyph glyph-name="arrow-up-bold" unicode="&#xfc35;" arabic-form="isolated" 
d="M416 31h-231v308h-185l300 300l301 -300h-185v-308z" />
    <glyph glyph-name="arrow-up-bold-box" unicode="&#xfc36;" arabic-form="isolated" 
d="M534 34h-467q-28 0 -47.5 20t-19.5 48v466q0 28 19.5 48t47.5 20h467q28 0 47.5 -20t19.5 -48v-466q0 -28 -19.5 -48t-47.5 -20zM300 502l-167 -167h100v-133h135v133h100z" />
    <glyph glyph-name="arrow-up-bold-box-outline" unicode="&#xfc37;" arabic-form="isolated" 
d="M300 502l168 -167h-100v-133h-135v133h-100zM534 34h-467q-28 0 -47.5 20t-19.5 48v466q0 28 19.5 48t47.5 20h467q28 0 47.5 -20t19.5 -48v-466q0 -28 -19.5 -48t-47.5 -20zM534 102v466h-467v-466h467z" />
    <glyph glyph-name="cancel" unicode="&#xfc38;" arabic-form="isolated" 
d="M300 636q129 -3 213.5 -87.5t87.5 -213.5q-3 -129 -87.5 -213.5t-213.5 -87.5q-128 3 -212.5 87.5t-87.5 213.5q3 129 87.5 213.5t212.5 87.5zM300 576q-103 -3 -170.5 -70.5t-70.5 -170.5q0 -43 13.5 -80t37.5 -68l339 339q-31 24 -68.5 37t-80.5 13zM300 94
q104 3 171.5 70.5t70.5 170.5q0 43 -13.5 80t-37.5 68l-339 -339q31 -24 68.5 -37t79.5 -13z" />
    <glyph glyph-name="file-account" unicode="&#xfc39;" arabic-form="isolated" 
d="M337 447h207l-207 206v-206zM76 709h300l225 -225v-450q-2 -31 -23 -52t-53 -21h-449q-32 0 -53 21t-23 52v602q2 31 23 52t53 21zM376 34v39q-5 37 -57 55.5t-94 18.5t-93 -18.5t-56 -55.5v-39h300zM224.5 335q-31.5 0 -52.5 -22t-21 -53.5t21 -52.5t52.5 -21t53.5 21
t22 52.5t-22 53.5t-53.5 22z" />
    <glyph glyph-name="gesture-double-tap" unicode="&#xfc3a;" arabic-form="isolated" 
d="M214 507q2 19 14 31t30.5 12t30 -12t11.5 -31v-192l53 -5l212 -95q36 -18 36 -59v-187q0 -25 -18 -44t-46 -21h-279q-26 0 -44 21l-210 179l32 35q13 12 30 11h10l138 -72v429zM258 679q72 -2 121 -50.5t51 -121.5q0 -48 -23.5 -87.5t-63.5 -61.5v52q42 39 44 97
q-2 55 -38 91t-92 36t-92 -36t-36 -91q2 -58 42 -97v-52q-38 21 -61 61t-25 88q2 73 50.5 121.5t122.5 50.5zM258 766q109 -2 181.5 -76t76.5 -183q-2 -54 -22 -102t-58 -83l-43 18q37 30 58 73.5t21 93.5q-2 91 -62.5 152.5t-151.5 63.5q-93 -2 -153.5 -63.5t-62.5 -152.5
q0 -66 35.5 -118.5t93.5 -78.5v-46q-76 28 -123.5 93.5t-47.5 149.5q2 109 75 183t183 76z" />
    <glyph glyph-name="gesture-swipe-down" unicode="&#xfc3b;" arabic-form="isolated" 
d="M300 469q2 14 11.5 23.5t23.5 9.5t23.5 -9.5t9.5 -23.5v-149l41 -4l164 -74q28 -14 28 -46v-145q0 -20 -14 -34.5t-36 -15.5h-216q-20 0 -35 16l-162 139l25 27q9 9 23 9h8l106 -57v334zM0 469l100 -100l100 100h-65v200h-68v-200h-67z" />
    <glyph glyph-name="gesture-swipe-left" unicode="&#xfc3c;" arabic-form="isolated" 
d="M263 448q1 16 11.5 26.5t27 10.5t26.5 -10.5t10 -26.5v-168l46 -5l185 -83q32 -16 32 -51v-163q0 -23 -16 -39t-40 -18h-244q-22 0 -38 18l-184 156l28 31q11 10 27 10h9l120 -64v376zM0 636l113 -112v74h225v75h-225v76z" />
    <glyph glyph-name="gesture-swipe-right" unicode="&#xfc3d;" arabic-form="isolated" 
d="M263 448q1 16 11.5 26.5t27 10.5t26.5 -10.5t10 -26.5v-168l46 -5l185 -83q32 -16 32 -51v-163q0 -23 -16 -39t-40 -18h-244q-22 0 -38 18l-184 156l28 31q11 10 27 10h9l120 -64v376zM338 636l-112 113v-76h-226v-75h226v-74z" />
    <glyph glyph-name="gesture-swipe-up" unicode="&#xfc3e;" arabic-form="isolated" 
d="M300 469q2 14 11.5 23.5t23.5 9.5t23.5 -9.5t9.5 -23.5v-149l41 -4l164 -74q28 -14 28 -46v-145q0 -20 -14 -34.5t-36 -15.5h-216q-20 0 -35 16l-162 139l25 27q9 9 23 9h8l106 -57v334zM200 569l-100 100l-100 -100h67v-200h68v200h65z" />
    <glyph glyph-name="gesture-tap" unicode="&#xfc3f;" arabic-form="isolated" 
d="M211 552q2 19 14 31t31 12t30.5 -12t11.5 -31v-193l53 -5l214 -96q36 -19 36 -59v-188q0 -26 -18 -45t-46 -21h-281q-26 0 -45 21l-211 180l32 35q13 13 30 12h11l138 -73v432zM256 725q73 -2 121.5 -51t50.5 -122q0 -49 -23 -88.5t-64 -61.5v53q43 38 45 97
q-2 55 -38.5 91.5t-92.5 36.5t-92.5 -36.5t-36.5 -91.5q2 -59 42 -97v-53q-38 21 -61.5 61t-25.5 89q2 73 51 122t124 51z" />
    <glyph glyph-name="gesture-two-double-tap" unicode="&#xfc40;" arabic-form="isolated" 
d="M601 200v-274q0 -26 -18 -44.5t-46 -20.5h-279q-26 0 -44 21l-210 178l32 35q13 13 30 12h10l138 -73v430q2 19 14 30.5t30.5 11.5t30 -11.5t11.5 -30.5v87q0 18 12 30t30.5 12t30.5 -12t14 -30v-216l178 -78q16 -9 26 -24t10 -33zM343 722q74 -2 122.5 -50.5
t50.5 -120.5q-2 -51 -25 -89t-61 -61v53q40 36 42 97q0 55 -36 91t-93 38q-45 -2 -78 -27.5t-45 -65.5q-40 -12 -65.5 -45.5t-25.5 -77.5q2 -59 42 -97v-53q-38 22 -61 62t-23 90.5t27 91.5t72 63q22 44 63 72.5t94 28.5zM343 809q110 -4 183 -77t75 -181q0 -68 -30.5 -124
t-82.5 -90l-46 22q53 26 85 76.5t32 115.5q-2 91 -62.5 151.5t-153.5 62.5q-61 0 -110 -30.5t-78 -80.5q-53 -28 -83 -77.5t-30 -112.5q0 -66 35.5 -118.5t93.5 -78.5v-47q-76 28 -123.5 93.5t-47.5 150.5q0 70 33 128t90 92q34 57 92 90t128 35z" />
    <glyph glyph-name="gesture-two-tap" unicode="&#xfc41;" arabic-form="isolated" 
d="M601 242v-275q0 -26 -18 -45t-46 -21h-281q-26 0 -45 21l-211 180l32 35q13 13 30 12h11l138 -73v433q2 18 14 30t31 12t30.5 -12t11.5 -30v87q0 19 12 31t31 12t31 -12t14 -31v-217l179 -79q16 -9 26 -24t10 -34zM428 445v53q15 15 24 31q19 29 19 67q0 55 -36.5 91.5
t-90.5 36.5t-90 -34l-7 -7q-10 -8 -15.5 -18t-10.5 -22l-4 -11q-40 -12 -65.5 -45.5t-25.5 -79t26 -77.5q8 -11 16 -19v-53q-38 22 -61.5 62t-23.5 91t27.5 92.5t72.5 63.5q22 44 63.5 73t94.5 29q75 -2 124 -51t51 -122q-2 -51 -25.5 -89.5t-62.5 -61.5z" />
    <glyph glyph-name="humble-bundle" unicode="&#xfc42;" arabic-form="isolated" 
d="M449 150q-54 31 -9.5 241.5t54.5 241.5h-88q-1 -5 -20 -74t-39 -166h-75q3 40 2 77q-9 148 -70.5 157t-107.5 -36q-41 -35 -68 -90t-28 -105h40q0 7 24.5 61t87.5 63q52 -31 8.5 -241.5t-55.5 -241.5h89q2 5 25.5 84t41.5 190h72q-6 -58 -4 -117q8 -146 69.5 -152
t107.5 37q43 39 69 98t26 97h-41q1 -10 -24 -62.5t-87 -61.5z" />
    <glyph glyph-name="kickstarter" unicode="&#xfc43;" arabic-form="isolated" 
d="M231 447l128 189q37 53 96 53q49 0 83 -34t34 -80q0 -35 -18 -61l-116 -171l141 -182q22 -27 22 -62q0 -50 -34 -84t-82 -34q-52 0 -80 35l-174 218v-120q0 -52 -19 -81q-33 -52 -96 -52q-56 0 -86 36.5t-30 94.5v448q0 56 30 92.5t83.5 36.5t88.5 -36q19 -22 25 -45
q4 -13 4 -48v-113z" />
    <glyph glyph-name="netflix" unicode="&#xfc44;" arabic-form="isolated" 
d="M25 835h201l148 -441l1 441h201v-1000q-94 17 -205 22l-145 429l-2 -432q-109 -5 -199 -19v1000z" />
    <glyph glyph-name="onenote" unicode="&#xfc45;" arabic-form="isolated" 
d="M0 553l362 51v-58h209q13 0 21.5 -8t8.5 -21v-120q0 -13 -8.5 -21.5t-21.5 -9.5h-29v-239h-180v-61l-362 54v433zM272 194v255l-61 -7v-128l-60 120l-59 -7v-210l44 -9v167l75 -173zM362 276h119v31h-119v-31zM362 366h119v31h-119v-31zM362 456h119v31h-119v-31z
M362 217v-31h119v31h-119z" />
    <glyph glyph-name="periscope" unicode="&#xfc46;" arabic-form="isolated" 
d="M300 523q0 -31 -22 -53.5t-53.5 -22.5t-52.5 22.5t-21 53.5q-37 -49 -39 -112q2 -81 55.5 -134t132.5 -54q80 1 133.5 54t55.5 134q-2 79 -55.5 131.5t-133.5 54.5q-24 0 -45 -6q20 -9 32.5 -27t12.5 -41zM300 709q129 -2 213 -87t88 -211q0 -60 -21 -111
q-51 -131 -138.5 -232.5t-141.5 -106.5q-53 5 -140.5 106.5t-138.5 232.5q-21 51 -21 111q4 126 88 211t212 87z" />
    <glyph glyph-name="uber" unicode="&#xfc47;" arabic-form="isolated" 
d="M300 636q129 -3 213.5 -87.5t87.5 -213.5q-3 -129 -87.5 -213.5t-213.5 -87.5q-124 3 -207.5 83.5t-92.5 202.5h210v-60q2 -15 15 -15h151q14 1 15 15v150q-2 15 -15 15h-151q-14 -1 -15 -15v-60h-210q9 122 92.5 202.5t207.5 83.5z" />
    <glyph glyph-name="vector-radius" unicode="&#xfc48;" arabic-form="isolated" 
d="M0 576h59v60h181v-60q128 -4 212.5 -88.5t89.5 -213.5h59v-180h-59v-60h-61v60h-61v180h61q-3 104 -70.5 171.5t-170.5 70.5v-61h-181v61h-59v60zM481 215v-61h61v61h-61zM120 576v-60h61v60h-61z" />
    <glyph glyph-name="xbox-controller-battery-alert" unicode="&#xfc49;" arabic-form="isolated" 
d="M546 145v327h-164v-327h164zM564 525q15 0 25.5 -10t11.5 -26v-363q-1 -15 -11.5 -25.5t-25.5 -10.5h-199q-15 0 -25.5 10t-11.5 26v80h-144q-38 -4 -64 -34.5t-65 -55.5q-44 -1 -54 70.5t68 244.5h7l11 22q4 4 44 18t70 -6h127v24q1 15 11 25.5t26 10.5h44v55h110v-55
h45zM274 444q-12 0 -19.5 -7.5t-7.5 -19.5t7.5 -19.5t19.5 -7.5t19.5 7.5t7.5 19.5t-7.5 19.5t-19.5 7.5zM437 417h54v-137h-54v137zM437 253h54v-55h-54v55z" />
    <glyph glyph-name="xbox-controller-battery-empty" unicode="&#xfc4a;" arabic-form="isolated" 
d="M546 145v327h-164v-327h164zM564 525q15 0 25.5 -10t11.5 -26v-363q-1 -15 -11.5 -25.5t-25.5 -10.5h-199q-15 0 -25.5 10t-11.5 26v80h-144q-38 -4 -64 -34.5t-65 -55.5q-44 -1 -54 70.5t68 244.5h7l11 22q4 4 44 18t70 -6h127v24q1 15 11 25.5t26 10.5h44v55h110v-55
h45zM274 444q-12 0 -19.5 -7.5t-7.5 -19.5t7.5 -19.5t19.5 -7.5t19.5 7.5t7.5 19.5t-7.5 19.5t-19.5 7.5z" />
    <glyph glyph-name="xbox-controller-battery-full" unicode="&#xfc4b;" arabic-form="isolated" 
d="M564 525q15 0 25.5 -10t11.5 -26v-363q-1 -15 -11.5 -25.5t-25.5 -10.5h-199q-15 0 -25.5 10t-11.5 26v80h-144q-38 -4 -64 -34.5t-65 -55.5q-44 -1 -54 70.5t68 244.5h7l11 22q4 4 44 18t70 -6h127v24q1 15 11 25.5t26 10.5h44v55h110v-55h45zM274 444q-12 0 -19.5 -7.5
t-7.5 -19.5t7.5 -19.5t19.5 -7.5t19.5 7.5t7.5 19.5t-7.5 19.5t-19.5 7.5z" />
    <glyph glyph-name="xbox-controller-battery-low" unicode="&#xfc4c;" arabic-form="isolated" 
d="M546 226v246h-164v-246h164zM564 525q15 0 25.5 -10t11.5 -26v-363q-1 -15 -11.5 -25.5t-25.5 -10.5h-199q-15 0 -25.5 10t-11.5 26v80h-144q-38 -4 -64 -34.5t-65 -55.5q-44 -1 -54 70.5t68 244.5h7l11 22q4 4 44 18t70 -6h127v24q1 15 11 25.5t26 10.5h44v55h110v-55
h45zM274 444q-12 0 -19.5 -7.5t-7.5 -19.5t7.5 -19.5t19.5 -7.5t19.5 7.5t7.5 19.5t-7.5 19.5t-19.5 7.5z" />
    <glyph glyph-name="xbox-controller-battery-medium" unicode="&#xfc4d;" arabic-form="isolated" 
d="M546 335v137h-164v-137h164zM564 525q15 0 25.5 -10t11.5 -26v-363q-1 -15 -11.5 -25.5t-25.5 -10.5h-199q-15 0 -25.5 10t-11.5 26v80h-144q-38 -4 -64 -34.5t-65 -55.5q-44 -1 -54 70.5t68 244.5h7l11 22q4 4 44 18t70 -6h127v24q1 15 11 25.5t26 10.5h44v55h110v-55
h45zM274 444q-12 0 -19.5 -7.5t-7.5 -19.5t7.5 -19.5t19.5 -7.5t19.5 7.5t7.5 19.5t-7.5 19.5t-19.5 7.5z" />
    <glyph glyph-name="xbox-controller-battery-unknown" unicode="&#xfc4e;" arabic-form="isolated" 
d="M564 525q15 0 25.5 -10t11.5 -26v-363q-1 -15 -11.5 -25.5t-25.5 -10.5h-199q-15 0 -25.5 10t-11.5 26v80h-144q-38 -4 -64 -34.5t-65 -55.5q-44 -1 -54 70.5t68 244.5h7l11 22q4 4 44 18t70 -6h127v24q1 15 11 25.5t26 10.5h44v55h110v-55h45zM274 444q-12 0 -19.5 -7.5
t-7.5 -19.5t7.5 -19.5t19.5 -7.5t19.5 7.5t7.5 19.5t-7.5 19.5t-19.5 7.5zM470 444q-36 0 -58 -16t-20 -49v-1h52q0 13 7.5 19.5t19 6.5t19.5 -7.5t8 -20.5t-6.5 -22.5t-16.5 -15.5q-22 -14 -30 -25t-8 -33h54q0 13 4 20.5t14 14.5q17 10 29.5 25t12.5 36q0 31 -21.5 49.5
t-59.5 18.5zM437 253v-55h54v55h-54z" />
    <glyph glyph-name="clipboard-plus" unicode="&#xfc4f;" arabic-form="isolated" 
d="M200 570q2 42 30 70t70.5 28t70.5 -28t30 -70h133q28 -2 47.5 -20.5t19.5 -47.5v-433q0 -28 -19.5 -47.5t-47.5 -19.5h-467q-28 0 -47.5 19.5t-19.5 47.5v433q0 29 19.5 47.5t47.5 20.5h133zM300.5 603q-14.5 0 -23.5 -9.5t-9 -24t9 -23.5t23.5 -9t23.5 9t9 23.5t-9 24
t-23.5 9.5zM333 302v100h-65v-100h-101v-67h101v-100h65v100h101v67h-101z" />
    <glyph glyph-name="file-plus" unicode="&#xfc50;" arabic-form="isolated" 
d="M337 447h207l-207 206v-206zM76 709h300l225 -225v-450q-2 -31 -23 -52t-53 -21h-449q-32 0 -53 21t-23 52v602q2 31 23 52t53 21zM264 223v112h-76v-112h-112v-76h112v-113h76v113h112v76h-112z" />
    <glyph glyph-name="format-align-bottom" unicode="&#xfc51;" arabic-form="isolated" 
d="M333 435l84 84l48 -48l-165 -164l-164 164l48 48l84 -84v201h65v-201zM0 235h601v-67h-601v67zM0 102h333v-68h-333v68z" />
    <glyph glyph-name="format-align-middle" unicode="&#xfc52;" arabic-form="isolated" 
d="M333 535l68 68l47 -49l-148 -147l-147 147l47 49l68 -68v133h65v-133zM0 368h601v-66h-601v66zM333 135v-133h-65v133l-68 -68l-47 49l147 147l148 -147l-47 -49z" />
    <glyph glyph-name="format-align-top" unicode="&#xfc53;" arabic-form="isolated" 
d="M333 235l84 -84l48 48l-165 164l-164 -164l48 -48l84 84v-201h65v201zM0 636h601v-68h-601v68zM0 502h333v-67h-333v67z" />
    <glyph glyph-name="format-list-checks" unicode="&#xfc54;" arabic-form="isolated" 
d="M47 566h184v-185h-184v185zM109 505v-62h60v62h-60zM293 505h308v-62h-308v62zM293 258h308v-62h-308v62zM109 104l-109 109l44 43l65 -64l141 140l43 -43z" />
    <glyph glyph-name="format-quote-open" unicode="&#xfc55;" arabic-form="isolated" 
d="M214 551l-85 -174h129v-258h-258v258l85 174h129zM559 551l-87 -174h129v-258h-258v258l87 174h129z" />
    <glyph glyph-name="grid-large" unicode="&#xfc56;" arabic-form="isolated" 
d="M59 636h483q25 0 42 -17t17 -43v-482q0 -26 -17 -43t-42 -17h-483q-24 0 -41.5 17t-17.5 43v482q0 26 17 42.5t42 17.5zM59 576v-211h212v211h-212zM59 94h212v211h-212v-211zM542 94v211h-212v-211h212zM542 576h-212v-211h212v211z" />
    <glyph glyph-name="heart-off" unicode="&#xfc57;" arabic-form="isolated" 
d="M0 570l38 37l507 -507l-37 -37l-101 102l-92 -83l-42 38q-111 98 -176.5 174t-66.5 155q0 41 17 75zM186 607q38 0 71.5 -16.5t57.5 -42.5q24 26 58 43q34 16 71 16q68 -2 112 -46t45 -112q0 -55 -31.5 -106.5t-88.5 -107.5l-359 358q29 14 64 14z" />
    <glyph glyph-name="music" unicode="&#xfc58;" arabic-form="isolated" 
d="M601 619v-396q-2 -46 -33 -78t-77.5 -32t-78.5 32t-32 78.5t32 78t78 32.5q27 0 47 -10v185l-316 -66v-283q-1 -47 -32.5 -78t-78 -31t-78.5 31t-32 78t32 78.5t78 31.5q27 0 47 -10v264z" />
    <glyph glyph-name="music-off" unicode="&#xfc59;" arabic-form="isolated" 
d="M0 564l40 40l530 -529l-40 -41l-309 307v-164q-1 -48 -32.5 -79t-78 -31t-78.5 31t-32 78t32 79t78 32q27 0 47 -11v129zM601 636v-396q-2 -49 -36 -81l-155 156q31 34 80 36q27 0 47 -11v185l-279 -59l-80 79z" />
    <glyph glyph-name="tab-plus" unicode="&#xfc5a;" arabic-form="isolated" 
d="M534 102v333h-234v133h-233v-466h467zM534 636q28 0 47.5 -20t19.5 -48v-466q0 -28 -19.5 -48t-47.5 -20h-467q-28 0 -47.5 20t-19.5 48v466q0 30 19.5 48.5t47.5 19.5h467zM133 302h100v100h67v-100h101v-67h-101v-100h-67v100h-100v67z" />
    <glyph glyph-name="volume-plus" unicode="&#xfc5b;" arabic-form="isolated" 
d="M0 430h126l159 159v-508l-159 159h-126v190zM349 366h95v95h62v-95h95v-62h-95v-95h-62v95h-95v62z" />
    <glyph glyph-name="volume-minus" unicode="&#xfc5c;" arabic-form="isolated" 
d="M0 430h126l159 159v-508l-159 159h-126v190zM349 366h252v-62h-252v62z" />
    <glyph glyph-name="volume-mute" unicode="&#xfc5d;" arabic-form="isolated" 
d="M0 430h126l159 159v-508l-159 159h-126v190zM430 335l-81 81l45 45l81 -81l81 81l45 -45l-81 -81l81 -81l-45 -45l-81 81l-81 -81l-45 45z" />
    <glyph glyph-name="unfold-less-vertical" unicode="&#xfc5e;" arabic-form="isolated" 
d="M53 507l172 -172l-172 -172l-53 52l120 120l-120 120zM548 163l-172 172l172 172l53 -52l-120 -120l120 -120z" />
    <glyph glyph-name="unfold-more-vertical" unicode="&#xfc5f;" arabic-form="isolated" 
d="M507 335l-106 107l47 46l153 -153l-153 -153l-47 46zM94 335l106 -107l-47 -46l-153 153l153 153l47 -46z" />
    <glyph glyph-name="taco" unicode="&#xfc60;" arabic-form="isolated" 
d="M491 171h-381q-47 2 -78 32.5t-32 76.5q3 94 64 155t155 64q43 0 81 -15q39 15 82 15q94 -3 155 -64t64 -155q-1 -46 -32 -76.5t-78 -32.5zM55 280q0 -23 16 -38.5t39 -15.5t38.5 15.5t15.5 38.5q1 50 20.5 91.5t51.5 70.5l-17 2q-69 -2 -116 -48t-48 -116zM491 226
q23 0 39 15.5t16 38.5q-1 70 -48 116t-116 48q-68 -2 -115 -48t-48 -116q0 -29 -15 -54h287z" />
    <glyph glyph-name="square-outline" unicode="&#xfc61;" arabic-form="isolated" 
d="M0 636h601v-602h-601v602zM67 568v-466h467v466h-467z" />
    <glyph glyph-name="square" unicode="&#xfc62;" arabic-form="isolated" 
d="M0 636v-602h601v602h-601z" />
    <glyph glyph-name="circle" unicode="&#xfc63;" arabic-form="isolated" 
d="M300 636q-128 -3 -212.5 -87.5t-87.5 -213.5q3 -129 87.5 -213.5t212.5 -87.5q129 3 213.5 87.5t87.5 213.5q-3 129 -87.5 213.5t-213.5 87.5z" />
    <glyph glyph-name="circle-outline" unicode="&#xfc64;" arabic-form="final" 
d="M300 94q-103 3 -170.5 70.5t-70.5 170.5q3 103 70.5 170.5t170.5 70.5q104 -3 171.5 -70.5t70.5 -170.5q-3 -103 -70.5 -170.5t-171.5 -70.5zM300 636q-128 -3 -212.5 -87.5t-87.5 -213.5q3 -129 87.5 -213.5t212.5 -87.5q129 3 213.5 87.5t87.5 213.5
q-3 129 -87.5 213.5t-213.5 87.5z" />
    <glyph glyph-name="alert-octagram" unicode="&#xfc65;" arabic-form="final" 
d="M0 210l52 125l-52 125l125 50l50 126l125 -52l126 52l50 -126l125 -50l-52 -125l52 -125l-125 -50l-50 -126l-126 52l-125 -52l-50 126zM331 181v62h-61v-62h61zM331 305v184h-61v-184h61z" />
    <glyph glyph-name="atom" unicode="&#xfc66;" arabic-form="final" 
d="M300.5 370q15.5 0 25 -10t9.5 -25t-9.5 -25t-25 -10t-25 10t-9.5 25t9.5 25t25 10zM27 609q39 36 112.5 23t161.5 -71q87 58 160.5 71t111.5 -25t25 -111t-71 -161q58 -88 71 -161t-25 -111t-111.5 -25t-160.5 70q-88 -57 -161.5 -70t-111.5 25t-24.5 111t70.5 161
q-57 88 -70.5 161t23.5 113zM426 460q31 -33 60 -68q36 58 46.5 102t-9.5 64t-63.5 9t-101.5 -47q35 -29 68 -60zM175 210q-31 33 -60 67q-36 -57 -46.5 -101t9.5 -64t63.5 -9t101.5 47q-35 29 -68 60zM76 560q-18 -21 -7.5 -65t46.5 -103q28 35 60.5 67.5t67.5 60.5
q-57 36 -101.5 47t-65.5 -7zM226 261q37 -38 75 -68q38 30 75 67t67 75q-30 38 -67 75t-75 67q-38 -30 -75.5 -67t-66.5 -75q29 -38 67 -74zM525 110q18 21 7.5 65t-46.5 102q-28 -34 -60.5 -66.5t-67.5 -60.5q58 -36 102 -47t65 7z" />
    <glyph glyph-name="ceiling-light" unicode="&#xfc67;" arabic-form="final" 
d="M151 447h113v188h73v-188h113l151 -301h-601zM376 109q-2 -31 -23 -52.5t-52.5 -21.5t-52.5 21.5t-23 52.5h151z" />
    <glyph glyph-name="chart-bar-stacked" unicode="&#xfc68;" arabic-form="final" 
d="M601 64h-601v542h59v-481h61v59h120v-59h60v90h120v-90h61v59h120v-120zM481 274h120v-59h-120v59zM300 516h120v-91h-120v91zM420 245h-120v151h120v-151zM120 396h120v-61h-120v61zM240 215h-120v90h120v-90z" />
    <glyph glyph-name="chart-line-stacked" unicode="&#xfc69;" arabic-form="final" 
d="M464 239l137 253v-428h-601v542h59v-481h78l132 227zM601 606v-15l-150 -226l-211 151l-120 -181v271h481z" />
    <glyph glyph-name="decagram" unicode="&#xfc6a;" arabic-form="final" 
d="M601 335l-67 75l9 102l-98 21l-51 87l-94 -39l-93 39l-51 -87l-98 -21l9 -100l-67 -77l67 -75l-9 -102l98 -23l51 -85l93 39l94 -39l51 87l98 21l-9 102z" />
    <glyph glyph-name="decagram-outline" unicode="&#xfc6b;" arabic-form="final" 
d="M601 335l-67 -75l9 -102l-98 -21l-51 -87l-94 39l-93 -39l-51 85l-98 23l9 102l-67 75l67 77l-9 100l98 21l51 87l93 -39l94 39l51 -87l98 -21l-9 -102zM528 335l-50 58l6 76l-75 16l-38 66l-71 -31l-70 31l-38 -66l-75 -16l6 -76l-50 -58l50 -58l-6 -76l75 -16l38 -66
l70 31l71 -31l38 66l75 17l-6 75z" />
    <glyph glyph-name="dice-multiple" unicode="&#xfc6c;" arabic-form="final" 
d="M560 636h-286q-17 0 -28 -12t-13 -29v-127h201v-200h126q17 1 29 12t12 29v286q0 16 -12 28t-29 13zM315 514q-17 0 -29 11.5t-12 28.5t11.5 29t29.5 12t29 -12t11 -29t-11 -28.5t-29 -11.5zM519 309q-17 0 -28.5 11.5t-11.5 29.5t11 28.5t29 11.5t29.5 -10.5t11.5 -29.5
t-12 -29t-29 -12zM519 514q-17 0 -28.5 11.5t-11.5 28.5t11 29t29 12t29.5 -12t11.5 -29t-12 -28.5t-29 -11.5zM41 402h286q17 -1 28 -12t13 -29v-286q-2 -16 -12.5 -28t-28.5 -13h-286q-17 0 -29 12t-12 29v286q0 17 12 28.5t29 12.5zM183.5 258q-16.5 0 -28 -11.5
t-11.5 -29t11 -28t28 -10.5t29 10.5t12 28t-12 29t-28.5 11.5zM82 361q-17 -1 -29 -12t-12 -28t11.5 -28.5t29 -11.5t29 11.5t11.5 28.5t-11.5 28t-28.5 12zM284 156q-16 0 -27 -11.5t-11 -28.5t11 -28t28 -11t28.5 11t11.5 28t-10.5 28.5t-28.5 11.5h-2z" />
    <glyph glyph-name="dice-d10" unicode="&#xfc6d;" arabic-form="final" 
d="M588 372q13 -17 13 -37t-13 -37l-249 -249q-17 -15 -37 -15.5t-37 15.5l-249 249q-16 17 -16 37t16 37l249 249q17 15 36.5 15.5t37.5 -15.5zM552 335l-250 250l-250 -250l250 -250zM253 221h-46v175l-53 -17v36l94 34h5v-228zM359.5 455q32.5 0 54.5 -22t24 -54v-81
q-2 -32 -24 -54t-54.5 -22t-54 22t-23.5 54v81q2 33 23.5 54.5t54 21.5zM360 412q-15 -1 -23 -9t-10 -22v-84q2 -15 10.5 -23t22.5 -8t23 8.5t9 22.5v84q0 14 -9 22t-23 9z" />
    <glyph glyph-name="folder-open" unicode="&#xfc6e;" arabic-form="final" 
d="M481 108h-425q-24 1 -40 17t-16 40v340q0 24 16 40t40 17h170l57 -57h198q24 0 40.5 -16.5t16.5 -40.5h-482v-283l61 227h484l-64 -241q-5 -19 -20.5 -30.5t-35.5 -12.5z" />
    <glyph glyph-name="guitar-acoustic" unicode="&#xfc6f;" arabic-form="final" 
d="M525 620h76v-64h-50l-134 -134q-17 27 -45 45zM285 461q53 -1 89 -37t37 -89q0 -45 -26 -78t-69 -45v-3q-1 -69 -45.5 -113t-111.5 -46q-69 2 -113 46t-46 113q2 67 46 111.5t113 45.5h3q12 43 45 69t78 26zM284.5 383q-20.5 0 -33.5 -13.5t-13 -34.5t13 -34.5
t33.5 -13.5t34 13.5t13.5 34.5t-13.5 34.5t-34 13.5zM125 264l-22 -22l88 -89l23 22z" />
    <glyph glyph-name="loading" unicode="&#xfc70;" arabic-form="final" 
d="M601 517v119q-257 -6 -426 -175t-175 -427h118q6 207 141 342t342 141z" />
    <glyph glyph-name="lock-reset" unicode="&#xfc71;" arabic-form="final" 
d="M335 600q113 -2 188 -77.5t78 -187.5q-3 -112 -78 -187.5t-188 -77.5q-70 0 -128 33t-94 87l43 34q28 -46 75 -73.5t105 -28.5q90 3 149.5 62.5t61.5 150.5q-2 91 -61.5 150.5t-149.5 62.5q-84 -3 -141.5 -54.5t-70.5 -132.5h74l-99 -98l-99 98h71q12 103 85.5 170
t178.5 69zM414 382q10 -1 17 -7.5t7 -17.5v-121q0 -12 -7 -18.5t-18 -6.5h-147q-10 0 -16.5 6.5t-6.5 18.5v121q0 11 6.5 17.5t16.5 7.5v26q2 32 22 53t51.5 21t52.5 -21t22 -53v-26zM340 445q-15 0 -25.5 -10t-10.5 -27v-26h73v26q-1 16 -11 26.5t-26 10.5z" />
    <glyph glyph-name="ninja" unicode="&#xfc72;" arabic-form="final" 
d="M172 305q0 16 13 27q34 -7 63 -27q-1 -16 -12 -26t-26 -11t-26 10t-12 27zM353 305q29 20 63 27q13 -11 12.5 -27t-11.5 -27t-26 -11t-26 11t-12 27zM300 425q-127 2 -238 -60l-3 -30q0 -56 26 -107q106 17 215 17t216 -17q26 51 26 107l-3 30q-111 62 -239 60zM300 636
q129 -3 213.5 -87.5t87.5 -213.5q-3 -129 -87.5 -213.5t-213.5 -87.5q-128 3 -212.5 87.5t-87.5 213.5q3 129 87.5 213.5t212.5 87.5z" />
    <glyph glyph-name="octagram-outline" unicode="&#xfc73;" arabic-form="final" 
d="M0 210l52 125l-52 125l125 50l50 126l125 -52l126 52l50 -126l125 -50l-52 -125l52 -125l-125 -50l-50 -126l-126 52l-125 -52l-50 126zM80 427l38 -92l-38 -92l91 -38l37 -90l92 37l93 -37l37 90l91 38l-38 92l38 92l-91 38l-37 90l-93 -37l-92 37l-37 -90z" />
    <glyph glyph-name="pencil-circle-outline" unicode="&#xfc74;" arabic-form="final" 
d="M150 246l183 184l62 -62l-183 -184h-62v62zM300 94q104 3 171.5 70.5t70.5 170.5q-3 103 -70.5 170.5t-171.5 70.5q-103 -3 -170.5 -70.5t-70.5 -170.5q3 -103 70.5 -170.5t170.5 -70.5zM441 415l-29 -31l-62 62l31 30q11 10 23 0l37 -38q10 -11 0 -23zM300 636
q129 -3 213.5 -87.5t87.5 -213.5q-3 -129 -87.5 -213.5t-213.5 -87.5q-128 3 -212.5 87.5t-87.5 213.5q3 129 87.5 213.5t212.5 87.5z" />
    <glyph glyph-name="selection-off" unicode="&#xfc75;" arabic-form="final" 
d="M0 587l36 35l552 -552l-35 -36l-43 43h-48v48l-371 371h-49v49zM97 636h84v-56h-33l-55 56h4zM601 580v-84h-55v84h-84v56h84q23 0 39 -16t16 -40zM546 216h55v-88l-55 55v33zM42 132v84h55v-84h84v-55h-84q-23 0 -39 15.5t-16 39.5zM265 636h113v-56h-113v56zM265 132
h113v-55h-113v55zM546 413h55v-113h-55v113zM42 413h55v-113h-55v113z" />
    <glyph glyph-name="set-all" unicode="&#xfc76;" arabic-form="final" 
d="M210 545q48 0 90 -19q43 19 91 19q90 -1 149.5 -60.5t60.5 -149.5q-1 -90 -60.5 -149.5t-149.5 -60.5q-48 0 -91 19q-42 -19 -90 -19q-90 1 -149.5 60.5t-60.5 149.5q1 90 60.5 149.5t149.5 60.5zM195 335q1 -43 17 -79.5t44 -62.5l31 12q-29 24 -45.5 57t-16.5 73
t16.5 72.5t45.5 57.5l-31 12q-28 -26 -44 -62.5t-17 -79.5zM406 335q-1 43 -17 79.5t-44 62.5l-31 -12q29 -24 45.5 -57t16.5 -73t-16.5 -72.5t-45.5 -57.5l31 -12q28 26 44 62.5t17 79.5z" />
    <glyph glyph-name="set-center" unicode="&#xfc77;" arabic-form="final" 
d="M210 545q-90 -1 -149.5 -60.5t-60.5 -149.5q1 -90 60.5 -149.5t149.5 -60.5q48 0 90 19q43 -19 91 -19q90 1 149.5 60.5t60.5 149.5q-1 90 -60.5 149.5t-149.5 60.5q-48 0 -91 -19q-42 19 -90 19zM210 486q15 0 30 -3q-28 -31 -43.5 -68t-15.5 -80t15.5 -80t43.5 -67
q-15 -4 -30 -4q-63 1 -106 44t-45 107q2 64 45 107t106 44zM391 486q63 -1 106 -44t45 -107q-2 -64 -45 -107t-106 -44q-15 0 -30 3q28 31 43.5 68t15.5 80t-15.5 80t-43.5 67q15 4 30 4z" />
    <glyph glyph-name="set-center-right" unicode="&#xfc78;" arabic-form="final" 
d="M391 125q-48 0 -91 19q-42 -19 -90 -19q-90 1 -149.5 60.5t-60.5 149.5q1 90 60.5 149.5t149.5 60.5q48 0 90 -19q43 19 91 19q90 -1 149.5 -60.5t60.5 -149.5q-1 -90 -60.5 -149.5t-149.5 -60.5zM210 184l30 4q-28 30 -43.5 67t-15.5 80t15.5 80t43.5 68l-30 3
q-63 -1 -106 -44t-45 -107q2 -64 45 -107t106 -44zM406 335q-1 43 -17 79.5t-44 62.5l-31 -12q29 -24 45.5 -57t16.5 -73t-16.5 -72.5t-45.5 -57.5l31 -12q28 26 44 62.5t17 79.5z" />
    <glyph glyph-name="set-left" unicode="&#xfc79;" arabic-form="final" 
d="M210 545q-90 -1 -149.5 -60.5t-60.5 -149.5q1 -90 60.5 -149.5t149.5 -60.5q48 0 90 19q43 -19 91 -19q90 1 149.5 60.5t60.5 149.5q-1 90 -60.5 149.5t-149.5 60.5q-48 0 -91 -19q-42 19 -90 19zM391 486q63 -1 106 -44t45 -107q-2 -64 -45 -107t-106 -44q-15 0 -30 3
q28 31 43.5 68t15.5 80t-15.5 80t-43.5 67q15 4 30 4zM300 455q29 -21 45 -53t16 -67t-16 -67t-45 -53q-28 21 -44 53t-16 67t16 67t44 53z" />
    <glyph glyph-name="set-left-center" unicode="&#xfc7a;" arabic-form="final" 
d="M210 545q48 0 90 -19q43 19 91 19q90 -1 149.5 -60.5t60.5 -149.5q-1 -90 -60.5 -149.5t-149.5 -60.5q-48 0 -91 19q-42 -19 -90 -19q-90 1 -149.5 60.5t-60.5 149.5q1 90 60.5 149.5t149.5 60.5zM391 486l-30 -4q28 -30 43.5 -67t15.5 -80t-15.5 -80t-43.5 -68l30 -3
q63 1 106 44t45 107q-2 64 -45 107t-106 44zM195 335q1 -43 17 -79.5t44 -62.5l31 12q-29 24 -45.5 57t-16.5 73t16.5 72.5t45.5 57.5l-31 12q-28 -26 -44 -62.5t-17 -79.5z" />
    <glyph glyph-name="set-left-right" unicode="&#xfc7b;" arabic-form="final" 
d="M210 545q48 0 90 -19q43 19 91 19q90 -1 149.5 -60.5t60.5 -149.5q-1 -90 -60.5 -149.5t-149.5 -60.5q-48 0 -91 19q-42 -19 -90 -19q-90 1 -149.5 60.5t-60.5 149.5q1 90 60.5 149.5t149.5 60.5zM210 335q0 -51 24.5 -92t65.5 -65q42 24 66.5 65t24.5 92t-24.5 92
t-66.5 65q-41 -24 -65.5 -65t-24.5 -92z" />
    <glyph glyph-name="set-none" unicode="&#xfc7c;" arabic-form="final" 
d="M210 545q-90 -1 -149.5 -60.5t-60.5 -149.5q1 -90 60.5 -149.5t149.5 -60.5q48 0 90 19q43 -19 91 -19q90 1 149.5 60.5t60.5 149.5q-1 90 -60.5 149.5t-149.5 60.5q-48 0 -91 -19q-42 19 -90 19zM210 486q15 0 30 -3q-28 -31 -43.5 -68t-15.5 -80t15.5 -80t43.5 -67
q-15 -4 -30 -4q-63 1 -106 44t-45 107q2 64 45 107t106 44zM391 486q63 -1 106 -44t45 -107q-2 -64 -45 -107t-106 -44q-15 0 -30 3q28 31 43.5 68t15.5 80t-15.5 80t-43.5 67q15 4 30 4zM300 455q29 -21 45 -53t16 -67t-16 -67t-45 -53q-28 21 -44 53t-16 67t16 67t44 53z
" />
    <glyph glyph-name="set-right" unicode="&#xfc7d;" arabic-form="final" 
d="M391 125q-48 0 -91 19q-42 -19 -90 -19q-90 1 -149.5 60.5t-60.5 149.5q1 90 60.5 149.5t149.5 60.5q48 0 90 -19q43 19 91 19q90 -1 149.5 -60.5t60.5 -149.5q-1 -90 -60.5 -149.5t-149.5 -60.5zM210 184l30 4q-28 30 -43.5 67t-15.5 80t15.5 80t43.5 68l-30 3
q-63 -1 -106 -44t-45 -107q2 -64 45 -107t106 -44zM300 215q29 21 45 53t16 67t-16 67t-45 53q-28 -21 -44 -53t-16 -67t16 -67t44 -53z" />
    <glyph glyph-name="shield-half-full" unicode="&#xfc7e;" arabic-form="final" 
d="M601 368q-3 -143 -86 -254t-215 -147q-131 36 -214 147t-86 254v200l300 135l301 -135v-200zM300 34q97 29 164.5 122t69.5 205v165l-234 103v-595z" />
    <glyph glyph-name="sign-direction" unicode="&#xfc7f;" arabic-form="final" 
d="M266 335h-266l88 88l-88 89h266v141l34 35l35 -35v-141h178l88 -89l-88 -88h-178v-284q30 0 51 -19.5t21 -49.5h-213q0 30 21 49.5t51 19.5v284z" />
    <glyph glyph-name="sign-text" unicode="&#xfc80;" arabic-form="final" 
d="M268 636l32 32l33 -32v-68h235q15 0 24 -9t9 -24v-333q0 -14 -9 -23.5t-24 -10.5h-235v-101q28 0 48 -18.5t20 -46.5h-201q0 28 20 46.5t48 18.5v101h-235q-15 1 -24 10.5t-9 23.5v333q0 15 9 24t24 9h235v68zM100 468v-66h401v66h-401zM100 335v-67h233v67h-233z" />
    <glyph glyph-name="signal-off" unicode="&#xfc81;" arabic-form="final" 
d="M501 669v-440l100 -100v540h-100zM42 602l-42 -43l258 -258h-91v-233h101v225l65 -67v-158h101v58l125 -125l42 44zM333 469v-74l101 -100v174h-101zM0 168v-100h100v100h-100z" />
    <glyph glyph-name="square-root" unicode="&#xfc82;" arabic-form="final" 
d="M293 205l85 84l-85 86l43 43l84 -86l86 86l43 -43l-86 -86l86 -84l-43 -43l-86 85l-84 -85zM0 379h90l70 -162l80 313h361v-60h-315l-86 -330h-73l-76 180h-51v59z" />
    <glyph glyph-name="sticker-emoji" unicode="&#xfc83;" arabic-form="final" 
d="M105 636q-44 0 -74.5 -30.5t-30.5 -74.5v-392q0 -44 30.5 -74.5t74.5 -30.5h315l181 181v316q0 44 -30.5 74t-74.5 31h-391zM113 576h375q23 -1 37.5 -16t16.5 -37v-278h-46q-45 -2 -74.5 -31.5t-30.5 -74.5v-45h-278q-23 1 -37.5 16t-16.5 37v376q2 22 16.5 37t37.5 16z
M374 493q-7 0 -14 -3q-21 -5 -32 -23.5t-5 -41.5q1 -7 6 -13l97 26q0 9 -1 15q-6 17 -19.5 28t-31.5 12zM185 440h-15q-20 -7 -30.5 -25.5t-5.5 -39.5q2 -7 7 -15l96 27q0 7 -2 14q-4 19 -18 29t-32 10zM443 357l-275 -75q31 -34 73.5 -47.5t87.5 -1.5t75 45t39 79z" />
    <glyph glyph-name="summit" unicode="&#xfc84;" arabic-form="final" 
d="M391 606h60l150 -61l-150 -59v-96l150 -326h-601l181 241l104 -142l106 227v216z" />
    <glyph glyph-name="sword-cross" unicode="&#xfc85;" arabic-form="final" 
d="M137 607l336 -336l59 59l40 -39l-69 -69l90 -90q8 -10 8 -21t-8 -18l-21 -22q-9 -8 -20 -8t-20 8l-90 90l-69 -70l-39 40l59 61l-336 336v79h80zM410 394l134 134v79h-80l-133 -134zM270 253l-79 80l-63 -62l-59 59l-40 -39l69 -69l-90 -91q-8 -9 -8 -20t8 -20l21 -20
q9 -8 20 -8t20 8l90 90l69 -70l39 40l-59 61z" />
    <glyph glyph-name="truck-fast" unicode="&#xfc86;" arabic-form="final" 
d="M70 296l-19 38h132l-15 39h-123l-19 37h197l-15 38h-186l-22 38h95q1 21 15 35.5t36 15.5h303v-102h76l76 -101v-126h-51q0 -33 -21 -54t-54 -21t-54.5 21t-22.5 54h-101q-1 -33 -22 -54t-53.5 -21t-53.5 21t-22 54h-51v88h-25zM474 170q17 1 27.5 11.5t10.5 26.5
t-10.5 27t-26.5 11t-27 -11t-11 -27t11 -26.5t26 -11.5zM512 398h-63v-64h113zM222 170q16 1 27 11.5t11 26.5t-11 27t-27.5 11t-27.5 -11t-11 -27t11 -26.5t28 -11.5z" />
    <glyph glyph-name="yammer" unicode="&#xfc87;" arabic-form="final" 
d="M333 544l-147 -379q0 -9 -29.5 -45.5t-104.5 -40.5q-15 0 -25 9.5t-10 23.5t10 24t25 10q38 3 54 20.5t16 21.5l12 34l-132 322q-5 14 1 27t19.5 17.5t26 0t17.5 -19.5l105 -254l99 254q6 15 18 19.5t26 0t19 -17.5t0 -27zM502 529q-10 0 -18.5 -6t-69.5 -52.5t-64 -60.5
q14 -3 84 28t79 36q18 6 18 27q0 11 -8 19.5t-21 8.5zM528 174q-5 9 -14.5 13t-80 35t-83.5 27q3 -14 64 -60t71 -51q15 -13 32 -4q11 7 14.5 18t-3.5 22zM585 357q-8 7 -19 5t-87 -11t-86 -21q11 -10 87.5 -17.5t87.5 -7.5q17 -3 29 15q6 9 3 19.5t-15 17.5z" />
    <glyph glyph-name="cast-off" unicode="&#xfc88;" arabic-form="final" 
d="M34 610l-34 -38l30 -26q-10 -13 -11 -32v-77h52v71l390 -352h-108v-52h164l50 -44l34 38zM161 566l56 -52h316v-285l51 -47v332q-1 23 -15.5 37.5t-35.5 14.5h-372zM19 387v-52q99 -2 164 -67t67 -164h52q-4 120 -83.5 199.5t-199.5 83.5zM19 283v-50q56 -1 92 -38
t37 -91h52q-3 77 -53.5 127.5t-127.5 51.5zM19 181v-77h77q0 33 -21.5 54.5t-55.5 22.5z" />
    <glyph glyph-name="help-box" unicode="&#xfc89;" arabic-form="final" 
d="M268 135h65v67h-65v-67zM300 535q-56 -1 -93.5 -39t-39.5 -94h66q2 28 20.5 47t47 19t47 -19t20.5 -47q-7 -44 -50.5 -68t-49.5 -99h65q7 51 50.5 80.5t50.5 86.5q-2 56 -39.5 94t-94.5 39zM67 636h467q28 0 47.5 -20t19.5 -48v-466q0 -28 -19.5 -48t-47.5 -20h-467
q-28 0 -47.5 20t-19.5 48v466q0 28 19.5 48t47.5 20z" />
    <glyph glyph-name="timer-sand-full" unicode="&#xfc8a;" arabic-form="final" 
d="M0 835v-300l200 -200l-200 -200v-300h601v300l-200 200l200 200v300h-601z" />
    <glyph glyph-name="waves" unicode="&#xfc8b;" arabic-form="final" 
d="M0 169q49 24 99.5 41.5t100.5 19.5q49 -4 100 -30t101 -31q50 5 100.5 31t99.5 30v-90q-49 -5 -99.5 -31t-100.5 -30q-49 4 -100 30t-101 31q-50 -2 -100.5 -19.5t-99.5 -41.5v90zM0 350q49 24 99.5 41.5t100.5 18.5q49 -4 100 -30t101 -30q50 4 100.5 30t99.5 30v-90
q-49 -4 -99.5 -30t-100.5 -30q-49 4 -100 30t-101 30q-50 -1 -100.5 -19t-99.5 -41v90zM0 530q49 24 99.5 42t100.5 19q49 -4 100 -30t101 -31q50 5 100.5 31t99.5 30v-90q-49 -5 -99.5 -31t-100.5 -30q-49 4 -100 30t-101 31q-50 -2 -100.5 -19.5t-99.5 -41.5v90z" />
    <glyph glyph-name="alarm-bell" unicode="&#xfc8c;" arabic-form="final" 
d="M391 135v-101h-301v101q71 -41 150.5 -41t150.5 41zM601 576q0 26 -17 42.5t-42 17.5q-15 0 -28 -7t-21 -19q-15 -21 -11.5 -44.5t24.5 -38.5q16 -11 36 -11h7q38 -104 12 -204.5t-110 -172.5q-15 -11 -31 -21v-54h31v38q71 52 110.5 128.5t39.5 165.5q0 68 -24 131
q24 18 24 49zM481 396q-3 -104 -70.5 -171.5t-170.5 -70.5q-102 3 -170.5 70.5t-69.5 171.5q1 102 69.5 170t170.5 70q103 -2 170.5 -70t70.5 -170z" />
    <glyph glyph-name="alarm-light" unicode="&#xfc8d;" arabic-form="final" 
d="M129 466l-60 61l40 40l60 -61zM329 635v-86h-57v86h57zM532 527l-60 -61l-40 40l60 61zM86 363v-57h-86v57h86zM515 363h86v-57h-86v57zM129 91h343q24 0 40 -16t18 -40h-459q2 24 18 40t40 16zM300 520q73 -1 122 -49.5t50 -122.5v-227h-343v227q1 74 50 122.5t121 49.5
z" />
    <glyph glyph-name="android-head" unicode="&#xfc8e;" arabic-form="final" 
d="M181 327q-17 -2 -28 -12.5t-11 -26t11 -26t27 -10.5t26.5 10.5t10.5 26t-10.5 26t-25.5 12.5zM420 327q-15 -2 -25.5 -12.5t-10.5 -26t10.5 -26t26.5 -10.5t27 10.5t11 26t-11 26t-28 12.5zM300 463q68 -2 126 -29l65 66q10 10 22 9.5t21 -9.5t9 -21t-10 -22l-53 -54
q56 -42 88.5 -104.5t32.5 -137.5h-601q0 75 32.5 137.5t88.5 104.5l-53 54q-10 10 -10 22t9 21t21 9t22 -9l65 -66q58 27 125 29z" />
    <glyph glyph-name="approval" unicode="&#xfc8f;" arabic-form="final" 
d="M601 335l-67 75l9 102l-98 21l-51 87l-94 -39l-93 39l-51 -87l-98 -21l9 -100l-67 -77l67 -75l-9 -102l98 -23l51 -85l93 39l94 -39l51 87l98 21l-9 102zM246 198l-109 110l38 39l71 -71l180 179l38 -38z" />
    <glyph glyph-name="arrow-collapse-down" unicode="&#xfc90;" arabic-form="final" 
d="M539 332l-239 -238l-238 238l43 43l166 -166v427h59v-427l166 167zM300 94h-300v-60h601v60h-301z" />
    <glyph glyph-name="arrow-collapse-left" unicode="&#xfc91;" arabic-form="final" 
d="M298 97l-239 238l239 238l42 -42l-165 -166h426v-60h-426l167 -166zM59 335v301h-59v-602h59v301z" />
    <glyph glyph-name="arrow-collapse-right" unicode="&#xfc92;" arabic-form="final" 
d="M303 573l239 -238l-239 -238l-42 42l165 166h-426v60h426l-165 166zM542 335v-301h59v602h-59v-301z" />
    <glyph glyph-name="arrow-collapse-up" unicode="&#xfc93;" arabic-form="final" 
d="M62 338l238 238l239 -238l-43 -43l-166 166v-427h-59v427l-166 -166zM300 576h301v60h-601v-60h300z" />
    <glyph glyph-name="arrow-expand-down" unicode="&#xfc94;" arabic-form="final" 
d="M601 576v60h-601v-60h271v-427l-166 166l-43 -42l238 -239l239 239l-43 42l-166 -166v427h271z" />
    <glyph glyph-name="arrow-expand-left" unicode="&#xfc95;" arabic-form="final" 
d="M542 34h59v602h-59v-271h-428l167 166l-43 42l-238 -238l238 -238l43 42l-167 166h428v-271z" />
    <glyph glyph-name="arrow-expand-right" unicode="&#xfc96;" arabic-form="final" 
d="M59 636h-59v-602h59v271h428l-167 -166l43 -42l238 238l-238 238l-43 -42l167 -166h-428v271z" />
    <glyph glyph-name="arrow-expand-up" unicode="&#xfc97;" arabic-form="initial" 
d="M0 94v-60h601v60h-271v427l166 -166l43 42l-239 239l-238 -239l43 -42l166 166v-427h-271z" />
    <glyph glyph-name="book-secure" unicode="&#xfc98;" arabic-form="initial" 
d="M525 709h-225v-262l-93 56l-95 -56v262h-36q-32 0 -53 -21t-23 -52v-602q2 -31 23 -52t53 -21h449q32 0 53 21t23 52v602q-2 31 -23 52t-53 21zM525 34h-300v152h39v37q0 47 31.5 78.5t80 31.5t80 -31.5t33.5 -78.5v-37h36v-152zM413 223v-37h-76v37q2 16 12.5 26
t26.5 10t26.5 -10t10.5 -26z" />
    <glyph glyph-name="book-unsecure" unicode="&#xfc99;" arabic-form="initial" 
d="M525 709h-225v-262l-93 56l-95 -56v262h-36q-32 0 -53 -21t-23 -52v-602q2 -31 23 -52t53 -21h449q32 0 53 21t23 52v602q-2 31 -23 52t-53 21zM525 34h-300v152h39v73q0 50 31.5 81.5t80 31.5t80 -31.5t33.5 -81.5h-76q0 17 -10.5 27t-26.5 10t-26.5 -10t-12.5 -27v-73
h188v-152z" />
    <glyph glyph-name="bus-articulated-end" unicode="&#xfc9a;" arabic-form="initial" 
d="M601 524l-47 -48l47 -47l-47 -47l47 -48l-47 -48l47 -47h-285q-1 -40 -27.5 -66.5t-67 -26.5t-67.5 26.5t-27 66.5h-127v221q2 28 19 46t45 18h537zM506 476h-111v-78h111v78zM348 476h-126v-78h126v78zM175 476h-128v-78h128v78zM222 286q-21 0 -34 -13t-13 -33.5
t13 -34t33 -13.5t33.5 13.5t13.5 34t-13.5 33.5t-32.5 13z" />
    <glyph glyph-name="bus-articulated-front" unicode="&#xfc9b;" arabic-form="initial" 
d="M0 498l41 -41l-41 -41l41 -40l-41 -42l41 -41l-41 -40h55q1 -35 24 -58t58 -23t57.5 23t24.5 58h163q2 -35 24.5 -58t57.5 -23t58 23t24 58h55v190q-1 24 -16.5 39.5t-38.5 15.5h-546zM82 457h69v-68h-69v68zM192 457h108v-68h-108v68zM341 457h109v-68h-109v68zM491 457
h69v-149l-69 53v96zM137 293q18 0 29 -11.5t11 -29t-11 -29t-29 -11.5t-29.5 11.5t-11.5 29t11.5 29t29.5 11.5zM464 293q18 0 29.5 -11.5t11.5 -29t-11.5 -29t-29.5 -11.5t-29 11.5t-11 29t11 29t29 11.5z" />
    <glyph glyph-name="bus-double-decker" unicode="&#xfc9c;" arabic-form="initial" 
d="M55 553q-23 -1 -38.5 -16.5t-16.5 -38.5v-300h55q1 -35 24 -58t58 -23t57.5 23t24.5 58h163q2 -35 24.5 -58t57.5 -23t58 23t24 58h55v81q-1 25 -16.5 40t-38.5 15h-55v68h110v96q-1 23 -16.5 38.5t-38.5 16.5h-491zM41 512h110v-69h-110v69zM192 512h108v-69h-108v69z
M341 512h109v-69h-109v69zM491 512h69v-69h-69v69zM341 402h109v-68h-109v68zM41 402h110v-68h-110v68zM192 402h108v-68h-108v68zM137 239q18 0 29 -12t11 -29t-11 -28.5t-29 -11.5t-29.5 11.5t-11.5 28.5t11.5 29t29.5 12zM464 239q18 0 29.5 -12t11.5 -29t-11.5 -28.5
t-29.5 -11.5t-29 11.5t-11 28.5t11 29t29 12z" />
    <glyph glyph-name="bus-school" unicode="&#xfc9d;" arabic-form="initial" 
d="M55 498q-23 0 -38.5 -15.5t-16.5 -39.5v-190h55q1 -35 24 -58t58 -23t57.5 23t24.5 58h163q2 -35 24.5 -58t57.5 -23t58 23t24 58h55v81q-1 23 -16.5 38.5t-38.5 16.5h-55v54q0 24 -15.5 39.5t-38.5 15.5h-382zM341 457h109v-68h-109v68zM41 457h110v-68h-110v68z
M192 457h108v-68h-108v68zM137 293q18 0 29 -11.5t11 -29t-11 -29t-29 -11.5t-29.5 11.5t-11.5 29t11.5 29t29.5 11.5zM464 293q18 0 29.5 -11.5t11.5 -29t-11.5 -29t-29.5 -11.5t-29 11.5t-11 29t11 29t29 11.5z" />
    <glyph glyph-name="bus-side" unicode="&#xfc9e;" arabic-form="initial" 
d="M55 498q-23 0 -38.5 -15.5t-16.5 -39.5v-190h55q1 -35 24 -58t58 -23t57.5 23t24.5 58h163q2 -35 24.5 -58t57.5 -23t58 23t24 58h55v190q-1 24 -16.5 39.5t-38.5 15.5h-491zM41 457h110v-68h-110v68zM192 457h108v-68h-108v68zM341 457h109v-68h-109v68zM491 457h69
v-149l-69 53v96zM137 293q18 0 29 -11.5t11 -29t-11 -29t-29 -11.5t-29.5 11.5t-11.5 29t11.5 29t29.5 11.5zM464 293q18 0 29.5 -11.5t11.5 -29t-11.5 -29t-29.5 -11.5t-29 11.5t-11 29t11 29t29 11.5z" />
    <glyph glyph-name="camera-gopro" unicode="&#xfc9f;" arabic-form="initial" 
d="M542 545h-151q-25 0 -42 -17t-19 -42v-151q2 -25 19 -42t42 -19h151q25 2 42 19t17 42v151q0 25 -17 42t-42 17zM466 320q-38 1 -64 26.5t-26 64t26 64t64.5 25.5t64 -25.5t25.5 -64t-25 -64t-65 -26.5zM466 365q-18 1 -31 13.5t-13 32t12.5 32t31.5 12.5t32 -12.5
t13 -32t-13 -32t-32 -13.5zM300 245v300h-241q-25 0 -42 -17t-17 -42v-302q0 -25 17 -42t42 -17h483q25 0 42 17t17 42v61h-301zM240 335h-181v151h181v-151z" />
    <glyph glyph-name="camera-metering-center" unicode="&#xfca0;" arabic-form="initial" 
d="M59 576h483q25 -1 42 -18t17 -42v-362q0 -25 -17 -42t-42 -18h-483q-25 1 -42 18t-17 42v362q0 25 17 42t42 18zM59 516v-362h483v362h-483zM300.5 381q19.5 0 32 -13t12.5 -33t-12.5 -33t-32 -13t-32 13t-12.5 33t12.5 33t32 13zM300 470q50 -1 86 -30t47 -75h-48
q-10 26 -32.5 43t-52 17t-52.5 -17t-32 -43h-48q11 46 47 75t85 30zM300 200q-49 1 -85 30t-47 75h48q10 -26 32.5 -43t52 -17t52.5 17t32 43h48q-11 -46 -47 -75t-86 -30z" />
    <glyph glyph-name="camera-metering-matrix" unicode="&#xfca1;" arabic-form="initial" 
d="M59 576h483q25 -1 42 -18t17 -42v-362q0 -25 -17 -42t-42 -18h-483q-25 1 -42 18t-17 42v362q0 25 17 42t42 18zM59 516v-362h483v362h-483zM105 470h166v-50q-20 -8 -34 -22t-21 -33h-111v105zM496 470v-105h-111q-7 19 -21 33t-34 22v50h166zM496 200h-166v50
q20 8 34 22t21 33h111v-105zM105 200v105h111q7 -19 21 -33t34 -22v-50h-166zM300.5 381q19.5 0 32 -13t12.5 -33t-12.5 -33t-32 -13t-32 13t-12.5 33t12.5 33t32 13z" />
    <glyph glyph-name="camera-metering-partial" unicode="&#xfca2;" arabic-form="initial" 
d="M59 576h483q25 -1 42 -18t17 -42v-362q0 -25 -17 -42t-42 -18h-483q-25 1 -42 18t-17 42v362q0 25 17 42t42 18zM59 516v-362h483v362h-483zM300 470q50 -1 86 -30t47 -75h-48q-10 26 -32.5 43t-52 17t-52.5 -17t-32 -43h-48q11 46 47 75t85 30zM300 200q-49 1 -85 30
t-47 75h48q10 -26 32.5 -43t52 -17t52.5 17t32 43h48q-11 -46 -47 -75t-86 -30z" />
    <glyph glyph-name="camera-metering-spot" unicode="&#xfca3;" arabic-form="initial" 
d="M59 576h483q25 -1 42 -18t17 -42v-362q0 -25 -17 -42t-42 -18h-483q-25 1 -42 18t-17 42v362q0 25 17 42t42 18zM59 516v-362h483v362h-483zM300.5 381q19.5 0 32 -13t12.5 -33t-12.5 -33t-32 -13t-32 13t-12.5 33t12.5 33t32 13z" />
    <glyph glyph-name="cannabis" unicode="&#xfca4;" arabic-form="initial" 
d="M282 -39v173q-13 -22 -44 -47t-87 -45q0 3 16.5 37.5t55.5 69.5q-37 -9 -92 -3t-131 40q4 3 61 24.5t138 13.5q-46 25 -97 85.5t-95 171.5q7 2 94 -40.5t159 -147.5q-48 145 -9 276t49 140q65 -153 66 -256.5t-23 -157.5q70 103 157 145.5t94 40.5q-44 -111 -95 -171.5
t-97 -85.5q81 8 138 -13.5t61 -24.5q-76 -34 -131 -40t-92 3q39 -35 55.5 -69.5t16.5 -37.5q-56 20 -87 45t-44 47v-173h-37z" />
    <glyph glyph-name="car-convertible" unicode="&#xfca5;" arabic-form="initial" 
d="M409 498l-27 -20l68 -89h-109v41h-41v-41h-245q-23 -1 -38.5 -16.5t-16.5 -38.5v-81h55q1 -35 24 -58t58 -23t57.5 23t24.5 58h163q2 -35 24.5 -58t57.5 -23t58 23t24 58h55v81q-1 23 -16.5 38.5t-38.5 16.5h-55zM137 293q18 0 29 -11.5t11 -29t-11 -29t-29 -11.5
t-29.5 11.5t-11.5 29t11.5 29t29.5 11.5zM464 293q18 0 29.5 -11.5t11.5 -29t-11.5 -29t-29.5 -11.5t-29 11.5t-11 29t11 29t29 11.5z" />
    <glyph glyph-name="car-estate" unicode="&#xfca6;" arabic-form="initial" 
d="M55 498h354l82 -109h55q23 -1 38.5 -16.5t16.5 -38.5v-81h-55q-1 -35 -24 -58t-58 -23t-57.5 23t-24.5 58h-163q-2 -35 -24.5 -58t-57.5 -23t-58 23t-24 58h-55v190q1 24 16.5 39.5t38.5 15.5zM41 457v-68h219v68h-219zM300 457v-68h141l-52 68h-89zM137 293
q-18 0 -29.5 -11.5t-11.5 -29t11.5 -29t29.5 -11.5t29 11.5t11 29t-11 29t-29 11.5zM464 293q-18 0 -29 -11.5t-11 -29t11 -29t29 -11.5t29.5 11.5t11.5 29t-11.5 29t-29.5 11.5z" />
    <glyph glyph-name="car-hatchback" unicode="&#xfca7;" arabic-form="initial" 
d="M409 498h-272l-137 -164v-81h55q1 -35 24 -58t58 -23t57.5 23t24.5 58h163q2 -35 24.5 -58t57.5 -23t58 23t24 58h55v81q-1 23 -16.5 38.5t-38.5 16.5h-55zM151 457h109v-68h-164zM300 457h96l53 -68h-149v68zM137 293q18 0 29 -11.5t11 -29t-11 -29t-29 -11.5
t-29.5 11.5t-11.5 29t11.5 29t29.5 11.5zM464 293q18 0 29.5 -11.5t11.5 -29t-11.5 -29t-29.5 -11.5t-29 11.5t-11 29t11 29t29 11.5z" />
    <glyph glyph-name="car-pickup" unicode="&#xfca8;" arabic-form="initial" 
d="M409 498h-149v-109h-260v-136h55q1 -35 24 -58t58 -23t57.5 23t24.5 58h163q2 -35 24.5 -58t57.5 -23t58 23t24 58h55v81q-1 23 -16.5 38.5t-38.5 16.5h-55zM300 457h96l53 -68h-149v68zM137 293q18 0 29 -11.5t11 -29t-11 -29t-29 -11.5t-29.5 11.5t-11.5 29t11.5 29
t29.5 11.5zM464 293q18 0 29.5 -11.5t11.5 -29t-11.5 -29t-29.5 -11.5t-29 11.5t-11 29t11 29t29 11.5z" />
    <glyph glyph-name="car-side" unicode="&#xfca9;" arabic-form="initial" 
d="M409 498l82 -109h55q23 -1 38.5 -16.5t16.5 -38.5v-81h-55q-1 -35 -24 -58t-58 -23t-57.5 23t-24.5 58h-163q-2 -35 -24.5 -58t-57.5 -23t-58 23t-24 58h-55v81q1 23 16.5 38.5t38.5 16.5l82 109h272zM260 457h-103l-51 -68h154v68zM300 457v-68h141l-52 68h-89zM137 293
q-18 0 -29.5 -11.5t-11.5 -29t11.5 -29t29.5 -11.5t29 11.5t11 29t-11 29t-29 11.5zM464 293q-18 0 -29 -11.5t-11 -29t11 -29t29 -11.5t29.5 11.5t11.5 29t-11.5 29t-29.5 11.5z" />
    <glyph glyph-name="car-sports" unicode="&#xfcaa;" arabic-form="initial" 
d="M300 465h-136l-82 -69h-27q-23 0 -38.5 -15.5t-16.5 -38.5v-82h60q9 -25 29.5 -40t47.5 -15t47.5 15t28.5 40h175q9 -25 29 -40t47 -15t47.5 15t29.5 40h60v27q-1 22 -18 33.5t-37 21.5zM117 369l60 55h110l109 -55h-279zM137 328q18 0 29 -11.5t11 -29t-11 -29
t-29 -11.5t-29.5 11.5t-11.5 29t11.5 29t29.5 11.5zM464 328q18 0 29.5 -11.5t11.5 -29t-11.5 -29t-29.5 -11.5t-29 11.5t-11 29t11 29t29 11.5z" />
    <glyph glyph-name="caravan" unicode="&#xfcab;" arabic-form="initial" 
d="M59 576q-25 -2 -42 -19t-17 -42v-332h59q2 -38 27 -63.5t64 -25.5t64.5 25.5t25.5 63.5h361v61h-90v271q0 25 -17 42t-43 19h-392zM90 425h120v-91h-120v91zM300 425h120v-181h-120v181zM150 214q13 -1 21 -9.5t8 -21.5t-8 -21t-21 -8t-21.5 8t-8.5 21t8.5 21.5t21.5 9.5
z" />
    <glyph glyph-name="cctv" unicode="&#xfcac;" arabic-form="initial" 
d="M485 562q-16 2 -34 -9l-260 -151q-21 -13 -27.5 -36t5.5 -45l46 -77q13 -23 36 -29.5t45 5.5l54 31q13 -20 35 -31v-53q0 -25 17 -41.5t44 -17.5h155v59h-155v53q19 11 31.5 29t13 39t-10.5 39l76 44q23 13 29 36.5t-6 46.5l-46 77q-17 28 -48 31zM127 314l-127 -21
l105 -182l81 99z" />
    <glyph glyph-name="chart-donut" unicode="&#xfcad;" arabic-form="initial" 
d="M330 635v-91q79 -13 129 -70t52 -138q0 -41 -15 -76l80 -47q25 56 25 123q-3 120 -78.5 202t-192.5 97zM300 126q-90 1 -149 60t-61 150q2 81 52 138t129 70v91q-117 -15 -192.5 -97t-78.5 -202q3 -129 87.5 -213.5t212.5 -87.5q76 0 138.5 33.5t104.5 89.5l-79 46
q-28 -38 -70.5 -58t-93.5 -20z" />
    <glyph glyph-name="chart-donut-variant" unicode="&#xfcae;" arabic-form="initial" 
d="M330 635q117 -15 192.5 -97t78.5 -202q0 -67 -25 -123l-80 47q15 35 15 76q-2 81 -52 138t-129 70v91zM300 126q51 0 93.5 20.5t70.5 57.5l79 -46q-42 -56 -104.5 -89.5t-138.5 -33.5q-128 3 -212.5 88.5t-87.5 212.5q3 120 78.5 202.5t192.5 96.5v-91q-79 -13 -129 -70
t-52 -138q2 -91 61 -150t149 -60zM300 516q76 -1 128 -52.5t53 -127.5q-1 -70 -42.5 -118t-108.5 -60v93q27 10 44 32.5t17 52.5q-2 38 -27 63.5t-64 26.5l-16 -1l-47 80q30 11 63 11zM120 336q0 42 17.5 77t48.5 62l45 -80q-21 -25 -21 -59q0 -30 17 -52.5t44 -32.5v-93
q-67 12 -108.5 60t-42.5 118z" />
    <glyph glyph-name="chart-line-variant" unicode="&#xfcaf;" arabic-form="initial" 
d="M45 139l180 181l120 -120l256 287l-43 44l-213 -242l-120 121l-225 -226z" />
    <glyph glyph-name="chili-hot" unicode="&#xfcb0;" arabic-form="initial" 
d="M516 443l45 28q18 -9 29 -26.5t11 -38.5v-440q-19 -8 -150.5 74t-150.5 328v38q0 19 9.5 37t27.5 26l55 -26l58 37zM376 705q44 0 74.5 -28t38.5 -70q27 -9 48.5 -28.5t33.5 -45.5l-55 -34l-66 38l-58 -38l-64 32q25 55 83 76q-11 22 -35 24v74zM225 406q7 -217 80 -306
t145 -134q-18 -8 -149.5 74t-149.5 328v38q0 19 9.5 37t25.5 26l52 -24q-13 -18 -13 -39zM243 499l-64 32q24 55 81 76q-9 22 -35 24v74q46 0 75 -28v-46q27 -2 36 -24q-28 -9 -51 -33.5t-42 -74.5zM76 406q5 -217 79 -306t145 -134q-18 -8 -149 74t-151 328v38
q0 19 10.5 37t26.5 26l49 -24q-10 -18 -10 -39zM92 499l-62 32q22 55 81 76q-9 22 -35 24v74q44 0 75 -28v-46q24 -2 35 -24q-28 -9 -51 -33.5t-43 -74.5z" />
    <glyph glyph-name="chili-medium" unicode="&#xfcb1;" arabic-form="initial" 
d="M488 480l61 37q24 -12 38 -35.5t14 -51.5v-589q-25 -9 -200 100.5t-201 437.5v51q0 26 13.5 50t35.5 34l73 -34l79 49zM300 829q59 0 100 -37t51 -94q37 -12 66.5 -37.5t43.5 -60.5l-73 -46l-87 51l-79 -51l-83 43q30 74 108 101q-12 30 -47 33v98zM101 430
q7 -291 104.5 -409t195.5 -180q-25 -9 -200.5 100.5t-200.5 437.5v51q0 26 12.5 50t36.5 34l66 -32q-14 -24 -14 -52zM123 554l-86 43q33 74 111 101q-15 30 -47 33v98q59 0 99 -37v-61q34 -3 46 -33q-34 -12 -66 -45t-57 -99z" />
    <glyph glyph-name="chili-mild" unicode="&#xfcb2;" arabic-form="initial" 
d="M388 481l62 38q24 -12 38 -36t14 -52v-595q-24 -10 -201.5 100.5t-201.5 442.5v52q0 26 12.5 50.5t34.5 35.5l77 -36l77 50zM198 835q60 0 102.5 -37.5t49.5 -95.5q38 -12 68 -38t47 -61l-77 -46l-88 51l-77 -51l-87 43q33 75 110 102q-12 31 -48 33v100z" />
    <glyph glyph-name="cloud-braces" unicode="&#xfcb3;" arabic-form="initial" 
d="M150 134q-63 3 -106 45t-44 106q1 60 38.5 100.5t95.5 48.5q25 45 68 73t98 29q70 -1 120.5 -43t64.5 -108q49 -4 82 -39.5t34 -85.5q-1 -53 -36.5 -89t-89.5 -37h-325zM463 335h-12q-11 0 -18 7t-7 18v25q-1 22 -15 36t-35 14h-38v-50h38v-25q0 -21 14.5 -35.5
t35.5 -14.5q-21 -1 -35.5 -15t-14.5 -35v-25h-38v-50h38q21 0 35 14.5t15 35.5v25q0 11 7 18t18 7h12v50zM138 335v-50h12q11 0 18 -7t7 -18v-25q1 -21 15 -35.5t35 -14.5h38v50h-38v25q0 21 -14.5 35t-35.5 15q21 0 35.5 14.5t14.5 35.5v25h38v50h-38q-21 0 -35 -14
t-15 -36v-25q0 -11 -7 -18t-18 -7h-12z" />
    <glyph glyph-name="cloud-tags" unicode="&#xfcb4;" arabic-form="initial" 
d="M150 134q-63 3 -106 45t-44 106q1 60 38.5 100.5t95.5 48.5q25 45 68 73t98 29q70 -1 120.5 -43t64.5 -108q49 -4 82 -39.5t34 -85.5q-1 -53 -36.5 -89t-89.5 -37h-325zM228 425l-115 -115l115 -114l35 34l-80 80l80 80zM373 425l-35 -35l80 -80l-80 -80l35 -34l115 114z
" />
    <glyph glyph-name="console-line" unicode="&#xfcb5;" arabic-form="initial" 
d="M341 140v98h260v-98h-260zM195 335l-195 195h136l162 -161q14 -16 14 -35.5t-14 -33.5l-160 -160h-138z" />
    <glyph glyph-name="corn" unicode="&#xfcb6;" arabic-form="initial" 
d="M271 335h-67q37 -22 67 -51v51zM150 365q8 118 49 193.5t101 77.5q61 -2 102.5 -79t48.5 -195q68 32 150 34q-114 -74 -144.5 -210t-156.5 -152q-119 16 -150.5 152t-149.5 210q82 -2 150 -31zM271 365v60h-83l-7 -60h90zM271 455v61h-59q-12 -27 -18 -61h77zM271 545v52
q-25 -15 -46 -52h46zM300 606v-61h30v-29h-30v-61h61v-30h-61v-60h91v-30h-91v-61h61v-29h-53q26 -33 42.5 -66t19.5 -61q24 38 37 95.5t13 128.5q-2 110 -36 185.5t-84 78.5z" />
    <glyph glyph-name="currency-chf" unicode="&#xfcb7;" arabic-form="initial" 
d="M91 752h510v-94h-417v-277h371v-92h-371v-138h94v-94h-94v-139h-93v139h-91v94h91v601z" />
    <glyph glyph-name="currency-cny" unicode="&#xfcb8;" arabic-form="initial" 
d="M253 -98v241h-241v95h241v16l-40 81h-201v97h153l-165 336h109l191 -395l192 395h109l-165 -336h153v-97h-201l-40 -81v-16h241v-95h-241v-241h-95z" />
    <glyph glyph-name="currency-eth" unicode="&#xfcb9;" arabic-form="initial" 
d="M300 830l-300 -507l300 -180l301 180zM0 262l300 -422l301 422l-301 -180z" />
    <glyph glyph-name="currency-jpy" unicode="&#xfcba;" arabic-form="initial" 
d="M253 -98v241h-241v95h241v16l-40 81h-201v97h153l-165 336h109l191 -395l192 395h109l-165 -336h153v-97h-201l-40 -81v-16h241v-95h-241v-241h-95z" />
    <glyph glyph-name="currency-krw" unicode="&#xfcbb;" arabic-form="initial" 
d="M0 606h59l41 -181h120l41 181h79l41 -181h120l41 181h59l-40 -181h40v-60h-53l-13 -60h66v-60h-80l-40 -181h-80l-40 181h-121l-40 -181h-80l-40 181h-80v60h66l-13 60h-53v60h40zM334 365h-67l-13 -60h93zM160 154l21 91h-42zM207 365h-94l14 -60h67zM441 154l21 91h-42
zM488 365h-94l13 -60h67zM300 516l-19 -91h39z" />
    <glyph glyph-name="currency-sign" unicode="&#xfcbc;" arabic-form="initial" 
d="M598 334.5q0 47.5 -15.5 92.5t-43.5 85l59 58l-61 65l-59 -60q-82 57 -177.5 57t-177.5 -59l-59 59l-64 -62l60 -58q-57 -83 -57 -178t59 -177l-59 -59l63 -63l60 59q81 -57 177 -57t176 57l60 -59l62 63l-59 59q28 39 42 84.5t14 93zM300 126q-89 2 -147.5 60.5
t-60.5 147.5q2 90 60.5 148.5t147.5 59.5q90 -1 148.5 -59.5t60.5 -148.5q-2 -89 -60.5 -147.5t-148.5 -60.5z" />
    <glyph glyph-name="currency-twd" unicode="&#xfcbd;" arabic-form="initial" 
d="M0 368h601v-66h-200v-200h200v-68h-200q-28 0 -47 20t-21 48v200h-87l-155 -268l-58 33l136 235h-169v66zM67 636h467v-68h-467v68z" />
    <glyph glyph-name="desktop-classic" unicode="&#xfcbe;" arabic-form="initial" 
d="M120 636q-25 0 -42 -17t-19 -43v-241q2 -25 19 -42t42 -19h361q25 2 42 19t19 42v241q-2 26 -19 42.5t-42 17.5h-361zM120 576h361v-241h-361v241zM59 245q-25 0 -42 -17t-17 -44v-90q0 -26 17 -43t42 -17h483q25 0 42 17t17 43v90q0 27 -17 44t-42 17h-483zM181 184h361
v-90h-361v90zM210 162v-46h120v46h-120zM391 162v-46h120v46h-120z" />
    <glyph glyph-name="dip-switch" unicode="&#xfcbf;" arabic-form="initial" 
d="M30 576h120q13 -1 21 -9.5t10 -21.5v-420q-2 -13 -10 -21.5t-21 -9.5h-120q-13 1 -21.5 9.5t-8.5 21.5v420q0 13 8.5 21.5t21.5 9.5zM240 576h121q13 -1 21.5 -9.5t8.5 -21.5v-420q0 -13 -8.5 -21.5t-21.5 -9.5h-121q-13 1 -21.5 9.5t-8.5 21.5v420q0 13 8.5 21.5
t21.5 9.5zM451 576h120q13 -1 21.5 -9.5t8.5 -21.5v-420q0 -13 -8.5 -21.5t-21.5 -9.5h-120q-13 1 -21 9.5t-10 21.5v420q2 13 10 21.5t21 9.5zM59 154h61v151h-61v-151zM271 365h59v151h-59v-151zM481 154h61v151h-61v-151z" />
    <glyph glyph-name="donkey" unicode="&#xfcc0;" arabic-form="initial" 
d="M594 394l-2 3l-103 103v31q-1 15 -16 16q-6 0 -12 -6l-114 -104h-204q-34 -2 -53 -30l-84 -83q-8 -11 -6 -23.5t14 -21.5q17 -12 35 0l32 30v-186h95v125h156v-125h94v162q1 27 19 44l44 44l63 -30q8 -5 15 -5q16 2 25 11t9 22.5t-7 22.5z" />
    <glyph glyph-name="dots-horizontal-circle" unicode="&#xfcc1;" arabic-form="initial" 
d="M300 636q129 -3 213.5 -87.5t87.5 -213.5q-3 -129 -87.5 -213.5t-213.5 -87.5q-128 3 -212.5 87.5t-87.5 213.5q3 129 87.5 213.5t212.5 87.5zM300.5 381q-19.5 0 -32 -13t-12.5 -33t12.5 -33t32 -13t32 13t12.5 33t-12.5 33t-32 13zM135 381q-19 0 -32 -13t-13 -33
t13 -33t32 -13t31.5 13t12.5 33t-13 33t-31 13zM466 381q-18 0 -31 -13t-13 -33t12.5 -33t31.5 -13t32 13t13 33t-13 33t-32 13z" />
    <glyph glyph-name="dots-vertical-circle" unicode="&#xfcc2;" arabic-form="initial" 
d="M0 335q3 129 87.5 213.5t212.5 87.5q129 -3 213.5 -87.5t87.5 -213.5q-3 -129 -87.5 -213.5t-213.5 -87.5q-128 3 -212.5 87.5t-87.5 213.5zM256 335q0 -20 12.5 -33t32 -13t32 13t12.5 33t-12.5 33t-32 13t-32 -13t-12.5 -33zM256 170q0 -20 12.5 -32.5t32 -12.5
t32 12.5t12.5 31.5t-12.5 32t-32 13t-32 -13t-12.5 -31zM256 500q0 -18 12.5 -31t32 -13t32 13t12.5 32t-12.5 31.5t-32 12.5t-32 -12.5t-12.5 -32.5z" />
    <glyph glyph-name="ear-hearing" unicode="&#xfcc3;" arabic-form="initial" 
d="M468 54q-16 0 -26 7q-17 8 -31 25t-27 54.5t-34 59.5t-45 38q-20 16 -39.5 35t-38.5 50q-27 50 -27 99q2 72 49 119t119 47t118 -47t48 -119h67q-2 100 -67.5 166t-165.5 67q-102 -1 -167 -67t-68 -166q2 -66 36 -130q23 -41 48.5 -65t46 -39.5t35 -31t22.5 -38.5
q16 -45 37 -73.5t55 -44.5q25 -12 55 -12q56 2 93.5 39.5t39.5 93.5h-67q0 -28 -19 -46.5t-47 -20.5zM155 635l-47 47q-50 -50 -79 -116.5t-29 -143.5t29 -143.5t79 -116.5l47 47q-43 41 -65.5 95.5t-22.5 117t23.5 117.5t64.5 96zM284 422q1 -36 24.5 -59.5t58.5 -23.5
t59 23.5t24 59.5t-24 59.5t-59 23.5t-58.5 -23.5t-24.5 -59.5z" />
    <glyph glyph-name="elephant" unicode="&#xfcc4;" arabic-form="initial" 
d="M526 230q-2 -13 -15 -13t-15 13v210q-3 45 -38.5 75t-81.5 30h-256q-51 -1 -85 -35t-35 -85v-300h120v120h151v-120h120v135q1 13 14.5 13t14.5 -13v-45q2 -40 27 -65t64 -25t64.5 25t25.5 65v59h-75v-44z" />
    <glyph glyph-name="eventbrite" unicode="&#xfcc5;" arabic-form="initial" 
d="M601 509q0 31 -17.5 55t-46.5 35q-46 9 -231 22t-220 15q-40 -4 -65 -36q-21 -26 -21 -60v-406q0 -24 10 -45.5t30 -35.5q25 -20 57.5 -19t200.5 15l208 17q39 3 67 29t28 64v350zM470 470q-3 -5 -6 -12q-7 -18 -27 -17h-84q-54 0 -73 1q-8 0 -9 -6q-6 -31 -13 -64h116
h10q13 -3 17.5 -8.5t3.5 -19t-9 -26t-23 -12.5h-123q-6 1 -7 -6l-15 -68v-4h161q18 2 26 -17q4 -15 -3 -29t-21 -23q-7 -1 -15 -3l-198 -3q-15 -1 -28 8q-15 13 -12 31q6 26 28.5 135.5t30.5 148.5q2 18 16 29.5t33 10.5l101 -1l96 -3q35 -2 27 -42z" />
    <glyph glyph-name="food-croissant" unicode="&#xfcc6;" arabic-form="initial" 
d="M601 140l-90 59l90 61v-120zM391 260l120 180l90 -120l-120 -90zM90 199l-90 -59v120zM210 260l-90 -30l-120 90l90 120zM361 530l120 -60l-151 -210h-59l-151 210l120 60h121z" />
    <glyph glyph-name="forklift" unicode="&#xfcc7;" arabic-form="initial" 
d="M120 576v-212h-61q-25 0 -42 -17t-17 -42v-122q0 -38 25.5 -63.5t64.5 -25.5t64 25.5t27 63.5h59q1 -38 26.5 -63.5t64.5 -25.5t64 25.5t25 63.5v122l-120 271h-180zM451 544v-420h150v45h-105v375h-45zM165 530h112l99 -225h-211v225zM90 229q18 0 31 -13t13 -32
t-13 -32t-31.5 -13t-31.5 13t-13 32t13 32t32 13zM330 229q20 0 33 -13t13 -32t-13 -32t-32 -13t-32 13t-13 32t13 32t31 13z" />
    <glyph glyph-name="fuel" unicode="&#xfcc8;" arabic-form="initial" 
d="M0 670h106q15 0 25 -10l74 -73l28 27q21 21 50 22h212q26 0 50 -22l35 -34q21 -23 21 -50v-459q-2 -30 -22 -50.5t-49 -20.5h-353q-30 0 -50.5 20.5t-20.5 50.5v387q0 28 21 50l27 28l-63 65h-91v69zM283 564v-69h212v69h-212zM297 352l-70 72h-50v-50l70 -72v-112
l-70 -69v-50h50l70 69h112l71 -69h50v50l-71 69v112l71 72v50h-50l-71 -72h-112zM318 283h71v-71h-71v71z" />
    <glyph glyph-name="gesture" unicode="&#xfcc9;" arabic-form="initial" 
d="M57 504q17 19 33 31.5t24 9.5q12 -7 6 -22.5t-16.5 -29t-49.5 -79.5q-40 -66 -44 -129q0 -65 45 -99q18 -14 40.5 -18t46.5 4q26 8 50 32t50 59q31 39 68 75t68 39q39 -1 48 -20t9 -39q-92 -20 -134.5 -76t-42 -101t30.5 -74t75 -30.5t93.5 43t62.5 160.5h81v82h-83
q-1 46 -30.5 90.5t-101.5 48.5q-56 -2 -100 -34.5t-64 -58.5q-16 -20 -42 -51l-34 -39q-6 -8 -16 -18t-21 -10t-16 17.5t4.5 46.5t29 63t31.5 53q20 27 32 51.5t12 56.5q-3 53 -31 75t-53 20q-32 -2 -57 -17.5t-33 -24.5q-17 -17 -28 -31zM365 118q-8 0 -15.5 6t-9.5 19
q0 16 22 45t73 46q-8 -67 -30 -91.5t-40 -24.5z" />
    <glyph glyph-name="google-analytics" unicode="&#xfcca;" arabic-form="initial" 
d="M534 636q28 0 47.5 -20t19.5 -48v-466q0 -28 -19.5 -48t-47.5 -20h-133v534q0 28 19.5 48t47.5 20h66zM67 34q-28 0 -47.5 20t-19.5 48v66q0 28 19.5 47.5t47.5 19.5h133v133q0 28 20 47.5t48 19.5h116v-401h-317z" />
    <glyph glyph-name="google-assistant" unicode="&#xfccb;" arabic-form="initial" 
d="M181 621q75 -2 126 -53.5t54 -127.5q-3 -76 -54 -127.5t-126 -52.5q-78 1 -129 52.5t-52 127.5q1 76 52 127.5t129 53.5zM571 470q13 0 21.5 -8.5t8.5 -21.5t-8.5 -21.5t-21.5 -8.5t-21 8.5t-8 21.5t8 21.5t21 8.5zM466 410q32 -1 53 -22.5t21 -52.5t-21 -52.5
t-52.5 -21.5t-53 21.5t-21.5 52.5t21.5 52.5t52.5 22.5zM466 230q40 -2 65 -27t25 -64t-25.5 -64.5t-64 -25.5t-64.5 25.5t-26 64.5t26 64t64 27z" />
    <glyph glyph-name="headphones-off" unicode="&#xfccc;" arabic-form="initial" 
d="M277 666q-118 -3 -196 -81.5t-81 -195.5v-217q0 -28 16 -50l169 169v36h-123v62q2 91 62.5 151.5t152.5 63.5q46 0 86 -17.5t70 -48.5l44 45q-39 39 -90 60.5t-110 22.5zM562 589l-546 -547l39 -38l77 76h53v53l185 185v-238h92q39 1 65 27t27 65v217q0 50 -17 97l64 63z
M488 436q4 -23 4 -47v-62h-114z" />
    <glyph glyph-name="high-definition" unicode="&#xfccd;" arabic-form="initial" 
d="M0 551h85v-174h86v174h87v-432h-87v174h-86v-174h-85v432zM343 551h129q57 -2 93 -38.5t36 -90.5v-174q0 -54 -36 -90.5t-93 -38.5h-129v432zM472 206q19 0 30.5 12t13.5 30v174q-2 18 -13.5 30t-30.5 12h-42v-258h42z" />
    <glyph glyph-name="home-assistant" unicode="&#xfcce;" arabic-form="initial" 
d="M578 298h-50v-228h-200v95l79 80l21 -5q25 0 41.5 17.5t16.5 43t-16.5 42t-42 16.5t-42 -16.5t-17.5 -41.5l3 -20l-43 -45v157q14 8 23 21.5t9 31.5q-2 25 -18.5 42t-42 17t-42 -17t-17.5 -42q0 -17 8.5 -31.5t23.5 -21.5v-157l-43 45l2 20q-1 25 -17.5 41.5t-42 16.5
t-42 -16.5t-16.5 -42t17 -42.5q15 -18 41 -18l21 5l80 -80v-95h-200v228h-49q-10 0 -16.5 0.5t-6.5 5.5t6.5 12.5t17.5 17.5l248 248q6 8 13.5 13t14 5t14 -5t14.5 -13l114 -114v28h56v-85l80 -78l16 -18q7 -8 7 -12t-6.5 -4.5t-16.5 -0.5zM171 326q11 0 18.5 -7.5t7.5 -18
t-7.5 -18t-18 -7.5t-18 7.5t-7.5 18t7 18t18 7.5zM428 326q11 0 18 -7.5t7 -18t-7.5 -18t-18 -7.5t-18 7.5t-7.5 18t7.5 18t18.5 7.5zM300 471q11 0 18 -7.5t7 -18.5t-7 -17.5t-18 -6.5t-18.5 6.5t-7.5 17.5t7.5 18.5t18.5 7.5z" />
    <glyph glyph-name="home-automation" unicode="&#xfccf;" arabic-form="initial" 
d="M300 591l-300 -271h90v-241h421v241h90zM300 426q54 -2 100 -20.5t81 -52.5l-37 -37q-26 28 -63.5 43.5t-80 15.5t-80 -15.5t-63.5 -43.5l-37 37q35 34 81 52.5t99 20.5zM300 326q33 -1 60.5 -12.5t48.5 -33.5l-36 -35q-28 28 -72.5 28.5t-72.5 -28.5l-36 35
q21 21 48.5 33t59.5 13zM300.5 224q20.5 0 35.5 -14t15 -35t-15 -35.5t-35.5 -14.5t-35.5 14.5t-15 35.5t15 35t35.5 14z" />
    <glyph glyph-name="home-circle" unicode="&#xfcd0;" arabic-form="initial" 
d="M513 547q-43 44 -97.5 66.5t-115 22.5t-115 -23t-97.5 -65.5t-65.5 -97.5t-22.5 -115t22.5 -115t65.5 -97.5t97.5 -65t115 -23t115 22.5t97.5 65.5t65.5 97.5t22.5 115t-22.5 115t-65.5 97zM451 335v-180h-106v151h-89v-151h-106v180h-59l209 209l225 -209h-74z" />
    <glyph glyph-name="language-go" unicode="&#xfcd1;" arabic-form="initial" 
d="M351.5 647q14.5 0 23.5 -9t9 -22.5t-9.5 -23.5t-23.5 -10t-23 10t-9 23.5t9 22.5t23.5 9zM165.5 638q14.5 0 23 -9.5t8.5 -23.5t-9 -23t-23 -9t-24 9t-10 23t10 23.5t24.5 9.5zM515 703q23 0 39 -15.5t16 -38.5t-12.5 -38t-33.5 -20l-3 -6q26 -82 25 -156.5t-3 -80.5
q23 -14 42.5 -27.5t14.5 -27.5q-11 -13 -32 -7.5t-23 7.5q7 -191 -18 -243.5t-30 -47.5q3 -2 16 -26q13 -23 2 -39q-18 -11 -40 7t-26 21q-4 -2 -59 -18.5t-109 -18.5q-51 2 -89.5 18.5t-40.5 18.5q-23 -21 -44.5 -30.5t-30.5 2.5q-4 16 11 39.5t16 25.5q-57 44 -54.5 164
t8.5 136q-9 -9 -28.5 -19t-28.5 10q-2 20 25.5 33t31.5 13q-11 101 -8.5 160t9.5 85q-19 3 -30.5 18t-11.5 38t16 38.5t38 15.5q15 0 26 -5q32 22 84 36.5t115 16.5q59 -2 108.5 -14t82.5 -34q11 9 29 9zM384.5 694q-31.5 0 -52.5 -22t-21 -53.5t21 -52.5t52.5 -21t52.5 21
t21 52.5t-21 53.5t-52.5 22zM197 685q-32 -2 -53 -22.5t-21 -52.5t21 -53t52.5 -21t53.5 21t22 53t-22 52.5t-53 22.5zM295 506q-18 0 -29.5 -4.5t-11.5 -13.5t18 -15v-22q0 -9 9 -9h28q9 0 10 9v22q18 6 18 15t-12 13.5t-30 4.5z" />
    <glyph glyph-name="language-r" unicode="&#xfcd2;" arabic-form="initial" 
d="M300 566q-127 -1 -212 -58t-88 -143q1 -76 70 -130t177 -68v-63h103v63q38 5 72 14l42 -77h116l-71 117q44 28 68 64.5t24 79.5q-3 86 -88 143t-213 58zM347 489q96 0 156.5 -34t62.5 -105q0 -40 -19.5 -66t-52.5 -44q-4 2 -7 5q-9 4 -19 7l-9 3q5 -2 44 14.5t45 80.5
q-6 65 -47 80t-47 12h-207v-215q-58 16 -93.5 48.5t-35.5 74.5q2 58 66.5 97.5t162.5 41.5zM351 369h62q2 0 14.5 -3.5t13.5 -24.5q-1 -21 -13.5 -26t-14.5 -4h-62v58zM350 236h28q7 0 13 -5.5t11 -13.5q-23 -5 -52 -5v24z" />
    <glyph glyph-name="lava-lamp" unicode="&#xfcd3;" arabic-form="initial" 
d="M188 835l-109 -721h443l-110 721h-224zM272 682q19 0 30.5 -12t11.5 -29t-12 -29t-28.5 -12t-29 12t-12.5 29t12 29t28 12zM328 530q24 -3 39.5 -18.5t15.5 -38.5t-15.5 -38.5t-38.5 -15.5t-39 15.5t-16 38.5t15 38.5t39 18.5zM272 335q36 0 59.5 -23.5t23.5 -60
t-23.5 -60t-58.5 -23.5t-58.5 23.5t-23.5 60t24 60t57 23.5zM79 56l109 -109l-109 -112h443l-110 112l110 109h-443z" />
    <glyph glyph-name="led-strip" unicode="&#xfcd4;" arabic-form="initial" 
d="M0 451l392 -394l25 24l46 -47l46 47l-46 45l46 47l46 -47l46 47l-46 46l23 24l-394 393zM92 451l92 93l302 -301l-94 -93zM138 451l46 -47l47 47l-47 46zM209 381l45 -46l46 46l-46 46zM278 312l45 -46l47 46l-47 46zM347 243l45 -46l47 46l-47 46z" />
    <glyph glyph-name="locker" unicode="&#xfcd5;" arabic-form="initial" 
d="M101 835h399q42 0 71.5 -28t29.5 -71v-802q0 -43 -29.5 -71t-71.5 -28h-399q-42 0 -71.5 28t-29.5 71v802q0 43 29.5 71t71.5 28zM101 736v-802h399v802h-399zM200 286h100v-202h-100v202zM200 635h201v-75h-201v75zM200 485h201v-74h-201v74z" />
    <glyph glyph-name="locker-multiple" unicode="&#xfcd6;" arabic-form="initial" 
d="M55 607h491q23 0 38.5 -15t16.5 -38v-438q-1 -23 -16.5 -38t-38.5 -15h-491q-23 0 -38.5 15t-16.5 38v438q1 23 16.5 38t38.5 15zM327 554v-438h219v438h-219zM55 554v-438h219v438h-219zM110 308h54v-110h-54v110zM110 499h109v-42h-109v42zM110 417h109v-41h-109v41z
M382 308h55v-110h-55v110zM382 499h109v-42h-109v42zM382 417h109v-41h-109v41z" />
    <glyph glyph-name="map-marker-outline" unicode="&#xfcd7;" arabic-form="initial" 
d="M300.5 571q46.5 0 77 -30t30.5 -76.5t-30.5 -77t-77 -30.5t-77 30.5t-30.5 77t30.5 76.5t77 30zM300 765q130 -2 214.5 -87t86.5 -214q-19 -184 -150.5 -364t-150.5 -195q-18 15 -149.5 195t-150.5 364q2 129 86.5 214t213.5 87zM300 680q-90 -2 -151.5 -63.5
t-63.5 -152.5q-7 -28 27 -116.5t188 -300.5q155 212 189 300.5t27 116.5q-2 91 -63.5 152.5t-152.5 63.5z" />
    <glyph glyph-name="metronome" unicode="&#xfcd8;" arabic-form="initial" 
d="M280 689l-120 -33l-157 -589q-3 -7 -3 -17q2 -29 21.5 -49t48.5 -20h420q29 0 48.5 20t21.5 49q0 10 -3 17l-48 177l-54 -53l7 -36h-133l100 100l-49 49l-149 -149h-133l123 455h118l52 -190l56 57l-47 179zM254 574v-340l52 52v288h-52zM552 477l-99 -99l-24 24l-49 -49
l98 -98l49 49l-24 24l98 100z" />
    <glyph glyph-name="metronome-tick" unicode="&#xfcd9;" arabic-form="initial" 
d="M300 715l-128 -35l-170 -638l-2 -13q2 -31 23 -52.5t53 -21.5h449q32 0 53 21.5t23 52.5l-2 13l-170 638zM238 630h125l133 -488h-159v188h-73v-188h-159zM264 591v-149h-39v-76h151v76h-39v149h-73z" />
    <glyph glyph-name="micro-sd" unicode="&#xfcda;" arabic-form="initial" 
d="M151 709q-31 0 -53 -21t-22 -52v-264l-76 -74v-264q2 -31 23 -52t53 -21h449q32 0 53 21t23 52v602q-2 31 -23 52t-53 21h-374zM188 636h76v-152h-76v152zM300 636h76v-152h-76v152zM413 636h76v-152h-76v152z" />
    <glyph glyph-name="mixer" unicode="&#xfcdb;" arabic-form="initial" 
d="M110 577l172 -232q8 -9 0 -19l-177 -238q-17 -18 -42 -19t-43 16t-19.5 40t12.5 44l124 167l-124 165q-14 19 -12.5 43.5t19.5 41.5l4 3q21 15 46 11.5t40 -23.5zM491 577q15 20 40 23.5t46 -11.5l4 -3q18 -17 19.5 -41t-12.5 -44l-124 -165l124 -167q14 -21 12.5 -44
t-19.5 -40t-42.5 -16t-42.5 19l-177 238q-8 10 0 19z" />
    <glyph glyph-name="movie-roll" unicode="&#xfcdc;" arabic-form="initial" 
d="M300 636q129 -3 213.5 -87.5t87.5 -213.5q-3 -129 -87.5 -213.5t-213.5 -87.5q-128 3 -212.5 87.5t-87.5 213.5q3 129 87.5 213.5t212.5 87.5zM300 576q-32 -1 -53.5 -22.5t-21.5 -53t21.5 -52.5t54 -21t54 21t21.5 52.5t-21.5 53t-54.5 22.5zM72 410q-10 -31 4 -58
t44.5 -37t57 3.5t37 44.5t-4 57t-45 36t-57 -3t-36.5 -43zM529 410q-10 30 -36.5 43t-57 4t-45 -36t-4 -57t37 -44.5t57 -4.5t44.5 37t4 58zM160 140q26 -18 56 -13t48 31t14 55.5t-30 48t-55.5 14t-49 -30.5t-14.5 -56t31 -49zM441 140q26 19 31 49t-14.5 56t-49 30.5
t-54.5 -14t-30 -48t13 -55.5t48.5 -31t55.5 13zM300.5 381q-19.5 0 -32 -13t-12.5 -33t12.5 -33t32 -13t32 13t12.5 33t-12.5 33t-32 13z" />
    <glyph glyph-name="mushroom" unicode="&#xfcdd;" arabic-form="initial" 
d="M300 636q129 -3 213.5 -87.5t87.5 -213.5q0 -25 -17 -42t-42 -19h-483q-25 2 -42 19t-17 42q3 129 87.5 213.5t212.5 87.5zM300 455q26 1 43 18t17 42.5t-17 42.5t-42.5 17t-42.5 -17t-17 -42.5t17 -42.5t42 -18zM451.5 335q25.5 0 42.5 17.5t17 43t-17 42.5t-42.5 17
t-43 -17t-17.5 -42.5t17.5 -43t43 -17.5zM149.5 335q25.5 0 43 17.5t17.5 43t-17.5 42.5t-43 17t-42.5 -17t-17 -42.5t17 -43t42.5 -17.5zM391 245l38 -135l3 -16q-1 -26 -18 -43t-43 -17h-141q-26 0 -43 17t-18 43l3 16l38 135h181z" />
    <glyph glyph-name="mushroom-outline" unicode="&#xfcde;" arabic-form="initial" 
d="M59 335h483q-2 86 -52 149t-129 84q-4 -23 -21 -37.5t-39.5 -14.5t-39.5 14.5t-21 37.5q-79 -21 -129 -84t-52 -149zM300 636q129 -3 213.5 -87.5t87.5 -213.5q0 -25 -17 -42t-42 -19h-483q-25 2 -42 19t-17 42q3 129 87.5 213.5t212.5 87.5zM345 184h-89l-26 -90h141z
M391 245l29 -106l9 -29l3 -16q-1 -26 -18 -43t-43 -17h-141l-14 2q-25 7 -38 27q-12 20 -6 46l38 136h181zM420 486q26 -1 43.5 -18t17.5 -42.5t-17.5 -42.5t-43 -17t-42.5 17t-17 42.5t17 42.5t42 18zM181 486q25 -1 42 -18t17 -42.5t-17 -42.5t-42.5 -17t-43 17
t-17.5 42.5t17.5 42.5t43.5 18z" />
    <glyph glyph-name="nintendo-switch" unicode="&#xfcdf;" arabic-form="medial" 
d="M241 82h-87q-44 2 -74.5 32t-31.5 74v294q1 44 31.5 74t74.5 32h87v-506zM154 636q-67 -2 -110 -45t-44 -109v-294q1 -66 44 -109t110 -45h136v602h-136zM93 455q0 -24 16.5 -39.5t40 -15.5t40 15.5t16.5 39.5t-16.5 40t-40 16t-40 -16t-16.5 -40zM470 365q25 0 42 -17
t17 -43t-16.5 -43t-43 -17t-43.5 17t-17 43t17 43t44 17zM447 34q67 2 110 45t44 109v294q-1 66 -44 109t-110 45h-97v-602h97z" />
    <glyph glyph-name="null" unicode="&#xfce0;" arabic-form="medial" 
d="M300 701q52 0 97.5 -20t83.5 -56l61 79l59 -45l-74 -92q31 -48 49 -106.5t18 -125.5q-4 -155 -86 -258.5t-208 -107.5q-51 0 -96.5 20t-83.5 56l-61 -79l-59 45l74 92q-31 48 -49 106.5t-18 125.5q4 155 86 258.5t207 107.5zM300 628q-92 -3 -154.5 -85t-64.5 -208
q2 -96 41 -170l312 402q-56 60 -134 61zM300 42q93 3 155.5 85t64.5 208q-2 96 -41 170l-312 -402q56 -60 133 -61z" />
    <glyph glyph-name="passport" unicode="&#xfce1;" arabic-form="medial" 
d="M76 709q-32 0 -53 -21t-23 -52v-602q2 -31 23 -52t53 -21h449q32 0 53 21t23 52v602q-2 31 -23 52t-53 21h-449zM300 597q80 -2 133.5 -54.5t55.5 -131.5q-2 -81 -55.5 -134t-133.5 -54q-79 1 -132.5 54t-55.5 134q2 79 55.5 131.5t132.5 54.5zM300 560q-22 -35 -35 -76
h71q-11 41 -36 76zM251 551q-53 -18 -81 -67h55q10 35 26 67zM350 551q16 -32 26 -67h55q-28 48 -81 67zM155 447q-4 -18 -4 -36.5t4 -38.5h63q-2 19 -2 38t2 37h-63zM256 447q-3 -18 -3 -36.5t3 -38.5h89q1 19 1 38t-1 37h-89zM383 447q2 -18 2 -36.5t-2 -38.5h63
q4 19 4 38t-4 37h-63zM170 335q28 -48 81 -67q-16 32 -26 67h-55zM265 335q13 -40 35 -76q25 36 36 76h-71zM376 335q-11 -35 -26 -67q53 19 81 67h-55zM112 147h377v-74h-377v74z" />
    <glyph glyph-name="periodic-table-co2" unicode="&#xfce2;" arabic-form="medial" 
d="M69 524q-29 -1 -49 -20.5t-20 -48.5v-206q0 -29 20 -48.5t49 -20.5h103v69h-103v206h103v69h-103zM275 524q-28 -1 -48.5 -20.5t-20.5 -48.5v-206q0 -29 20.5 -48.5t48.5 -20.5h68q29 1 49 20.5t20 48.5v206q0 29 -20 48.5t-49 20.5h-68zM275 455h68v-206h-68v206z
M446 404v-52h103v-52h-51q-21 0 -35.5 -14.5t-16.5 -36.5v-103h155v52h-103v51h51q22 0 37 14t15 37v52q0 22 -15 37t-37 15h-103z" />
    <glyph glyph-name="pipe" unicode="&#xfce3;" arabic-form="medial" 
d="M601 274h-59v-59h-181v90h59v60h-59v151q-1 25 -18 42t-43 18h-241v60h-59v-240h59v59h181v-90h-59v-60h59v-151q1 -25 18 -42t42 -18h242v-60h59v240z" />
    <glyph glyph-name="pipe-disconnected" unicode="&#xfce4;" arabic-form="medial" 
d="M420 425v-60h-239v60h59v30h-181v-59h-59v240h59v-60h241q26 -1 43 -18t18 -42v-91h59zM240 245v-91q1 -25 18 -42t42 -18h242v-60h59v240h-59v-59h-181v30h59v60h-239v-60h59z" />
    <glyph glyph-name="power-socket-eu" unicode="&#xfce5;" arabic-form="medial" 
d="M164.5 381q19.5 0 32.5 -13t13 -33t-12.5 -33t-32.5 -13t-32.5 13t-12.5 33t12.5 33t32 13zM436.5 381q19.5 0 32 -13t12.5 -33t-12.5 -33t-32.5 -13t-32.5 13t-12.5 33t13 33t32.5 13zM66 636h469q28 0 47 -19.5t19 -47.5v-468q0 -28 -19 -47t-47 -20h-469
q-28 0 -47 19.5t-19 47.5v468q0 28 19 47.5t47 19.5zM300 576q-103 -3 -170.5 -70.5t-70.5 -170.5q3 -103 70.5 -170.5t170.5 -70.5q104 3 171.5 70.5t70.5 170.5q-3 103 -70.5 170.5t-171.5 70.5z" />
    <glyph glyph-name="power-socket-uk" unicode="&#xfce6;" arabic-form="medial" 
d="M376 283h105v-68h-105v68zM120 283h105v-68h-105v68zM271 516h59v-120h-59v120zM66 636q-28 0 -47 -19.5t-19 -47.5v-468q0 -28 19 -47t47 -20h469q28 0 47 19.5t19 47.5v468q0 28 -19 47.5t-47 19.5h-469zM300 576q104 -3 171.5 -70.5t70.5 -170.5q-3 -103 -70.5 -170.5
t-171.5 -70.5q-103 3 -170.5 70.5t-70.5 170.5q3 103 70.5 170.5t170.5 70.5z" />
    <glyph glyph-name="power-socket-us" unicode="&#xfce7;" arabic-form="medial" 
d="M181 486h59v-151h-59v151zM66 636h469q28 0 47 -19.5t19 -47.5v-468q0 -28 -19 -47t-47 -20h-469q-28 0 -47 19.5t-19 47.5v468q0 28 19 47.5t47 19.5zM300 576q-103 -3 -170.5 -70.5t-70.5 -170.5q3 -103 70.5 -170.5t170.5 -70.5q104 3 171.5 70.5t70.5 170.5
q-3 103 -70.5 170.5t-171.5 70.5zM361 470h59v-120h-59v120zM256 206q0 20 12.5 33t32 13t32 -12.5t12.5 -33.5v-22h-89v22z" />
    <glyph glyph-name="rice" unicode="&#xfce8;" arabic-form="medial" 
d="M601 357h-69q-8 25 -19 48.5t-26 41.5l102 164l-50 32l-98 -153q-8 7 -16.5 12t-18.5 9l27 108l-57 16l-25 -103q-25 6 -51 6q-84 -2 -147 -52t-84 -129h-69q1 -93 50.5 -165.5t130.5 -111.5v-53h239v53q81 39 130.5 111.5t50.5 165.5zM300 478q60 -1 105 -34.5t63 -86.5
h-335q18 53 63 86.5t104 34.5z" />
    <glyph glyph-name="ring" unicode="&#xfce9;" arabic-form="medial" 
d="M300 411l-149 208l60 90h179l60 -90zM432 530l-45 -64q63 -26 100 -80.5t38 -126.5q-1 -94 -65.5 -157.5t-159.5 -67.5q-94 4 -158.5 67.5t-65.5 157.5q1 72 38 126.5t100 80.5l-45 64q-75 -37 -121 -108t-48 -163q4 -126 88 -211t212 -87q129 2 213 87t88 211
q-2 92 -48 163t-121 108z" />
    <glyph glyph-name="sass" unicode="&#xfcea;" arabic-form="medial" 
d="M300 636q129 -3 213.5 -87.5t87.5 -213.5q-3 -129 -87.5 -213.5t-213.5 -87.5q-128 3 -212.5 87.5t-87.5 213.5q3 129 87.5 213.5t212.5 87.5zM240 235q7 -24 0 -45l-2 -6l-1 -3q-6 -11 -14 -21q-14 -14 -29.5 -19t-23 0t-4.5 21t20 33t34 27.5t18 10.5zM490 507
q-13 41 -67.5 52t-119.5 -11q-38 -13 -75 -33t-67 -49q-34 -32 -44 -58.5t-7 -37.5q11 -41 51 -70l66 -50q-10 -4 -43 -24.5t-49 -48.5q-11 -27 -3.5 -45.5t18.5 -21.5q31 -7 58 5.5t43.5 37t18 50t-7.5 42.5q18 5 47 3q38 -8 51 -25t10.5 -28t-8 -17t-10 -8.5t-3.5 -4.5
t5 -1t15.5 9t12.5 28q2 25 -20 45.5t-63 22.5q-34 -2 -48 -8l-1 3q-30 25 -61.5 50t-33.5 61q-3 14 18 45.5t102 75.5q72 33 120.5 30t60.5 -26q13 -32 -25.5 -73t-111.5 -52q-27 -2 -42 4.5t-19 10.5q-6 7 -7 6q-4 -5 -1 -11t12 -14t23 -13t43.5 -4t70.5 15q45 18 72 57.5
t19 80.5z" />
    <glyph glyph-name="send-secure" unicode="&#xfceb;" arabic-form="medial" 
d="M574 212v14q-1 28 -20.5 47.5t-48 19.5t-48 -19.5t-20.5 -47.5v-14q-12 0 -19.5 -7.5t-7.5 -19.5v-110q0 -12 7.5 -19.5t19.5 -7.5h137q12 0 19.5 7.5t7.5 19.5v110q0 12 -7.5 19.5t-19.5 7.5zM546 212h-82v14q1 16 12.5 28t29 12t29 -11.5t11.5 -28.5v-14zM574 376
l-574 -246v191l410 55l-410 55v191z" />
    <glyph glyph-name="soy-sauce" unicode="&#xfcec;" arabic-form="medial" 
d="M397 557q0 26 4 46l10 30h30l45 125h40v75h-451v-75h40l45 -125h30q14 -25 14 -76q-12 -56 -102 -203.5t-102 -299.5v-101q2 -54 88 -85t212.5 -31t212.5 31t88 85v101q-12 152 -102 299.5t-102 203.5zM300.5 182q-42.5 0 -70.5 29.5t-28 71.5t28 70.5t70.5 28.5
t70.5 -28.5t28 -70.5t-28 -71.5t-70.5 -29.5z" />
    <glyph glyph-name="standard-definition" unicode="&#xfced;" arabic-form="medial" 
d="M343 551h129q57 -2 93 -38.5t36 -90.5v-174q0 -54 -36 -90.5t-93 -38.5h-129v432zM472 206q19 0 30.5 12t13.5 30v174q-2 18 -13.5 30t-30.5 12h-42v-258h42zM85 551h173v-87h-173v-87h86q37 0 61 -24t26 -60v-87q-2 -36 -26 -60.5t-61 -26.5h-171v87h171v87h-86
q-36 0 -60.5 24t-24.5 60v87q0 36 24.5 60.5t60.5 26.5z" />
    <glyph glyph-name="surround-sound-2-0" unicode="&#xfcee;" arabic-form="medial" 
d="M468 502h66q28 -1 47.5 -20t19.5 -47v-200q0 -28 -19.5 -47t-47.5 -20h-66q-28 1 -47.5 20t-19.5 47v200q0 28 19.5 47t47.5 20zM468 435v-200h66v200h-66zM200 168h-200v67l133 200h-133v67h133q28 -1 47.5 -20t19.5 -47q0 -21 -11 -37l-109 -163h120v-67zM300 168
q-14 1 -23 10.5t-9 23.5t9 23.5t23.5 9.5t23.5 -9.5t9 -23.5t-9 -23.5t-24 -10.5z" />
    <glyph glyph-name="surround-sound-3-1" unicode="&#xfcef;" arabic-form="medial" 
d="M337 147q-16 2 -26.5 12t-10.5 26.5t10.5 27t27 10.5t26.5 -10.5t10 -27t-10 -26.5t-27 -12zM562 523v-300h39v-76h-151v76h39v224h-39l39 76h73zM0 523h151q32 -2 53 -23t21 -53v-224q0 -32 -21 -53t-53 -23h-151v76h151v75h-112v74h112v75h-151v76z" />
    <glyph glyph-name="surround-sound-5-1" unicode="&#xfcf0;" arabic-form="medial" 
d="M337 147q-16 2 -26.5 12t-10.5 26.5t10.5 27t27 10.5t26.5 -10.5t10 -27t-10 -26.5t-27 -12zM562 523v-300h39v-76h-151v76h39v224h-39l39 76h73zM76 298q-32 0 -53 21t-23 53v151h225v-76h-149v-75h75q32 0 53 -21t21 -53v-75q0 -32 -21 -53t-53 -23h-151v76h151v75h-75
z" />
    <glyph glyph-name="surround-sound-7-1" unicode="&#xfcf1;" arabic-form="medial" 
d="M300 119q-18 2 -30 14t-12 30.5t12 30.5t30.5 12t30.5 -12t12 -30.5t-12 -30.5t-31 -14zM559 551v-345h42v-87h-171v87h42v258h-42l42 87h87zM258 551l-129 -432h-87l104 345h-146v87h258z" />
    <glyph glyph-name="television-classic" unicode="&#xfcf2;" arabic-form="medial" 
d="M185 606l-43 -43l78 -77h-161q-25 -1 -42 -18t-17 -43v-300q0 -27 17 -44t42 -17h483q25 0 42 17t17 44v300q0 26 -17 43t-42 18h-161l78 77l-43 43l-116 -116zM59 425h392v-300h-392v300zM526 425q13 0 21.5 -8t8.5 -21t-8.5 -21.5t-21 -8.5t-21.5 8.5t-9 21.5t8.5 21
t21.5 8zM526 335q13 0 21.5 -8.5t8.5 -21.5t-8.5 -21t-21 -8t-21.5 8t-9 21t8.5 21.5t21.5 8.5z" />
    <glyph glyph-name="textbox-password" unicode="&#xfcf3;" arabic-form="medial" 
d="M451 486h150v-302h-150v-59q0 -13 8.5 -21.5t21.5 -9.5h61v-60h-76q-13 0 -28.5 8.5t-17.5 21.5q-1 -13 -16 -21.5t-28 -8.5h-76v60h61q13 1 21.5 9.5t8.5 21.5v420q0 13 -8.5 21.5t-21.5 9.5h-61v60h76q14 0 28.5 -8.5t15.5 -21.5q2 13 17.5 21t28.5 9h76v-60h-61
q-13 -1 -21.5 -9.5t-8.5 -21.5v-59zM0 486h330v-61h-271v-180h271v-61h-330v302zM542 245v180h-91v-180h91zM195 335q0 20 -13 33t-32 13t-32 -13t-13 -33t13 -33t32 -13t32 13t13 33zM330 369q-14 13 -31.5 11.5t-31 -16t-12.5 -32t15 -30.5t30.5 -13t29.5 12v68z" />
    <glyph glyph-name="thought-bubble" unicode="&#xfcf4;" arabic-form="medial" 
d="M45 140q18 -2 31 -14.5t13 -31.5t-12.5 -32t-32 -13t-32 13t-12.5 32t12.5 31.5t32.5 14.5zM195 230q33 -2 53.5 -23t20.5 -52.5t-21 -53t-52.5 -21.5t-53 21.5t-21.5 53t21.5 52.5t52.5 23zM376 260q-27 0 -50.5 10t-40.5 31q-16 -20 -39 -30.5t-51 -10.5
q-45 1 -77 27.5t-42 70.5q-34 13 -55 43t-21 69q1 52 35 86t85 35q11 0 22 -3q34 31 83 33q27 0 50.5 -10.5t40.5 -30.5q16 19 39 30t51 11q45 -2 77 -28.5t42 -70.5q34 -13 55 -43t21 -69q-1 -52 -35 -85.5t-85 -35.5l-22 3q-34 -31 -83 -32z" />
    <glyph glyph-name="thought-bubble-outline" unicode="&#xfcf5;" arabic-form="isolated" 
d="M45 140q18 -2 31 -14.5t13 -31.5t-12.5 -32t-32 -13t-32 13t-12.5 32t12.5 31.5t32.5 14.5zM195 230q33 -2 53.5 -23t20.5 -52.5t-21 -53t-52.5 -21.5t-53 21.5t-21.5 53t21.5 52.5t52.5 23zM376 260q-27 0 -50.5 10t-40.5 31q-16 -20 -39 -30.5t-51 -10.5
q-45 1 -77 27.5t-42 70.5q-34 13 -55 43t-21 69q1 52 35 86t85 35l22 -3q34 31 83 33q27 0 50.5 -10.5t40.5 -30.5q16 19 39 30t51 11q45 -2 77 -28.5t42 -70.5q34 -13 55 -43t21 -69q-1 -52 -35 -85.5t-85 -35.5l-22 3q-34 -31 -83 -32zM120 530q-25 0 -42 -17.5t-17 -43
t17 -42.5t42 -17q15 0 28 6q-13 -15 -13 -37q0 -25 17 -42t44 -17t44 20l45 51l45 -51q18 -20 46 -20q23 0 39.5 14t20.5 37q17 -20 45 -21q25 0 42 17.5t17 43t-17 42.5t-42 17q-15 0 -28 -6q13 15 13 37q0 25 -17 42t-44 17t-44 -19l-46 -52l-44 52q-17 19 -46 19
q-23 0 -39.5 -14t-20.5 -37q-18 20 -45 21zM195 184q-13 -1 -21.5 -9.5t-8.5 -21t8.5 -21t21 -8.5t21.5 8.5t9 21t-8.5 21t-21.5 9.5z" />
    <glyph glyph-name="trackpad" unicode="&#xfcf6;" arabic-form="isolated" 
d="M59 606h483q25 0 42 -18t17 -43v-420q0 -25 -17 -43t-42 -18h-483q-25 0 -42 18t-17 43v420q0 25 17 43t42 18zM59 545v-240h483v240h-483zM59 125h212v120h-212v-120zM542 125v120h-212v-120h212z" />
    <glyph glyph-name="ultra-high-definition" unicode="&#xfcf7;" arabic-form="isolated" 
d="M219 472h55v-110h53v110h55v-274h-55v110h-53v-110h-55v274zM437 472h82q35 -1 58 -24t24 -58v-110q-1 -35 -24 -58t-58 -24h-82v274zM519 253q12 0 19.5 7.5t7.5 19.5v110q0 12 -7.5 19.5t-19.5 7.5h-28v-164h28zM164 280q0 -35 -23 -58t-58.5 -23t-58.5 23t-24 58v192
h55v-192q0 -12 7.5 -19.5t19.5 -7.5t19.5 7.5t8.5 19.5v192h54v-192z" />
    <glyph glyph-name="van-passenger" unicode="&#xfcf8;" arabic-form="isolated" 
d="M55 512q-23 -1 -38.5 -16.5t-16.5 -38.5v-219h55q1 -34 24 -57t58 -23t57.5 23t24.5 57h163q2 -34 24.5 -57t57.5 -23t58 23t24 57h55v110q-1 23 -16.5 38.5t-38.5 15.5l-82 110h-409zM55 471h109v-69h-109v69zM219 471h108v-69h-108v69zM382 471h68l54 -69h-122v69z
M137 280q18 0 29 -12t11 -29t-11 -29t-29 -12t-29.5 12t-11.5 29t11.5 29t29.5 12zM464 280q18 0 29.5 -12t11.5 -29t-11.5 -29t-29.5 -12t-29 12t-11 29t11 29t29 12z" />
    <glyph glyph-name="van-utility" unicode="&#xfcf9;" arabic-form="isolated" 
d="M55 512q-23 -1 -38.5 -16.5t-16.5 -38.5v-219h55q1 -34 24 -57t58 -23t57.5 23t24.5 57h163q2 -34 24.5 -57t57.5 -23t58 23t24 57h55v110q-1 23 -16.5 38.5t-38.5 15.5l-82 110h-409zM382 471h68l54 -69h-122v69zM137 280q18 0 29 -12t11 -29t-11 -29t-29 -12t-29.5 12
t-11.5 29t11.5 29t29.5 12zM464 280q18 0 29.5 -12t11.5 -29t-11.5 -29t-29.5 -12t-29 12t-11 29t11 29t29 12z" />
    <glyph glyph-name="vanish" unicode="&#xfcfa;" arabic-form="isolated" 
d="M434 302v66h167v-66h-167zM394 476l96 95l47 -47l-95 -95zM268 202h65v-168h-65v168zM268 636h65v-168h-65v168zM64 146l95 95l48 -47l-96 -95zM64 524l47 47l96 -95l-48 -47zM167 302h-167v66h167v-66zM537 146l-47 -47l-96 95l48 47z" />
    <glyph glyph-name="video-3d" unicode="&#xfcfb;" arabic-form="isolated" 
d="M0 551h171q37 -2 61 -26.5t26 -60.5v-258q-2 -36 -26 -60.5t-61 -26.5h-171v87h171v87h-129v84h129v87h-171v87zM343 551h129q57 -2 93 -38.5t36 -90.5v-174q0 -54 -36 -90.5t-93 -38.5h-129v432zM472 206q19 0 30.5 12t13.5 30v174q-2 18 -13.5 30t-30.5 12h-42v-258h42
z" />
    <glyph glyph-name="wall" unicode="&#xfcfc;" arabic-form="isolated" 
d="M30 230h270v-151h-270v151zM0 410h181v-150h-181v150zM210 410h181v-150h-181v150zM420 410h181v-150h-181v150zM330 230h241v-151h-241v151zM30 591h241v-151h-241v151zM300 591h271v-151h-271v151z" />
    <glyph glyph-name="xmpp" unicode="&#xfcfd;" arabic-form="isolated" 
d="M300 216q-52 54 -85 129t-34 155l-181 61q4 -129 81 -226t175 -155q-53 -40 -106 -41v-30q28 0 67 11.5t83 34.5q45 -23 84 -34.5t67 -11.5v30q-53 1 -106 41q99 58 175.5 155t80.5 226l-181 -61q0 -80 -33.5 -155t-86.5 -129z" />
    <glyph glyph-name="account-multiple-plus-outline" unicode="&#xfcfe;" arabic-form="isolated" 
d="M338 510q-37 0 -62 -25.5t-25 -62.5t24.5 -61.5t62.5 -25.5q28 0 50 16q21 -16 50 -16q37 1 62 25.5t25 61.5t-25 62.5t-62 25.5q-28 0 -50 -16q-21 16 -50 16zM338 473q21 0 35.5 -14.5t14.5 -35.5t-14.5 -35.5t-35.5 -14.5t-35.5 14.5t-14.5 35.5t14.5 35.5t35.5 14.5z
M438 473q21 0 35.5 -14.5t14.5 -35.5t-14.5 -35.5t-35.5 -14.5q-12 0 -25 6q13 19 12 43q1 25 -12 45q13 6 25 6zM75 435v-75h-75v-50h75v-75h51v75h75v50h-75v75h-51zM338 310q-46 0 -101.5 -20.5t-61.5 -61.5v-68h426v68q-5 41 -61 61.5t-102 20.5q-21 0 -50 -6
q-28 6 -50 6zM338 272q48 -2 86 -17t39 -27v-31h-250v31q2 12 39.5 27t85.5 17zM478 268q36 -7 60.5 -18.5t25.5 -21.5v-31h-63v31q-1 24 -23 40z" />
    <glyph glyph-name="account-plus-outline" unicode="&#xfcff;" arabic-form="isolated" 
d="M382 554q-45 -2 -76 -32.5t-31 -77t31 -77.5t76.5 -31t76.5 31t31 77.5t-31 77t-77 32.5zM382.5 501q24.5 0 40.5 -16.5t16 -41t-16 -40.5t-40.5 -16t-40.5 16t-16 40.5t16 41t40.5 16.5zM82 472v-82h-82v-55h82v-82h55v82h82v55h-82v82h-55zM382.5 308
q-61.5 0 -136 -27.5t-82.5 -82.5v-82h437v82q-8 55 -82.5 82.5t-136 27.5zM382 256q64 -2 114 -22.5t53 -35.5v-29h-333v29q3 15 52.5 35.5t113.5 22.5z" />
    <glyph glyph-name="allo" unicode="&#xfd00;" arabic-form="isolated" 
d="M601 335v-270q0 -23 -20.5 -29.5t-32.5 12.5l-47 63q-85 -76 -201 -76q-124 0 -212 88t-88 212.5t88 212.5t212.5 88t212.5 -88t88 -213z" />
    <glyph glyph-name="artist" unicode="&#xfd01;" arabic-form="isolated" 
d="M254 271q46 0 101 -13q-39 -42 -39 -97q0 -43 25 -80h-341v64q0 56 87 91t167 35zM491 399h110v-64h-62v-174q0 -33 -24 -56.5t-56.5 -23.5t-55.5 24t-23 56.5t23 55.5t56 23q15 0 32 -8v167zM253.5 335q-51.5 0 -89.5 37t-38 89t38 90t89.5 38t89 -38t37.5 -90
t-37.5 -89t-89 -37z" />
    <glyph glyph-name="atlassian" unicode="&#xfd02;" arabic-form="isolated" 
d="M178 358q-5 5 -11.5 6.5t-11 -2t-7.5 -7.5l-146 -295q-6 -15 7 -24q4 -2 8 -1h206q10 0 15 9q33 73 16 161t-76 153zM286 627q-56 -89 -61.5 -189.5t39.5 -195.5l98 -198q6 -9 16 -9h206q15 1 17 17q1 4 -2 8l-139 278q-121 244 -144 289q-3 5 -9.5 7.5t-12 -0.5t-8.5 -7
z" />
    <glyph glyph-name="azure" unicode="&#xfd03;" arabic-form="isolated" 
d="M332 569l-195 -416l-137 1l152 264zM353 535l248 -434h-459l280 51l-147 173z" />
    <glyph glyph-name="basketball" unicode="&#xfd04;" arabic-form="isolated" 
d="M10 256q27 10 56 10q61 0 106 -38l-95 -95q-47 55 -67 123zM407 401q89 -66 193 -32q1 -10 1 -34q0 -46 -21.5 -103.5t-52.5 -92.5l-190 190zM203 196q48 -70 20 -151q-65 18 -113 57zM306 298l190 -190q-99 -86 -229 -72q10 30 10 65q0 28 -13 65.5t-30 61.5zM204 260
q-42 37 -97 47.5t-106 -6.5q-1 10 -1 34q0 46 21.5 103.5t52.5 92.5l200 -202zM407 464q-60 75 -28 161q28 -7 64.5 -27t58.5 -40zM591 414q-27 -10 -56 -10q-50 0 -95 30l93 92q40 -50 58 -112zM306 362l-201 200q99 86 229 72q-10 -30 -10 -63.5t15 -74.5t37 -65z" />
    <glyph glyph-name="battery-charging-wireless" unicode="&#xfd05;" arabic-form="isolated" 
d="M314 564h-56v57h-172v-57h-58q-12 -1 -20 -9t-8 -20v-458q0 -12 8 -20t20 -8h286q12 0 20 8t9 20v458q-1 12 -9 20t-20 9zM517 538l-41 -41q67 -71 67 -162t-67 -162l41 -41q84 89 84 203t-84 203zM436 456l-40 -41q33 -35 33 -80t-33 -80l40 -41q50 52 50 121t-50 121z
" />
    <glyph glyph-name="battery-charging-wireless-10" unicode="&#xfd06;" arabic-form="isolated" 
d="M517 538l-41 -41q67 -71 67 -162t-67 -162l41 -41q84 89 84 203t-84 203zM436 456l-40 -41q33 -35 33 -80t-33 -80l40 -41q50 52 50 121t-50 121zM314 564h-56v57h-172v-57h-58q-12 -1 -20 -9t-8 -20v-458q0 -12 8 -20t20 -8h286q12 0 20 8t9 20v458q-1 12 -9 20t-20 9z
M286 149h-230v358h230v-358z" />
    <glyph glyph-name="battery-charging-wireless-20" unicode="&#xfd07;" arabic-form="isolated" 
d="M517 538l-41 -41q67 -71 67 -162t-67 -162l41 -41q84 89 84 203t-84 203zM436 456l-40 -41q33 -35 33 -80t-33 -80l40 -41q50 52 50 121t-50 121zM314 564h-56v57h-172v-57h-58q-12 -1 -20 -9t-8 -20v-458q0 -12 8 -20t20 -8h286q12 0 20 8t9 20v458q-1 12 -9 20t-20 9z
M286 191h-230v316h230v-316z" />
    <glyph glyph-name="battery-charging-wireless-30" unicode="&#xfd08;" arabic-form="isolated" 
d="M517 538l-41 -41q67 -71 67 -162t-67 -162l41 -41q84 89 84 203t-84 203zM436 456l-40 -41q33 -35 33 -80t-33 -80l40 -41q50 52 50 121t-50 121zM314 564h-56v57h-172v-57h-58q-12 -1 -20 -9t-8 -20v-458q0 -12 8 -20t20 -8h286q12 0 20 8t9 20v458q-1 12 -9 20t-20 9z
M286 221h-230v286h230v-286z" />
    <glyph glyph-name="battery-charging-wireless-40" unicode="&#xfd09;" arabic-form="isolated" 
d="M517 538l-41 -41q67 -71 67 -162t-67 -162l41 -41q84 89 84 203t-84 203zM436 456l-40 -41q33 -35 33 -80t-33 -80l40 -41q50 52 50 121t-50 121zM314 564h-56v57h-172v-57h-58q-12 -1 -20 -9t-8 -20v-458q0 -12 8 -20t20 -8h286q12 0 20 8t9 20v458q-1 12 -9 20t-20 9z
M286 264h-230v243h230v-243z" />
    <glyph glyph-name="battery-charging-wireless-50" unicode="&#xfd0a;" arabic-form="isolated" 
d="M517 538l-41 -41q67 -71 67 -162t-67 -162l41 -41q84 89 84 203t-84 203zM436 456l-40 -41q33 -35 33 -80t-33 -80l40 -41q50 52 50 121t-50 121zM314 564h-56v57h-172v-57h-58q-12 -1 -20 -9t-8 -20v-458q0 -12 8 -20t20 -8h286q12 0 20 8t9 20v458q-1 12 -9 20t-20 9z
M286 307h-230v200h230v-200z" />
    <glyph glyph-name="battery-charging-wireless-60" unicode="&#xfd0b;" arabic-form="isolated" 
d="M517 538l-41 -41q67 -71 67 -162t-67 -162l41 -41q84 89 84 203t-84 203zM436 456l-40 -41q33 -35 33 -80t-33 -80l40 -41q50 52 50 121t-50 121zM314 564h-56v57h-172v-57h-58q-12 -1 -20 -9t-8 -20v-458q0 -12 8 -20t20 -8h286q12 0 20 8t9 20v458q-1 12 -9 20t-20 9z
M286 347h-230v160h230v-160z" />
    <glyph glyph-name="battery-charging-wireless-70" unicode="&#xfd0c;" arabic-form="isolated" 
d="M517 538l-41 -41q67 -71 67 -162t-67 -162l41 -41q84 89 84 203t-84 203zM436 456l-40 -41q33 -35 33 -80t-33 -80l40 -41q50 52 50 121t-50 121zM314 564h-56v57h-172v-57h-58q-12 -1 -20 -9t-8 -20v-458q0 -12 8 -20t20 -8h286q12 0 20 8t9 20v458q-1 12 -9 20t-20 9z
M286 393h-230v114h230v-114z" />
    <glyph glyph-name="battery-charging-wireless-80" unicode="&#xfd0d;" arabic-form="isolated" 
d="M517 538l-41 -41q67 -71 67 -162t-67 -162l41 -41q84 89 84 203t-84 203zM436 456l-40 -41q33 -35 33 -80t-33 -80l40 -41q50 52 50 121t-50 121zM314 564h-56v57h-172v-57h-58q-12 -1 -20 -9t-8 -20v-458q0 -12 8 -20t20 -8h286q12 0 20 8t9 20v458q-1 12 -9 20t-20 9z
M286 421h-230v86h230v-86z" />
    <glyph glyph-name="battery-charging-wireless-90" unicode="&#xfd0e;" arabic-form="isolated" 
d="M517 538l-41 -41q67 -71 67 -162t-67 -162l41 -41q84 89 84 203t-84 203zM436 456l-40 -41q33 -35 33 -80t-33 -80l40 -41q50 52 50 121t-50 121zM314 564h-56v57h-172v-57h-58q-12 -1 -20 -9t-8 -20v-458q0 -12 8 -20t20 -8h286q12 0 20 8t9 20v458q-1 12 -9 20t-20 9z
M286 463h-230v44h230v-44z" />
    <glyph glyph-name="battery-charging-wireless-alert" unicode="&#xfd0f;" arabic-form="isolated" 
d="M314 564h-56v57h-172v-57h-58q-12 -1 -20 -9t-8 -20v-458q0 -12 8 -20t20 -8h286q12 0 20 8t9 20v458q-1 12 -9 20t-20 9zM200 163h-58v58h58v-58zM200 277h-58v144h58v-144zM517 538l-41 -41q67 -71 67 -162t-67 -162l41 -41q84 89 84 203t-84 203zM436 456l-40 -41
q33 -35 33 -80t-33 -80l40 -41q50 52 50 121t-50 121z" />
    <glyph glyph-name="battery-charging-wireless-outline" unicode="&#xfd10;" arabic-form="isolated" 
d="M517 538l-41 -41q67 -71 67 -162t-67 -162l41 -41q84 89 84 203t-84 203zM436 456l-40 -41q33 -35 33 -80t-33 -80l40 -41q50 52 50 121t-50 121zM314 564h-56v57h-172v-57h-58q-12 -1 -20 -9t-8 -20v-458q0 -12 8 -20t20 -8h286q12 0 20 8t9 20v458q-1 12 -9 20t-20 9z
M286 106h-230v401h230v-401z" />
    <glyph glyph-name="bitcoin" unicode="&#xfd11;" arabic-form="final" 
d="M0 624h145v123h81v-123h63v123h82v-123q166 -14 183 -124t-80 -134q132 -14 127 -156q-6 -143 -230 -164v-123h-82v123h-63v-123h-81v123h-145l21 82h40q18 2 29.5 13.5t11.5 28.5v330q0 17 -11.5 28.5t-29.5 13.5h-61v82zM226 542v-166q12 -2 93.5 7.5t92.5 75.5
q-11 65 -92.5 76t-93.5 7zM226 314v-186q16 -2 114.5 12.5t113.5 80.5q-16 67 -114 82t-114 11z" />
    <glyph glyph-name="briefcase-outline" unicode="&#xfd12;" arabic-form="final" 
d="M542 501q25 0 42 -18t17 -43v-330q0 -25 -17 -43t-42 -18h-483q-25 0 -42 18t-17 43v330q0 25 17 43t42 18h122v60q0 26 17 43t42 17h121q25 0 42 -17t17 -43v-60h122zM59 440v-330h483v330h-483zM361 501v60h-121v-60h121z" />
    <glyph glyph-name="cellphone-wireless" unicode="&#xfd13;" arabic-form="final" 
d="M522 529q37 -38 58 -88t21 -106t-21 -106t-58 -88l-39 39q31 31 47.5 70t16.5 85t-16.5 85t-47.5 70zM445 450q21 -21 34 -50.5t13 -64.5t-13 -64.5t-34 -50.5l-39 38q31 31 31 77t-31 77zM328 390q23 -1 39 -16.5t16 -38.5t-16 -38.5t-39 -15.5t-38.5 15.5t-15.5 38.5
t15.5 38.5t38.5 16.5zM287 636q30 -1 49 -20.5t20 -48.5v-123h-55v110h-246v-410h246v82h55v-123q-1 -30 -20.5 -49t-48.5 -20h-218q-30 1 -49 20.5t-20 48.5v464q1 30 20.5 49t48.5 20h218z" />
    <glyph glyph-name="clover" unicode="&#xfd14;" arabic-form="final" 
d="M300 359q76 66 113.5 110t37.5 86q-1 36 -24 58t-59 23q-41 0 -68 -30q-26 29 -69 30q-35 0 -57.5 -24t-23.5 -58q0 -41 37.5 -85t112.5 -110zM277 335q-67 75 -110.5 113t-86.5 38q-35 -1 -57.5 -24.5t-22.5 -58.5q0 -41 30 -68q-30 -27 -30 -69q0 -36 24 -58.5
t58 -23.5q41 0 84.5 38t110.5 113zM326 335q65 -75 108.5 -113t86.5 -38q35 1 57.5 24.5t22.5 58.5q0 41 -30 68q30 27 30 69q0 36 -24 58.5t-58 23.5q-41 0 -84.5 -38t-108.5 -113zM300 311q-75 -66 -112.5 -110t-37.5 -86q1 -36 24 -58.5t59 -22.5q41 0 67 30
q27 -30 70 -30q35 0 57.5 24t23.5 58q0 41 -37.5 85t-113.5 110z" />
    <glyph glyph-name="comment-question" unicode="&#xfd15;" arabic-form="final" 
d="M59 636h483q25 0 42 -17t17 -43v-361q0 -25 -17 -43t-42 -18h-184l-111 -111q-10 -9 -22 -9h-15q-13 0 -21 8.5t-8 21.5v90h-122q-25 0 -42 18t-17 43v361q0 26 17 42.5t42 17.5zM306 531q-39 0 -64.5 -16.5t-22.5 -49.5h59q0 13 8.5 19t21 6t21 -8t8.5 -20.5t-7 -22
t-18 -17.5q-24 -14 -32.5 -24.5t-8.5 -32.5h59q0 13 4.5 20.5t15.5 14.5q21 10 34.5 26t13.5 36q0 31 -24.5 50t-67.5 19zM271 335v-61h59v61h-59z" />
    <glyph glyph-name="content-save-outline" unicode="&#xfd16;" arabic-form="final" 
d="M401 568v-133h-334v-333h145q-20 18 -32.5 43.5t-12.5 56.5q2 56 39.5 93.5t94 37.5t94 -37.5t39.5 -93.5q0 -31 -12 -56.5t-33 -43.5h145v372l-94 94h-39zM67 502h266v66h-266v-66zM468 636l133 -134v-400q0 -28 -19.5 -48t-47.5 -20h-467q-29 0 -48 20t-19 48v466
q0 28 19.5 48t47.5 20h401zM300.5 268q-28.5 0 -47 -19t-18.5 -47t18.5 -47.5t47 -19.5t47 19.5t18.5 47.5t-18.5 47t-47 19z" />
    <glyph glyph-name="delete-restore" unicode="&#xfd17;" arabic-form="final" 
d="M387 248h85l-172 174l-171 -174h85v-171h173v171zM42 551h517v-517q0 -34 -26.5 -60t-60.5 -26h-343q-34 0 -60.5 26t-26.5 60v517zM601 680v-87h-601v87h150l43 42h215l43 -42h150z" />
    <glyph glyph-name="door" unicode="&#xfd18;" arabic-form="final" 
d="M101 786q-45 0 -73 -28.5t-28 -72.5v-801h601v801q0 44 -28 72.5t-73 28.5h-399zM101 685h399v-700h-399v700zM350 384v-98h101v98h-101z" />
    <glyph glyph-name="door-closed" unicode="&#xfd19;" arabic-form="final" 
d="M420 365h61v-60h-61v60zM300 606h211q26 0 43 -17t17 -44v-420h30v-61h-601v61h240v420q1 27 18 44t42 17zM300 545v-420h211v420h-211z" />
    <glyph glyph-name="door-open" unicode="&#xfd1a;" arabic-form="final" 
d="M300 606q-25 0 -42 -17t-18 -44h-210v-420h-30v-61h601v61h-30v420q0 27 -17 44t-43 17h-211zM300 545h211v-420h-211v420zM90 365h60v-60h-60v60z" />
    <glyph glyph-name="fan-off" unicode="&#xfd1b;" arabic-form="final" 
d="M315 635q-65 -2 -89 -49t-8 -115l172 -171q19 -5 38.5 -16t30.5 -30q31 -55 83.5 -44t58.5 110q-4 81 -73.5 99t-157.5 -28q-14 18 -36 27q4 22 15 42.5t34 32.5q54 32 42.5 84t-110.5 58zM38 576l-38 -39l74 -74q-29 0 -51.5 -27t-22.5 -86q3 -80 72.5 -98.5t156.5 27.5
q15 -18 37 -28q-4 -21 -15.5 -41t-32.5 -33q-54 -32 -43 -84t110 -58q52 0 77.5 32t25.5 82l114 -114l38 38z" />
    <glyph glyph-name="file-percent" unicode="&#xfd1c;" arabic-form="final" 
d="M376 709l225 -225v-450q-2 -31 -23 -52t-53 -21h-449q-32 0 -53 21t-23 52v602q2 31 23 52t53 21h300zM127 34l286 288l-51 50l-286 -286zM337 447h207l-207 206v-206zM131.5 372q-24.5 0 -40 -16t-15.5 -39.5t15.5 -39.5t40.5 -16t40.5 16t15.5 39.5t-16 39.5t-40.5 16z
M356.5 147q-24.5 0 -40.5 -16t-16 -39.5t16 -39.5t40.5 -16t40.5 16t16 39.5t-16 39.5t-40.5 16z" />
    <glyph glyph-name="finance" unicode="&#xfd1d;" arabic-form="final" 
d="M21 303h128v-323h-128v323zM246 270h130v-290h-130v290zM473 432h128v-452h-128v452zM473 690h128v-130h-32v64l-260 -260l-126 128l-148 -148l-35 35l183 181l126 -127l225 224h-61v33z" />
    <glyph glyph-name="flash-circle" unicode="&#xfd1e;" arabic-form="final" 
d="M285 94l147 293h-102v189l-149 -293h104v-189zM300.5 636q124.5 0 212.5 -88.5t88 -212.5t-88 -212.5t-212.5 -88.5t-212.5 88.5t-88 212.5t88 212.5t212.5 88.5z" />
    <glyph glyph-name="floor-plan" unicode="&#xfd1f;" arabic-form="final" 
d="M233 568v-166h-33v166h-133v-266h133v33h33v-167h-33v100h-133v-166h233v66h33v-66h201v66h67v-134h-601v602h601v-401h-67v167h-201v-167h-33v200h234v133h-301z" />
    <glyph glyph-name="forum-outline" unicode="&#xfd20;" arabic-form="final" 
d="M59 636q-25 0 -42 -17t-17 -43v-392l120 121h271q25 0 42 17t18 43v211q-1 26 -18 42.5t-42 17.5h-332zM59 576h332v-211h-271l-61 -60v271zM511 516v-61h31v-301l-61 61h-300v30h-61v-30q0 -25 17.5 -43t43.5 -18h300l120 -120v421q0 25 -17 43t-42 18h-31z" />
    <glyph glyph-name="golf" unicode="&#xfd21;" arabic-form="final" 
d="M547.5 123q22.5 0 38 -15t15.5 -38t-15 -38t-38 -15t-38 15t-15 38t15 38t37.5 15zM460 550l-212 -109v-320q77 -5 125.5 -23t50.5 -46q-2 -30 -61.5 -50t-149.5 -20t-150 20t-63 50q2 19 30 36t76 25v-61h71v636z" />
    <glyph glyph-name="google-home" unicode="&#xfd22;" arabic-form="final" 
d="M121 525q-38 0 -45 6l-19 -277q36 -22 94 -35.5t166.5 -7t226.5 46.5l-37 429q-60 -60 -177 -111q-105 -45 -179 -51h-30zM117 635q-47 -40 -39.5 -55t66.5 -8q75 6 170 47q64 27 110.5 59.5t64 53.5t13 30.5t-42.5 9.5q-77 0 -192 -49q-99 -43 -150 -88zM544 778
q5 -8 5 -18l52 -656q0 -117 -81 -184t-218.5 -67t-219.5 69t-82 187l32 475q0 17 14.5 38.5t27.5 34.5l16 13q66 56 159 95q65 28 125.5 42t108.5 8.5t61 -37.5z" />
    <glyph glyph-name="guy-fawkes-mask" unicode="&#xfd23;" arabic-form="final" 
d="M601 302q-3 -128 -87.5 -212.5t-213.5 -87.5q-128 3 -212.5 87.5t-87.5 212.5l2 285q65 39 141 60t158.5 21t158 -20.5t141.5 -57.5v-288zM333 71q88 14 143.5 77.5t57.5 153.5v248q-107 51 -232 53q-128 -2 -238 -56l3 -245q2 -90 57.5 -154t143.5 -77v64h65v-64z
M268 202h-101l-67 100l100 -34h33l35 34h65l35 -34h33l100 34l-67 -100h-101l-33 33zM100 434q33 32 83 32t85 -32q-35 -32 -85 -32t-83 32zM333 434q33 32 83 32t85 -32q-35 -32 -85 -32t-83 32z" />
    <glyph glyph-name="home-account" unicode="&#xfd24;" arabic-form="final" 
d="M300 591l-300 -271h90v-241h421v241h90zM300.5 418q28.5 0 47.5 -19.5t19 -48t-19 -48t-47.5 -19.5t-47.5 19.5t-19 48t19 48t47.5 19.5zM300.5 230q38.5 0 85 -17t50.5 -51v-22h-271v22q4 34 50.5 51t85 17z" />
    <glyph glyph-name="home-heart" unicode="&#xfd25;" arabic-form="final" 
d="M0 320l300 271l301 -271h-90v-241h-421v241h-90zM300 140l21 19q60 52 94.5 92.5t35.5 81.5q-1 36 -24 59t-59 24q-19 0 -36.5 -8.5t-31.5 -23.5q-13 15 -30 23.5t-37 8.5q-36 -1 -59 -24.5t-24 -58.5q1 -41 35.5 -81t94.5 -93z" />
    <glyph glyph-name="hot-tub" unicode="&#xfd26;" arabic-form="final" 
d="M150 591q25 -1 42.5 -18t17.5 -42.5t-17.5 -42.5t-43 -17t-42.5 17t-17 42.5t17 42.5t43 18zM275 350h326v-241q0 -26 -17 -43t-42 -17h-483q-25 0 -42 17t-17 43v241h90v22q0 30 19.5 49t48.5 19q15 0 28 -5.5t23 -16.5l41 -47q11 -11 25 -21zM150 109v180h-60v-180h60z
M271 109v180h-61v-180h61zM391 109v180h-61v-180h61zM511 109v180h-60v-180h60zM501 535q22 -23 33 -51.5t6 -60.5l-3 -13h-56l3 17q6 37 -20 67l-2 1q-23 24 -33.5 53t-6.5 60l3 13h56l-3 -18q-6 -37 20 -67zM381 535q22 -23 33 -51.5t5 -60.5l-1 -13h-57l3 17q6 37 -21 67
l-1 1q-24 24 -34 53t-6 60l1 13h58l-3 -18q-7 -37 20 -67z" />
    <glyph glyph-name="hulu" unicode="&#xfd27;" arabic-form="final" 
d="M601 303v-369h-192v324q-2 22 -16.5 37.5t-35.5 15.5h-116q-22 0 -36.5 -15.5t-16.5 -37.5v-324h-188v802h192v-257q19 8 37 8h192q77 -2 127.5 -54.5t52.5 -129.5z" />
    <glyph glyph-name="ice-cream" unicode="&#xfd28;" arabic-form="final" 
d="M300 835q85 -2 141.5 -58.5t58.5 -143.5q44 -10 72.5 -43.5t28.5 -79.5q-2 -54 -37.5 -88.5t-87.5 -37.5h-351q-52 3 -87.5 38.5t-37.5 87.5q0 45 28.5 79t72.5 46q2 85 58.5 141.5t140.5 58.5zM150 335h301l-101 -500h-99z" />
    <glyph glyph-name="image-off" unicode="&#xfd29;" arabic-form="final" 
d="M40 636l-40 -39l61 -60v-381q0 -26 17.5 -43.5t42.5 -17.5h381l61 -61l38 40zM115 636l486 -486v425q0 27 -17.5 43.5t-43.5 17.5h-425zM226 320l75 -89l30 37l81 -83h-291z" />
    <glyph glyph-name="karate" unicode="&#xfd2a;" arabic-form="final" 
d="M527 662q-23 13 -47.5 6.5t-38.5 -30.5t-7 -48t30 -38.5t48 -7.5t39 31t7 47.5t-31 39.5zM601 404l-83 -142l-55 31l55 96l-49 42l-101 -174v-258h-64v274l-304 178l31 55l249 -144l78 132l-205 75l24 60l223 -81q18 -8 36 -17l27 -16q16 -9 31 -22z" />
    <glyph glyph-name="ladybug" unicode="&#xfd2b;" arabic-form="final" 
d="M300.5 576q42.5 0 80.5 -11l62 107q7 13 22 17.5t28.5 -3.5t17.5 -23t-4 -29l-57 -96q70 -43 111 -111h-521q41 68 111 111l-57 96q-9 14 -4.5 29t18 23t28.5 3.5t22 -17.5l62 -107q38 11 80.5 11zM601 278q-4 -122 -79.5 -204.5t-193.5 -94.5v392h257q16 -43 16 -93z
M0 278q0 50 16 93h257v-392q-118 12 -193.5 94.5t-79.5 204.5z" />
    <glyph glyph-name="notebook" unicode="&#xfd2c;" arabic-form="final" 
d="M0 502v66h67v35q0 28 19 46.5t47 18.5h200v-233l84 50l84 -50v233h33q28 0 46.5 -19.5t20.5 -45.5v-536q-2 -26 -20.5 -45.5t-46.5 -19.5h-401q-26 0 -46 19.5t-20 45.5v35h-67v66h67v134h-67v66h67v134h-67zM133 368h-66v-66h66v66zM133 502v66h-66v-66h66zM133 102v66
h-66v-66h66z" />
    <glyph glyph-name="phone-return" unicode="&#xfd2d;" arabic-form="initial" 
d="M601 527v-168h-50v117h-188l82 -80l-36 -37l-141 143l141 142l36 -35l-82 -82h238zM194 441q14 15 8 33q-18 59 -18 120q0 15 -10 24t-24 9h-117q-15 0 -24 -9t-9 -24q6 -241 166.5 -401.5t401.5 -166.5q15 0 24 9.5t9 23.5v118q0 14 -9 23.5t-24 9.5q-61 0 -118 18
q-20 6 -35 -8l-74 -74q-70 38 -126.5 93.5t-92.5 127.5z" />
    <glyph glyph-name="poker-chip" unicode="&#xfd2e;" arabic-form="initial" 
d="M601 335q-4 -128 -88.5 -212.5t-212.5 -88.5q-127 4 -211.5 88.5t-88.5 212.5q4 128 88.5 212.5t211.5 88.5q128 -4 212.5 -88.5t88.5 -212.5zM327 551q45 -5 83 -26.5t65 -57.5l47 28q-35 47 -84.5 76.5t-110.5 35.5v-56zM79 495l47 -28q27 36 65 57.5t83 26.5v56
q-61 -6 -110.5 -35.5t-84.5 -76.5zM52 224l48 27q-18 40 -18 83.5t18 84.5l-48 27q-24 -53 -24 -111t24 -111zM274 119q-45 5 -83 26.5t-65 57.5l-47 -28q35 -47 84.5 -76.5t110.5 -35.5v56zM522 175l-47 28q-27 -36 -65 -57.5t-83 -26.5v-55q59 7 109.5 35.5t85.5 75.5z
M549 224q24 53 24 111t-24 111l-48 -27q18 -40 18 -83.5t-18 -84.5zM382 335l-82 137l-81 -137l81 -137z" />
    <glyph glyph-name="shape" unicode="&#xfd2f;" arabic-form="initial" 
d="M254 286v-253h-254v253h254zM286 651l174 -286h-349zM460 303q61 -2 101 -41.5t40 -101t-40 -101.5t-101.5 -40t-101.5 40t-40 101.5t40.5 101t101.5 41.5z" />
    <glyph glyph-name="shape-outline" unicode="&#xfd30;" arabic-form="initial" 
d="M254 286v-253h-254v253h254zM190 223h-126v-127h126v127zM286 651l174 -286h-349zM286 529l-61 -100h122zM460 303q61 -2 101 -41.5t40 -101t-40 -101.5t-101.5 -40t-101.5 40t-40 101.5t40.5 101t101.5 41.5zM460 239q-33 -2 -55.5 -24t-22.5 -55.5t22.5 -56t56 -22.5
t56 22.5t22.5 56t-22.5 55.5t-56.5 24z" />
    <glyph glyph-name="ship-wheel" unicode="&#xfd31;" arabic-form="initial" 
d="M27 362l55 -3q7 48 29 86.5t60 65.5l-31 48q-7 10 -3.5 21t13.5 16.5t20.5 2t16.5 -12.5l26 -49q40 16 87.5 16t87.5 -16l26 49q6 10 16.5 13t20.5 -2.5t13.5 -17t-3.5 -20.5l-31 -48q38 -27 60 -65.5t29 -86.5l55 3q12 0 19.5 -7.5t7.5 -19.5t-7.5 -19.5t-19.5 -7.5
l-55 3q-7 -48 -29 -86.5t-60 -65.5l31 -48q7 -10 3.5 -21t-13.5 -16.5t-20.5 -2t-16.5 12.5l-26 49q-40 -16 -87.5 -16t-87.5 16l-26 -49q-6 -10 -16.5 -13t-20.5 2.5t-13.5 17t3.5 20.5l31 48q-38 27 -60 65.5t-29 86.5l-55 -3q-12 0 -19.5 7.5t-7.5 19.5t7.5 19.5
t19.5 7.5zM220 353q6 25 25 42l-44 70q-26 -20 -42 -47.5t-22 -60.5zM300.5 417q13.5 0 24.5 -4l39 73q-30 13 -63.5 13t-63.5 -13l39 -73q11 4 24.5 4zM381 353l83 4q-6 33 -22 60.5t-42 47.5l-44 -70q19 -17 25 -42zM381 317q-6 -25 -25 -42l44 -70q26 20 42 47.5t22 60.5
zM300.5 253q-13.5 0 -24.5 4l-39 -73q30 -13 63.5 -13t63.5 13l-39 73q-11 -4 -24.5 -4zM220 317l-83 -4q6 -33 22 -60.5t42 -47.5l44 70q-19 17 -25 42z" />
    <glyph glyph-name="soccer-field" unicode="&#xfd32;" arabic-form="initial" 
d="M59 576q-25 -1 -42 -18t-17 -42v-362q0 -25 17 -42t42 -18h483q25 1 42 18t17 42v362q0 25 -17 42t-42 18h-483zM59 516h212v-64q-41 -12 -65.5 -43t-24.5 -74t24.5 -74t65.5 -43v-64h-212v61h91v240h-91v61zM330 516h212v-61h-91v-240h91v-61h-212v64q41 12 65.5 43
t24.5 74t-24.5 74t-65.5 43v64zM59 396h31v-122h-31v122zM511 396h31v-122h-31v122zM330 387q15 -9 23 -22t8 -30t-8 -30.5t-23 -21.5v104zM271 387v-104q-15 9 -23 22t-8 30t8 30t23 22z" />
    <glyph glyph-name="table-column" unicode="&#xfd33;" arabic-form="initial" 
d="M101 835h399q42 0 71.5 -28t29.5 -71v-802q0 -43 -29.5 -71t-71.5 -28h-399q-42 0 -71.5 28t-29.5 71v802q0 43 29.5 71t71.5 28zM101 436v-202h399v202h-399zM101 135v-201h399v201h-399zM101 736v-201h399v201h-399z" />
    <glyph glyph-name="table-of-contents" unicode="&#xfd34;" arabic-form="medial" 
d="M0 435h468v67h-468v-67zM0 302h468v66h-468v-66zM0 168h468v67h-468v-67zM534 168h67v67h-67v-67zM534 502v-67h67v67h-67zM534 302h67v66h-67v-66z" />
    <glyph glyph-name="table-row" unicode="&#xfd35;" arabic-form="medial" 
d="M601 274q0 -25 -17 -42t-42 -17h-483q-25 0 -42 17t-17 42v122q0 25 17 42t42 17h483q25 0 42 -17t17 -42v-122zM59 274h122v122h-122v-122zM240 274h121v122h-121v-122zM420 274h122v122h-122v-122z" />
    <glyph glyph-name="table-settings" unicode="&#xfd36;" arabic-form="medial" 
d="M133 68h67v-67h-67v67zM268 68h65v-67h-65v67zM401 68h67v-67h-67v67zM67 669h467q28 -1 47.5 -20t19.5 -47v-401q0 -28 -19.5 -47t-47.5 -20h-467q-28 1 -47.5 20t-19.5 47v401q0 28 19.5 47t47.5 20zM67 535v-133h201v133h-201zM333 535v-133h201v133h-201zM67 334
v-133h201v133h-201zM333 334v-133h201v133h-201z" />
    <glyph glyph-name="television-box" unicode="&#xfd37;" arabic-form="medial" 
d="M67 636h467q28 0 47.5 -20t19.5 -48v-466q0 -28 -19.5 -48t-47.5 -20h-467q-28 0 -47.5 20t-19.5 48v466q0 28 19.5 48t47.5 20zM434 202l100 266h-83l-50 -150l-51 150h-283v-66h100v-200h66v200h59l76 -200h66z" />
    <glyph glyph-name="television-classic-off" unicode="&#xfd38;" arabic-form="medial" 
d="M0 568l38 39l533 -533l-38 -40l-61 60h-413q-25 0 -42 17t-17 44v301q0 22 15 39t37 21zM185 636l115 -115l116 115l43 -42l-78 -78h161q25 -1 42 -18t17 -42v-301q0 -15 -7 -28l-143 142v187h-186l-61 60h16l-78 78zM59 456v-301h354l-302 301h-52zM526 456
q-13 0 -21.5 -8.5t-8.5 -21.5t9 -21.5t21.5 -8.5t21 8.5t8.5 21.5t-8.5 21.5t-21.5 8.5zM526 365q-13 0 -21.5 -8t-8.5 -21t9 -21.5t21.5 -8.5t21 8.5t8.5 21.5t-8.5 21t-21.5 8z" />
    <glyph glyph-name="television-off" unicode="&#xfd39;" arabic-form="medial" 
d="M0 575l34 33l513 -512l-34 -34l-80 80h-20v-54h-212v54h-134q-23 0 -38 15t-16 37v321q1 20 13 34zM547 194v321h-352l-53 54h405q23 0 38 -16t16 -38v-321q-1 -16 -10.5 -29.5t-24.5 -20.5l-50 50h31zM67 194h312l-312 314v-314z" />
    <glyph glyph-name="towing" unicode="&#xfd3a;" arabic-form="medial" 
d="M382 390h148l-91 109h-57v-109zM450.5 158q16.5 0 28.5 12t12 28.5t-12 28.5t-29 12t-29 -12t-12 -28.5t12.5 -28.5t29 -12zM137 158q18 0 29 12t11 28.5t-11 28.5t-29 12t-29.5 -12t-11.5 -28.5t11.5 -28.5t29.5 -12zM464 554l137 -164v-192h-69q0 -33 -24.5 -57.5
t-57.5 -24.5t-57 24.5t-24 57.5h-150q0 -33 -24.5 -57.5t-58 -24.5t-57.5 24.5t-24 57.5h-55v110h224l-169 133v-79h-55v164h28l299 -165v193h137z" />
    <glyph glyph-name="upload-multiple" unicode="&#xfd3b;" arabic-form="medial" 
d="M171 226v258h-171l300 303l301 -303h-171v-258h-259zM0 55v86h601v-86h-601zM601 -32h-601v-85h601v85z" />
    <glyph glyph-name="video-4k-box" unicode="&#xfd3c;" arabic-form="final" 
d="M67 636h467q28 0 47.5 -20t19.5 -48v-466q0 -28 -19.5 -48t-47.5 -20h-467q-28 0 -47.5 20t-19.5 48v466q0 28 19.5 48t47.5 20zM504 235l-67 100l67 100h-58l-65 -100v100h-51v-200h51v100l65 -100h58zM296 285v50h-33v100h-50v-100h-50v100h-50v-150h100v-50h50v50h33z
" />
    <glyph glyph-name="video-input-antenna" unicode="&#xfd3d;" arabic-form="isolated" 
d="M300 517q-81 -1 -135 -54.5t-55 -135.5h54q1 57 40 96t96 41q58 -2 97 -41t40 -96h54q-1 82 -55 135.5t-136 54.5zM327 264q19 9 30.5 25t11.5 38q0 29 -19.5 48.5t-49 19.5t-49 -19.5t-19.5 -48.5q0 -20 11.5 -37t30.5 -26v-89l-94 -94l39 -38l81 82l82 -82l39 38
l-94 94v89zM300 627q-127 -4 -211.5 -88.5t-88.5 -211.5h55q3 105 72 174t173 71q105 -2 174 -71t72 -174h55q-4 127 -88.5 211.5t-212.5 88.5z" />
    <glyph glyph-name=".notdef" horiz-adv-x="600" 
d="M90 1050h420v-1400h-420v1400zM456 -298v1296h-311v-1296h311zM307 173q0 -11 -7.5 -17.5t-17.5 -6.5t-17.5 6.5t-7.5 17.5v84q53 3 72 19.5t19 57.5q0 33 -13 51t-48 18q-29 0 -52 -11q-7 -3 -13 -3q-24 0 -24 23q0 19 29.5 29t63.5 10q111 0 111 -115q0 -104 -95 -118
v-45zM247 85q0 15 10 25t25 10t25 -10t10 -25q0 -16 -10 -26.5t-25 -10.5t-25 10.5t-10 26.5z" />
    <glyph glyph-name=".null" horiz-adv-x="0" 
 />
    <glyph glyph-name="nonmarkingreturn" horiz-adv-x="333" 
 />
    <glyph glyph-name="CR" unicode="&#xd;" horiz-adv-x="600" 
 />
    <glyph glyph-name="space" unicode=" " horiz-adv-x="600" 
 />
    <glyph glyph-name="exclam" unicode="!" horiz-adv-x="600" 
d="M345 689l-9 -462h-75l-10 462h94zM299 123q29 0 48 -19.5t19 -47.5q0 -29 -19 -48t-48 -19t-48 19.5t-19 47.5t19.5 47.5t47.5 19.5z" />
    <glyph glyph-name="quotedbl" unicode="&#x22;" horiz-adv-x="600" 
d="M179 479l-15 260h105l-16 -260h-74zM347 479l-16 260h105l-15 -260h-74z" />
    <glyph glyph-name="numbersign" unicode="#" horiz-adv-x="600" 
d="M458 456l-29 -222h81v-64h-91l-21 -170h-71l22 170h-145l-23 -170h-71l22 170h-79v64h87l31 222h-81v66h89l23 167h71l-23 -167h146l23 167h71l-23 -167h80v-66h-89zM212 234h145l31 222h-147z" />
    <glyph glyph-name="dollar" unicode="$" horiz-adv-x="600" 
d="M346 848v-150q106 -11 183 -80l-51 -53q-59 54 -132 63v-227q41 -14 72.5 -30.5t60 -41.5t44 -60.5t15.5 -79.5q0 -75 -50 -129.5t-142 -66.5v-146h-68v143q-120 6 -209 93l50 56q71 -71 159 -78v276q-183 61 -183 191q0 64 47.5 112.5t135.5 57.5v150h68zM278 626
q-43 -7 -68.5 -31.5t-25.5 -65.5q0 -37 20.5 -61t73.5 -45v203zM346 314v-249q101 20 101 123q0 43 -23 73t-78 53z" />
    <glyph glyph-name="glyph9" unicode="%" horiz-adv-x="600" 
d="M505 707l53 -35l-473 -692l-53 35zM166 700q68 0 107.5 -46.5t39.5 -114.5q0 -66 -39.5 -113.5t-107.5 -47.5q-67 0 -107 47.5t-40 113.5q0 68 40 114.5t107 46.5zM166 640q-31 0 -50.5 -26t-19.5 -75q0 -47 19.5 -74.5t50.5 -27.5q32 0 50.5 25.5t18.5 76.5
q0 101 -69 101zM436 316q68 0 107.5 -46.5t39.5 -113.5t-39.5 -114.5t-107.5 -47.5q-67 0 -107 47.5t-40 114.5t40 113.5t107 46.5zM436 256q-32 0 -51 -25t-19 -75q0 -48 19.5 -75.5t50.5 -27.5q32 0 50.5 25.5t18.5 77.5q0 100 -69 100z" />
    <glyph glyph-name="ampersand" unicode="&#x26;" horiz-adv-x="600" 
d="M279 699q49 0 88.5 -16t78.5 -59l-50 -46q-52 58 -118 58q-52 0 -79 -28t-27 -74t36 -80t88 -34h278v-67h-90v-272q-73 -92 -207 -92q-110 0 -166.5 60.5t-56.5 145.5q0 77 40.5 126.5t115.5 65.5v3q-120 28 -120 144q0 69 52 117t137 48zM407 353h-124q-71 0 -109 -47.5
t-38 -107.5t36 -100.5t107 -40.5q87 0 128 52v244z" />
    <glyph glyph-name="quotesingle" unicode="'" horiz-adv-x="600" 
d="M263 479l-16 260h106l-16 -260h-74z" />
    <glyph glyph-name="parenleft" unicode="(" horiz-adv-x="600" 
d="M213 350q0 -149 49.5 -245.5t163.5 -198.5l-43 -46q-65 53 -109.5 101.5t-80 107t-52 128t-16.5 153.5t16.5 153.5t52 128t80 107t109.5 101.5l43 -46q-115 -102 -164 -198t-49 -246z" />
    <glyph glyph-name="parenright" unicode=")" horiz-adv-x="600" 
d="M387 350q0 150 -49 246t-164 198l43 46q65 -53 109.5 -101.5t80 -107t52 -128t16.5 -153.5t-16.5 -153.5t-52 -128t-80 -107t-109.5 -101.5l-43 46q114 102 163.5 198.5t49.5 245.5z" />
    <glyph glyph-name="glyph14" unicode="*" horiz-adv-x="600" 
d="M258 578l6 -202l-190 68l-26 -79l194 -58l-123 -160l67 -49l114 168l114 -168l67 49l-123 160l194 58l-26 79l-190 -68l6 202h-84z" />
    <glyph glyph-name="glyph15" unicode="+" horiz-adv-x="600" 
d="M338 545v-199h196v-70h-196v-199h-78v199h-194v70h194v199h78z" />
    <glyph glyph-name="comma" unicode="," horiz-adv-x="600" 
d="M300 165q34 0 57.5 -23.5t23.5 -56.5q0 -37 -19 -79l-81 -185h-76l47 197q-32 24 -32 66q0 34 23 57.5t57 23.5z" />
    <glyph glyph-name="hyphen" unicode="-" horiz-adv-x="600" 
d="M100 277v72h400v-72h-400z" />
    <glyph glyph-name="period" unicode="." horiz-adv-x="600" 
d="M211 77q0 37 25.5 62.5t62.5 25.5q38 0 63 -25.5t25 -62.5q0 -38 -25 -63t-63 -25q-37 0 -62.5 25.5t-25.5 62.5z" />
    <glyph glyph-name="glyph19" unicode="/" horiz-adv-x="600" 
d="M121 -103l-68 30l427 882l67 -32z" />
    <glyph glyph-name="zero" unicode="0" horiz-adv-x="600" 
d="M300 700q110 0 167.5 -91.5t57.5 -263.5q0 -173 -57.5 -264.5t-167.5 -91.5t-167.5 91.5t-57.5 264.5q0 172 57.5 263.5t167.5 91.5zM300 632q-137 0 -137 -287q0 -114 18 -180l210 423q-32 44 -91 44zM300 57q137 0 137 288q0 115 -18 181l-209 -426q32 -43 90 -43z" />
    <glyph glyph-name="one" unicode="1" horiz-adv-x="600" 
d="M374 68h143v-68h-397v68h169v529l-157 -95l-37 59l205 128h74v-621z" />
    <glyph glyph-name="two" unicode="2" horiz-adv-x="600" 
d="M269 700q95 0 151.5 -54t56.5 -138q0 -93 -66 -184.5t-242 -251.5h324l-10 -72h-410v68q196 187 256 270t60 167q0 58 -33 91t-91 33q-49 0 -81.5 -16.5t-66.5 -56.5l-58 45q81 99 210 99z" />
    <glyph glyph-name="three" unicode="3" horiz-adv-x="600" 
d="M269 700q95 0 153 -50t58 -123q0 -60 -39 -104.5t-95 -55.5q65 -5 110.5 -49t45.5 -120q0 -90 -66.5 -149.5t-172.5 -59.5q-61 0 -117.5 23t-93.5 68l56 46q58 -68 153 -68q72 0 112.5 37.5t40.5 102.5q0 131 -143 131h-57l10 67h41q54 0 92 30.5t38 89.5
q0 55 -36.5 85.5t-93.5 30.5q-77 0 -146 -63l-46 51q84 80 196 80z" />
    <glyph glyph-name="four" unicode="4" horiz-adv-x="600" 
d="M528 235v-68h-89v-167h-81v167h-286v62l202 471l70 -30l-183 -435h198l7 195h73v-195h89z" />
    <glyph glyph-name="five" unicode="5" horiz-adv-x="600" 
d="M487 689l-12 -68h-272v-217q53 30 118 30q86 0 137.5 -57t51.5 -159q0 -104 -63.5 -166.5t-169.5 -62.5q-115 0 -200 82l52 51q63 -64 148 -64q69 0 107 42t38 121q0 147 -125 147q-41 0 -107 -23h-68v344h365z" />
    <glyph glyph-name="six" unicode="6" horiz-adv-x="600" 
d="M330 448q84 0 139.5 -55.5t55.5 -160.5q0 -112 -62 -177.5t-155 -65.5q-229 0 -229 336q0 173 68 274t188 101q75 0 137 -41l-33 -56q-49 29 -105 29q-78 0 -123 -74.5t-47 -201.5q62 92 166 92zM308 57q64 0 97.5 45.5t33.5 126.5q0 151 -122 151q-94 0 -152 -97
q2 -118 36 -172t107 -54z" />
    <glyph glyph-name="seven" unicode="7" horiz-adv-x="600" 
d="M230 -9l-78 23l268 605h-323v70h408v-65z" />
    <glyph glyph-name="eight" unicode="8" horiz-adv-x="600" 
d="M506 525q0 -90 -119 -156q70 -29 109 -76t39 -108q0 -86 -65 -141t-172 -55q-108 0 -170.5 55t-62.5 139q0 115 139 180q-57 27 -83.5 63.5t-26.5 93.5q0 87 64 133.5t142 46.5q83 0 144.5 -45t61.5 -130zM176 519q0 -29 9 -48.5t33.5 -34.5t44.5 -23t65 -23
q51 30 73.5 58.5t22.5 72.5q0 52 -32.5 82.5t-91.5 30.5t-91.5 -30t-32.5 -85zM446 183q0 27 -10 48.5t-22 35t-42 28.5t-48.5 22t-62.5 22q-107 -50 -107 -156q0 -59 37 -92.5t107 -33.5t109 35t39 91z" />
    <glyph glyph-name="nine" unicode="9" horiz-adv-x="600" 
d="M289 699q113 0 169 -70t56 -196q0 -110 -20 -184.5t-68 -126t-112 -83t-167 -60.5l-20 64q147 38 221.5 106t76.5 188q-56 -82 -161 -85q-88 -1 -143 59t-55 161q0 107 63 167t160 60zM279 320q87 1 148 91q2 121 -31 170.5t-107 49.5q-135 0 -135 -162
q0 -77 32.5 -113.5t92.5 -35.5z" />
    <glyph glyph-name="colon" unicode=":" horiz-adv-x="600" 
d="M219 431q0 33 23 56.5t57 23.5q35 0 58 -23.5t23 -56.5q0 -34 -23 -58t-58 -24q-34 0 -57 24t-23 58zM219 70q0 33 23 57t57 24q35 0 58 -23.5t23 -57.5q0 -35 -23 -58t-58 -23q-34 0 -57 23t-23 58z" />
    <glyph glyph-name="semicolon" unicode=";" horiz-adv-x="600" 
d="M299 511q35 0 58 -23.5t23 -56.5q0 -34 -23 -58t-58 -24q-34 0 -57 24t-23 58q0 33 23 56.5t57 23.5zM299 166q34 0 57.5 -23.5t23.5 -57.5q0 -36 -19 -79l-82 -186h-76l48 198q-32 24 -32 67q0 34 23 57.5t57 23.5z" />
    <glyph glyph-name="less" unicode="&#x3c;" horiz-adv-x="600" 
d="M472 594l41 -64l-353 -217l353 -219l-45 -61l-380 237v87z" />
    <glyph glyph-name="glyph33" unicode="=" horiz-adv-x="600" 
d="M494 442v-72h-388v72h388zM494 252v-72h-388v72h388z" />
    <glyph glyph-name="greater" unicode="&#x3e;" horiz-adv-x="600" 
d="M129 594l384 -238v-86l-380 -237l-45 62l353 218l-353 217z" />
    <glyph glyph-name="glyph35" unicode="?" horiz-adv-x="600" 
d="M299 700q89 0 143.5 -46.5t54.5 -108.5q0 -44 -18.5 -76t-45 -51.5t-53.5 -38.5t-45.5 -48.5t-18.5 -69.5v-34h-84v39q0 45 18 79t44 55.5t52.5 40.5t44.5 43.5t18 55.5q0 42 -33 66t-85 24q-81 0 -142 -74l-59 45q84 99 209 99zM277 123q29 0 48 -19.5t19 -47.5
q0 -29 -19 -48t-48 -19t-48 19.5t-19 47.5t19.5 47.5t47.5 19.5z" />
    <glyph glyph-name="glyph36" unicode="@" horiz-adv-x="600" 
d="M284 700q75 0 130.5 -24.5t87.5 -62.5t51.5 -94.5t26 -111t6.5 -122.5q0 -201 -30.5 -288.5t-116.5 -87.5q-57 0 -88 48.5t-30 94.5h-4q-40 -98 -137 -98q-78 0 -114 61.5t-36 167.5q0 129 50.5 193.5t145.5 64.5q72 0 141 -37v-296q0 -74 18.5 -102.5t51.5 -28.5
q22 0 35.5 20t19 69.5t6.5 88.5t1 121v8q0 79 -8 135t-30 106t-66 75.5t-110 25.5q-124 0 -227 -92l-49 57q127 109 275 109zM229 379q-66 0 -92 -47t-26 -149q0 -166 79 -166q23 0 41 8t30 23t18 26t12 26q1 3 2 5v260q-29 14 -64 14z" />
    <glyph glyph-name="A" unicode="A" horiz-adv-x="600" 
d="M434 176h-273l-55 -176h-86l225 689h110l224 -689h-90zM184 248h227l-113 367z" />
    <glyph glyph-name="B" unicode="B" horiz-adv-x="600" 
d="M540 196q0 -54 -22 -93.5t-60 -61t-82 -31.5t-94 -10h-186v689h170q49 0 90 -8.5t77 -27.5t56.5 -54t20.5 -84q0 -62 -37 -99.5t-92 -50.5q159 -27 159 -169zM421 510q0 108 -135 108h-103v-222h111q127 0 127 114zM448 193q0 131 -148 131h-117v-252h114q151 0 151 121z
" />
    <glyph glyph-name="C" unicode="C" horiz-adv-x="600" 
d="M358 700q64 0 110 -16.5t90 -50.5l-49 -57q-61 51 -145 51q-93 0 -151.5 -67.5t-58.5 -214.5q0 -146 57 -214t152 -68q87 0 160 57l45 -56q-77 -75 -206 -75q-131 0 -215 94t-84 262q0 167 84.5 261t210.5 94z" />
    <glyph glyph-name="D" unicode="D" horiz-adv-x="600" 
d="M553 348q0 -83 -19 -146.5t-49 -101t-72.5 -61t-83.5 -31.5t-88 -8h-158v689h147q53 0 96.5 -7.5t87 -30t73 -59.5t48 -99t18.5 -145zM460 348q0 85 -18.5 142.5t-51.5 83.5t-65 35t-74 9h-81v-548h82q41 0 75 12t65.5 41t49.5 86t18 139z" />
    <glyph glyph-name="E" unicode="E" horiz-adv-x="600" 
d="M212 617v-232h256v-71h-256v-244h314v-70h-400v689h391l-10 -72h-295z" />
    <glyph glyph-name="F" unicode="F" horiz-adv-x="600" 
d="M225 617v-241h270v-70h-270v-306h-87v689h406l-10 -72h-309z" />
    <glyph glyph-name="G" unicode="G" horiz-adv-x="600" 
d="M314 -11q-126 0 -197.5 90.5t-71.5 265.5q0 169 84.5 262t204.5 93q65 0 109 -18t87 -58l-52 -54q-61 57 -144 57q-84 0 -140 -67t-56 -215q0 -147 45.5 -215t137.5 -68q73 0 131 33v209h-135l-10 73h232v-328q-106 -60 -225 -60z" />
    <glyph glyph-name="H" unicode="H" horiz-adv-x="600" 
d="M430 0v327h-260v-327h-87v689h87v-291h260v291h87v-689h-87z" />
    <glyph glyph-name="I" unicode="I" horiz-adv-x="600" 
d="M497 689v-70h-153v-550h153v-69h-394v69h153v550h-153v70h394z" />
    <glyph glyph-name="J" unicode="J" horiz-adv-x="600" 
d="M497 689v-460q0 -46 -12 -86.5t-37.5 -76.5t-73.5 -57t-113 -21q-105 0 -188 63l38 57q75 -47 149 -47q72 0 111 45.5t39 126.5v385h-204v71h291z" />
    <glyph glyph-name="K" unicode="K" horiz-adv-x="600" 
d="M192 0h-87v689h87v-689zM197 368l270 321h101l-269 -316l288 -373h-109z" />
    <glyph glyph-name="L" unicode="L" horiz-adv-x="600" 
d="M136 0v689h86v-612h315l-11 -77h-390z" />
    <glyph glyph-name="M" unicode="M" horiz-adv-x="600" 
d="M531 689l39 -689h-84l-21 360q-6 95 -6 249l-116 -485h-87l-124 485q6 -113 -2 -249l-18 -360h-82l39 689h121l112 -472l107 472h122z" />
    <glyph glyph-name="N" unicode="N" horiz-adv-x="600" 
d="M395 0l-243 605q12 -180 12 -260v-345h-81v689h118l247 -608q0 5 -3.5 48.5t-6 101.5t-2.5 113v345h81v-689h-122z" />
    <glyph glyph-name="O" unicode="O" horiz-adv-x="600" 
d="M553 344q0 -161 -65.5 -258t-187.5 -97q-123 0 -188 95t-65 259q0 161 65.5 259t187.5 98t187.5 -96.5t65.5 -259.5zM463 344q0 141 -39 212t-124 71t-124 -71.5t-39 -212.5q0 -281 163 -281q85 0 124 70.5t39 211.5z" />
    <glyph glyph-name="P" unicode="P" horiz-adv-x="600" 
d="M557 477q0 -115 -71 -168t-195 -53h-89v-256h-86v689h175q127 0 196.5 -53t69.5 -159zM464 476q0 144 -162 144h-100v-295h97q78 0 121.5 34t43.5 117z" />
    <glyph glyph-name="Q" unicode="Q" horiz-adv-x="600" 
d="M554 344q0 -239 -143 -317q74 -15 115.5 -52t66.5 -112l-92 -36q-34 85 -80 124t-131 39q-117 0 -181 95.5t-64 257.5q0 161 66 259t189 98q122 0 188 -96.5t66 -259.5zM463 344q0 141 -39 212t-124 71q-164 0 -164 -284q0 -281 164 -281q85 0 124 70.5t39 211.5z" />
    <glyph glyph-name="R" unicode="R" horiz-adv-x="600" 
d="M537 495q0 -74 -46 -122.5t-122 -67.5l205 -305h-104l-189 295h-93v-295h-86v689h176q259 0 259 -194zM445 495q0 66 -38 95t-119 29h-100v-256h101q156 0 156 132z" />
    <glyph glyph-name="S" unicode="S" horiz-adv-x="600" 
d="M537 191q0 -91 -67 -146.5t-185 -55.5q-152 0 -242 87l52 59q79 -74 191 -74q68 0 114 33t46 95q0 51 -31.5 80t-118.5 54q-112 33 -167 77.5t-55 121.5q0 78 62 128t161 50q128 0 220 -79l-52 -56q-71 62 -165 62q-60 0 -99 -26t-39 -76q0 -44 37 -71t136 -56
q97 -28 149.5 -73t52.5 -134z" />
    <glyph glyph-name="T" unicode="T" horiz-adv-x="600" 
d="M342 614v-614h-87v614h-215v75h519l-9 -75h-208z" />
    <glyph glyph-name="U" unicode="U" horiz-adv-x="600" 
d="M528 689v-466q0 -105 -62.5 -169.5t-166.5 -64.5q-105 0 -166 64t-61 170v466h87v-469q0 -78 36 -117t104 -39q141 0 141 156v469h88z" />
    <glyph glyph-name="V" unicode="V" horiz-adv-x="600" 
d="M302 99l186 590h87l-230 -689h-90l-230 689h93z" />
    <glyph glyph-name="W" unicode="W" horiz-adv-x="600" 
d="M595 689l-104 -689h-114l-79 520l-80 -520h-117l-96 689h87l73 -594l83 514h106l79 -514l82 594h80z" />
    <glyph glyph-name="X" unicode="X" horiz-adv-x="600" 
d="M49 689h100l151 -265l152 265h93l-195 -317l219 -372h-100l-171 311l-174 -311h-93l216 367z" />
    <glyph glyph-name="Y" unicode="Y" horiz-adv-x="600" 
d="M344 266v-266h-88v265l-233 424h96l183 -346l185 346h90z" />
    <glyph glyph-name="Z" unicode="Z" horiz-adv-x="600" 
d="M167 75h360l-10 -75h-445v70l363 544h-327v75h420v-72z" />
    <glyph glyph-name="bracketleft" unicode="[" horiz-adv-x="600" 
d="M184 -115v930h251v-72h-171v-787h171v-71h-251z" />
    <glyph glyph-name="backslash" unicode="\" horiz-adv-x="600" 
d="M53 777l66 32l428 -882l-68 -30z" />
    <glyph glyph-name="bracketright" unicode="]" horiz-adv-x="600" 
d="M416 815v-930h-251v71h171v787h-171v72h251z" />
    <glyph glyph-name="asciicircum" unicode="^" horiz-adv-x="600" 
d="M337 840l189 -313h-91l-136 237l-135 -237h-90l189 313h74z" />
    <glyph glyph-name="underscore" unicode="_" horiz-adv-x="600" 
d="M50 -182v74h500v-74h-500z" />
    <glyph glyph-name="grave" unicode="`" horiz-adv-x="600" 
d="M387 622l-203 93l46 72l184 -119z" />
    <glyph glyph-name="a" unicode="a" horiz-adv-x="600" 
d="M478 115q0 -31 10 -45.5t33 -21.5l-21 -60q-77 10 -96 75q-57 -74 -165 -74q-79 0 -124.5 44t-45.5 118q0 81 63.5 125t182.5 44h78v43q0 105 -125 105q-60 0 -137 -27l-23 64q93 33 173 33q96 0 146.5 -45t50.5 -125v-253zM260 52q39 0 74.5 20t58.5 55v135h-76
q-158 0 -158 -110q0 -100 101 -100z" />
    <glyph glyph-name="b" unicode="b" horiz-adv-x="600" 
d="M184 458q61 80 151 80q101 0 149 -72t48 -202q0 -124 -55 -199.5t-154 -75.5q-91 0 -143 66l-6 -55h-74v739l84 10v-291zM304 57q137 0 137 207q0 206 -125 206q-74 0 -132 -84v-261q44 -68 120 -68z" />
    <glyph glyph-name="c" unicode="c" horiz-adv-x="600" 
d="M339 61q69 0 137 46l40 -55q-33 -29 -82 -46t-95 -17q-117 0 -182.5 73.5t-65.5 198.5q0 122 66.5 199.5t181.5 77.5q102 0 176 -62l-41 -55q-69 46 -136 46q-71 0 -113.5 -52.5t-42.5 -153.5t42.5 -150.5t114.5 -49.5z" />
    <glyph glyph-name="d" unicode="d" horiz-adv-x="600" 
d="M416 749l84 -10v-739h-74l-8 69q-57 -80 -149 -80q-100 0 -150.5 73t-50.5 201q0 121 55.5 198t150.5 77q87 0 142 -63v274zM296 470q-66 0 -101.5 -52t-35.5 -155q0 -207 127 -207q75 0 130 84v262q-46 68 -120 68z" />
    <glyph glyph-name="e" unicode="e" horiz-adv-x="600" 
d="M167 234q3 -87 45.5 -131t107.5 -44q70 0 141 47l39 -56q-79 -61 -180 -61q-114 0 -177.5 74.5t-63.5 199.5q0 121 62.5 198t166.5 77q100 0 157.5 -69.5t57.5 -189.5q0 -23 -2 -45h-354zM309 469q-61 0 -99 -43.5t-43 -127.5h274q-1 83 -36 127t-96 44z" />
    <glyph glyph-name="f" unicode="f" horiz-adv-x="600" 
d="M411 749q75 0 143 -28l-27 -63q-50 22 -113 22q-110 0 -110 -87v-107h178l-9 -67h-169v-419h-85v419h-125v67h125v105q0 71 54.5 114.5t137.5 43.5z" />
    <glyph glyph-name="g" unicode="g" horiz-adv-x="600" 
d="M529 582l25 -79q-47 -15 -154 -15q92 -42 92 -133q0 -80 -53 -129.5t-145 -49.5q-47 0 -79 11q-27 -22 -27 -51q0 -45 70 -45h95q80 0 133 -41t53 -102q0 -77 -65.5 -118.5t-185.5 -41.5q-122 0 -172 38t-50 121h76q0 -49 30.5 -70t115.5 -21q166 0 166 87q0 36 -33 55.5
t-85 19.5h-94q-65 0 -99 28.5t-34 71.5q0 54 58 92q-88 45 -88 145q0 81 58.5 132t151.5 51q63 0 108.5 6.5t69.5 14t62 23.5zM288 476q-61 0 -92 -32.5t-31 -88.5t31.5 -89.5t93.5 -33.5q56 0 85.5 32.5t29.5 91.5q0 120 -117 120z" />
    <glyph glyph-name="h" unicode="h" horiz-adv-x="600" 
d="M184 747v-293q31 40 76 62t93 22q148 0 148 -156v-382h-84v381q0 47 -22 68.5t-70 21.5q-41 0 -79 -26t-62 -61v-384h-84v738z" />
    <glyph glyph-name="i" unicode="i" horiz-adv-x="600" 
d="M300 773q28 0 45 -16.5t17 -42.5t-17 -42.5t-45 -16.5q-27 0 -43.5 16.5t-16.5 42.5t16.5 42.5t43.5 16.5zM367 527v-460h148v-67h-394v67h162v393h-157v67h241z" />
    <glyph glyph-name="j" unicode="j" horiz-adv-x="600" 
d="M367 773q27 0 44 -16.5t17 -42.5t-17 -42.5t-44 -16.5t-44 16.5t-17 42.5t17 42.5t44 16.5zM445 527v-443q0 -127 -84.5 -197.5t-250.5 -98.5l-14 65q127 21 196 73.5t69 152.5v381h-219v67h303z" />
    <glyph glyph-name="k" unicode="k" horiz-adv-x="600" 
d="M190 749v-749h-84v739zM541 527l-236 -238l264 -289h-111l-259 288l234 239h108z" />
    <glyph glyph-name="l" unicode="l" horiz-adv-x="600" 
d="M306 739v-609q0 -71 87 -71q41 0 88 18l22 -61q-50 -27 -125 -27q-71 0 -113.5 39t-42.5 106v538h-162v67h246z" />
    <glyph glyph-name="m" unicode="m" horiz-adv-x="600" 
d="M447 538q102 0 102 -146v-392h-77v378q0 55 -7 74.5t-34 19.5q-51 0 -92 -63v-409h-78v378q0 55 -7 74.5t-34 19.5q-51 0 -92 -63v-409h-77v527h65l6 -62q50 73 114 73q74 0 95 -70q48 70 116 70z" />
    <glyph glyph-name="n" unicode="n" horiz-adv-x="600" 
d="M100 0v527h72l7 -74q31 40 78.5 62.5t95.5 22.5q148 0 148 -156v-382h-84v320q0 86 -17 118.5t-73 32.5q-43 0 -81 -26t-62 -62v-383h-84z" />
    <glyph glyph-name="o" unicode="o" horiz-adv-x="600" 
d="M301 538q109 0 167.5 -73.5t58.5 -200.5q0 -124 -59.5 -199.5t-167.5 -75.5q-109 0 -168 73.5t-59 200.5q0 125 59.5 200t168.5 75zM301 469q-137 0 -137 -206q0 -205 136 -205t136 206q0 205 -135 205z" />
    <glyph glyph-name="p" unicode="p" 
d="M336 538q191 0 191 -274q0 -125 -52 -200t-151 -75q-86 0 -140 60v-251l-84 -10v739h72l7 -74q60 85 157 85zM316 470q-74 0 -132 -84v-261q45 -66 121 -66q131 0 131 205q0 206 -120 206z" />
    <glyph glyph-name="q" unicode="q" horiz-adv-x="600" 
d="M274 538q92 0 147 -69l7 58h72v-739l-84 10v268q-56 -77 -149 -77q-194 0 -194 274q0 122 53 198.5t148 76.5zM295 470q-131 0 -131 -207q0 -204 121 -204q78 0 131 81v262q-44 68 -121 68z" />
    <glyph glyph-name="r" unicode="r" horiz-adv-x="600" 
d="M456 538q32 0 74 -11l-12 -179h-68v113h-5q-122 0 -173 -174v-222h107v-65h-274v65h83v397h-83v65h146l16 -125q32 68 76.5 102t112.5 34z" />
    <glyph glyph-name="s" unicode="s" horiz-adv-x="600" 
d="M280 58q60 0 95 23t35 61t-24 59t-103 41q-92 23 -136 55.5t-44 96.5q0 66 55 105t145 39q110 0 192 -58l-38 -58q-69 48 -152 48q-114 0 -114 -69q0 -35 28 -52.5t111 -40.5q86 -23 128.5 -58.5t42.5 -103.5q0 -79 -64 -118t-157 -39q-124 0 -206 71l47 55
q69 -57 159 -57z" />
    <glyph glyph-name="t" unicode="t" horiz-adv-x="600" 
d="M519 27q-59 -38 -142 -38t-130 43.5t-47 114.5v314h-121v66h121v119l84 10v-129h183l-11 -66h-172v-313q0 -89 101 -89q54 0 101 25z" />
    <glyph glyph-name="u" unicode="u" horiz-adv-x="600" 
d="M184 527v-374q0 -51 21.5 -74.5t67.5 -23.5q42 0 81 24t62 60v388h84v-527h-72l-7 71q-31 -39 -76.5 -60.5t-92.5 -21.5q-75 0 -113.5 40t-38.5 115v383h84z" />
    <glyph glyph-name="v" unicode="v" horiz-adv-x="600" 
d="M540 527l-192 -527h-97l-191 527h90l152 -451l150 451h88z" />
    <glyph glyph-name="w" unicode="w" horiz-adv-x="600" 
d="M491 0h-119l-69 386l-74 -386h-116l-95 527h85l68 -475l84 408h99l79 -408l68 475h81z" />
    <glyph glyph-name="glyph92" unicode="x" horiz-adv-x="600" 
d="M152 0h-96l194 278l-171 249h100l122 -196l123 196h97l-171 -245l194 -282h-102l-145 226z" />
    <glyph glyph-name="y" unicode="y" horiz-adv-x="600" 
d="M538 527l-184 -530q-31 -91 -85 -145t-151 -64l-12 67q76 13 110.5 46t56.5 99h-28l-183 527h89l151 -463l149 463h87z" />
    <glyph glyph-name="z" unicode="z" horiz-adv-x="600" 
d="M205 72h293l-10 -72h-386v64l292 389h-269v74h370v-66z" />
    <glyph glyph-name="braceleft" unicode="{" horiz-adv-x="600" 
d="M451 836v-67q-61 0 -95 -18.5t-30 -61.5l20 -205q7 -61 -16.5 -92.5t-76.5 -41.5q55 -10 77.5 -40t15.5 -94l-20 -205q-4 -44 30 -62t95 -18v-67q-96 0 -154 36t-49 120l21 190q6 56 -25 81t-127 25v68q96 0 127 24.5t25 79.5l-21 192q-9 84 49 120t154 36z" />
    <glyph glyph-name="bar" unicode="|" horiz-adv-x="600" 
d="M337 807v-909h-75v909h75z" />
    <glyph glyph-name="braceright" unicode="}" horiz-adv-x="600" 
d="M149 836q96 0 154 -36t49 -120l-21 -192q-5 -53 29 -78.5t123 -25.5v-68q-90 0 -123.5 -26t-28.5 -80l21 -190q9 -84 -49 -120t-154 -36v67q61 0 95 18t30 62l-20 205q-7 65 17 94.5t87 38.5q-61 11 -86 42t-18 93l20 205q4 43 -30 61.5t-95 18.5v67z" />
    <glyph glyph-name="asciitilde" unicode="~" horiz-adv-x="600" 
d="M205 401q34 0 64 -15.5t47.5 -34.5t39.5 -34.5t42 -15.5q53 0 99 85l60 -32q-19 -36 -36 -59.5t-51 -45t-75 -21.5q-40 0 -74.5 25t-63.5 50t-55 25q-53 0 -99 -85l-60 30q14 27 26.5 45.5t32 39.5t45.5 32t58 11z" />
    <glyph glyph-name="uni00A0" unicode="&#xa0;" horiz-adv-x="600" 
 />
    <glyph glyph-name="exclamdown" unicode="&#xa1;" horiz-adv-x="600" 
d="M299 499q28 0 47.5 -20t19.5 -48t-19.5 -47t-47.5 -19t-47.5 19t-19.5 47q0 29 19.5 48.5t47.5 19.5zM335 260l13 -457h-97l12 457h72z" />
    <glyph glyph-name="cent" unicode="&#xa2;" horiz-adv-x="600" 
d="M373 683v-150q68 -8 121 -51l-42 -56q-56 41 -116 41q-67 0 -103 -52t-36 -154q0 -200 139 -200q60 0 117 45l41 -60q-52 -44 -121 -52v-147h-75v147q-94 12 -143 82t-49 185q0 111 49.5 184.5t143.5 86.5v151h74z" />
    <glyph glyph-name="sterling" unicode="&#xa3;" horiz-adv-x="600" 
d="M346 700q117 0 179 -87l-56 -43q-48 59 -120 59q-108 0 -108 -121v-121h206v-58h-206v-124q0 -98 -62 -133h338l-10 -72h-432v68q29 9 46 21.5t24.5 32t9 35t1.5 44.5v128h-82v58h82v128q0 81 51.5 133t138.5 52z" />
    <glyph glyph-name="currency" unicode="&#xa4;" horiz-adv-x="600" 
d="M89 610l88 -90q55 33 124 33q73 0 121 -33l89 89l55 -54l-87 -88q36 -54 36 -125q0 -68 -37 -127l88 -87l-55 -54l-90 88q-50 -32 -120 -32q-71 0 -123 32l-89 -89l-55 54l89 89q-35 56 -35 126t34 123l-88 91zM301 486q-62 0 -95 -38t-33 -106t33 -105.5t95 -37.5
t94.5 37.5t32.5 105.5t-32.5 106t-94.5 38z" />
    <glyph glyph-name="yen" unicode="&#xa5;" horiz-adv-x="600" 
d="M561 689l-194 -344h119v-58h-142v-86h142v-59h-142v-142h-88v142h-140v59h140v86h-140v58h116l-193 344h96l166 -317h4l167 317h89z" />
    <glyph glyph-name="brokenbar" unicode="&#xa6;" horiz-adv-x="600" 
d="M337 807v-355h-75v355h75zM337 253v-355h-75v355h75z" />
    <glyph glyph-name="section" unicode="&#xa7;" horiz-adv-x="600" 
d="M317 700q93 0 167 -54l-40 -57q-62 42 -133 42q-43 0 -69 -19.5t-26 -50.5q0 -34 24 -53.5t100 -45.5q83 -27 118 -61t35 -91q0 -77 -80 -126q59 -44 59 -108q0 -67 -53.5 -106t-139.5 -39q-98 0 -171 54l40 57q61 -43 136 -43q43 0 71.5 19.5t28.5 51.5q0 34 -24.5 53
t-99.5 44q-83 28 -118.5 61.5t-35.5 91.5q0 75 81 125q-59 45 -59 109q0 66 54.5 106t134.5 40zM239 416q-49 -38 -49 -85q0 -40 26.5 -57.5t125.5 -53.5q12 -5 19 -7q49 40 49 86q0 39 -28.5 57t-142.5 60z" />
    <glyph glyph-name="dieresis" unicode="&#xa8;" horiz-adv-x="600" 
d="M196 648q-23 0 -39 15.5t-16 37.5q0 24 16 39.5t39 15.5t38.5 -15.5t15.5 -39.5q0 -23 -15.5 -38t-38.5 -15zM403 648q-23 0 -38.5 15t-15.5 38q0 24 15.5 39.5t38.5 15.5t39 -15.5t16 -39.5q0 -22 -16 -37.5t-39 -15.5z" />
    <glyph glyph-name="glyph108" unicode="&#xa9;" horiz-adv-x="600" 
d="M301 747q125 0 197.5 -89t72.5 -223q0 -133 -72.5 -221.5t-197.5 -88.5t-198.5 88.5t-73.5 221.5q0 134 73 223t199 89zM301 697q-104 0 -160 -73.5t-56 -188.5q0 -114 56 -186.5t160 -72.5t159.5 72.5t55.5 186.5t-55.5 188t-159.5 74zM304 625q66 0 118 -39l-36 -47
q-39 30 -78 30q-42 0 -68 -32.5t-26 -100.5q0 -64 25 -96.5t69 -32.5q48 0 86 35l33 -48q-53 -47 -122 -47q-73 0 -118 50t-45 139t47 139t115 50z" />
    <glyph glyph-name="ordfeminine" unicode="&#xaa;" horiz-adv-x="600" 
d="M290 749q82 0 124 -36.5t42 -103.5v-197q0 -41 34 -51l-19 -54q-64 8 -83 59q-51 -59 -134 -59q-68 0 -110 36.5t-42 96.5q0 66 57 101.5t160 35.5h59v29q0 79 -99 79q-55 0 -122 -25l-23 59q80 30 156 30zM378 520h-58q-133 0 -133 -76q0 -77 86 -77q63 0 105 56v97z
M498 75v-75h-392v75h392z" />
    <glyph glyph-name="guillemotleft" unicode="&#xab;" horiz-adv-x="600" 
d="M309 87l-51 -32l-176 208v61l176 208l51 -32l-136 -206zM517 87l-51 -32l-177 208v61l177 208l51 -32l-136 -206z" />
    <glyph glyph-name="logicalnot" unicode="&#xac;" horiz-adv-x="600" 
d="M484 348v-214h-77v142h-291v72h368z" />
    <glyph glyph-name="uni00AD" unicode="&#xad;" horiz-adv-x="600" 
d="M144 277v72h312v-72h-312z" />
    <glyph glyph-name="registered" unicode="&#xae;" horiz-adv-x="600" 
d="M300 747q105 0 179 -75t74 -180q0 -106 -74 -179.5t-179 -73.5t-179.5 74t-74.5 179t74.5 180t179.5 75zM300 700q-85 0 -143 -61t-58 -147q0 -87 57.5 -146.5t143.5 -59.5t143 59.5t57 146.5q0 86 -57.5 147t-142.5 61zM286 636q122 0 122 -85q0 -60 -67 -79l86 -118
h-66l-75 109h-29v-109h-56v282h85zM287 592h-30v-86h32q61 0 61 45q0 41 -63 41z" />
    <glyph glyph-name="macron" unicode="&#xaf;" horiz-adv-x="600" 
d="M434 676h-269v64h269v-64z" />
    <glyph glyph-name="degree" unicode="&#xb0;" horiz-adv-x="600" 
d="M228 749q66 0 114 -42.5t48 -114.5t-48 -114t-114 -42t-114.5 42.5t-48.5 114.5t48.5 114t114.5 42zM228 689q-37 0 -63 -24.5t-26 -71.5t26 -72.5t63 -25.5t63 25t26 72t-26 72t-63 25z" />
    <glyph glyph-name="plusminus" unicode="&#xb1;" horiz-adv-x="600" 
d="M340 538v-149h144v-71h-144v-155h-80v155h-144v71h144v149h80zM484 73v-73h-368v73h368z" />
    <glyph glyph-name="uni00B2" unicode="&#xb2;" horiz-adv-x="600" 
d="M435 536q0 -47 -35.5 -79.5t-133.5 -80.5h179l-9 -61h-277v53q130 79 165 106.5t35 58.5q0 23 -15.5 35.5t-43.5 12.5q-55 0 -95 -48l-51 39q61 70 148 70q62 0 97.5 -29t35.5 -77z" />
    <glyph glyph-name="uni00B3" unicode="&#xb3;" horiz-adv-x="600" 
d="M308 642q60 0 95 -24t35 -65q0 -28 -16 -44t-55 -23q44 -7 64.5 -24t20.5 -52q0 -46 -41 -73.5t-113 -27.5q-94 0 -151 58l46 39q44 -40 108 -40q76 0 76 46q0 47 -72 47h-46l7 43h35q64 0 64 41q0 44 -62 44q-54 0 -104 -38l-40 41q64 52 149 52z" />
    <glyph glyph-name="acute" unicode="&#xb4;" horiz-adv-x="600" 
d="M384 797l38 -72l-209 -85l-26 45z" />
    <glyph glyph-name="uni00B5" unicode="&#xb5;" horiz-adv-x="600" 
d="M484 527v-359q0 -78 27 -168l-79 -12q-18 32 -24 85q-23 -38 -62 -61.5t-79 -23.5t-62 11.5t-42 39.5q9 -65 9 -88v-153l-84 -10v739h84v-296q0 -89 16.5 -128.5t72.5 -39.5q83 0 139 79v385h84z" />
    <glyph glyph-name="paragraph" unicode="&#xb6;" horiz-adv-x="600" 
d="M556 689v-890l-77 -11v831h-112v-820l-77 -11v501q-118 0 -182.5 55.5t-64.5 142.5q0 88 66.5 145t187.5 57h259z" />
    <glyph glyph-name="periodcentered" unicode="&#xb7;" horiz-adv-x="600" 
d="M211 342q0 37 25.5 62.5t62.5 25.5q38 0 63 -25.5t25 -62.5q0 -38 -25 -63t-63 -25q-37 0 -62.5 25t-25.5 63z" />
    <glyph glyph-name="cedilla" unicode="&#xb8;" horiz-adv-x="600" 
d="M340 -141q0 26 -21 35t-65 9l8 113h58v-73q46 -4 69.5 -27.5t23.5 -55.5q0 -47 -35.5 -72.5t-86.5 -25.5q-63 0 -105 24l27 48q30 -16 67 -16q60 0 60 41z" />
    <glyph glyph-name="uni00B9" unicode="&#xb9;" horiz-adv-x="600" 
d="M330 315v239l-96 -52l-35 49l145 85h57v-321h-71z" />
    <glyph glyph-name="ordmasculine" unicode="&#xba;" horiz-adv-x="600" 
d="M300 749q94 0 148.5 -59.5t54.5 -160.5q0 -99 -55.5 -160.5t-147.5 -61.5q-93 0 -148.5 60.5t-55.5 161.5q0 98 56 159t148 61zM300 685q-56 0 -88 -39t-32 -117q0 -79 31.5 -118t88.5 -39q56 0 87.5 39t31.5 118q0 78 -31.5 117t-87.5 39zM497 75v-75h-393v75h393z" />
    <glyph glyph-name="guillemotright" unicode="&#xbb;" horiz-adv-x="600" 
d="M217 294l-135 206l51 32l176 -208v-61l-176 -208l-51 32zM424 294l-135 206l51 32l177 -208v-61l-177 -208l-51 32z" />
    <glyph glyph-name="onequarter" unicode="&#xbc;" horiz-adv-x="600" 
d="M129 368v239l-96 -52l-35 49l145 85h57v-321h-71zM44 184l-30 54l535 256l29 -54zM546 56v-56h-73v56h-179v48l136 227l61 -25l-115 -191h97l6 86h67v-86h55v-59h-55z" />
    <glyph glyph-name="onehalf" unicode="&#xbd;" horiz-adv-x="600" 
d="M126 368v239l-96 -52l-35 49l145 85h57v-321h-71zM40 184l-30 54l535 256l29 -54zM594 221q0 -47 -35.5 -79.5t-133.5 -80.5h179l-9 -61h-277v53q130 79 165 106.5t35 58.5q0 23 -15.5 35.5t-43.5 12.5q-55 0 -95 -48l-51 39q61 70 148 70q62 0 97.5 -29t35.5 -77z" />
    <glyph glyph-name="threequarters" unicode="&#xbe;" horiz-adv-x="600" 
d="M158 695q60 0 95 -24t35 -65q0 -28 -16 -44t-55 -23q44 -7 64.5 -24t20.5 -52q0 -46 -41 -73.5t-113 -27.5q-94 0 -151 58l46 39q44 -40 108 -40q76 0 76 46q0 47 -72 47h-46l7 43h35q64 0 64 41q0 44 -62 44q-54 0 -104 -38l-40 41q64 52 149 52zM54 184l-30 54l535 256
l29 -54zM548 56v-56h-73v56h-179v48l136 227l61 -25l-115 -191h97l6 86h67v-86h55v-59h-55z" />
    </font>
</defs>
</svg>
