<?xml version="1.0" standalone="no"?>
<!DOCTYPE svg PUBLIC "-//W3C//DTD SVG 1.1//EN" "http://www.w3.org/Graphics/SVG/1.1/DTD/svg11.dtd" >
<svg xmlns="http://www.w3.org/2000/svg" xmlns:xlink="http://www.w3.org/1999/xlink" version="1.1">
<metadata>
Created by FontForge 20170731 at Wed Jun 19 22:53:56 2019
 By Aleksey,,,
Copyright (c) 2015 by Nikita Prokopov
</metadata>
<defs>
<font id="FuraCodeNerdFontComplete-Regular" horiz-adv-x="600" >
  <font-face 
    font-family="FuraCode Nerd Font"
    font-weight="400"
    font-stretch="normal"
    units-per-em="1000"
    panose-1="2 11 5 9 5 0 0 2 0 4"
    ascent="800"
    descent="-200"
    x-height="527"
    cap-height="689"
    bbox="-1777 -500 1530 1050"
    underline-thickness="50"
    underline-position="-200"
    unicode-range="U+000D-1F310"
  />
<missing-glyph 
d="M90 1050h420v-1400h-420v1400zM456 -298v1296h-311v-1296h311zM307 173q0 -11 -7.5 -17.5t-17.5 -6.5t-17.5 6.5t-7.5 17.5v84q53 3 72 19.5t19 57.5q0 33 -13 51t-48 18q-29 0 -52 -11q-7 -3 -13 -3q-24 0 -24 23q0 19 29.5 29t63.5 10q111 0 111 -115q0 -104 -95 -118
v-45zM247 85q0 15 10 25t25 10t25 -10t10 -25q0 -16 -10 -26.5t-25 -10.5t-25 10.5t-10 26.5z" />
    <glyph glyph-name="map-marker-plus" unicode="&#x671;" horiz-adv-x="875" arabic-form="isolated" 
d="M291 356q45 0 74.5 29.5t29.5 74.5t-29.5 74.5t-74.5 29.5t-74.5 -29.5t-29.5 -74.5t29.5 -74.5t74.5 -29.5zM291 751q123 -2 206 -84t85 -207q-18 -178 -145.5 -352.5t-145.5 -188.5q-18 14 -145.5 188.5t-145.5 352.5q2 125 84 207t207 84zM541 126h125v125h84v-125
h125v-82h-125v-125h-84v125h-125v82z" />
    <glyph glyph-name="marker" unicode="&#x671;" horiz-adv-x="944" arabic-form="final" 
d="M744 748q-35 2 -60 -23l-242 -242l236 -237l242 242q23 25 23.5 58.5t-23.5 61.5l-119 117q-26 25 -57 23zM403 443l-248 -248q-25 -27 -25.5 -60t25.5 -59l-155 -154h237l35 35q25 -23 58.5 -23t58.5 25l248 248z" />
    <glyph glyph-name="message-plus" unicode="&#x67b;" horiz-adv-x="832" arabic-form="isolated" 
d="M750 751q35 0 58.5 -23.5t23.5 -58.5v-500q0 -35 -23.5 -59.5t-58.5 -24.5h-584l-166 -166v750q0 35 23.5 58.5t58.5 23.5h668zM375 585v-125h-125v-84h125v-125h82v125h125v84h-125v125h-82z" />
    <glyph glyph-name="microscope" unicode="&#x67b;" horiz-adv-x="750" arabic-form="final" 
d="M249 574l66 -113q-82 -10 -135 -67.5t-55 -141.5q2 -88 61 -146.5t147 -60.5q66 0 116 34t75 91h-108v82h334v-82h-93q-27 -100 -104 -168h113v-82h-666v82h112q-51 47 -81.5 111.5t-30.5 138.5q2 117 70 204t179 118zM385 750l31 -55l36 22l146 -254l-144 -82l-147 252
l37 21l-31 55z" />
    <glyph glyph-name="move-resize" unicode="&#x67b;" horiz-adv-x="918" arabic-form="initial" 
d="M334 794v-43h41v-125h-41v-41h125v41h-41v125h41v43h-125zM334 544q-35 -2 -58.5 -25.5t-25.5 -58.5v-500q2 -35 25.5 -58.5t58.5 -25.5h500q35 2 58.5 25.5t25.5 58.5v500q-2 35 -25.5 58.5t-58.5 25.5h-500zM0 460v-125h43v41h125v-41h41v125h-41v-41h-125v41h-43z
M334 460h500v-500h-500v500zM543 419v-43h41v-207h-166v41h-43v-125h43v41h166v-82h-41v-43h125v43h-43v82h125v-41h43v125h-43v-41h-125v207h43v43h-125z" />
    <glyph glyph-name="move-resize-variant" unicode="&#x67b;" horiz-adv-x="939" arabic-form="medial" 
d="M58 804l-58 -58l212 -212h-148v-84h291v290h-84v-148zM439 534v-84h416v-250h84v250q-2 34 -25.5 58t-58.5 26h-416zM271 366v-416q2 -35 25.5 -59t58.5 -25h250v84h-250v416h-84zM642 222l-60 -60l214 -212h-107v-84h250v250h-84v-108z" />
    <glyph glyph-name="paw-off" unicode="&#x67e;" horiz-adv-x="837" arabic-form="isolated" 
d="M3 688l53 53l759 -760l-52 -52l-84 83q-11 -6 -18 -11q-57 -20 -120 5.5t-126 31.5q-64 -6 -126.5 -32.5t-119.5 -4.5q-31 18 -49.5 52t-14.5 69q8 45 48.5 76t76.5 64q23 23 44.5 53.5t42.5 58.5zM267 741q39 4 71 -30t44 -90t-4 -97l-166 166q18 43 55 51zM565 741
q37 -8 55 -49t6 -98.5t-45 -90.5t-71 -27.5t-54.5 46.5t-5 98t43.5 91t71 30zM44 550q37 14 78 -9t66.5 -73.5t17.5 -94.5t-44 -59.5t-76 8t-65.5 73t-18.5 93.5t42 62zM794 550q35 -18 42 -62t-18.5 -93.5t-65.5 -73t-76 -8t-44 59.5t17.5 94.5t66.5 73.5t78 9z" />
    <glyph glyph-name="phone-minus" unicode="&#x67e;" horiz-adv-x="750" arabic-form="final" 
d="M41 710q-18 0 -29.5 -11.5t-11.5 -29.5q8 -301 208 -501t501 -208q18 0 29.5 11.5t11.5 29.5v147q0 18 -11.5 29.5t-29.5 11.5q-78 0 -148 23q-23 8 -43 -10l-92 -92q-90 47 -159.5 116.5t-116.5 159.5l92 92q18 18 10 43q-23 70 -23 148q0 18 -12 29.5t-30 11.5h-146z
M416 585v-84h334v84h-334z" />
    <glyph glyph-name="phone-plus" unicode="&#x67e;" horiz-adv-x="750" arabic-form="initial" 
d="M41 710q-18 0 -29.5 -11.5t-11.5 -29.5q8 -301 208 -501t501 -208q18 0 29.5 11.5t11.5 29.5v147q0 18 -11.5 29.5t-29.5 11.5q-78 0 -148 23q-23 8 -43 -10l-92 -92q-90 47 -159.5 116.5t-116.5 159.5l92 92q18 18 10 43q-23 70 -23 148q0 18 -12 29.5t-30 11.5h-146z
M541 710v-125h-125v-84h125v-125h84v125h125v84h-125v125h-84z" />
    <glyph glyph-name="pot" unicode="&#x67e;" horiz-adv-x="750" arabic-form="medial" 
d="M666 44q0 -35 -23.5 -59.5t-58.5 -24.5h-418q-35 0 -58.5 24.5t-23.5 59.5v250h-84v125h750v-125h-84v-250zM125 585h84v-84h-84v84zM334 585h82v-84h-82v84zM541 585h84v-84h-84v84zM625 710h84v-84h-84v84zM416 710h84v-84h-84v84zM209 710h82v-84h-82v84z" />
    <glyph glyph-name="pot-mix" unicode="&#x680;" horiz-adv-x="750" arabic-form="isolated" 
d="M666 45q0 -35 -23.5 -59.5t-58.5 -24.5h-418q-35 0 -58.5 24.5t-23.5 59.5v250h-84v125h459l166 289l72 -43l-142 -246h195v-125h-84v-250z" />
    <glyph glyph-name="serial-port" unicode="&#x680;" horiz-adv-x="601" arabic-form="final" 
d="M92 730h418v-84h82v-124h-126v-250h-332v250h-124v124h82v84zM510 480h82v-208h-82v208zM260 230h82v-290h-82v290zM10 480h82v-208h-82v208z" />
    <glyph glyph-name="shape-circle-plus" unicode="&#x680;" horiz-adv-x="791" arabic-form="initial" 
d="M334 24q105 1 175.5 71.5t74.5 178.5h82q-2 -143 -96.5 -236.5t-235.5 -97.5q-143 4 -236.5 97t-97.5 237q4 140 97.5 235t236.5 97v-82q-107 -5 -177.5 -75.5t-72.5 -174.5q2 -107 72.5 -177.5t177.5 -72.5zM666 606h125v-82h-125v-126h-82v126h-125v82h125v124h82v-124
z" />
    <glyph glyph-name="shape-polygon-plus" unicode="&#x680;" horiz-adv-x="791" arabic-form="medial" 
d="M584 160v114h82v-168l-375 -166l-291 290l166 376h168v-82h-113l-121 -276l209 -208zM791 606v-82h-125v-126h-82v126h-125v82h125v124h82v-124h125z" />
    <glyph glyph-name="shape-rectangle-plus" unicode="&#x67a;" horiz-adv-x="791" arabic-form="isolated" 
d="M666 543h125v-84h-125v-125h-82v125h-125v84h125v125h82v-125zM584 84v125h82v-207h-666v541h334v-84h-250v-375h500z" />
    <glyph glyph-name="shape-square-plus" unicode="&#x67a;" horiz-adv-x="791" arabic-form="final" 
d="M666 606h125v-82h-125v-126h-82v126h-125v82h125v124h82v-124zM584 24v250h82v-334h-666v666h334v-82h-250v-500h500z" />
    <glyph glyph-name="skip-next-circle" unicode="&#x67a;" horiz-adv-x="832" arabic-form="initial" 
d="M416 751q-178 -4 -295 -121t-121 -295q4 -178 121 -295t295 -121q178 4 295 121t121 295q-4 178 -121 295t-295 121zM250 501l207 -166l-207 -166v332zM500 501h82v-332h-82v332z" />
    <glyph glyph-name="skip-next-circle-outline" unicode="&#x67a;" horiz-adv-x="832" arabic-form="medial" 
d="M416 751q-178 -4 -295 -121t-121 -295q4 -178 121 -295t295 -121q178 4 295 121t121 295q-4 178 -121 295t-295 121zM416 669q141 -4 235.5 -98.5t98.5 -235.5q-4 -141 -98.5 -235.5t-235.5 -98.5q-141 4 -235.5 98.5t-98.5 235.5q4 141 98.5 235.5t235.5 98.5zM250 501
v-332l207 166zM500 501v-332h82v332h-82z" />
    <glyph glyph-name="skip-previous-circle" unicode="&#x67f;" horiz-adv-x="832" arabic-form="isolated" 
d="M416 751q-178 -4 -295 -121t-121 -295q4 -178 121 -295t295 -121q178 4 295 121t121 295q-4 178 -121 295t-295 121zM250 501h82v-332h-82v332zM582 501v-332l-207 166z" />
    <glyph glyph-name="skip-previous-circle-outline" unicode="&#x67f;" horiz-adv-x="832" arabic-form="final" 
d="M416 751q178 -4 295 -121t121 -295q-4 -178 -121 -295t-295 -121q-178 4 -295 121t-121 295q4 178 121 295t295 121zM416 669q-141 -4 -235.5 -98.5t-98.5 -235.5q4 -141 98.5 -235.5t235.5 -98.5q141 4 235.5 98.5t98.5 235.5q-4 141 -98.5 235.5t-235.5 98.5zM582 501
v-332l-207 166zM332 501v-332h-82v332h82z" />
    <glyph glyph-name="spray" unicode="&#x67f;" horiz-adv-x="668" arabic-form="initial" 
d="M250 669h84v-84h-84v84zM125 710h84v-84h-84v84zM125 585h84v-84h-84v84zM84 501v-82h-84v82h84zM84 626v-82h-84v82h84zM84 751v-82h-84v82h84zM375 -81q-35 0 -58.5 23.5t-23.5 58.5v418q0 35 23.5 58.5t58.5 23.5v43h43v125h125v-125h41v-43q35 0 58.5 -23.5
t25.5 -58.5v-418q-2 -35 -25.5 -58.5t-58.5 -23.5h-209zM375 419v-418h209v418h-209z" />
    <glyph glyph-name="stop-circle" unicode="&#x67f;" horiz-adv-x="832" arabic-form="medial" 
d="M416 751q-178 -4 -295 -121t-121 -295q4 -178 121 -295t295 -121q178 4 295 121t121 295q-4 178 -121 295t-295 121zM291 460h250v-250h-250v250z" />
    <glyph glyph-name="stop-circle-outline" unicode="&#x679;" horiz-adv-x="832" arabic-form="isolated" 
d="M416 751q-178 -4 -295 -121t-121 -295q4 -178 121 -295t295 -121q178 4 295 121t121 295q-4 178 -121 295t-295 121zM416 669q141 -4 235.5 -98.5t98.5 -235.5q-4 -141 -98.5 -235.5t-235.5 -98.5q-141 4 -235.5 98.5t-98.5 235.5q4 141 98.5 235.5t235.5 98.5zM291 460
v-250h250v250h-250z" />
    <glyph glyph-name="test-tube" unicode="&#x679;" horiz-adv-x="601" arabic-form="final" 
d="M92 750v-82h42v-584q2 -70 49 -117t117.5 -47t117 47t48.5 117v584h44v82h-418zM260 168q-20 0 -32 10.5t-12 30.5t12 30.5t31 10.5t30.5 -10.5t11 -30.5t-12 -30.5t-28.5 -10.5zM342 334q-18 0 -30 11.5t-12 30.5t12 30.5t31 11.5t30.5 -11.5t11 -30.5t-12 -30.5
t-30.5 -11.5zM384 543h-168v125h168v-125z" />
    <glyph glyph-name="text-shadow" unicode="&#x679;" horiz-adv-x="709" arabic-form="initial" 
d="M0 710h541v-125h-207v-500h-125v500h-209v125zM375 544h84v-84h-84v84zM500 544h84v-84h-84v84zM625 544h84v-84h-84v84zM375 419h84v-84h-84v84zM375 294h84v-84h-84v84zM375 169h84v-84h-84v84zM375 44h84v-84h-84v84z" />
    <glyph glyph-name="tune-vertical" unicode="&#x679;" horiz-adv-x="750" arabic-form="medial" 
d="M84 710v-375h-84v-84h84v-291h82v291h84v84h-84v375h-82zM334 710v-209h-84v-82h84v-459h82v459h84v82h-84v209h-82zM584 710v-459h-84v-82h84v-209h82v209h84v82h-84v459h-82z" />
    <glyph glyph-name="cart-off" unicode="&#x6a4;" horiz-adv-x="947" arabic-form="isolated" 
d="M947 -86l-894 894l-53 -52l184 -184l91 -192l-56 -104q-10 -18 -10 -40q0 -34 23.5 -58t58.5 -26h311l58 -56q-33 -23 -35 -68q0 -35 24.5 -59t59.5 -23q43 0 66 34l120 -118zM309 236q-10 0 -10 10l2 6l37 68h98l84 -84h-211zM648 320q23 0 42 12t31 32l148 268
q6 11 6 20q0 18 -11.5 30t-29.5 14h-561zM291 111.5q-35 0.5 -58.5 -24t-23.5 -59.5t23.5 -59t58.5 -23.5t59.5 24t24.5 58t-24.5 59t-59.5 25z" />
    <glyph glyph-name="chart-gantt" unicode="&#x6a4;" horiz-adv-x="832" arabic-form="final" 
d="M0 626h332v125h84v-832h-84v166h-166v125h166v84h-250v125h250v82h-332v125zM500 626h125v-125h-125v125zM500 419h207v-125h-207v125zM500 210h332v-125h-332v125z" />
    <glyph glyph-name="chart-scatterplot-hexbin" unicode="&#x6a4;" horiz-adv-x="832" arabic-form="initial" 
d="M0 751h82v-750h750v-82h-832v832zM500 231l-84 -146h-170l-84 146l84 145h170zM502 564l-84 -145h-168l-84 145l84 146h168zM801 398l-84 -147h-168l-84 147l84 146h168z" />
    <glyph glyph-name="chart-timeline" unicode="&#x6a4;" horiz-adv-x="832" arabic-form="medial" 
d="M0 751h82v-750h750v-82h-832v832zM207 419h418v-125h-418v125zM375 210h416v-125h-416v125zM166 669h666v-168h-82v84h-500v-84h-84v168z" />
    <glyph glyph-name="discord" unicode="&#x6a6;" horiz-adv-x="832" arabic-form="isolated" 
d="M832 -144l-219 208l28 -84h-537q-45 2 -74.5 32t-29.5 72v626q0 44 30 74q30 28 74 30h624q45 -1 74.5 -31t29.5 -73v-854zM416 572q-86 -4 -137.5 -24.5t-51.5 -23.5q35 28 74 44.5t43 15.5l-8 8q-53 -5 -92 -26t-41 -24q-51 -116 -60.5 -196.5t-7.5 -81.5
q49 -56 95.5 -65t50.5 -5l30 36q-39 12 -61.5 33.5t-24.5 24.5q2 -2 53.5 -26t137.5 -28q86 5 137.5 28.5t53.5 25.5q-2 -2 -24 -23.5t-62 -34.5l30 -36q4 -5 50.5 5.5t95.5 64.5q2 1 -7.5 81t-60.5 197q-2 4 -41 25t-92 25l-8 -8q4 0 43 -16t74 -44q0 4 -51.5 24.5
t-137.5 23.5zM330 414.5q21 -0.5 35 -16.5t14 -37t-13.5 -36.5t-35 -16t-35.5 15t-14 37t14 38t35 16zM504 414q20 0 34.5 -16t14.5 -37t-15 -36.5t-35.5 -16t-34 15t-13.5 37t14 38t35 15.5z" />
    <glyph glyph-name="file-restore" unicode="&#x6a6;" horiz-adv-x="668" arabic-form="final" 
d="M418 751h-334q-35 0 -58.5 -23.5t-25.5 -58.5v-668q2 -35 25.5 -58.5t58.5 -23.5h500q35 0 58.5 23.5t25.5 58.5v500zM334 85q-64 0 -115 34t-76 91h72q20 -29 51 -45.5t68 -16.5q62 2 103.5 42.5t41.5 102.5t-41.5 104t-103.5 42q-43 0 -76 -21.5t-53 -57.5l67 -66h-167
v166l53 -55q29 45 74 70.5t102 25.5q88 -2 147.5 -60.5t61.5 -146.5q-2 -90 -61.5 -148.5t-147.5 -60.5z" />
    <glyph glyph-name="language-c" unicode="&#x6a6;" horiz-adv-x="601" arabic-form="initial" 
d="M488 169l16 -102q-18 -8 -52.5 -15.5t-83.5 -7.5q-137 2 -207.5 81t-70.5 202q2 143 84.5 221t205.5 78q46 0 80.5 -8t49.5 -15l-24 -104l-44 14q-25 6 -58 6q-72 0 -119 -46t-49 -140q0 -84 45 -133t125 -49l54 4q28 6 48 14z" />
    <glyph glyph-name="language-cpp" unicode="&#x6a6;" horiz-adv-x="959" arabic-form="medial" 
d="M397 169l17 -102q-18 -8 -53 -15.5t-84 -7.5q-137 2 -207 81t-70 202q4 143 85 221t204 78q47 0 81 -8t50 -15l-23 -104l-45 14q-23 6 -57 6q-72 0 -120 -46t-50 -140q0 -84 45 -133t125 -49l57 4q25 6 45 14zM418 376h82v84h84v-84h84v-82h-84v-84h-84v84h-82v82z
M709 376h84v84h82v-84h84v-82h-84v-84h-82v84h-84v82z" />
    <glyph glyph-name="xaml" unicode="&#x684;" horiz-adv-x="980" arabic-form="isolated" 
d="M779 335l-144 -250h-290l-144 250l144 250h290zM980 335l-168 -291l-72 41l145 250l-145 250l72 41zM0 335l168 291l72 -41l-145 -250l145 -250l-72 -41z" />
    <glyph glyph-name="bandcamp" unicode="&#x684;" horiz-adv-x="832" arabic-form="final" 
d="M832 585l-270 -500h-562l270 500h562z" />
    <glyph glyph-name="credit-card-plus" unicode="&#x684;" horiz-adv-x="959" arabic-form="initial" 
d="M834 148h125v-84h-125v-126h-84v126h-125v84h125v124h84v-124zM750 564v84h-666v-84h666zM750 398h-666v-250h459v-84h-459q-35 1 -58.5 25t-25.5 59v500q2 34 25.5 58t58.5 26h666q35 -2 59.5 -26t24.5 -58v-292h-84v42z" />
    <glyph glyph-name="itunes" unicode="&#x684;" horiz-adv-x="665" arabic-form="medial" 
d="M157 124q-33 -2 -99.5 -28.5t-56.5 -104.5q31 -94 129.5 -77t110.5 130v408q-2 2 1 15t25 18l322 67q2 2 13.5 0t13.5 -22v-287q0 -2 -4 -14.5t-25 -18.5q-33 0 -99.5 -23.5t-64.5 -101.5q23 -96 125.5 -85t116.5 124v602q0 4 -6 20.5t-41 10.5l-391 -80q-2 2 -17.5 -7
t-17.5 -34v-473q0 -2 -5 -17.5t-30 -21.5z" />
    <glyph glyph-name="bow-tie" unicode="&#x683;" horiz-adv-x="750" arabic-form="isolated" 
d="M500 251l250 -125v418l-250 -125v-168zM250 251l-250 -125v418l250 -125v-168zM291 419h168v-168h-168v168z" />
    <glyph glyph-name="calendar-range" unicode="&#x683;" horiz-adv-x="750" arabic-form="final" 
d="M250 377h-84v-84h84v84zM416 377h-82v-84h82v84zM584 377h-84v-84h84v84zM666 668h-41v84h-84v-84h-332v84h-84v-84h-41q-37 0 -60.5 -24.5t-23.5 -59.5v-582q0 -35 24.5 -59.5t59.5 -24.5h582q35 0 59.5 24.5t24.5 59.5v582q0 35 -24.5 59.5t-59.5 24.5zM666 2h-582v457
h582v-457z" />
    <glyph glyph-name="currency-usd-off" unicode="&#x683;" horiz-adv-x="660" arabic-form="initial" 
d="M351 548q55 0 78.5 -24.5t25.5 -63.5h92q-2 55 -35.5 99t-97.5 59v92h-125v-90q-33 -8 -63 -23l63 -61q23 12 62 12zM53 665l-53 -53l142 -142q2 -64 45 -103.5t118 -60.5l146 -145q-10 -16 -34.5 -27.5t-65.5 -11.5q-64 2 -93.5 26.5t-31.5 61.5h-91q6 -68 48.5 -107
t105.5 -53v-90h125v90q61 12 102 47l91 -94l53 53z" />
    <glyph glyph-name="flash-red-eye" unicode="&#x683;" horiz-adv-x="791" arabic-form="medial" 
d="M541 648q-18 0 -29.5 -12t-11.5 -30t11.5 -29.5t30.5 -11t29.5 12t10.5 29t-10.5 29.5t-30.5 12zM541 772q-86 0 -152.5 -46t-97.5 -120q31 -73 97.5 -119.5t153.5 -46.5t153.5 46.5t95.5 119.5q-29 74 -95.5 120.5t-154.5 45.5zM541 710q45 0 74.5 -29.5t29.5 -74
t-29.5 -74.5t-73.5 -30t-73.5 30t-29.5 75t29.5 74.5t72.5 28.5zM0 772v-500h125v-374l291 500h-166l47 104q-43 46 -68 104q23 56 61 98t89 68h-379z" />
    <glyph glyph-name="oar" unicode="&#x686;" horiz-adv-x="752" arabic-form="isolated" 
d="M719 204q-51 53 -145 120.5t-168 43.5l-343 344l-63 -62l346 -346q-23 -74 46 -164t122.5 -141t94.5 -37t82 61q49 45 59 90.5t-31 90.5z" />
    <glyph glyph-name="piano" unicode="&#x686;" horiz-adv-x="832" arabic-form="final" 
d="M82 710h668q35 0 58.5 -24.5t23.5 -59.5v-582q0 -35 -23.5 -59.5t-58.5 -24.5h-668q-35 0 -58.5 24.5t-23.5 59.5v582q0 35 23.5 59.5t58.5 24.5zM82 626v-582h168v250h-53v332h-115zM291 44h250v250h-53v332h-144v-332h-53v-250zM582 44h168v582h-115v-332h-53v-250z
" />
    <glyph glyph-name="weather-lightning-rainy" unicode="&#x686;" horiz-adv-x="916" arabic-form="initial" 
d="M147 269q16 -10 19.5 -25.5t-5.5 -31.5t-24.5 -19.5t-31.5 3.5q-49 27 -76 74t-29 106q2 90 61.5 148.5t147.5 60.5q33 74 98.5 120t151.5 46q109 -2 184.5 -72.5t86.5 -177.5h20q72 -2 119 -49t47 -117t-47 -117t-119 -49q-18 0 -29.5 11.5t-11.5 29.5t11.5 29.5
t29.5 11.5q35 2 59.5 25.5t24.5 58.5t-24.5 58.5t-59.5 25.5h-82v41q-2 88 -61.5 147.5t-147.5 61.5q-80 -2 -135.5 -51t-69.5 -125q-21 8 -45 8q-53 0 -88 -35t-37 -90q0 -35 16.5 -63.5t46.5 -43.5zM355 376h125l-83 -166h83l-156 -291l31 207h-105zM688 58
q0 -41 -26.5 -68.5t-66.5 -27.5t-66.5 27.5t-28.5 68.5q6 53 47 110.5t47 62.5q6 -6 47 -63t47 -110z" />
    <glyph glyph-name="weather-snowy-rainy" unicode="&#x686;" horiz-adv-x="916" arabic-form="medial" 
d="M730 38q-2 -41 -28 -68.5t-66 -27.5t-66.5 27.5t-26.5 68.5q6 53 47 110.5t47 62.5q6 -6 46.5 -63t46.5 -110zM125 92q-4 18 5 32.5t26 18.5l94 26l-68 68q-14 14 -14 31.5t12.5 30t30.5 12.5t31 -14l69 -68l25 94q4 18 19.5 26.5t33 3.5t25.5 -19.5t4 -32.5l-25 -93
l93 23q18 6 33.5 -3t19.5 -26.5t-4 -32t-25 -18.5l-94 -25l68 -69q12 -14 12 -31.5t-12.5 -30t-30 -12.5t-29.5 12l-69 70l-25 -94q-6 -20 -20.5 -27.5t-32 -2.5t-26.5 19.5t-5 32.5l25 93l-93 -25q-18 -4 -32.5 4.5t-20.5 26.5zM0 356q2 90 61.5 148.5t147.5 60.5
q33 74 98.5 120t151.5 46q109 -2 184.5 -72.5t86.5 -177.5h20q72 -2 119 -49t47 -117t-47 -117t-119 -49q-18 0 -29.5 11.5t-11.5 29.5t11.5 29.5t29.5 11.5q35 2 59.5 25.5t24.5 58.5t-24.5 58.5t-59.5 25.5h-82v41q-2 88 -61.5 147.5t-147.5 61.5q-80 -2 -135.5 -51
t-69.5 -125q-21 8 -45 8q-53 0 -88 -35t-35 -90t35 -90q12 -12 12 -28.5t-13 -28t-29.5 -11.5t-27.5 12q-29 29 -46 66t-17 80z" />
    <glyph glyph-name="yin-yang" unicode="&#x687;" horiz-adv-x="832" arabic-form="isolated" 
d="M416 751q178 -4 295 -121t121 -295q-4 -178 -121 -295t-295 -121q-178 4 -295 121t-121 295q4 178 121 295t295 121zM416 669q-143 -4 -236.5 -97.5t-97.5 -236.5q4 -143 97.5 -236.5t236.5 -97.5q-70 2 -117 49t-47 118t47 118t117 49t117 49t47 118t-47 118t-117 49z
M416 564q27 0 44.5 -18t17.5 -44t-17.5 -44t-44.5 -18t-44.5 18t-17.5 44t17.5 44t44.5 18zM416 231q-27 -2 -44.5 -19.5t-17.5 -43.5t17.5 -44t44.5 -18t44.5 18t17.5 44t-17.5 43.5t-44.5 19.5z" />
    <glyph glyph-name="tower-beach" unicode="&#x687;" horiz-adv-x="750" arabic-form="final" 
d="M584 669v-168h41v-82h-16l141 -543h-86l-23 92l-266 152l-266 -152l-23 -92h-86l141 543h-16v82h41v168h-41v41l500 84v-125h-41zM178 233l-39 -154l152 90zM523 419h-296l-28 -102l176 -101l176 101zM611 79l-39 154l-113 -64z" />
    <glyph glyph-name="tower-fire" unicode="&#x687;" horiz-adv-x="750" arabic-form="initial" 
d="M584 669v-168h41v-82h-16l141 -543h-86l-23 92l-266 152l-266 -152l-23 -92h-86l141 543h-16v82h41v168h-41v41l250 84l250 -84v-41h-41zM178 233l-39 -154l152 90zM523 419h-296l-28 -102l176 -101l176 101zM611 79l-39 154l-113 -64z" />
    <glyph glyph-name="delete-circle" unicode="&#x687;" horiz-adv-x="832" arabic-form="medial" 
d="M416 751q178 -4 295 -121t121 -295q-4 -178 -121 -295t-295 -121q-178 4 -295 121t-121 295q4 178 121 295t295 121zM625 544h-105l-42 41h-124l-42 -41h-105v-84h418v84zM291 85h250q18 0 29.5 11.5t11.5 29.5v293h-332v-293q0 -18 11.5 -29.5t29.5 -11.5z" />
    <glyph glyph-name="dna" unicode="&#x68d;" horiz-adv-x="668" arabic-form="isolated" 
d="M0 751h84v-82q0 -45 20.5 -83t57.5 -75q57 -51 135 -102l-76 -49q-64 41 -116 92q-47 43 -75 97t-30 120v82zM584 751h84v-82q-2 -66 -30.5 -120t-74 -97t-98.5 -80t-108.5 -72t-105.5 -69.5t-88 -71.5t-58.5 -75t-20.5 -83v-82h-84v82q2 66 30.5 120t74 97t98.5 80
t108.5 72t105.5 69.5t88 71.5t58.5 75t20.5 83v82zM447 310q64 -41 116 -92q47 -43 75 -97t30 -120v-82h-84v82q0 45 -20.5 83t-57.5 75q-57 51 -135 102zM125 710h418v-41l-4 -21h-410l-4 21v41zM154 585h360q-14 -21 -37 -45l-22 -18h-244l-20 18q-23 24 -37 45zM213 148
h244l20 -18q23 -23 37 -45h-360q14 21 37 45zM129 22h410l4 -21v-41h-418v41z" />
    <glyph glyph-name="hamburger" unicode="&#x68d;" horiz-adv-x="832" arabic-form="final" 
d="M0 169h832v-84q0 -35 -23.5 -58.5t-58.5 -25.5h-668q-35 2 -58.5 25.5t-23.5 58.5v84zM166 669h500q70 -2 117 -49t49 -119v-82h-832v82q2 72 49 119t117 49zM82 376h459l84 -82l82 82h43q35 0 58.5 -23.5t23.5 -59.5t-23.5 -59.5t-58.5 -23.5h-668q-35 0 -58.5 23.5
t-23.5 59.5t23.5 59.5t58.5 23.5z" />
    <glyph glyph-name="gondola" unicode="&#x68c;" horiz-adv-x="844" arabic-form="isolated" 
d="M672 409h-209v100l381 64l-10 61l-228 -38q4 10 4 20q0 27 -18 45t-45 18t-45 -18t-18 -42t14 -42l-35 -4v43h-82v-59l-25 -3q4 10 4 21q0 27 -18 45t-45 18t-45 -18t-18 -43t14 -41l-248 -41l10 -63l371 63v-86h-209q-35 -2 -58.5 -25.5t-25.5 -58.5v-250
q2 -35 25.5 -58.5t58.5 -25.5h500q35 2 58.5 25.5t25.5 58.5v250q-2 35 -25.5 58.5t-58.5 25.5zM172 325h94v-166h-94v166zM328 159v166h188v-166h-188zM672 159h-94v166h94v-166z" />
    <glyph glyph-name="inbox" unicode="&#x68c;" horiz-adv-x="750" arabic-form="final" 
d="M666 210h-166q-2 -53 -37 -88t-88 -35t-88 35t-37 88h-166v416h582v-416zM666 710h-582q-37 0 -60.5 -24.5t-23.5 -59.5v-582q0 -35 24.5 -59.5t59.5 -24.5h582q35 0 59.5 24.5t24.5 59.5v582q0 35 -24.5 59.5t-59.5 24.5z" />
    <glyph glyph-name="reorder-horizontal" unicode="&#x68e;" horiz-adv-x="750" arabic-form="isolated" 
d="M0 210h750v84h-750v-84zM0 44h750v82h-750v-82zM0 376h750v84h-750v-84zM0 626v-82h750v82h-750z" />
    <glyph glyph-name="reorder-vertical" unicode="&#x68e;" horiz-adv-x="601" arabic-form="final" 
d="M176 710v-750h84v750h-84zM10 710v-750h82v750h-82zM342 710v-750h84v750h-84zM592 710h-82v-750h82v750z" />
    <glyph glyph-name="security-home" unicode="&#x688;" horiz-adv-x="750" arabic-form="isolated" 
d="M334 294h82v-125h125v207h84l-250 209l-250 -209h84v-207h125v125zM375 794l375 -168v-250q-4 -178 -107.5 -316.5t-267.5 -183.5q-164 45 -267.5 183.5t-107.5 316.5v250z" />
    <glyph glyph-name="tag-heart" unicode="&#x688;" horiz-adv-x="832" arabic-form="final" 
d="M809 353l-375 375q-23 23 -59 23h-293q-35 0 -58.5 -23.5t-23.5 -58.5v-293q0 -35 23 -59l375 -375q23 -23 58.5 -23t59.5 23l293 293q23 23 23 59t-23 59zM145 544q-25 0 -43 17.5t-18 44t17.5 44t44 17.5t44 -17.5t17.5 -44t-17.5 -44t-44.5 -17.5zM635 198l-178 -177
l-178 177q-29 29 -29 74t29.5 74.5t74 29.5t74.5 -29l29 -32l31 32q29 29 73 29t73.5 -29.5t29.5 -74.5t-29 -74z" />
    <glyph glyph-name="skull" unicode="&#x698;" horiz-adv-x="750" arabic-form="isolated" 
d="M375 751q-160 -4 -265.5 -109.5t-109.5 -265.5q0 -96 44 -177t122 -134v-146h84v125h84v-125h82v125h84v-125h84v146q78 53 122 135t44 176q-4 160 -109.5 265.5t-265.5 109.5zM209 376q35 0 58.5 -23.5t23.5 -58.5t-23.5 -59.5t-58.5 -24.5t-59.5 24.5t-24.5 59.5
t24.5 58.5t59.5 23.5zM541 376q35 0 59.5 -23.5t24.5 -58.5t-24.5 -59.5t-59.5 -24.5t-58.5 24.5t-23.5 59.5t23.5 58.5t58.5 23.5zM375 251l62 -125h-124z" />
    <glyph glyph-name="solid" unicode="&#x698;" horiz-adv-x="1000" arabic-form="final" 
d="M0 835h1000v-1000h-1000v1000z" />
    <glyph glyph-name="alarm-snooze" unicode="&#x691;" horiz-adv-x="832" arabic-form="isolated" 
d="M244 691l-53 63l-191 -160l53 -63zM832 594l-191 160l-53 -63l191 -162zM416 666q-160 -4 -265.5 -110.5t-109.5 -264.5q4 -160 109.5 -265.5t265.5 -109.5q160 4 265.5 109.5t109.5 265.5q-4 158 -109.5 264.5t-265.5 110.5zM416 -2q-125 4 -207 86t-84 207
q2 123 84 205t207 86q125 -4 207 -86t84 -205q-2 -125 -84 -207t-207 -86zM291 373h150l-150 -174v-76h250v84h-150l150 176v74h-250v-84z" />
    <glyph glyph-name="baby-buggy" unicode="&#x691;" horiz-adv-x="791" arabic-form="final" 
d="M457 751v-332h334q-4 141 -97.5 235.5t-236.5 96.5zM721 173q33 43 51.5 94.5t18.5 108.5h-607l-39 84h-145v-84h92l41 -86q35 -76 47 -98q-35 -20 -55.5 -53t-20.5 -75q2 -61 42.5 -103t103.5 -42q55 0 95 35t48 90h87q8 -55 48 -90t97 -35q61 0 103 42t42 103
q-2 68 -49 109zM250 1q-27 2 -45 19.5t-18 44t18 44t44 17.5t44 -17.5t18 -44t-18 -44t-43 -19.5zM625 1q-27 2 -45 19.5t-18 44t18 44t44 17.5t44 -17.5t18 -44t-18 -44t-43 -19.5z" />
    <glyph glyph-name="beaker" unicode="&#x6a9;" horiz-adv-x="750" arabic-form="isolated" 
d="M0 710h750v-84q-35 0 -58.5 -23.5t-25.5 -58.5v-500q0 -35 -23.5 -59.5t-58.5 -24.5h-418q-35 0 -58.5 24.5t-23.5 59.5v500q-2 35 -25.5 58.5t-58.5 23.5v84zM166 626v-82h209v-43h-209v-41h125v-41h-125v-43h125v-41h-125v-41h209v-43h-209v-41h125v-41h-125v-125h418
v582h-418z" />
    <glyph glyph-name="bomb" unicode="&#x6a9;" horiz-adv-x="791" arabic-form="final" 
d="M260 564q2 58 40 97t95.5 39t95.5 -39t40 -97q0 -13 9 -22t22.5 -8.5t22.5 9t9 21.5v32h62v-32q-2 -38 -28 -65t-66.5 -27t-66.5 27t-26 65q-2 32 -22.5 52.5t-52 20t-52 -21t-20.5 -51.5h53v-54q92 -28 148.5 -103t58.5 -177q-2 -122 -84 -204.5t-207 -85.5
q-125 4 -207 86t-84 204q2 102 58.5 177t148.5 103v54h53zM707 564h84v-40h-84v40zM582 648v82h43v-82h-43zM662 632l59 60l31 -30l-61 -60z" />
    <glyph glyph-name="calendar-question" unicode="&#x6a9;" horiz-adv-x="750" arabic-form="initial" 
d="M125 752v-84h-41q-37 0 -60.5 -24.5t-23.5 -59.5v-582q0 -35 24.5 -59.5t59.5 -24.5h582q35 0 59.5 24.5t24.5 59.5v582q0 35 -24.5 59.5t-59.5 24.5h-41v84h-84v-84h-332v84h-84zM84 459h582v-457h-582v457zM383 418q-55 0 -88 -24.5t-31 -73.5v-2h80q0 20 11.5 29.5
t29 9.5t29.5 -12.5t12 -32t-10 -33t-25 -23.5q-33 -21 -45 -39t-12 -49h82q0 20 6 31.5t21 21.5q27 14 46 38t19 55q0 47 -33 75.5t-92 28.5zM334 127v-84h82v84h-82z" />
    <glyph glyph-name="camera-burst" unicode="&#x6a9;" horiz-adv-x="918" arabic-form="medial" 
d="M0 626h84v-582h-84v582zM168 626h82v-582h-82v582zM875 626h-500q-18 0 -29.5 -11.5t-11.5 -29.5v-500q0 -18 11.5 -29.5t29.5 -11.5h500q18 0 29.5 11.5t13.5 29.5v500q-2 18 -13.5 29.5t-29.5 11.5zM418 126l103 133l75 -90l105 133l133 -176h-416z" />
    <glyph glyph-name="code-tags-check" unicode="&#x6af;" horiz-adv-x="875" arabic-form="isolated" 
d="M191 732l-191 -191l191 -191l59 58l-133 133l133 133zM434 732l-59 -58l133 -133l-133 -133l59 -58l191 191zM816 393l-338 -338l-152 154l-58 -59l210 -212l397 396z" />
    <glyph glyph-name="coins" unicode="&#x6af;" horiz-adv-x="916" arabic-form="final" 
d="M582 669q143 -4 236.5 -97.5t97.5 -236.5q-4 -143 -97.5 -236.5t-236.5 -97.5q-143 4 -236.5 97.5t-97.5 236.5q4 143 97.5 236.5t236.5 97.5zM582 85q105 2 176.5 73.5t73.5 176.5q-2 105 -73.5 176.5t-176.5 73.5q-105 -2 -176.5 -73.5t-73.5 -176.5
q2 -105 73.5 -176.5t176.5 -73.5zM82 335q2 -82 47 -145.5t119 -90.5v-86q-109 29 -178.5 116t-69.5 206t69.5 206t178.5 116v-86q-74 -27 -119 -90.5t-47 -145.5z" />
    <glyph glyph-name="crop-rotate" unicode="&#x6af;" horiz-adv-x="1000" arabic-form="initial" 
d="M311 -61q-104 51 -170.5 143.5t-78.5 211.5h-62q20 -197 158.5 -326t339.5 -133q14 0 27 2l-158 158zM502 835q-14 0 -27 -2l158 -158l56 56q104 -51 170.5 -143.5t78.5 -211.5h62q-20 197 -158.5 326t-339.5 133zM666 251h84v250q0 37 -24.5 60.5t-59.5 23.5h-250v-84
h250v-250zM334 169v500h-84v-84h-84v-84h84v-332q0 -35 24.5 -59.5t59.5 -24.5h332v-84h84v84h84v84h-500z" />
    <glyph glyph-name="developer-board" unicode="&#x6af;" horiz-adv-x="832" arabic-form="medial" 
d="M832 460v84h-82v82q-2 35 -25.5 59.5t-58.5 24.5h-584q-35 0 -58.5 -24.5t-23.5 -59.5v-582q0 -35 23.5 -59.5t58.5 -24.5h584q35 0 58.5 24.5t25.5 59.5v82h82v84h-82v84h82v82h-82v84h82zM666 44h-584v582h584v-582zM166 294h209v-168h-209v168zM416 544h166v-125h-166
v125zM166 544h209v-209h-209v209zM416 376h166v-250h-166v250z" />
    <glyph glyph-name="do-not-disturb" unicode="&#x6b3;" horiz-adv-x="832" arabic-form="isolated" 
d="M416 751q-178 -4 -295 -121t-121 -295q4 -178 121 -295t295 -121q178 4 295 121t121 295q-4 178 -121 295t-295 121zM625 294h-418v82h418v-82z" />
    <glyph glyph-name="do-not-disturb-off" unicode="&#x6b3;" horiz-adv-x="875" arabic-form="final" 
d="M668 398v-82h-61l194 -196q35 52 54.5 111.5t19.5 124.5q-4 179 -121 295.5t-295 120.5q-66 0 -126 -19t-110 -55l300 -300h145zM53 762l-53 -54l117 -116q-35 -50 -54.5 -110t-19.5 -126q4 -178 121 -295t295 -121q66 0 126 20t110 54l116 -116l54 52zM250 316v82h61
l84 -82h-145z" />
    <glyph glyph-name="douban" unicode="&#x6b3;" horiz-adv-x="668" arabic-form="initial" 
d="M668 585h-668v84h668v-84zM668 85v-84h-668v84h139l-43 166h-53v250h582v-250h-53l-43 -166h139zM125 335h418v84h-418v-84zM227 85h214l45 166h-304z" />
    <glyph glyph-name="emoticon-dead" unicode="&#x6b3;" horiz-adv-x="832" arabic-form="medial" 
d="M416 751q-178 -4 -295 -121t-121 -295q4 -178 121 -295t295 -121q178 4 295 121t121 295q-4 178 -122 295t-294 121zM416 1q-143 4 -236.5 97.5t-97.5 236.5q4 143 97.5 236.5t236.5 97.5q143 -4 236.5 -97.5t97.5 -236.5q-4 -143 -97.5 -236.5t-236.5 -97.5zM590 511
l-43 -43l-45 43l-45 -43l45 -45l-45 -43l45 -45l45 45l43 -45l45 45l-45 43l45 45zM242 335l43 45l45 -45l45 45l-45 43l45 45l-45 43l-45 -43l-43 43l-45 -43l45 -45l-45 -43zM416 251q-74 0 -131 -40t-82 -105h426q-25 64 -82 104.5t-131 40.5z" />
    <glyph glyph-name="emoticon-excited" unicode="&#x6b1;" horiz-adv-x="832" arabic-form="isolated" 
d="M416 751q-178 -4 -295 -121t-121 -295q4 -178 121 -295t295 -121q178 4 295 121t121 295q-4 178 -122 295t-294 121zM416 1q-143 4 -236.5 97.5t-97.5 236.5q4 143 97.5 236.5t236.5 97.5q143 -4 236.5 -97.5t97.5 -236.5q-4 -143 -97.5 -236.5t-236.5 -97.5zM457 421
l45 -45l45 45l43 -45l45 45l-88 88zM285 421l45 -45l45 45l-90 88l-88 -88l45 -45zM416 106q74 0 131 40.5t82 104.5h-426q25 -64 82 -104.5t131 -40.5z" />
    <glyph glyph-name="folder-star" unicode="&#x6b1;" horiz-adv-x="832" arabic-form="final" 
d="M750 585h-334l-84 84h-250q-35 -2 -58.5 -25.5t-23.5 -58.5v-500q0 -35 23.5 -58.5t58.5 -25.5h668q35 2 58.5 25.5t23.5 58.5v416q0 35 -23.5 59.5t-58.5 24.5zM664 126l-123 72l-123 -72l33 139l-107 93l140 12l57 131l57 -131l140 -12l-107 -93z" />
    <glyph glyph-name="format-color-text" unicode="&#x6b1;" horiz-adv-x="601" arabic-form="initial" 
d="M200 252l100 264l100 -264h-200zM260 627l-230 -584h92l48 125h262l46 -125h94l-230 584h-82z" />
    <glyph glyph-name="format-section" unicode="&#x6b1;" horiz-adv-x="601" arabic-form="medial" 
d="M452 651q-61 35 -132 36q-50 0 -83 -22.5t-35 -61.5q2 -41 40 -64.5t100 -43.5q79 -23 130.5 -62t53.5 -114q-2 -41 -22 -76t-54 -58q41 -41 42 -98q-5 -88 -67.5 -128t-144.5 -40q-92 -2 -172 47l26 62q66 -45 146 -45q56 0 90 23.5t36 68.5q1 37 -29.5 63.5
t-106.5 51.5q-89 29 -141 68.5t-53 109.5q1 41 23.5 76.5t58.5 54.5q-40 37 -42 94q2 74 60.5 116t145.5 42q82 0 154 -37zM274 276q66 -21 126 -54q44 33 44 86q0 31 -24 58.5t-78 46.5q-68 23 -138 57q-22 -14 -36 -37.5t-14 -52.5t27.5 -56t92.5 -48z" />
    <glyph glyph-name="gradient" unicode="&#x6ba;" horiz-adv-x="750" arabic-form="isolated" 
d="M334 460h82v-84h-82v84zM250 376h84v-82h-84v82zM416 376h84v-82h-84v82zM500 460h84v-84h-84v84zM166 460h84v-84h-84v84zM666 710h-582q-35 0 -59.5 -24.5t-24.5 -59.5v-582q0 -35 24.5 -59.5t59.5 -24.5h582q35 0 59.5 24.5t24.5 59.5v582q0 35 -24.5 59.5t-59.5 24.5
zM250 85h-84v84h84v-84zM416 85h-82v84h82v-84zM584 85h-84v84h84v-84zM666 376h-82v-82h82v-84h-82v84h-84v-84h-84v84h-82v-84h-84v84h-84v-84h-82v84h82v82h-82v250h582v-250z" />
    <glyph glyph-name="home-outline" unicode="&#x6ba;" horiz-adv-x="824" arabic-form="final" 
d="M287 26v250h250v-250h125v336l-250 250l-250 -250v-336h125zM412 728l412 -412h-78v-374h-293v250h-82v-250h-293v374h-78z" />
    <glyph glyph-name="message-bulleted" unicode="&#x6bb;" horiz-adv-x="832" arabic-form="isolated" 
d="M750 751h-668q-35 0 -58.5 -23.5t-23.5 -58.5v-750l166 166h584q35 0 58.5 24.5t23.5 59.5v500q0 35 -23.5 58.5t-58.5 23.5zM250 251h-84v84h84v-84zM250 376h-84v84h84v-84zM250 501h-84v84h84v-84zM541 251h-209v84h209v-84zM666 376h-334v84h334v-84zM666 501h-334
v84h334v-84z" />
    <glyph glyph-name="message-bulleted-off" unicode="&#x6bb;" horiz-adv-x="916" arabic-form="final" 
d="M53 793l-53 -53l84 -84v-707l166 166h375l238 -238l53 52zM334 281h-84v84h84v-84zM250 406v84l84 -84h-84zM834 781h-664l246 -246v80h334v-84h-330l41 -41h289v-84h-205l291 -291q35 2 57.5 25.5t22.5 58.5v500q0 35 -23.5 58.5t-58.5 23.5z" />
    <glyph glyph-name="nuke" unicode="&#x6bb;" horiz-adv-x="832" arabic-form="initial" 
d="M502 335h-170v41h-187q-61 2 -103 43t-42 103.5t42 103.5t103 43q66 -2 109 -49q14 59 57.5 95t104.5 36t104.5 -36t57.5 -95q43 47 109 49q61 -2 103 -43t42 -103.5t-42 -103.5t-103 -43h-185v-41zM332 130v49h-207v82h582v-82h-205v-49l248 -90q18 -8 29.5 -23.5
t11.5 -35.5q0 -27 -17.5 -44.5t-45.5 -17.5h-624q-27 0 -45 17.5t-18 44.5q0 20 11.5 35.5t29.5 23.5z" />
    <glyph glyph-name="power-plug" unicode="&#x6bb;" horiz-adv-x="601" arabic-form="medial" 
d="M466 544v166h-82v-166h-168v166h-82v-166q-32 -2 -56.5 -26.5t-27.5 -57.5v-229l146 -146v-125h208v125l146 146v229q-1 33 -25.5 57.5t-58.5 26.5z" />
    <glyph glyph-name="power-plug-off" unicode="&#x6c0;" horiz-adv-x="748" arabic-form="isolated" 
d="M250 732v-134q191 -190 383 -378q6 7 16.5 16.5t16.5 19.5v234q-2 34 -30.5 52.5t-53.5 29.5v160h-82v-166h-168v166h-82zM53 690l-53 -52l166 -168v-218l146 -146v-124h208v124q8 7 14.5 -3t14.5 -15l144 -150q31 28 55 56q-352 348 -695 694v2z" />
    <glyph glyph-name="publish" unicode="&#x6c0;" horiz-adv-x="601" arabic-form="final" 
d="M10 669v-84h582v84h-582zM10 251h166v-250h250v250h166l-292 293z" />
    <glyph glyph-name="restore" unicode="&#x6c1;" horiz-adv-x="875" arabic-form="isolated" 
d="M500 710q-158 -4 -264.5 -109.5t-110.5 -265.5h-125l162 -162l4 -6l168 168h-125q4 125 86 207t205 84q125 -2 207 -84t86 -207q-4 -125 -86 -207t-207 -84q-61 0 -113.5 22.5t-91.5 63.5l-59 -61q51 -51 118.5 -80t145.5 -29q160 4 265.5 109.5t109.5 265.5
q-4 160 -109.5 265.5t-265.5 109.5zM459 501v-207l178 -107l31 50l-147 88v176h-62z" />
    <glyph glyph-name="robot" unicode="&#x6c1;" horiz-adv-x="918" arabic-form="final" 
d="M459 751q35 0 58.5 -23.5t25.5 -58.5q0 -23 -11.5 -43t-31.5 -29v-53h43q123 -4 205 -86t86 -207h41q18 0 29.5 -11.5t13.5 -29.5v-125q-2 -18 -13.5 -29.5t-29.5 -11.5h-41v-43q0 -35 -24.5 -58.5t-59.5 -23.5h-582q-35 0 -59.5 23.5t-24.5 58.5v43h-41
q-18 0 -29.5 11.5t-13.5 29.5v125q2 18 13.5 29.5t29.5 11.5h41q4 125 86 207t205 86h43v53q-20 10 -31.5 29.5t-11.5 42.5q2 35 25.5 58.5t58.5 23.5zM271 294q-45 -2 -74 -31.5t-29 -73t29.5 -73t74 -29.5t74 29.5t29.5 73t-29.5 73t-74.5 31.5zM647 294
q-45 -2 -74.5 -31.5t-29.5 -73t29.5 -73t74 -29.5t74 29.5t29.5 73t-29 73t-74 31.5z" />
    <glyph glyph-name="format-rotate-90" unicode="&#x6c1;" horiz-adv-x="881" arabic-form="initial" 
d="M272 540l-272 -268l272 -270l269 270zM119 272l153 152l152 -152l-152 -152zM772 532q-55 56 -123.5 83t-142.5 27v136l-176 -178l176 -176v134q57 0 110.5 -21t96.5 -65q86 -90 86 -205.5t-86 -206.5q-43 -43 -96.5 -64t-110.5 -22q-61 0 -117 26l-63 -60
q84 -47 180 -48q74 0 142.5 27.5t123.5 82.5q109 115 109 264.5t-109 265.5z" />
    <glyph glyph-name="scanner" unicode="&#x6c1;" horiz-adv-x="750" arabic-form="medial" 
d="M699 412l-648 236l-30 -78l586 -214h-523q-35 0 -59.5 -24t-24.5 -60v-166q0 -34 24.5 -58t59.5 -26h582q35 2 59.5 26t24.5 58v230q0 26 -14 47t-37 29zM166 148h-82v84h82v-84zM666 148h-416v84h416v-84z" />
    <glyph glyph-name="subway" unicode="&#x6be;" horiz-adv-x="832" arabic-form="isolated" 
d="M270 209q18 0 29.5 -11.5t11.5 -29.5t-12 -29.5t-29.5 -11.5t-29.5 11.5t-12 29.5t12 29.5t30 11.5zM207 459h418v-209h-418v209zM562 209q18 0 30 -11.5t12 -29.5t-12 -29.5t-29.5 -11.5t-29.5 11.5t-12 29.5t11.5 29.5t29.5 11.5zM666 172v287q-2 80 -73.5 103.5
t-176.5 21.5q-98 2 -172 -21.5t-78 -103.5v-287q2 -47 32 -77.5t77 -31.5l-47 -47v-16h71l62 63h117l63 -63h63v16l-47 47q47 2 77 32t32 77zM658 717q84 -33 129 -98.5t45 -153.5v-547h-832v547q0 88 45 153.5t129 98.5q57 21 120 28t122 7t122 -7t120 -28z" />
    <glyph glyph-name="timer-sand-empty" unicode="&#x6be;" horiz-adv-x="601" arabic-form="final" 
d="M50 751v-250l166 -166l-166 -166v-250h500v250l-166 166l166 166v250h-500zM466 148v-147h-332v147l166 166zM300 356l-166 166v147h332v-147z" />
    <glyph glyph-name="transit-transfer" unicode="&#x6be;" horiz-adv-x="832" arabic-form="initial" 
d="M604 200h228v-63h-228v-72l-104 103l104 106v-74zM728 24v72l104 -104l-104 -105v74h-228v63h228zM312 617q-35 0 -59.5 23.5t-24.5 59t24.5 59.5t60 24t59 -24t23.5 -59.5t-24 -59t-59 -23.5zM156 475l-74 -31v-139h-82v195l219 90q16 6 31 6q45 -2 70 -39l39 -66
q29 -47 76 -74.5t106 -29.5v-82q-68 0 -127 28.5t-100 78.5l-25 -125l86 -86v-314h-84v250l-90 84l-72 -334h-88z" />
    <glyph glyph-name="unity" unicode="&#x6be;" horiz-adv-x="729" arabic-form="medial" 
d="M313 126h-108l-205 209l205 209h108l55 94l283 72l78 -281l-55 -94l55 -94l-78 -281l-283 72zM319 138l215 -59l-123 215h-248zM606 122l57 213l-57 213l-123 -213zM319 532l-156 -156h248l123 215z" />
    <glyph glyph-name="update" unicode="&#x6d2;" horiz-adv-x="750" arabic-form="isolated" 
d="M750 413h-283l115 117q-90 86 -206 87t-206 -83q-86 -88 -86 -203t86 -205q90 -84 206 -84t206 84q84 84 84 205h84q0 -64 -27.5 -135.5t-81.5 -126.5q-115 -109 -265.5 -109t-266.5 109q-109 113 -109 262t109 262q115 109 263.5 109t264.5 -109l113 117v-297zM396 501
v-176l145 -88l-29 -50l-178 107v207h62z" />
    <glyph glyph-name="watch-vibrate" unicode="&#x6d2;" horiz-adv-x="1000" arabic-form="final" 
d="M125 125v418h84v-418h-84zM791 125v418h84v-418h-84zM916 459h84v-250h-84v250zM0 209v250h84v-250h-84zM748 336q0 -61 -25.5 -111.5t-68.5 -85.5l-31 -178h-248l-31 178q-43 35 -68.5 85.5t-25.5 110.5t25.5 110.5t68.5 85.5l31 178h248l31 -178q43 -35 68.5 -85.5
t25.5 -109.5zM312 336q2 -80 55 -133t132 -53t132 53t53 132t-53 132t-132 53t-132 -53t-55 -131z" />
    <glyph glyph-name="angular" unicode="&#x6d3;" horiz-adv-x="738" arabic-form="isolated" 
d="M369 731l369 -132l-57 -487l-312 -173l-312 173l-57 487zM369 644l-230 -518h85l47 117h196l47 -117h84zM437 314h-134l66 162z" />
    <glyph glyph-name="dolby" unicode="&#x6d3;" horiz-adv-x="832" arabic-form="final" 
d="M0 626v-582h832v582h-832zM166 126h-84v418h84q92 -6 150.5 -64.5t58.5 -144.5t-58.5 -144.5t-150.5 -64.5zM750 126h-84q-92 6 -150.5 64.5t-58.5 144.5t58.5 144.5t150.5 64.5h84v-418z" />
    <glyph glyph-name="flash-outline" unicode="&#x6ad;" horiz-adv-x="601" arabic-form="isolated" 
d="M92 751h418l-148 -291h148l-294 -541v332h-124v500zM176 669v-334h124v-111l84 152h-158l148 293h-198z" />
    <glyph glyph-name="format-font" unicode="&#x6ad;" horiz-adv-x="750" arabic-form="final" 
d="M584 501h125v-500h41v-41h-166v41h41v125h-166l-63 -125h63v-41h-168v41h43zM625 460l-146 -291h146v291zM84 710h207q37 0 60.5 -23.5t23.5 -60.5v-457h-125v207h-125v-207h-125v457q0 37 23.5 60.5t60.5 23.5zM125 626v-166h125v166h-125z" />
    <glyph glyph-name="format-page-break" unicode="&#x6ad;" horiz-adv-x="750" arabic-form="initial" 
d="M166 376h84v-82h-84v82zM334 376h82v-82h-82v82zM666 126h-166v244l250 -250v-201h-750v375h84v-293h582v125zM0 751h750v-375h-84v293h-582v-293h-84v375z" />
    <glyph glyph-name="format-pilcrow" unicode="&#x6ad;" horiz-adv-x="601" arabic-form="medial" 
d="M216 376q-71 2 -117.5 49t-46.5 118t46.5 118t117.5 49h334v-84h-84v-666h-82v666h-84v-666h-84v416z" />
    <glyph glyph-name="garage" unicode="&#x6c7;" horiz-adv-x="601" arabic-form="isolated" 
d="M592 22h-82v376h-418v-376h-82v460l290 166l292 -166v-460zM134 356h332v-84h-332v84zM134 232h332v-84h-332v84zM466 106v-84h-332v84h332z" />
    <glyph glyph-name="garage-open" unicode="&#x6c7;" horiz-adv-x="601" arabic-form="final" 
d="M592 22h-82v376h-418v-376h-82v460l290 166l292 -166v-460zM134 356h332v-84h-332v84z" />
    <glyph glyph-name="github-face" unicode="&#x6c6;" horiz-adv-x="832" arabic-form="isolated" 
d="M766 501q6 14 11.5 59.5t-19.5 111.5q0 4 -43 -1.5t-137 -64.5q-78 18 -162 16q-84 2 -162 -16q-94 61 -137 65.5t-43 0.5q-25 -66 -19 -112t11 -59q-64 -68 -66 -174q2 -197 116 -265.5t300 -64.5q184 -4 299 64t117 266q-2 106 -66 174zM416 49q-133 -6 -221 23.5
t-90 150.5q0 61 53 108q43 35 109.5 31t148.5 -8q82 4 148.5 8t109.5 -31q52 -47 54 -108q-4 -119 -91.5 -149.5t-220.5 -24.5zM285 309q-25 0 -43.5 -26.5t-18.5 -65.5t18.5 -66t44.5 -27t44 26t18 66t-18 66.5t-45 26.5zM547 309q-27 0 -45 -26.5t-18 -66.5t18 -66t44 -26
t44.5 26t18.5 66t-17.5 66.5t-44.5 26.5z" />
    <glyph glyph-name="google-keep" unicode="&#x6c6;" horiz-adv-x="832" arabic-form="final" 
d="M82 751h668q35 0 58.5 -23.5t23.5 -58.5v-557l-193 -193h-557q-35 0 -58.5 23.5t-23.5 58.5v668q0 35 23.5 58.5t58.5 23.5zM625 126v-135l135 135h-135zM332 44h168v41h41v209q39 27 60.5 71t23.5 95q-2 88 -61.5 147.5t-147.5 61.5q-88 -2 -147.5 -61.5t-61.5 -147.5
q2 -51 23.5 -95t60.5 -71v-209h41v-41zM500 126h-168v43h168v-43zM500 210h-168v41h168v-41zM416 626q70 -2 117 -49t49 -117q0 -47 -22.5 -85t-59.5 -60v-21h-168v21q-37 21 -59.5 59.5t-22.5 85.5q2 70 49 117t117 49z" />
    <glyph glyph-name="google-photos" unicode="&#x6c8;" horiz-adv-x="832" arabic-form="isolated" 
d="M625 335v209l-209 207v-207h-209l-207 -209h207v-209l209 -207v207h209l207 209h-207zM453 298l-37 -109l-37 109l-109 37l109 37l37 111l37 -111l109 -37z" />
    <glyph glyph-name="heart-half-full" unicode="&#x6c8;" horiz-adv-x="832" arabic-form="final" 
d="M604 633q-49 0 -88 -25.5t-59 -66.5v-437q135 119 213 210t80 174q-2 62 -42 103.5t-104 41.5zM604 717q98 -2 162 -66.5t66 -162.5q-2 -115 -97.5 -226t-257.5 -254l-61 -55l-61 55q-162 143 -257.5 254t-97.5 226q2 98 66 162q64 65 162 67q55 0 104 -23.5t84 -62.5
q35 39 84 62.5t104 23.5z" />
    <glyph glyph-name="heart-half" unicode="&#x677;" horiz-adv-x="601" arabic-form="isolated" 
d="M529 541v-551l-41 -37l-61 55q-162 143 -257.5 254t-97.5 226q2 98 66 162q64 65 162 67q82 -2 153.5 -53t75.5 -123z" />
    <glyph glyph-name="heart-half-outline" unicode="&#x6cb;" horiz-adv-x="601" arabic-form="isolated" 
d="M154 488q2 -84 80 -174.5t213 -209.5v437q-20 41 -59 67q-40 25 -88 25q-64 0 -104 -41.5t-42 -103.5zM529 541v-551l-41 -37l-61 55q-162 143 -257.5 254t-97.5 226q2 98 66 162q64 65 162 67q82 -2 153.5 -53t75.5 -123z" />
    <glyph glyph-name="hexagon-multiple" unicode="&#x6cb;" horiz-adv-x="803" arabic-form="final" 
d="M303 751q12 0 17 -10l92 -166l4 -11l-4 -12l-92 -164q-6 -10 -17 -12h-188q-14 2 -19 12l-92 164l-4 12l4 11l92 166q6 10 19 10h188zM303 294q12 -2 17 -12l92 -164l4 -12l-4 -11l-92 -166q-6 -10 -17 -10h-188q-14 0 -19 10l-92 166l-4 11l4 12l92 164q6 10 19 12h188z
M687 522q12 0 18 -11l94 -164l4 -12l-4 -12l-94 -164q-6 -11 -18 -11h-187q-12 0 -18 11l-93 164l-4 12l4 12l93 164q6 11 18 11h187z" />
    <glyph glyph-name="hook" unicode="&#x6c5;" horiz-adv-x="601" arabic-form="isolated" 
d="M571 586q0 -59 -34 -102.5t-91 -57.5v-299q-2 -88 -60.5 -146.5t-148.5 -60.5q-88 2 -146.5 60.5t-60.5 146.5v209l207 -209h-125q2 -53 37 -88t89 -35t89 35t35 88v299q-55 16 -89 59.5t-36 102.5q2 70 50 116t118 46t117 -47t49 -117zM405 502q35 2 58.5 25.5
t23.5 58.5t-23.5 58.5t-58.5 23.5t-59.5 -23.5t-24.5 -58.5t24.5 -58.5t59.5 -25.5z" />
    <glyph glyph-name="hook-off" unicode="&#x6c5;" horiz-adv-x="750" arabic-form="final" 
d="M457 425v-57l84 -82v139q68 20 102.5 76.5t16 124.5t-75.5 102.5t-126 17t-102.5 -75.5t-17.5 -126q12 -45 44 -76t75 -43zM500 669q35 -2 58.5 -25.5t23.5 -58.5t-23.5 -58.5t-58.5 -23.5t-59.5 23.5t-24.5 58.5t24.5 58.5t59.5 25.5zM697 -81l-162 160
q-23 -84 -94.5 -128t-157.5 -24q-70 18 -114 72.5t-44 126.5v209l207 -209h-125q2 -53 37 -88t89 -35t89 35t35 88v31l-457 459l53 53l697 -697z" />
    <glyph glyph-name="infinity" unicode="&#x6c9;" horiz-adv-x="1000" arabic-form="isolated" 
d="M775 560q96 -2 159.5 -65.5t65.5 -159.5q-2 -96 -65.5 -158.5t-159.5 -66.5q-94 2 -160 67l-115 101l-117 -103q-31 -31 -72 -48t-86 -17q-96 2 -159.5 65.5t-65.5 159.5q2 96 65.5 159.5t159.5 65.5q94 -2 160 -67l115 -101l117 103q31 31 72 48t86 17zM324 235l114 100
l-112 98q-43 43 -102.5 42t-99.5 -40t-40 -100t40 -100t99.5 -40t100.5 40zM676 435l-114 -100l112 -98q43 -43 102.5 -42t99.5 40t40 100t-40 100t-99.5 40t-100.5 -40z" />
    <glyph glyph-name="language-swift" unicode="&#x6c9;" horiz-adv-x="832" arabic-form="final" 
d="M629 13q-76 -43 -172 -45t-197 41q-84 35 -150.5 92.5t-109.5 129.5q41 -35 96 -58q105 -49 203.5 -48t175.5 48q-105 82 -193.5 178.5t-156.5 184.5q-25 29 -47 63q256 -197 266.5 -208t-164.5 249q158 -154 272 -237.5t120 -85.5l16 -7q6 16 10 31q23 90 -0.5 185.5
t-85.5 181.5q145 -90 216 -230.5t38 -279.5q-2 -6 -2 -15q66 -94 68 -162.5t-12 -56.5q-41 70 -97.5 69.5t-93.5 -20.5z" />
    <glyph glyph-name="language-typescript" unicode="&#x6d0;" horiz-adv-x="750" arabic-form="isolated" 
d="M0 710h750v-750h-750v750zM445 91q16 -31 48 -51.5t83 -20.5t83 25t32 72q0 43 -24 68.5t-69 43.5l-18 7q-21 10 -32 19t-11 24q2 27 32.5 29.5t47.5 -29.5l53 36q-33 59 -100 56q-47 -2 -74 -27.5t-27 -67.5t22.5 -65t61.5 -39l17 -8q23 -10 37 -19.5t14 -26
t-12.5 -26.5t-37 -10t-40 12t-27.5 31zM416 366h-207v-62h62v-303h73v303h72v62z" />
    <glyph glyph-name="laptop-off" unicode="&#x6d0;" horiz-adv-x="1000" arabic-form="final" 
d="M41 678l55 52l738 -738l-53 -52l-84 82h-697v84h166q-35 0 -58.5 24t-23.5 60v416q0 13 4 24zM166 190h365l-365 362v-362zM834 190v416h-508l-84 84h592q35 -2 58.5 -26t23.5 -58v-416q0 -35 -23.5 -59.5t-58.5 -24.5h166v-84h-92l-166 168h92z" />
    <glyph glyph-name="lightbulb-on" unicode="&#x6d0;" horiz-adv-x="918" arabic-form="initial" 
d="M459 585q105 -2 176.5 -73.5t73.5 -176.5q0 -70 -34 -127t-91 -90v-74q0 -18 -11.5 -29.5t-29.5 -13.5h-168q-18 2 -29.5 13.5t-11.5 29.5v74q-57 33 -91 90t-34 127q2 105 73.5 176.5t176.5 73.5zM543 -40v-41q-2 -18 -13.5 -29.5t-29.5 -13.5h-82q-18 2 -29.5 13.5
t-13.5 29.5v41h168zM793 376h125v-82h-125v82zM0 376h125v-82h-125v82zM500 794v-125h-82v125h82zM164 689l88 -88l-59 -59l-88 88zM666 601l88 88l59 -59l-88 -88z" />
    <glyph glyph-name="lightbulb-on-outline" unicode="&#x6d0;" horiz-adv-x="918" arabic-form="medial" 
d="M793 376h125v-82h-125v82zM0 376h125v-82h-125v82zM500 794v-125h-82v125h82zM164 689l88 -88l-59 -59l-88 88zM666 601l88 88l59 -59l-88 -88zM459 585q105 -2 176.5 -73.5t73.5 -176.5q0 -70 -34 -127t-91 -90v-74q0 -18 -11.5 -29.5t-29.5 -13.5h-168
q-18 2 -29.5 13.5t-11.5 29.5v74q-57 33 -91 90t-34 127q2 105 73.5 176.5t176.5 73.5zM543 -40v-41q-2 -18 -13.5 -29.5t-29.5 -13.5h-82q-18 2 -29.5 13.5t-13.5 29.5v41h168zM418 85h82v88q57 16 91 59.5t34 102.5q-2 70 -49 117t-117 47t-117 -47t-49 -117
q0 -59 34 -102.5t91 -59.5v-88z" />
    <glyph glyph-name="lock-pattern" unicode="&#x649;" horiz-adv-x="748" arabic-form="initial" 
d="M166 709q72 -2 119 -49t49 -117q-2 -61 -36 -103.5t-89 -58.5v-94q23 -6 43 -17l187 187q-21 39 -23 86q2 70 49 117t118 47t118 -47t47 -118t-47 -118t-117 -49q-47 2 -84 23l-189 -189q21 -37 23 -84q-2 -70 -49 -117t-118 -47t-118 47t-49 117q2 61 36 103.5t89 58.5
v94q-55 16 -89 58.5t-36 103.5q2 70 49 117t117 49zM584 293q70 -2 117 -49t47 -118t-47 -118t-118 -47t-118 47t-47 118t47 118t119 49zM584 209q-35 0 -59.5 -24.5t-24.5 -59.5t24.5 -58.5t59.5 -23.5t58.5 23.5t23.5 58.5t-23.5 59.5t-58.5 24.5z" />
    <glyph glyph-name="loop" unicode="&#x649;" horiz-adv-x="832" arabic-form="medial" 
d="M291 272v-292h-291v84h148q-51 53 -79 122.5t-28 147.5q4 170 116.5 281t279.5 115q168 -4 279.5 -115t115.5 -281q-4 -168 -115.5 -279t-279.5 -115h-21v82h21q133 4 221 92t92 220q-4 134 -92 222t-221 90q-133 -1 -221.5 -90t-90.5 -222q0 -61 21.5 -115t60.5 -95v148
h84z" />
    <glyph glyph-name="magnify-minus-outline" unicode="&#xfbea;" horiz-adv-x="729" arabic-form="isolated" 
d="M521 240h-33l-11 12q31 35 47.5 80.5t16.5 95.5q-2 116 -78 192.5t-192 79.5q-115 -2 -192 -79t-79 -193q2 -115 79 -191.5t192 -78.5q51 0 96 17t80 47l12 -10v-34l207 -208l63 64zM271 240q-80 2 -132.5 55t-52.5 133.5t52.5 133t133 52.5t133 -53t52.5 -133.5
t-53 -133t-133 -54.5zM166 450h209v-42h-209v42z" />
    <glyph glyph-name="magnify-plus-outline" unicode="&#xfbeb;" horiz-adv-x="729" arabic-form="final" 
d="M521 240l208 -206l-63 -64l-207 208v34l-12 10q-35 -31 -80 -47.5t-96 -16.5q-115 2 -192 78.5t-79 191.5q2 116 79 192.5t192 79.5q115 -2 191.5 -79t78.5 -193q0 -50 -16.5 -95t-47.5 -81l11 -12h33zM271 240q80 2 133 55t53 133.5t-52.5 133t-133 52.5t-133 -53
t-52.5 -133.5t52.5 -133t132.5 -54.5zM375 408h-84v-84h-41v84h-84v42h84v84h41v-84h84v-42z" />
    <glyph glyph-name="mailbox" unicode="&#xfbec;" horiz-adv-x="832" arabic-form="isolated" 
d="M750 543h-418v-250h-82v334h250v166h-334v-250h-84q-35 0 -58.5 -24.5t-23.5 -59.5v-500q0 -35 23.5 -58.5t58.5 -23.5h668q35 0 58.5 23.5t23.5 58.5v500q0 35 -23.5 59.5t-58.5 24.5z" />
    <glyph glyph-name="medical-bag" unicode="&#xfbed;" horiz-adv-x="833" arabic-form="final" 
d="M333 710l-82 -84v-82h-125q-37 -2 -58.5 -26.5t-25.5 -57.5l-41 -416q-4 -33 16.5 -57.5t65.5 -26.5h668q45 2 65.5 26.5t16.5 57.5l-41 416q-4 33 -26.5 57.5t-57.5 26.5h-125v82l-82 84h-168zM333 626h168v-82h-168v82zM376 419h82v-125h125v-84h-125v-125h-82v125
h-125v84h125v125z" />
    <glyph glyph-name="message-settings" unicode="&#xfbee;" horiz-adv-x="832" arabic-form="isolated" 
d="M750 793h-668q-35 0 -58.5 -23.5t-23.5 -58.5v-750l166 166h584q35 0 58.5 24.5t23.5 59.5v500q0 35 -23.5 58.5t-58.5 23.5zM375 -123h82v84h-82v-84zM207 -123h84v84h-84v-84zM541 -123h84v84h-84v-84z" />
    <glyph glyph-name="message-settings-variant" unicode="&#xfbef;" horiz-adv-x="832" arabic-form="final" 
d="M478 419q0 -27 -17.5 -45t-44.5 -18t-44.5 18t-17.5 44t17.5 44t44.5 18t44.5 -18t17.5 -43zM832 669v-500q0 -35 -23.5 -59.5t-58.5 -24.5h-584l-166 -166v750q0 35 23.5 58.5t58.5 23.5h668q35 0 58.5 -23.5t23.5 -58.5zM615 364l-45 34q0 10 1 20.5t-1 20.5l45 35
q6 6 2 13l-43 73q-4 8 -12 4l-52 -20q-16 12 -35 20l-8 54q-2 8 -10 8h-82q-10 0 -12 -8l-8 -54q-18 -8 -35 -20l-52 20q-8 4 -12 -4l-41 -73q-4 -8 2 -13l43 -35q-2 -19 0 -41l-43 -34q-6 -6 -2 -13l41 -73q4 -8 12 -6l52 22q16 -14 35 -22l8 -54q2 -8 12 -8h82q10 0 12 8
l8 56q18 8 35 20l50 -22q10 -2 14 6l41 73q4 7 -2 13z" />
    <glyph glyph-name="minus-box-outline" unicode="&#xfbf0;" horiz-adv-x="750" arabic-form="isolated" 
d="M666 44v582h-582v-582h582zM666 710q35 0 59.5 -24.5t24.5 -59.5v-582q0 -35 -24.5 -59.5t-59.5 -24.5h-582q-35 0 -59.5 24.5t-24.5 59.5v582q0 37 24.5 60.5t59.5 23.5h582zM584 376v-82h-418v82h418z" />
    <glyph glyph-name="network" unicode="&#xfbf1;" horiz-adv-x="832" arabic-form="final" 
d="M625 752q35 0 58.5 -24.5t23.5 -59.5v-416q0 -35 -23.5 -58.5t-58.5 -25.5h-168v-82h43q18 -2 29.5 -13.5t11.5 -29.5h291v-82h-291q0 -18 -11.5 -29.5t-29.5 -13.5h-168q-18 2 -29.5 13.5t-11.5 29.5h-291v82h291q0 18 11.5 29.5t29.5 13.5h43v82h-168q-35 2 -58.5 25.5
t-23.5 58.5v416q0 35 23.5 59.5t58.5 24.5h418z" />
    <glyph glyph-name="download-network" unicode="&#xfbf2;" horiz-adv-x="832" arabic-form="isolated" 
d="M625 752q35 0 58.5 -24.5t23.5 -59.5v-416q0 -35 -23.5 -58.5t-58.5 -25.5h-168v-82h43q18 -2 29.5 -13.5t11.5 -29.5h291v-82h-291q0 -18 -11.5 -29.5t-29.5 -13.5h-168q-18 2 -29.5 13.5t-11.5 29.5h-291v82h291q0 18 11.5 29.5t29.5 13.5h43v82h-168q-35 2 -58.5 25.5
t-23.5 58.5v416q0 35 23.5 59.5t58.5 24.5h418zM416 273l188 188h-147v166h-82v-166h-147z" />
    <glyph glyph-name="help-network" unicode="&#xfbf3;" horiz-adv-x="832" arabic-form="final" 
d="M625 752q35 0 58.5 -24.5t23.5 -59.5v-416q0 -35 -23.5 -58.5t-58.5 -25.5h-168v-82h43q18 -2 29.5 -13.5t11.5 -29.5h291v-82h-291q0 -18 -11.5 -29.5t-29.5 -13.5h-168q-18 2 -29.5 13.5t-11.5 29.5h-291v82h291q0 18 11.5 29.5t29.5 13.5h43v82h-168q-35 2 -58.5 25.5
t-23.5 58.5v416q0 35 23.5 59.5t58.5 24.5h418zM424 668q-55 0 -88 -24.5t-31 -73.5v-2h80q0 20 11.5 29.5t29 9.5t29.5 -11.5t12 -31t-10 -34t-25 -24.5q-33 -21 -45 -38t-12 -50h82q0 20 6 31.5t21 21.5q27 16 46 39q19 22 19 54q0 47 -33 75.5t-92 28.5zM375 377v-84h82
v84h-82z" />
    <glyph glyph-name="upload-network" unicode="&#xfbf4;" horiz-adv-x="832" arabic-form="isolated" 
d="M625 752q35 0 58.5 -24.5t23.5 -59.5v-416q0 -35 -23.5 -58.5t-58.5 -25.5h-168v-82h43q18 -2 29.5 -13.5t11.5 -29.5h291v-82h-291q0 -18 -11.5 -29.5t-29.5 -13.5h-168q-18 2 -29.5 13.5t-11.5 29.5h-291v82h291q0 18 11.5 29.5t29.5 13.5h43v82h-168q-35 2 -58.5 25.5
t-23.5 58.5v416q0 35 23.5 59.5t58.5 24.5h418zM416 648l-188 -187h147v-168h82v168h147z" />
    <glyph glyph-name="npm" unicode="&#xfbf5;" horiz-adv-x="750" arabic-form="final" 
d="M41 440v-168h84v124h41v-124h43v168h-168zM250 440v-210h84v42h82v168h-166zM375 396v-82h-41v82h41zM459 440v-168h82v124h43v-124h41v124h41v-124h43v168h-250zM0 480h750v-250h-375v-40h-166v40h-209v250z" />
    <glyph glyph-name="nut" unicode="&#xfbf6;" horiz-adv-x="750" arabic-form="isolated" 
d="M750 148q-2 -25 -21 -38l-331 -183q-10 -8 -23.5 -8t-22.5 8l-331 183q-20 12 -21 38v374q2 25 21 38l331 183q10 8 23.5 8t22.5 -8l331 -183q20 -12 21 -38v-374zM375 544q-88 -2 -147.5 -61.5t-61.5 -147.5q2 -88 61.5 -147.5t147.5 -61.5q88 2 147.5 61.5t61.5 147.5
q-2 88 -61.5 147.5t-147.5 61.5z" />
    <glyph glyph-name="octagram" unicode="&#xfbf7;" horiz-adv-x="816" arabic-form="final" 
d="M0 165l70 170l-70 170l170 68l68 170l170 -70l170 70l68 -170l170 -68l-70 -170l70 -170l-170 -68l-68 -170l-170 70l-170 -70l-68 170z" />
    <glyph glyph-name="page-layout-body" unicode="&#xfbf8;" horiz-adv-x="668" arabic-form="initial" 
d="M84 751h500q35 0 58.5 -23.5t25.5 -58.5v-668q-2 -35 -25.5 -58.5t-58.5 -23.5h-500q-35 0 -58.5 23.5t-25.5 58.5v668q2 35 25.5 58.5t58.5 23.5zM84 501v-332h500v332h-500z" />
    <glyph glyph-name="page-layout-footer" unicode="&#xfbf9;" horiz-adv-x="668" arabic-form="isolated" 
d="M84 751h500q35 0 58.5 -23.5t25.5 -58.5v-668q-2 -35 -25.5 -58.5t-58.5 -23.5h-500q-35 0 -58.5 23.5t-25.5 58.5v668q2 35 25.5 58.5t58.5 23.5zM84 169v-168h500v168h-500z" />
    <glyph glyph-name="page-layout-header" unicode="&#xfbfa;" horiz-adv-x="668" arabic-form="final" 
d="M84 751h500q35 0 58.5 -23.5t25.5 -58.5v-668q-2 -35 -25.5 -58.5t-58.5 -23.5h-500q-35 0 -58.5 23.5t-25.5 58.5v668q2 35 25.5 58.5t58.5 23.5zM84 669v-168h500v168h-500z" />
    <glyph glyph-name="page-layout-sidebar-left" unicode="&#xfbfb;" horiz-adv-x="668" arabic-form="initial" 
d="M84 751h500q35 0 58.5 -23.5t25.5 -58.5v-668q-2 -35 -25.5 -58.5t-58.5 -23.5h-500q-35 0 -58.5 23.5t-25.5 58.5v668q2 35 25.5 58.5t58.5 23.5zM84 501v-332h166v332h-166z" />
    <glyph glyph-name="page-layout-sidebar-right" unicode="&#x6cc;" horiz-adv-x="668" arabic-form="isolated" 
d="M84 751h500q35 0 58.5 -23.5t25.5 -58.5v-668q-2 -35 -25.5 -58.5t-58.5 -23.5h-500q-35 0 -58.5 23.5t-25.5 58.5v668q2 35 25.5 58.5t58.5 23.5zM418 501v-332h166v332h-166z" />
    <glyph glyph-name="pencil-circle" unicode="&#x6cc;" horiz-adv-x="832" arabic-form="final" 
d="M416 751q-178 -4 -295 -121t-121 -295q4 -178 121 -295t295 -121q178 4 295 121t121 295q-4 178 -121 295t-295 121zM545 540q10 0 17 -6l53 -53q14 -18 0 -33l-43 -41l-84 84l41 43q6 6 16 6zM463 468l86 -86l-252 -252h-86v86z" />
    <glyph glyph-name="pentagon" unicode="&#x6cc;" horiz-adv-x="832" arabic-form="initial" 
d="M416 731l-416 -304l158 -488h516l158 488z" />
    <glyph glyph-name="pentagon-outline" unicode="&#x6cc;" horiz-adv-x="832" arabic-form="medial" 
d="M416 626l316 -228l-121 -372h-390l-121 372zM416 731l-416 -304l158 -488h512l162 488z" />
    <glyph glyph-name="pillar" unicode="&#xfc00;" horiz-adv-x="750" arabic-form="isolated" 
d="M125 626h500q18 0 29.5 -11.5t11.5 -29.5t-11.5 -29.5t-29.5 -11.5h-500q-18 0 -29.5 11.5t-11.5 29.5t11.5 29.5t29.5 11.5zM750 751v-82h-750v82h750zM500 501h84v-582h-84v582zM166 501h84v-582h-84v582zM334 501h82v-582h-82v582z" />
    <glyph glyph-name="pistol" unicode="&#xfc01;" horiz-adv-x="923" arabic-form="isolated" 
d="M255 627h668v-166h-43v-41h-250q-18 -2 -29.5 -13.5t-11.5 -29.5v-41q0 -35 -24.5 -58.5t-59.5 -25.5h-141q-25 0 -37 -23l-101 -204q-12 -21 -37 -23h-141q-14 -8 -42 31t83 219q14 12 42 84t-83 84v207h41l21 43h125zM548 336v41q-2 18 -13.5 29.5t-29.5 13.5h-41
q-4 -2 -15.5 -26.5t15.5 -57.5q-35 0 -58.5 24.5t-25.5 59.5q-18 -2 -29.5 -13.5t-11.5 -29.5v-41q0 -18 11.5 -29.5t29.5 -11.5h125q18 0 29.5 11.5t13.5 29.5z" />
    <glyph glyph-name="plus-box-outline" unicode="&#xfc02;" horiz-adv-x="750" arabic-form="isolated" 
d="M666 44v582h-582v-582h582zM666 710q35 0 59.5 -24.5t24.5 -59.5v-582q0 -35 -24.5 -59.5t-59.5 -24.5h-582q-35 0 -59.5 24.5t-24.5 59.5v582q0 37 24.5 60.5t59.5 23.5h582zM334 544h82v-168h168v-82h-168v-168h-82v168h-168v82h168v168z" />
    <glyph glyph-name="plus-outline" unicode="&#xfc03;" horiz-adv-x="668" arabic-form="isolated" 
d="M0 460h209v209h250v-209h209v-250h-209v-209h-250v209h-209v250zM293 294v-209h82v209h209v82h-209v209h-82v-209h-209v-82h209z" />
    <glyph glyph-name="prescription" unicode="&#xfc04;" horiz-adv-x="660" arabic-form="isolated" 
d="M0 677v-418h84v168h84l225 -227l-149 -148l59 -59l148 149l151 -149l58 59l-150 148l150 151l-58 58l-151 -150l-166 168h8q53 0 88 35t35 89t-35 89t-88 37h-293zM84 593h209q18 0 29.5 -11.5t11.5 -29.5t-11.5 -29.5t-29.5 -13.5h-209v84z" />
    <glyph glyph-name="printer-settings" unicode="&#xfc05;" horiz-adv-x="832" arabic-form="isolated" 
d="M666 793v-166h-500v166h500zM707 418q18 2 29.5 13.5t11.5 29.5t-11.5 29.5t-29.5 11.5t-29.5 -11.5t-11.5 -29.5t11.5 -29.5t29.5 -13.5zM582 127v209h-332v-209h332zM707 586q55 -2 90 -37t35 -88v-250h-166v-168h-500v168h-166v250q0 53 35 88t90 37h582zM541 -123v84
h84v-84h-84zM375 -123v84h82v-84h-82zM207 -123v84h84v-84h-84z" />
    <glyph glyph-name="react" unicode="&#xfc06;" horiz-adv-x="894" arabic-form="isolated" 
d="M447 413q33 0 54.5 -22.5t21.5 -54.5t-21.5 -54.5t-54.5 -22.5t-54.5 22.5t-21.5 54.5t21.5 54.5t54.5 22.5zM254 1q21 -12 60 6.5t90 65.5q-33 37 -62 78q-53 6 -100 16q-16 -68 -12 -111t24 -55zM283 241l-12 22q-8 -20 -12 -37l38 -6zM556 272l34 63l-34 63
q-20 33 -39 60q-33 2 -70 2t-70 -2q-20 -26 -39 -60l-34 -63l34 -63q20 -33 39 -60q33 -2 70 -2t70 2q19 27 39 60zM447 552q-12 -14 -25 -30h50q-13 16 -25 30zM447 118q12 14 25 30h-50q13 -16 25 -30zM640 669q-21 12 -60 -6.5t-90 -65.5q33 -37 62 -78q53 -6 100 -16
q16 68 12 111t-24 55zM611 429l12 -22q8 20 12 37l-38 6zM672 724q45 -27 52.5 -91t-11.5 -144q80 -25 130.5 -63t50.5 -91t-50.5 -91t-130.5 -63q20 -80 12 -143.5t-54 -89t-104.5 -2t-119.5 81.5q-61 -59 -119.5 -82t-104.5 2.5t-53.5 89t11.5 143.5q-80 25 -130.5 63
t-50.5 91t50.5 91t130.5 63q-20 80 -12 143.5t54 89t104.5 2t119.5 -81.5q61 59 119.5 82t105.5 0zM658 335q21 -47 37 -94q66 20 101.5 45.5t35.5 48.5t-35.5 48.5t-101.5 45.5q-16 -47 -37 -94zM236 335q-21 47 -37 94q-66 -20 -101.5 -45.5t-35.5 -48.5t35.5 -48.5
t101.5 -45.5q16 47 37 94zM611 241l-14 -21l38 6q-4 18 -12 37zM490 73q51 -47 90 -65.5t59.5 -6.5t24.5 55t-12 111q-47 -10 -100 -16q-29 -41 -62 -78zM283 429l14 21l-38 -6q4 -18 12 -37zM404 597q-51 47 -90 65.5t-59.5 6.5t-24.5 -55t12 -111q47 10 100 16
q29 41 62 78z" />
    <glyph glyph-name="restart" unicode="&#xfc07;" horiz-adv-x="665" arabic-form="isolated" 
d="M333 600q64 0 125 -24.5t109 -73.5q98 -104 98 -236.5t-98 -233.5q-59 -59 -132 -82.5t-149 -13.5l24 82q53 -6 105.5 12.5t93.5 59.5q74 76 74 176t-74 178q-37 37 -83 54.5t-93 17.5v-191l-207 207l207 205v-137zM97 30q-82 86 -95 196t44 210l60 -63q-33 -70 -20 -147
t69 -136q33 -33 73 -51l-20 -82q-62 26 -111 73z" />
    <glyph glyph-name="rewind-outline" unicode="&#xfc08;" horiz-adv-x="729" arabic-form="isolated" 
d="M270 423l-125 -88l125 -88v176zM645 423l-125 -88l125 -88v176zM354 585v-500l-354 250zM729 585v-500l-354 250z" />
    <glyph glyph-name="rhombus" unicode="&#xfc09;" horiz-adv-x="832" arabic-form="isolated" 
d="M814 386l-345 345q-23 21 -50.5 21.5t-51.5 -21.5l-345 -345q-21 -23 -21.5 -50.5t21.5 -51.5l345 -345q23 -21 50.5 -21.5t51.5 21.5l345 345q18 23 18 51t-18 51z" />
    <glyph glyph-name="rhombus-outline" unicode="&#xfc0a;" horiz-adv-x="832" arabic-form="isolated" 
d="M814 386l-345 345q-23 21 -50.5 21.5t-51.5 -21.5l-345 -345q-21 -23 -21.5 -50.5t21.5 -51.5l345 -345q23 -21 50.5 -21.5t51.5 21.5l345 345q18 23 18 51t-18 51zM764 335l-346 -346l-346 346l346 346z" />
    <glyph glyph-name="roomba" unicode="&#xfc0b;" horiz-adv-x="832" arabic-form="isolated" 
d="M416 751q84 0 159 -31t136 -90l-59 -59q-49 47 -109.5 72.5t-126.5 25.5t-127 -25.5t-109 -72.5l-59 59q61 59 136 90t159 31zM68 564l61 -59q-45 -78 -47 -170q4 -143 97.5 -236.5t236.5 -97.5q143 4 236.5 97.5t97.5 236.5q-2 92 -47 170l61 59q68 -104 68 -229
q-4 -178 -121 -295t-295 -121q-178 4 -295 121t-121 295q0 125 68 229zM416 585q105 -2 176.5 -73.5t73.5 -176.5q0 -51 -18.5 -96t-55.5 -80l-59 59q-49 -49 -117 -49t-117 49l-59 -59q-37 35 -55.5 80t-18.5 96q2 105 73.5 176.5t176.5 73.5zM416 501q-18 0 -29.5 -11.5
t-11.5 -29.5t11.5 -29.5t29.5 -11.5t29.5 11.5t11.5 29.5t-11.5 29.5t-29.5 11.5z" />
    <glyph glyph-name="run" unicode="&#xfc0c;" horiz-adv-x="670" arabic-form="isolated" 
d="M441 617q35 0 59 24.5t24 60t-23.5 58.5t-59 23t-59 -23t-23.5 -58.5t23.5 -60t58.5 -24.5zM291 39l41 182l88 -84v-250h84v313l-88 83l25 126q41 -47 101 -75.5t128 -28.5v82q-61 2 -106.5 29.5t-73.5 72.5l-41 66q-25 39 -70 41q-10 0 -16.5 -2t-16.5 -2l-217 -92v-195
h84v143l74 29l-66 -340l-205 43l-16 -84z" />
    <glyph glyph-name="search-web" unicode="&#xfc0d;" horiz-adv-x="729" arabic-form="isolated" 
d="M521 240l208 -206l-63 -64l-207 208v34l-12 10q-35 -31 -80 -47.5t-96 -16.5q-115 2 -192 78.5t-79 191.5q2 116 79 192.5t192 79.5q115 -2 191.5 -79t78.5 -193q0 -50 -16.5 -95t-47.5 -81l11 -12h33zM271 638l-23 -2q-8 -17 -17.5 -43.5t-19.5 -58.5h119
q-8 32 -18.5 59t-18.5 43q-10 1 -22 2zM451 534q-39 66 -111 92q16 -34 33 -92h78zM90 534h80q16 58 31 92q-72 -26 -111 -92zM63 428q0 -31 9 -62h90l-6 62l6 62h-90q-9 -28 -9 -62zM469 366q10 30 10 63t-10 61h-88q4 -31 4 -62.5t-4 -61.5h88zM203 490l-6 -62l6 -62h135
q6 31 6 62.5t-6 61.5h-135zM271 220h22q8 18 18.5 45t18.5 59h-119q10 -32 19.5 -58.5t17.5 -45.5h23zM451 324h-78q-18 -58 -33 -92q72 26 111 92zM90 324q39 -66 111 -92q-16 34 -31 92h-80z" />
    <glyph glyph-name="shovel" unicode="&#xfc0e;" horiz-adv-x="835" arabic-form="isolated" 
d="M538 751l-117 -117q-25 -25 -25.5 -58.5t25.5 -59.5l58 -58l-189 -192l-117 120l-61 -59q-139 -158 -105.5 -255t48.5 -99q2 -16 99 -48t255 107l59 59l-118 117l190 187l58 -56q25 -25 58.5 -25.5t59.5 25.5l119 117zM657 399l-59 57l-119 119l61 59l176 -176z" />
    <glyph glyph-name="shovel-off" unicode="&#xfc0f;" horiz-adv-x="835" arabic-form="isolated" 
d="M538 751l-117 -117q-25 -25 -25.5 -58.5t25.5 -59.5l58 -60l-29 -29l61 -61l31 31l56 -58q25 -25 59.5 -25.5t60.5 25.5l117 119zM657 399l-178 176l59 59l178 -176zM772 -17l-58 -58l-326 324l-41 -41l117 -117l-55 -59q-158 -139 -255 -106.5t-99 47.5q-16 2 -49 99
t106 255l61 59l117 -120l41 43l-324 323l58 58z" />
    <glyph glyph-name="signal-2g" unicode="&#xfc10;" horiz-adv-x="832" arabic-form="isolated" 
d="M375 22h-375v250q0 53 35 88.5t90 37.5h125v124h-250v126h250q53 -2 88 -38t37 -88v-124q-2 -53 -37 -88.5t-88 -37.5h-125v-124h250v-126zM832 398h-187v-126h62v-124h-125v374h250v126h-250q-53 -2 -88 -38t-37 -88v-374q2 -53 37 -88.5t88 -37.5h125q55 2 90 38t35 88
v250z" />
    <glyph glyph-name="signal-3g" unicode="&#xfc11;" horiz-adv-x="832" arabic-form="isolated" 
d="M375 148v93q-2 41 -28.5 67.5t-65.5 26.5q39 2 65.5 28.5t28.5 65.5v93q-2 53 -37 88.5t-88 37.5h-250v-126h250v-124h-125v-126h125v-124h-250v-126h250q53 2 88 37.5t37 88.5zM832 148v250h-187v-126h62v-124h-125v374h250v126h-250q-53 -2 -88 -38t-37 -88v-374
q2 -53 37 -88.5t88 -37.5h125q55 2 90 37.5t35 88.5z" />
    <glyph glyph-name="signal-4g" unicode="&#xfc12;" horiz-adv-x="832" arabic-form="isolated" 
d="M832 148v250h-187v-126h62v-124h-125v374h250v126h-250q-53 -2 -88 -38t-37 -88v-374q2 -53 37 -88.5t88 -37.5h125q55 2 90 37.5t35 88.5zM250 22h125v626h-125v-250h-125v250h-125v-376h250v-250z" />
    <glyph glyph-name="signal-hspa" unicode="&#xfc13;" horiz-adv-x="601" arabic-form="isolated" 
d="M238 398h124v250h126v-626h-126v250h-124v-250h-126v626h126v-250z" />
    <glyph glyph-name="signal-hspa-plus" unicode="&#xfc14;" horiz-adv-x="832" arabic-form="isolated" 
d="M707 501v-125h125v-125h-125v-125h-125v125h-125v125h125v125h125zM125 398h125v250h125v-626h-125v250h-125v-250h-125v626h125v-250z" />
    <glyph glyph-name="snowflake" unicode="&#xfc15;" horiz-adv-x="776" arabic-form="isolated" 
d="M754 253l-97 -25l-84 46v122l84 46l97 -25l22 80l-75 20l20 74l-82 21l-25 -97l-82 -47l-104 60v94l72 70l-58 59l-55 -53l-55 53l-58 -59l72 -70v-94l-105 -60l-83 47l-25 97l-80 -21l20 -74l-73 -20l22 -80l95 25l84 -46v-122l-84 -46l-95 25l-22 -80l73 -20l-20 -74
l82 -21l25 97l82 47l104 -60v-94l-72 -70l58 -59l55 53l55 -53l58 59l-72 70v94l105 60l83 -47l27 -95l78 19l-20 74l73 20zM283 396l104 60l104 -60v-122l-104 -60l-104 60v122z" />
    <glyph glyph-name="source-commit" unicode="&#xfc16;" horiz-adv-x="601" arabic-form="isolated" 
d="M508 335q-1 -76 -47.5 -131.5t-120.5 -73.5v-170h-82v170q-73 18 -119.5 73.5t-46.5 131.5t46.5 131.5t119.5 73.5v170h82v-170q74 -18 120.5 -73.5t47.5 -131.5zM300 460q-53 -2 -88 -37t-35.5 -88t34.5 -88t88 -35t88 35t35 88t-34.5 88t-87.5 37z" />
    <glyph glyph-name="source-commit-end" unicode="&#xfc17;" horiz-adv-x="601" arabic-form="isolated" 
d="M510 252q-2 -88 -62 -147.5t-148 -61.5q-88 2 -147.5 61.5t-60.5 147.5q1 76 47.5 131.5t120.5 73.5v170h82v-170q73 -18 119.5 -73.5t48.5 -131.5zM300 377q-52 -2 -87 -37t-35 -88t34.5 -88t87.5 -35t88 35t35.5 88t-34.5 88t-89 37z" />
    <glyph glyph-name="source-commit-end-local" unicode="&#xfc18;" horiz-adv-x="601" arabic-form="isolated" 
d="M300 461q89 -2 148.5 -61.5t61.5 -147.5q-2 -88 -62 -147.5t-148 -61.5q-88 2 -147.5 61.5t-60.5 147.5q1 88 61 147.5t147 61.5zM300 377q-52 -2 -87 -37t-35 -88t34.5 -88t87.5 -35t88 35t35.5 88t-34.5 88t-89 37zM260 543v84h82v-84h-82z" />
    <glyph glyph-name="source-commit-local" unicode="&#xfc19;" horiz-adv-x="601" arabic-form="isolated" 
d="M300 544q89 -2 148.5 -61.5t61.5 -147.5q-2 -88 -62 -147.5t-148 -61.5q-88 2 -147.5 61.5t-60.5 147.5q1 88 61 147.5t147 61.5zM300 460q-52 -2 -87 -37t-35 -88t34.5 -88t87.5 -35t88 35t35.5 88t-34.5 88t-89 37zM260 626v84h82v-84h-82zM260 -40v84h82v-84h-82z" />
    <glyph glyph-name="source-commit-next-local" unicode="&#xfc1a;" horiz-adv-x="601" arabic-form="isolated" 
d="M510 335q-2 -88 -62 -147.5t-148 -61.5q-88 2 -147.5 61.5t-60.5 147.5q1 76 47.5 131.5t120.5 73.5v170h82v-170q73 -18 119.5 -73.5t48.5 -131.5zM300 460q-52 -2 -87 -37t-35 -88t34.5 -88t87.5 -35t88 35t35.5 88t-34.5 88t-89 37zM260 -40v84h82v-84h-82z" />
    <glyph glyph-name="source-commit-start" unicode="&#xfc1b;" horiz-adv-x="601" arabic-form="isolated" 
d="M300 627q89 -2 148.5 -61.5t61.5 -147.5q-2 -76 -48.5 -131.5t-119.5 -73.5v-170h-82v170q-74 18 -120.5 73.5t-47.5 131.5q1 88 61 147.5t147 61.5zM300 543q-52 -2 -87 -37t-35 -88t34.5 -88t87.5 -35t88 35t35.5 88t-34.5 88t-89 37z" />
    <glyph glyph-name="source-commit-start-next-local" unicode="&#xfc1c;" horiz-adv-x="601" arabic-form="isolated" 
d="M300 627q89 -2 148.5 -61.5t61.5 -147.5q-2 -88 -62 -147.5t-148 -61.5q-88 2 -147.5 61.5t-60.5 147.5q1 88 61 147.5t147 61.5zM300 543q-52 -2 -87 -37t-35 -88t34.5 -88t87.5 -35t88 35t35.5 88t-34.5 88t-89 37zM260 43v84h82v-84h-82z" />
    <glyph glyph-name="speaker-wireless" unicode="&#xfc1d;" horiz-adv-x="873" arabic-form="isolated" 
d="M752 40l-59 59q47 47 72.5 106.5t25.5 129.5t-25.5 129.5t-72.5 106.5l59 59q57 -57 89 -133t32 -162t-32 -162t-89 -133zM635 159l-59 59q47 47 47 117t-47 117l59 59q33 -33 52.5 -78t19.5 -98t-19.5 -98t-52.5 -78zM82 710h334q35 0 58.5 -24.5t25.5 -59.5v-582
q-2 -35 -25.5 -59.5t-58.5 -24.5h-334q-35 0 -58.5 24.5t-23.5 59.5v582q0 35 23.5 59.5t58.5 24.5zM250 626q-35 0 -59.5 -23.5t-24.5 -58.5t24.5 -59.5t59.5 -24.5t58.5 24.5t23.5 59.5t-23.5 58.5t-58.5 23.5zM250 376q-72 -2 -119 -49t-47 -117t47 -117t118 -47t118 47
t47 117t-47 117t-117 49zM250 294q35 -2 58.5 -25.5t23.5 -58.5t-23.5 -58.5t-58.5 -23.5t-59.5 23.5t-24.5 58.5t24.5 58.5t59.5 25.5z" />
    <glyph glyph-name="stadium" unicode="&#xfc1e;" horiz-adv-x="832" arabic-form="isolated" 
d="M125 710h82l125 -84l-125 -82v-57q94 14 209 14t209 -14v223h82l125 -84l-125 -82v-72q59 -14 92 -34q33 -18 33 -40q-4 -45 -122 -74.5t-294 -29.5t-294 30t-122 74q0 21 33 40.5t92 33.5v238zM416 439q-104 2 -156.5 -7t-52.5 -34.5t52.5 -34t156.5 -8.5t156.5 8.5
t52.5 34t-52.5 34.5t-156.5 7zM416 220q119 2 220.5 20.5t172.5 51.5l-59 -332h-209v84q0 35 -24.5 58.5t-59.5 23.5h-82q-35 0 -59.5 -23.5t-24.5 -58.5v-84h-209l-59 332q70 -33 172 -51.5t221 -20.5z" />
    <glyph glyph-name="svg" unicode="&#xfc1f;" horiz-adv-x="832" arabic-form="isolated" 
d="M129 390h156l-109 109q-33 0 -54.5 22.5t-21.5 54.5t21.5 53.5t53.5 21.5t54.5 -21.5t22.5 -54.5l109 -109v156q-21 23 -21 53.5t22.5 53t53.5 22.5t53.5 -22.5t22.5 -52.5t-21 -54v-156l109 109q2 33 23.5 54.5t53.5 21.5t53.5 -21.5t21.5 -53.5t-21.5 -54.5
t-54.5 -22.5l-109 -109h156q23 21 53.5 21t53 -22.5t22.5 -53.5t-22.5 -53.5t-52.5 -22.5t-54 21h-156l109 -109q33 -2 54.5 -23.5t21.5 -53.5t-21.5 -53.5t-53.5 -21.5t-53.5 21.5t-23.5 54.5l-109 109v-156q21 -23 21 -53.5t-22.5 -53t-53.5 -22.5t-53.5 22.5t-22.5 52.5
t21 54v156l-109 -109q0 -33 -22.5 -54.5t-54.5 -21.5t-53.5 21.5t-21.5 53.5t21.5 53.5t54.5 23.5l109 109h-156q-23 -21 -53.5 -21t-53 22.5t-22.5 53.5t22.5 53.5t53 22.5t53.5 -21z" />
    <glyph glyph-name="tag-plus" unicode="&#xfc20;" horiz-adv-x="832" arabic-form="isolated" 
d="M809 353l-375 375q-25 23 -59 23h-293q-35 0 -58.5 -23.5t-23.5 -58.5v-293q0 -33 23 -59l18 -15q57 33 125 33q105 -2 176.5 -73.5t73.5 -176.5q0 -66 -33 -125l15 -18q25 -23 59.5 -23t58.5 23l293 293q23 23 23 58t-23 60zM145 544q-25 0 -43 17.5t-18 44t17.5 44
t44 17.5t44 -17.5t17.5 -44t-17.5 -44t-44.5 -17.5zM332 44h-125v-125h-82v125h-125v82h125v125h82v-125h125v-82z" />
    <glyph glyph-name="tag-remove" unicode="&#xfc21;" horiz-adv-x="832" arabic-form="isolated" 
d="M809 353l-375 375q-25 23 -59 23h-293q-35 0 -58.5 -23.5t-23.5 -58.5v-293q0 -33 23 -59l18 -15q57 33 125 33q105 -2 176.5 -73.5t73.5 -176.5q0 -66 -33 -125l15 -18q25 -23 59.5 -23t58.5 23l293 293q23 23 23 58t-23 60zM145 544q-25 0 -43 17.5t-18 44t17.5 44
t44 17.5t44 -17.5t17.5 -44t-17.5 -44t-44.5 -17.5zM254 -63l-88 89l-88 -89l-60 60l89 88l-89 88l60 58l88 -87l88 87l58 -58l-87 -88l87 -88z" />
    <glyph glyph-name="ticket-percent" unicode="&#xfc22;" horiz-adv-x="832" arabic-form="isolated" 
d="M82 669q-35 -2 -58.5 -25.5t-23.5 -58.5v-166q35 -2 58.5 -25.5t23.5 -58.5t-23.5 -58.5t-58.5 -25.5v-166q0 -35 23.5 -58.5t58.5 -25.5h668q35 2 58.5 25.5t23.5 58.5v166q-35 2 -58.5 25.5t-23.5 58.5t23.5 58.5t58.5 25.5v166q0 35 -23.5 58.5t-58.5 25.5h-668z
M562 544l63 -63l-355 -355l-63 63zM283 542q31 -2 51.5 -22.5t20.5 -51.5t-20.5 -51.5t-51.5 -20.5t-51.5 20.5t-20.5 51.5t20.5 51.5t51.5 22.5zM549 276q31 -2 51.5 -22.5t20.5 -51.5t-20.5 -51.5t-51.5 -20.5t-51.5 20.5t-20.5 51.5t20.5 51.5t51.5 22.5z" />
    <glyph glyph-name="tilde" unicode="&#xfc23;" horiz-adv-x="835" arabic-form="isolated" 
d="M1 210q-8 16 31 125t219 125q117 -10 172 -73.5t140 -72.5q119 10 145.5 73t20.5 73h104q8 -16 -31 -125t-219 -125q-121 10 -187.5 73.5t-124.5 72.5q-119 -10 -145.5 -73t-20.5 -73h-104z" />
    <glyph glyph-name="treasure-chest" unicode="&#xfc24;" horiz-adv-x="832" arabic-form="isolated" 
d="M125 669h582q55 -2 90 -37t35 -88v-168h-291v43h-250v-43h-291v168q0 53 35 88t90 37zM375 376h82v-82h-82v82zM0 335h291v-41l84 -84h82l84 84v41h291v-334h-832v334z" />
    <glyph glyph-name="truck-trailer" unicode="&#xfc25;" horiz-adv-x="832" arabic-form="isolated" 
d="M832 209v-84h-500q0 -53 -35 -88t-89 -35t-89 35t-37 88h-82v459q0 35 23.5 58.5t58.5 25.5h543q35 -2 58.5 -25.5t23.5 -58.5v-375h125zM207 168q-18 -2 -29.5 -13.5t-11.5 -29.5t11.5 -29.5t29.5 -11.5t29.5 11.5t11.5 29.5t-11.5 29.5t-29.5 13.5z" />
    <glyph glyph-name="view-parallel" unicode="&#xfc26;" horiz-adv-x="668" arabic-form="isolated" 
d="M0 -40v750h168v-750h-168zM250 -40v750h168v-750h-168zM500 -40v750h168v-750h-168z" />
    <glyph glyph-name="view-sequential" unicode="&#xfc27;" horiz-adv-x="750" arabic-form="isolated" 
d="M0 669h750v-168h-750v168zM0 419h750v-168h-750v168zM0 169h750v-168h-750v168z" />
    <glyph glyph-name="washing-machine" unicode="&#xfc28;" horiz-adv-x="668" arabic-form="isolated" 
d="M451 370q49 -53 49 -119t-50 -116t-116 -50t-117 49zM84 751h500q35 0 58.5 -23.5t25.5 -58.5v-668q-2 -35 -25.5 -58.5t-58.5 -23.5h-500q-35 0 -58.5 23.5t-25.5 58.5v668q2 35 25.5 58.5t58.5 23.5zM125 669q-18 -2 -29.5 -13.5t-11.5 -29.5t11.5 -29.5t29.5 -11.5
t29.5 11.5t11.5 29.5t-11.5 29.5t-29.5 13.5zM250 669q-18 -2 -29.5 -13.5t-11.5 -29.5t11.5 -29.5t29.5 -11.5t29.5 11.5t11.5 29.5t-11.5 29.5t-29.5 13.5zM334 501q-105 -2 -176.5 -72.5t-73.5 -177.5q2 -105 73.5 -175.5t176.5 -74.5q105 4 176.5 74.5t73.5 175.5
q-2 107 -73.5 177.5t-176.5 72.5z" />
    <glyph glyph-name="webpack" unicode="&#xfc29;" horiz-adv-x="750" arabic-form="isolated" 
d="M750 148q-2 -25 -21 -38l-331 -183q-10 -8 -23.5 -8t-22.5 8l-331 183q-20 12 -21 38v374q2 25 21 38l331 183q10 8 23.5 8t22.5 -8l331 -183q20 -12 21 -38v-374zM375 661l-291 -164v-324l291 -164l291 164v324zM375 575l205 -117l-205 -119l-205 119zM584 214l-168 -96
v149l168 97v-150zM334 118l-168 96v150l168 -97v-149z" />
    <glyph glyph-name="widgets" unicode="&#xfc2a;" horiz-adv-x="805" arabic-form="isolated" 
d="M0 682h334v-182l234 238l237 -238l-237 -234h182v-334h-334v334h152l-234 234v-152h-334v334zM0 266h334v-334h-334v334z" />
    <glyph glyph-name="wiiu" unicode="&#xfc2b;" horiz-adv-x="832" arabic-form="isolated" 
d="M0 171q0 -70 43 -109.5t115 -39.5h531q61 0 102 36.5t41 96.5v389q0 37 -22.5 67.5t-55.5 32.5h-123v-321q-27 -184 -213 -183.5t-211 177.5v331h-94q-47 0 -80 -26.5t-33 -71.5v-379zM305 366q14 -137 111.5 -134t110.5 105v311h-222v-282z" />
    <glyph glyph-name="arrow-down-bold" unicode="&#xfc2c;" horiz-adv-x="652" arabic-form="isolated" 
d="M201 665h250v-334h201l-326 -326l-326 326h201v334z" />
    <glyph glyph-name="arrow-down-bold-box" unicode="&#xfc2d;" horiz-adv-x="750" arabic-form="isolated" 
d="M84 710h582q35 0 59.5 -24.5t24.5 -59.5v-582q0 -35 -24.5 -59.5t-59.5 -24.5h-582q-35 0 -59.5 24.5t-24.5 59.5v582q0 35 24.5 59.5t59.5 24.5zM375 126l209 209h-125v166h-168v-166h-125z" />
    <glyph glyph-name="arrow-down-bold-box-outline" unicode="&#xfc2e;" horiz-adv-x="750" arabic-form="isolated" 
d="M375 126l-209 209h125v166h168v-166h125zM84 710h582q35 0 59.5 -24.5t24.5 -59.5v-582q0 -35 -24.5 -59.5t-59.5 -24.5h-582q-35 0 -59.5 24.5t-24.5 59.5v582q0 35 24.5 59.5t59.5 24.5zM84 626v-582h582v582h-582z" />
    <glyph glyph-name="arrow-left-bold" unicode="&#xfc2f;" horiz-adv-x="660" arabic-form="isolated" 
d="M660 460v-250h-334v-201l-326 326l326 326v-201h334z" />
    <glyph glyph-name="arrow-left-bold-box" unicode="&#xfc30;" horiz-adv-x="750" arabic-form="isolated" 
d="M750 626v-582q0 -35 -24.5 -59.5t-59.5 -24.5h-582q-35 0 -59.5 24.5t-24.5 59.5v582q0 35 24.5 59.5t59.5 24.5h582q35 0 59.5 -24.5t24.5 -59.5zM166 335l209 -209v125h166v168h-166v125z" />
    <glyph glyph-name="arrow-left-bold-box-outline" unicode="&#xfc31;" horiz-adv-x="750" arabic-form="isolated" 
d="M166 335l209 209v-125h166v-168h-166v-125zM750 626v-582q0 -35 -24.5 -59.5t-59.5 -24.5h-582q-35 0 -59.5 24.5t-24.5 59.5v582q0 35 24.5 59.5t59.5 24.5h582q35 0 59.5 -24.5t24.5 -59.5zM666 626h-582v-582h582v582z" />
    <glyph glyph-name="arrow-right-bold" unicode="&#xfc32;" horiz-adv-x="660" arabic-form="isolated" 
d="M0 210v250h334v201l326 -326l-326 -326v201h-334z" />
    <glyph glyph-name="arrow-right-bold-box" unicode="&#xfc33;" horiz-adv-x="750" arabic-form="isolated" 
d="M0 44v582q0 35 24.5 59.5t59.5 24.5h582q35 0 59.5 -24.5t24.5 -59.5v-582q0 -35 -24.5 -59.5t-59.5 -24.5h-582q-35 0 -59.5 24.5t-24.5 59.5zM584 335l-209 209v-125h-166v-168h166v-125z" />
    <glyph glyph-name="arrow-right-bold-box-outline" unicode="&#xfc34;" horiz-adv-x="750" arabic-form="isolated" 
d="M584 335l-209 -209v125h-166v168h166v125zM0 44v582q0 35 24.5 59.5t59.5 24.5h582q35 0 59.5 -24.5t24.5 -59.5v-582q0 -35 -24.5 -59.5t-59.5 -24.5h-582q-35 0 -59.5 24.5t-24.5 59.5zM84 44h582v582h-582v-582z" />
    <glyph glyph-name="arrow-up-bold" unicode="&#xfc35;" horiz-adv-x="652" arabic-form="isolated" 
d="M451 5h-250v334h-201l326 326l326 -326h-201v-334z" />
    <glyph glyph-name="arrow-up-bold-box" unicode="&#xfc36;" horiz-adv-x="750" arabic-form="isolated" 
d="M666 -40h-582q-35 0 -59.5 24.5t-24.5 59.5v582q0 35 24.5 59.5t59.5 24.5h582q35 0 59.5 -24.5t24.5 -59.5v-582q0 -35 -24.5 -59.5t-59.5 -24.5zM375 544l-209 -209h125v-166h168v166h125z" />
    <glyph glyph-name="arrow-up-bold-box-outline" unicode="&#xfc37;" horiz-adv-x="750" arabic-form="isolated" 
d="M375 544l209 -209h-125v-166h-168v166h-125zM666 -40h-582q-35 0 -59.5 24.5t-24.5 59.5v582q0 35 24.5 59.5t59.5 24.5h582q35 0 59.5 -24.5t24.5 -59.5v-582q0 -35 -24.5 -59.5t-59.5 -24.5zM666 44v582h-582v-582h582z" />
    <glyph glyph-name="cancel" unicode="&#xfc38;" horiz-adv-x="832" arabic-form="isolated" 
d="M416 751q178 -4 295 -121t121 -295q-4 -178 -121 -295t-295 -121q-178 4 -295 121t-121 295q4 178 121 295t295 121zM416 669q-143 -4 -236.5 -97.5t-97.5 -236.5q0 -59 18.5 -110.5t51.5 -94.5l469 469q-43 33 -94.5 51.5t-110.5 18.5zM416 1q143 4 236.5 97.5
t97.5 236.5q0 59 -18.5 110.5t-51.5 94.5l-469 -469q43 -33 94.5 -51.5t110.5 -18.5z" />
    <glyph glyph-name="file-account" unicode="&#xfc39;" horiz-adv-x="668" arabic-form="isolated" 
d="M375 460h230l-230 229v-229zM84 751h334l250 -250v-500q-2 -35 -25.5 -58.5t-58.5 -23.5h-500q-35 0 -58.5 23.5t-25.5 58.5v668q2 35 25.5 58.5t58.5 23.5zM418 1v43q-6 41 -63.5 61.5t-104.5 20.5t-103.5 -20.5t-62.5 -61.5v-43h334zM250 335q-35 0 -58.5 -24.5
t-23.5 -59.5t23.5 -58.5t58.5 -23.5t59.5 23.5t24.5 58.5t-24.5 59.5t-59.5 24.5z" />
    <glyph glyph-name="gesture-double-tap" unicode="&#xfc3a;" horiz-adv-x="601" arabic-form="isolated" 
d="M216 502q2 18 14 29.5t30 11.5t29.5 -11.5t10.5 -29.5v-186l52 -5l204 -92q35 -18 36 -57v-181q0 -25 -18 -43t-44 -20h-270q-26 0 -44 20l-202 173l30 34q12 12 30 11h10l132 -70v416zM260 668q70 -2 116.5 -49t49.5 -117q0 -47 -23 -85t-61 -60v51q40 37 42 94
q-1 53 -36 88t-89.5 35t-89 -35t-35.5 -88q2 -57 42 -94v-51q-38 21 -60 59.5t-24 85.5q1 70 48 117t120 49zM260 752q104 -2 175 -73.5t75 -176.5q-2 -53 -22 -99.5t-56 -80.5l-42 18q35 29 56 71t20 91q-1 88 -59.5 147.5t-146.5 61.5q-90 -2 -149 -61.5t-61 -147.5
q0 -64 34.5 -115t91.5 -76v-45q-74 27 -120.5 90.5t-45.5 145.5q1 105 71.5 176.5t178.5 73.5z" />
    <glyph glyph-name="gesture-swipe-down" unicode="&#xfc3b;" horiz-adv-x="750" arabic-form="isolated" 
d="M375 502q2 18 13.5 29.5t29.5 11.5t29.5 -11.5t11.5 -29.5v-186l51 -5l205 -92q35 -18 35 -57v-181q0 -25 -17.5 -43t-44.5 -20h-270q-25 0 -43 20l-203 173l31 34q12 12 29 11h10l133 -70v416zM0 502l125 -125l125 125h-82v250h-84v-250h-84z" />
    <glyph glyph-name="gesture-swipe-left" unicode="&#xfc3c;" horiz-adv-x="666" arabic-form="isolated" 
d="M291 460q2 18 13.5 29.5t29.5 11.5t29.5 -11.5t11.5 -29.5v-186l51 -5l205 -92q35 -18 35 -57v-181q0 -25 -17.5 -43t-44.5 -20h-270q-25 0 -43 20l-203 173l31 34q12 12 29 11h10l133 -70v416zM0 669l125 -125v82h250v84h-250v84z" />
    <glyph glyph-name="gesture-swipe-right" unicode="&#xfc3d;" horiz-adv-x="666" arabic-form="isolated" 
d="M291 460q2 18 13.5 29.5t29.5 11.5t29.5 -11.5t11.5 -29.5v-186l51 -5l205 -92q35 -18 35 -57v-181q0 -25 -17.5 -43t-44.5 -20h-270q-25 0 -43 20l-203 173l31 34q12 12 29 11h10l133 -70v416zM375 669l-125 125v-84h-250v-84h250v-82z" />
    <glyph glyph-name="gesture-swipe-up" unicode="&#xfc3e;" horiz-adv-x="750" arabic-form="isolated" 
d="M375 502q2 18 13.5 29.5t29.5 11.5t29.5 -11.5t11.5 -29.5v-186l51 -5l205 -92q35 -18 35 -57v-181q0 -25 -17.5 -43t-44.5 -20h-270q-25 0 -43 20l-203 173l31 34q12 12 29 11h10l133 -70v416zM250 627l-125 125l-125 -125h84v-250h84v250h82z" />
    <glyph glyph-name="gesture-tap" unicode="&#xfc3f;" horiz-adv-x="601" arabic-form="isolated" 
d="M214 544q2 18 14 29.5t30 11.5t29.5 -11.5t10.5 -29.5v-186l52 -5l204 -92q35 -18 36 -57v-181q0 -25 -18 -43t-44 -20h-270q-26 0 -44 20l-202 173l30 34q12 12 30 11h10l132 -70v416zM258 710q70 -2 116.5 -49t49.5 -117q0 -47 -23 -85t-61 -60v51q40 37 42 94
q-1 53 -36 88t-89.5 35t-89 -35t-35.5 -88q2 -57 42 -94v-51q-38 21 -60 59.5t-24 85.5q1 70 48 117t120 49z" />
    <glyph glyph-name="gesture-two-double-tap" unicode="&#xfc40;" horiz-adv-x="601" arabic-form="isolated" 
d="M592 204v-265q0 -25 -18 -43t-44 -20h-270q-26 0 -44 20l-202 173l30 34q12 12 30 11h10l132 -70v416q2 18 14 29.5t30 11.5t29.5 -11.5t10.5 -29.5v84q0 18 12 29.5t30 11.5t29.5 -11.5t12.5 -29.5v-209l172 -76q17 -8 26 -22.5t10 -32.5zM342 710q72 -2 118.5 -49
t49.5 -117q-2 -49 -25 -86t-59 -59v51q38 35 40 94q0 53 -34.5 88t-89.5 37q-44 -2 -75.5 -26.5t-44.5 -63.5q-38 -12 -62.5 -44t-25.5 -75q2 -57 42 -94v-51q-38 21 -60 59.5t-22 87.5t26.5 89t69.5 61q20 43 60.5 70.5t91.5 27.5zM342 794q106 -4 177 -74.5t73 -175.5
q0 -66 -30 -120t-80 -87l-44 21q50 25 81.5 74t30.5 112q-1 88 -59.5 146.5t-148.5 60.5q-59 0 -107 -29.5t-75 -77.5q-52 -27 -80.5 -75t-29.5 -109q0 -64 34.5 -115t91.5 -76v-45q-74 27 -120.5 90.5t-45.5 145.5q0 68 31.5 124t86.5 89q34 55 89.5 87t124.5 34z" />
    <glyph glyph-name="gesture-two-tap" unicode="&#xfc41;" horiz-adv-x="601" arabic-form="isolated" 
d="M590 246v-265q0 -25 -18 -43t-44 -20h-270q-26 0 -44 20l-202 173l30 34q12 12 30 11h10l132 -70v416q2 18 14 29.5t30 11.5t29.5 -11.5t10.5 -29.5v84q0 18 12 29.5t30 11.5t29.5 -11.5t12.5 -29.5v-209l172 -76q17 -8 26 -22.5t10 -32.5zM424 441v51q13 14 22 30
q18 27 18 64q0 53 -34.5 88t-87 35t-86.5 -33l-6 -6q-10 -8 -15.5 -17.5t-10.5 -21.5l-4 -10q-38 -12 -62.5 -44t-25 -76t25.5 -75q7 -10 16 -18v-51q-38 21 -60 59.5t-22 87.5t26.5 89t69.5 61q20 43 60.5 70.5t91.5 27.5q72 -2 118.5 -49t49.5 -117q-2 -49 -25 -86
t-59 -59z" />
    <glyph glyph-name="humble-bundle" unicode="&#xfc42;" horiz-adv-x="832" arabic-form="isolated" 
d="M621 79q-74 43 -12.5 334t75.5 334h-122q-2 -6 -28 -101.5t-54 -230.5h-103q4 55 2 107q-12 205 -97 217t-149 -49q-57 -49 -94 -125t-39 -146h55q0 10 34 85t122 87q72 -43 11.5 -334t-76.5 -334h122q4 6 36 115.5t57 263.5h100q-8 -80 -6 -162q12 -203 97 -211t149 52
q59 53 95 135t36 135h-57q2 -14 -33 -87t-121 -85z" />
    <glyph glyph-name="kickstarter" unicode="&#xfc43;" horiz-adv-x="636" arabic-form="isolated" 
d="M244 454l136 199q39 57 102 57q51 0 87 -36t36 -85q0 -37 -19 -65l-123 -181l150 -192q23 -29 23 -66q0 -53 -36 -89t-87 -36q-55 0 -84 37l-185 231v-127q0 -55 -20 -86q-35 -55 -101 -55q-59 0 -91 39t-32 100v474q0 59 32 98t88.5 39t93.5 -39q20 -23 26 -47
q4 -14 4 -51v-119z" />
    <glyph glyph-name="netflix" unicode="&#xfc44;" horiz-adv-x="601" arabic-form="isolated" 
d="M72 751h166l124 -367v367h168v-832q-78 14 -170 18l-122 357l-2 -359q-90 -4 -164 -16v832z" />
    <glyph glyph-name="onenote" unicode="&#xfc45;" horiz-adv-x="834" arabic-form="isolated" 
d="M0 638l502 70v-80h291q18 0 29.5 -11.5t11.5 -29.5v-166q0 -18 -11.5 -29.5t-29.5 -13.5h-41v-332h-250v-84l-502 74v602zM377 140v353l-84 -10v-177l-84 166l-82 -10v-291l62 -12v231l104 -240zM502 253h166v43h-166v-43zM502 378h166v43h-166v-43zM502 503h166v43h-166
v-43zM502 171v-43h166v43h-166z" />
    <glyph glyph-name="periscope" unicode="&#xfc46;" horiz-adv-x="668" arabic-form="isolated" 
d="M334 544q0 -35 -24.5 -59.5t-59.5 -24.5t-58.5 24.5t-23.5 59.5q-41 -55 -43 -125q2 -90 61.5 -148.5t147.5 -60.5q88 2 147.5 60.5t61.5 148.5q-2 88 -61.5 146.5t-147.5 60.5q-27 0 -51 -6q23 -10 37 -30.5t14 -45.5zM334 751q143 -2 236.5 -96.5t97.5 -235.5
q0 -66 -23 -123q-57 -145 -154.5 -258t-156.5 -119q-59 6 -156.5 119t-154.5 258q-23 57 -23 123q4 141 97.5 235.5t236.5 96.5z" />
    <glyph glyph-name="uber" unicode="&#xfc47;" horiz-adv-x="832" arabic-form="isolated" 
d="M416 751q178 -4 295 -121t121 -295q-4 -178 -121 -295t-295 -121q-172 4 -288 115.5t-128 279.5h291v-83q2 -20 21 -21h208q20 2 21 21v208q-2 20 -21 21h-208q-20 -2 -21 -21v-83h-291q12 168 128 279.5t288 115.5z" />
    <glyph glyph-name="vector-radius" unicode="&#xfc48;" horiz-adv-x="832" arabic-form="isolated" 
d="M0 669h82v82h250v-82q178 -6 295 -123t123 -295h82v-250h-82v-82h-84v82h-84v250h84q-4 143 -97.5 236.5t-236.5 97.5v-84h-250v84h-82v84zM666 169v-84h84v84h-84zM166 669v-84h84v84h-84z" />
    <glyph glyph-name="xbox-controller-battery-alert" unicode="&#xfc49;" horiz-adv-x="919" arabic-form="isolated" 
d="M835 44v500h-250v-500h250zM862 626q23 0 39 -15.5t18 -39.5v-556q-2 -23 -17.5 -39t-39.5 -16h-304q-23 0 -39 15.5t-18 39.5v123h-219q-59 -6 -98.5 -53t-98.5 -84q-68 -2 -83 107.5t104 372.5h10l18 34q6 6 66.5 28t107.5 -9h193v37q2 23 17.5 39t39.5 16h68v84h168
v-84h68zM419 501q-18 0 -29.5 -11.5t-11.5 -29.5t11.5 -29.5t29.5 -11.5t29.5 11.5t11.5 29.5t-11.5 29.5t-29.5 11.5zM669 460h82v-209h-82v209zM669 210h82v-84h-82v84z" />
    <glyph glyph-name="xbox-controller-battery-empty" unicode="&#xfc4a;" horiz-adv-x="919" arabic-form="isolated" 
d="M835 44v500h-250v-500h250zM862 626q23 0 39 -15.5t18 -39.5v-556q-2 -23 -17.5 -39t-39.5 -16h-304q-23 0 -39 15.5t-18 39.5v123h-219q-59 -6 -98.5 -53t-98.5 -84q-68 -2 -83 107.5t104 372.5h10l18 34q6 6 66.5 28t107.5 -9h193v37q2 23 17.5 39t39.5 16h68v84h168
v-84h68zM419 501q-18 0 -29.5 -11.5t-11.5 -29.5t11.5 -29.5t29.5 -11.5t29.5 11.5t11.5 29.5t-11.5 29.5t-29.5 11.5z" />
    <glyph glyph-name="xbox-controller-battery-full" unicode="&#xfc4b;" horiz-adv-x="919" arabic-form="isolated" 
d="M862 626q23 0 39 -15.5t18 -39.5v-556q-2 -23 -17.5 -39t-39.5 -16h-304q-23 0 -39 15.5t-18 39.5v123h-219q-59 -6 -98.5 -53t-98.5 -84q-68 -2 -83 107.5t104 372.5h10l18 34q6 6 66.5 28t107.5 -9h193v37q2 23 17.5 39t39.5 16h68v84h168v-84h68zM419 501
q-18 0 -29.5 -11.5t-11.5 -29.5t11.5 -29.5t29.5 -11.5t29.5 11.5t11.5 29.5t-11.5 29.5t-29.5 11.5z" />
    <glyph glyph-name="xbox-controller-battery-low" unicode="&#xfc4c;" horiz-adv-x="919" arabic-form="isolated" 
d="M835 169v375h-250v-375h250zM862 626q23 0 39 -15.5t18 -39.5v-556q-2 -23 -17.5 -39t-39.5 -16h-304q-23 0 -39 15.5t-18 39.5v123h-219q-59 -6 -98.5 -53t-98.5 -84q-68 -2 -83 107.5t104 372.5h10l18 34q6 6 66.5 28t107.5 -9h193v37q2 23 17.5 39t39.5 16h68v84h168
v-84h68zM419 501q-18 0 -29.5 -11.5t-11.5 -29.5t11.5 -29.5t29.5 -11.5t29.5 11.5t11.5 29.5t-11.5 29.5t-29.5 11.5z" />
    <glyph glyph-name="xbox-controller-battery-medium" unicode="&#xfc4d;" horiz-adv-x="919" arabic-form="isolated" 
d="M835 335v209h-250v-209h250zM862 626q23 0 39 -15.5t18 -39.5v-556q-2 -23 -17.5 -39t-39.5 -16h-304q-23 0 -39 15.5t-18 39.5v123h-219q-59 -6 -98.5 -53t-98.5 -84q-68 -2 -83 107.5t104 372.5h10l18 34q6 6 66.5 28t107.5 -9h193v37q2 23 17.5 39t39.5 16h68v84h168
v-84h68zM419 501q-18 0 -29.5 -11.5t-11.5 -29.5t11.5 -29.5t29.5 -11.5t29.5 11.5t11.5 29.5t-11.5 29.5t-29.5 11.5z" />
    <glyph glyph-name="xbox-controller-battery-unknown" unicode="&#xfc4e;" horiz-adv-x="919" arabic-form="isolated" 
d="M862 626q23 0 39 -15.5t18 -39.5v-556q-2 -23 -17.5 -39t-39.5 -16h-304q-23 0 -39 15.5t-18 39.5v123h-219q-59 -6 -98.5 -53t-98.5 -84q-68 -2 -83 107.5t104 372.5h10l18 34q6 6 66.5 28t107.5 -9h193v37q2 23 17.5 39t39.5 16h68v84h168v-84h68zM419 501
q-18 0 -29.5 -11.5t-11.5 -29.5t11.5 -29.5t29.5 -11.5t29.5 11.5t11.5 29.5t-11.5 29.5t-29.5 11.5zM718 501q-55 0 -88 -24.5t-31 -73.5v-2h80q0 20 11.5 29.5t29 9.5t29.5 -11.5t12 -31t-10 -34t-25 -24.5q-33 -21 -45 -38t-12 -50h82q0 20 6 31.5t21 21.5q27 16 46 39
t19 55q0 47 -33 75t-92 28zM669 210v-84h82v84h-82z" />
    <glyph glyph-name="clipboard-plus" unicode="&#xfc4f;" horiz-adv-x="750" arabic-form="isolated" 
d="M250 628q2 53 37 88t88 35t88 -35t37 -88h166q35 -2 59.5 -25.5t24.5 -58.5v-541q0 -35 -24.5 -59.5t-59.5 -24.5h-582q-35 0 -59.5 24.5t-24.5 59.5v541q0 35 24.5 58.5t59.5 25.5h166zM375 669q-18 0 -29.5 -11.5t-11.5 -29.5t11.5 -29.5t29.5 -11.5t29.5 11.5
t11.5 29.5t-11.5 29.5t-29.5 11.5zM416 294v125h-82v-125h-125v-84h125v-125h82v125h125v84h-125z" />
    <glyph glyph-name="file-plus" unicode="&#xfc50;" horiz-adv-x="668" arabic-form="isolated" 
d="M375 460h230l-230 229v-229zM84 751h334l250 -250v-500q-2 -35 -25.5 -58.5t-58.5 -23.5h-500q-35 0 -58.5 23.5t-25.5 58.5v668q2 35 25.5 58.5t58.5 23.5zM293 210v125h-84v-125h-125v-84h125v-125h84v125h125v84h-125z" />
    <glyph glyph-name="format-align-bottom" unicode="&#xfc51;" horiz-adv-x="750" arabic-form="isolated" 
d="M416 460l105 104l59 -59l-205 -205l-205 205l59 59l105 -104v250h82v-250zM0 210h750v-84h-750v84zM0 44h416v-84h-416v84z" />
    <glyph glyph-name="format-align-middle" unicode="&#xfc52;" horiz-adv-x="750" arabic-form="isolated" 
d="M416 585l84 84l59 -61l-184 -183l-184 183l59 61l84 -84v166h82v-166zM0 376h750v-82h-750v82zM416 85v-166h-82v166l-84 -84l-59 61l184 183l184 -183l-59 -61z" />
    <glyph glyph-name="format-align-top" unicode="&#xfc53;" horiz-adv-x="750" arabic-form="isolated" 
d="M416 210l105 -104l59 59l-205 205l-205 -205l59 -59l105 104v-250h82v250zM0 710h750v-84h-750v84zM0 544h416v-84h-416v84z" />
    <glyph glyph-name="format-list-checks" unicode="&#xfc54;" horiz-adv-x="813" arabic-form="isolated" 
d="M63 648h250v-250h-250v250zM147 566v-84h82v84h-82zM397 566h416v-84h-416v84zM397 232h416v-84h-416v84zM147 22l-147 148l59 58l88 -86l191 190l59 -60z" />
    <glyph glyph-name="format-quote-open" unicode="&#xfc55;" horiz-adv-x="601" arabic-form="isolated" 
d="M216 544l-82 -168h126v-250h-250v250l82 168h124zM550 544l-84 -168h126v-250h-250v250l84 168h124z" />
    <glyph glyph-name="grid-large" unicode="&#xfc56;" horiz-adv-x="832" arabic-form="isolated" 
d="M82 751h668q35 0 58.5 -23.5t23.5 -58.5v-668q0 -35 -23.5 -58.5t-58.5 -23.5h-668q-33 0 -57.5 23.5t-24.5 58.5v668q0 35 23.5 58.5t58.5 23.5zM82 669v-293h293v293h-293zM82 1h293v293h-293v-293zM750 1v293h-293v-293h293zM750 669h-293v-293h293v293z" />
    <glyph glyph-name="heart-off" unicode="&#xfc57;" horiz-adv-x="875" arabic-form="isolated" 
d="M0 678l55 52l738 -738l-53 -52l-148 148l-133 -122l-61 56q-162 142 -257.5 253t-97.5 227q0 58 25 108zM271 730q55 0 104 -23.5t84 -62.5q35 40 84 63q50 24 104 23q98 -1 162 -65.5t66 -162.5q0 -80 -46 -155t-128 -157l-523 520q42 20 93 20z" />
    <glyph glyph-name="music" unicode="&#xfc58;" horiz-adv-x="791" arabic-form="isolated" 
d="M791 709v-521q-2 -61 -43 -103t-102.5 -42t-103.5 42t-42 103.5t42 102.5t103 43q35 0 62 -14v244l-416 -87v-372q-2 -62 -43 -103t-102.5 -41t-103.5 41t-42 102.5t42 103.5t103 42q35 0 62 -14v348z" />
    <glyph glyph-name="music-off" unicode="&#xfc59;" horiz-adv-x="791" arabic-form="isolated" 
d="M0 636l53 54l697 -698l-53 -52l-406 404v-218q-2 -61 -43 -102t-102.5 -41.5t-103.5 40.5t-42 103t42 104t103 42q35 0 62 -14v170zM791 730v-520q-2 -65 -47 -106l-205 204q41 46 106 48q35 0 62 -14v244l-367 -78l-106 104z" />
    <glyph glyph-name="tab-plus" unicode="&#xfc5a;" horiz-adv-x="750" arabic-form="isolated" 
d="M666 44v416h-291v166h-291v-582h582zM666 710q35 0 59.5 -24.5t24.5 -59.5v-582q0 -35 -24.5 -59.5t-59.5 -24.5h-582q-35 0 -59.5 24.5t-24.5 59.5v582q0 37 24.5 60.5t59.5 23.5h582zM166 294h125v125h84v-125h125v-84h-125v-125h-84v125h-125v84z" />
    <glyph glyph-name="volume-plus" unicode="&#xfc5b;" horiz-adv-x="791" arabic-form="isolated" 
d="M0 460h166l209 209v-668l-209 209h-166v250zM459 376h125v125h82v-125h125v-82h-125v-125h-82v125h-125v82z" />
    <glyph glyph-name="volume-minus" unicode="&#xfc5c;" horiz-adv-x="791" arabic-form="isolated" 
d="M0 460h166l209 209v-668l-209 209h-166v250zM459 376h332v-82h-332v82z" />
    <glyph glyph-name="volume-mute" unicode="&#xfc5d;" horiz-adv-x="791" arabic-form="isolated" 
d="M0 460h166l209 209v-668l-209 209h-166v250zM566 335l-107 107l59 59l107 -107l107 107l59 -59l-107 -107l107 -107l-59 -59l-107 107l-107 -107l-59 59z" />
    <glyph glyph-name="unfold-less-vertical" unicode="&#xfc5e;" horiz-adv-x="668" arabic-form="isolated" 
d="M59 526l191 -191l-191 -191l-59 58l133 133l-133 133zM609 144l-191 191l191 191l59 -58l-133 -133l133 -133z" />
    <glyph glyph-name="unfold-more-vertical" unicode="&#xfc5f;" horiz-adv-x="750" arabic-form="isolated" 
d="M633 335l-133 133l59 58l191 -191l-191 -191l-59 58zM117 335l133 -133l-59 -58l-191 191l191 191l59 -58z" />
    <glyph glyph-name="taco" unicode="&#xfc60;" horiz-adv-x="918" arabic-form="isolated" 
d="M750 85h-582q-72 2 -119 49t-49 117q4 143 97.5 236.5t236.5 97.5q66 0 125 -23q59 23 125 23q143 -4 236.5 -97.5t97.5 -236.5q-2 -70 -49 -117t-119 -49zM84 251q0 -35 24.5 -58.5t59.5 -23.5t58.5 23.5t23.5 58.5q2 76 31.5 139.5t79.5 108.5l-27 2
q-105 -2 -176.5 -72.5t-73.5 -177.5zM750 169q35 0 59.5 23.5t24.5 58.5q-2 107 -73.5 177.5t-176.5 72.5q-105 -2 -176.5 -72.5t-73.5 -177.5q0 -45 -23 -82h439z" />
    <glyph glyph-name="square-outline" unicode="&#xfc61;" horiz-adv-x="750" arabic-form="isolated" 
d="M0 710h750v-750h-750v750zM84 626v-582h582v582h-582z" />
    <glyph glyph-name="square" unicode="&#xfc62;" horiz-adv-x="750" arabic-form="isolated" 
d="M0 710v-750h750v750h-750z" />
    <glyph glyph-name="circle" unicode="&#xfc63;" horiz-adv-x="832" arabic-form="isolated" 
d="M416 751q-178 -4 -295 -121t-121 -295q4 -178 121 -295t295 -121q178 4 295 121t121 295q-4 178 -121 295t-295 121z" />
    <glyph glyph-name="circle-outline" unicode="&#xfc64;" horiz-adv-x="832" arabic-form="final" 
d="M416 1q-143 4 -236.5 97.5t-97.5 236.5q4 143 97.5 236.5t236.5 97.5q143 -4 236.5 -97.5t97.5 -236.5q-4 -143 -97.5 -236.5t-236.5 -97.5zM416 751q-178 -4 -295 -121t-121 -295q4 -178 121 -295t295 -121q178 4 295 121t121 295q-4 178 -121 295t-295 121z" />
    <glyph glyph-name="alert-octagram" unicode="&#xfc65;" horiz-adv-x="816" arabic-form="final" 
d="M0 165l70 170l-70 170l170 68l68 170l170 -70l170 70l68 -170l170 -68l-70 -170l70 -170l-170 -68l-68 -170l-170 70l-170 -70l-68 170zM449 126v84h-82v-84h82zM449 294v250h-82v-250h82z" />
    <glyph glyph-name="atom" unicode="&#xfc66;" horiz-adv-x="711" arabic-form="final" 
d="M356 376q18 0 29.5 -11.5t11.5 -29.5t-11.5 -29.5t-29.5 -11.5t-29.5 11.5t-11.5 29.5t11.5 29.5t29.5 11.5zM32 659q47 43 133.5 27.5t190.5 -83.5q104 68 190.5 83.5t131.5 -29.5t29.5 -131.5t-83.5 -190.5q68 -104 83.5 -190.5t-29.5 -131.5t-131.5 -29.5t-190.5 83.5
q-104 -68 -190.5 -83.5t-131.5 29.5t-29.5 131.5t83.5 190.5q-68 104 -83.5 190.5t27.5 133.5zM504 483q37 -39 71 -80q43 68 55.5 120t-11 75.5t-75 11t-120.5 -55.5q41 -34 80 -71zM208 187q-37 39 -71 80q-43 -68 -55.5 -120t11 -75.5t75 -11t120.5 55.5q-41 34 -80 71z
M90 601q-21 -25 -8.5 -77t55.5 -121q33 41 71.5 79.5t79.5 71.5q-68 43 -120.5 55.5t-77.5 -8.5zM268 247q43 -45 88 -80q45 35 89 79t79 89q-35 45 -79 89t-89 79q-45 -35 -89 -79t-79 -89q35 -45 80 -88zM622 69q21 25 8.5 77t-55.5 121q-33 -41 -71.5 -79.5t-79.5 -71.5
q68 -43 120.5 -55.5t77.5 8.5z" />
    <glyph glyph-name="ceiling-light" unicode="&#xfc67;" horiz-adv-x="668" arabic-form="final" 
d="M168 459h125v209h82v-209h125l168 -334h-668zM418 84q-2 -35 -25.5 -58.5t-58.5 -23.5t-58.5 23.5t-25.5 58.5h168z" />
    <glyph glyph-name="chart-bar-stacked" unicode="&#xfc68;" horiz-adv-x="832" arabic-form="final" 
d="M832 -40h-832v750h82v-666h84v82h166v-82h84v125h166v-125h84v82h166v-166zM666 251h166v-82h-166v82zM416 585h166v-125h-166v125zM582 210h-166v209h166v-209zM166 419h166v-84h-166v84zM332 169h-166v125h166v-125z" />
    <glyph glyph-name="chart-line-stacked" unicode="&#xfc69;" horiz-adv-x="832" arabic-form="final" 
d="M643 202l189 350v-592h-832v750h82v-666h107l184 314zM832 710v-20l-207 -314l-293 209l-166 -250v375h666z" />
    <glyph glyph-name="decagram" unicode="&#xfc6a;" horiz-adv-x="918" arabic-form="final" 
d="M918 335l-102 115l14 155l-150 33l-78 133l-143 -61l-143 61l-78 -133l-150 -33l14 -153l-102 -117l102 -115l-14 -155l150 -35l78 -131l143 61l143 -61l78 133l150 33l-14 155z" />
    <glyph glyph-name="decagram-outline" unicode="&#xfc6b;" horiz-adv-x="918" arabic-form="final" 
d="M918 335l-102 -115l14 -155l-150 -33l-78 -133l-143 61l-143 -61l-78 131l-150 35l14 155l-102 115l102 117l-14 153l150 33l78 133l143 -61l143 61l78 -133l150 -33l-14 -155zM807 335l-77 88l10 117l-115 24l-59 101l-107 -47l-107 47l-59 -101l-115 -24l10 -117
l-77 -88l77 -88l-10 -117l115 -24l59 -101l107 47l107 -47l59 101l115 26l-10 115z" />
    <glyph glyph-name="dice-multiple" unicode="&#xfc6c;" horiz-adv-x="750" arabic-form="final" 
d="M699 710h-357q-21 0 -35 -14.5t-16 -36.5v-158h250v-250h158q21 2 36 15.5t15 35.5v357q0 21 -15 36t-36 15zM393 558q-21 0 -36 14.5t-15 36t14.5 36t37 14.5t36 -14.5t13.5 -36t-13.5 -36t-36.5 -14.5zM648 302q-21 0 -35.5 14.5t-14.5 37t13.5 36t36 14.5t37 -13.5
t14.5 -37t-15 -36t-36 -15.5zM648 558q-21 0 -35.5 14.5t-14.5 36t13.5 36t36 14.5t37 -14.5t14.5 -36t-15 -36t-36 -14.5zM51 419h357q21 -2 35 -15.5t16 -35.5v-357q-2 -21 -15.5 -36t-35.5 -15h-357q-21 0 -36 14.5t-15 36.5v357q0 21 15 35t36 16zM229 239
q-21 0 -35 -14.5t-14 -36t13.5 -35t35 -13.5t36 13.5t14.5 35t-14.5 36t-35.5 14.5zM102 368q-21 -2 -36 -15.5t-15 -35t14.5 -36t36 -14.5t36 14.5t14.5 36t-14.5 35t-35.5 15.5zM355 112q-21 0 -34.5 -14.5t-13.5 -36t13.5 -35t35 -13.5t36 13.5t14.5 35t-13.5 36
t-35.5 14.5h-2z" />
    <glyph glyph-name="dice-d10" unicode="&#xfc6d;" horiz-adv-x="832" arabic-form="final" 
d="M814 386q18 -23 18 -50.5t-18 -51.5l-345 -345q-23 -21 -50.5 -21.5t-51.5 21.5l-345 345q-21 23 -21.5 50.5t21.5 51.5l345 345q23 21 50.5 21.5t51.5 -21.5zM764 335l-346 346l-346 -346l346 -346zM350 177h-63v242l-74 -23v50l131 47h6v-316zM498 501q45 0 75.5 -30.5
t32.5 -74.5v-112q-2 -45 -32.5 -75t-75.5 -30t-75 30t-32 75v112q2 45 32 75t75 30zM498 442q-20 -2 -32 -14q-11 -10 -13 -30v-116q2 -20 14 -31.5t31.5 -11.5t32 12t12.5 31v116q0 20 -12.5 31t-32.5 13z" />
    <glyph glyph-name="folder-open" unicode="&#xfc6e;" horiz-adv-x="883" arabic-form="final" 
d="M707 1h-625q-35 2 -58.5 25.5t-23.5 58.5v500q0 35 23.5 58.5t58.5 25.5h250l84 -84h291q35 0 59.5 -24.5t24.5 -59.5h-709v-416l90 334h711l-94 -355q-8 -27 -30.5 -44t-51.5 -19z" />
    <glyph glyph-name="guitar-acoustic" unicode="&#xfc6f;" horiz-adv-x="791" arabic-form="final" 
d="M691 710h100v-84h-66l-176 -176q-23 35 -59 59zM375 501q70 -2 117 -49t49 -117q0 -59 -34 -102.5t-91 -59.5v-4q-2 -90 -60.5 -148.5t-146.5 -60.5q-90 2 -148.5 60.5t-60.5 148.5q2 88 60.5 146.5t148.5 60.5h4q16 57 59.5 91t102.5 34zM375 398q-27 0 -44.5 -18
t-17.5 -45t17.5 -45t44.5 -18t44.5 18t17.5 45t-17.5 45t-44.5 18zM164 241l-29 -29l117 -117l29 29z" />
    <glyph glyph-name="loading" unicode="&#xfc70;" horiz-adv-x="601" arabic-form="final" 
d="M508 461v82q-178 -4 -295 -121t-121 -295h82q5 143 98 236.5t236 97.5z" />
    <glyph glyph-name="lock-reset" unicode="&#xfc71;" horiz-adv-x="943" arabic-form="final" 
d="M525 751q178 -4 296 -122t122 -294q-4 -176 -122 -294t-296 -122q-109 0 -200 51.5t-147 137.5l66 53q45 -72 118.5 -115t164.5 -45q141 4 234.5 97.5t97.5 236.5q-4 143 -97.5 236.5t-234.5 97.5q-131 -4 -221.5 -85t-110.5 -208h116l-155 -154l-156 154h111
q20 162 135 266.5t279 108.5zM650 409q16 -2 27 -12.5t11 -26.5v-191q0 -18 -11 -28.5t-29 -10.5h-230q-16 0 -26.5 10.5t-10.5 28.5v191q0 16 10.5 26.5t26.5 12.5v41q2 49 34 82t81 33t82 -33t35 -82v-41zM533 507q-23 0 -39.5 -15.5t-16.5 -41.5v-41h115v41q-2 25 -18 41
t-41 16z" />
    <glyph glyph-name="ninja" unicode="&#xfc72;" horiz-adv-x="832" arabic-form="final" 
d="M238 294q0 21 18 37q47 -10 88 -37q-2 -23 -17 -37t-36 -15t-36 14t-17 38zM488 294q41 27 88 37q18 -16 17 -38t-16 -37t-36 -15t-36 15t-17 38zM416 460q-176 2 -330 -84l-4 -41q0 -78 35 -148q148 23 298.5 23t299.5 -23q35 70 35 148l-4 41q-154 86 -330 84zM416 751
q178 -4 295 -121t121 -295q-4 -178 -121 -295t-295 -121q-178 4 -295 121t-121 295q4 178 121 295t295 121z" />
    <glyph glyph-name="octagram-outline" unicode="&#xfc73;" horiz-adv-x="816" arabic-form="final" 
d="M0 165l70 170l-70 170l170 68l68 170l170 -70l170 70l68 -170l170 -68l-70 -170l70 -170l-170 -68l-68 -170l-170 70l-170 -70l-68 170zM109 460l51 -125l-51 -125l123 -51l51 -123l125 51l125 -51l51 123l123 51l-51 125l51 125l-123 51l-51 123l-125 -51l-125 51
l-51 -123z" />
    <glyph glyph-name="pencil-circle-outline" unicode="&#xfc74;" horiz-adv-x="832" arabic-form="final" 
d="M207 212l254 254l86 -86l-254 -254h-86v86zM416 1q143 4 236.5 97.5t97.5 236.5q-4 143 -97.5 236.5t-236.5 97.5q-143 -4 -236.5 -97.5t-97.5 -236.5q4 -143 97.5 -236.5t236.5 -97.5zM611 446l-41 -43l-86 86l43 41q16 14 32 0l52 -52q14 -16 0 -32zM416 751
q178 -4 295 -121t121 -295q-4 -178 -121 -295t-295 -121q-178 4 -295 121t-121 295q4 178 121 295t295 121z" />
    <glyph glyph-name="selection-off" unicode="&#xfc75;" horiz-adv-x="895" arabic-form="final" 
d="M0 710l53 52l822 -822l-52 -52l-63 62h-72v72l-553 554h-72v72zM145 782h125v-82h-49l-82 82h6zM895 700v-124h-82v124h-125v82h125q35 0 58.5 -23.5t23.5 -58.5zM813 158h82v-132l-82 82v50zM63 32v126h82v-126h125v-82h-125q-35 0 -58.5 24t-23.5 58zM395 782h168v-82
h-168v82zM395 32h168v-82h-168v82zM813 450h82v-168h-82v168zM63 450h82v-168h-82v168z" />
    <glyph glyph-name="set-all" unicode="&#xfc76;" horiz-adv-x="832" arabic-form="final" 
d="M291 626q66 0 125 -27q59 27 125 27q125 -2 207 -84t84 -207q-2 -125 -84 -207t-207 -84q-66 0 -125 27q-59 -27 -125 -27q-125 2 -207 84t-84 207q2 125 84 207t207 84zM270 335q2 -59 24 -109.5t61 -87.5l43 17q-41 33 -63.5 79t-22.5 101t22.5 100.5t63.5 79.5l-43 17
q-39 -37 -61 -87.5t-24 -109.5zM562 335q-2 59 -24 109.5t-61 87.5l-43 -17q41 -33 63.5 -79t22.5 -101t-22.5 -100.5t-63.5 -79.5l43 -17q39 37 61 87.5t24 109.5z" />
    <glyph glyph-name="set-center" unicode="&#xfc77;" horiz-adv-x="832" arabic-form="final" 
d="M291 626q-125 -2 -207 -84t-84 -207q2 -125 84 -207t207 -84q66 0 125 27q59 -27 125 -27q125 2 207 84t84 207q-2 125 -84 207t-207 84q-66 0 -125 -27q-59 27 -125 27zM291 544q21 0 41 -4q-39 -43 -60.5 -94.5t-21.5 -110.5t21.5 -110.5t60.5 -92.5q-20 -6 -41 -6
q-88 2 -147.5 61.5t-61.5 147.5q2 88 61.5 147.5t147.5 61.5zM541 544q88 -2 147.5 -61.5t61.5 -147.5q-2 -88 -61.5 -147.5t-147.5 -61.5q-21 0 -41 4q39 43 60.5 94.5t21.5 110.5t-21.5 110.5t-60.5 92.5q20 6 41 6z" />
    <glyph glyph-name="set-center-right" unicode="&#xfc78;" horiz-adv-x="832" arabic-form="final" 
d="M541 44q-66 0 -125 27q-59 -27 -125 -27q-125 2 -207 84t-84 207q2 125 84 207t207 84q66 0 125 -27q59 27 125 27q125 -2 207 -84t84 -207q-2 -125 -84 -207t-207 -84zM291 126l41 6q-39 41 -60.5 92.5t-21.5 110.5t21.5 110.5t60.5 94.5l-41 4q-88 -2 -147.5 -61.5
t-61.5 -147.5q2 -88 61.5 -147.5t147.5 -61.5zM562 335q-2 59 -24 109.5t-61 87.5l-43 -17q41 -33 63.5 -79t22.5 -101t-22.5 -100.5t-63.5 -79.5l43 -17q39 37 61 87.5t24 109.5z" />
    <glyph glyph-name="set-left" unicode="&#xfc79;" horiz-adv-x="832" arabic-form="final" 
d="M291 626q-125 -2 -207 -84t-84 -207q2 -125 84 -207t207 -84q66 0 125 27q59 -27 125 -27q125 2 207 84t84 207q-2 125 -84 207t-207 84q-66 0 -125 -27q-59 27 -125 27zM541 544q88 -2 147.5 -61.5t61.5 -147.5q-2 -88 -61.5 -147.5t-147.5 -61.5q-21 0 -41 4
q39 43 60.5 94.5t21.5 110.5t-21.5 110.5t-60.5 92.5q20 6 41 6zM416 501q39 -29 61.5 -73t22.5 -93t-22.5 -93t-61.5 -73q-39 29 -61.5 73t-22.5 93t22.5 93t61.5 73z" />
    <glyph glyph-name="set-left-center" unicode="&#xfc7a;" horiz-adv-x="832" arabic-form="final" 
d="M291 626q66 0 125 -27q59 27 125 27q125 -2 207 -84t84 -207q-2 -125 -84 -207t-207 -84q-66 0 -125 27q-59 -27 -125 -27q-125 2 -207 84t-84 207q2 125 84 207t207 84zM541 544l-41 -6q39 -41 60.5 -92.5t21.5 -110.5t-21.5 -110.5t-60.5 -94.5l41 -4q88 2 147.5 61.5
t61.5 147.5q-2 88 -61.5 147.5t-147.5 61.5zM270 335q2 -59 24 -109.5t61 -87.5l43 17q-41 33 -63.5 79t-22.5 101t22.5 100.5t63.5 79.5l-43 17q-39 -37 -61 -87.5t-24 -109.5z" />
    <glyph glyph-name="set-left-right" unicode="&#xfc7b;" horiz-adv-x="832" arabic-form="final" 
d="M291 626q66 0 125 -27q59 27 125 27q125 -2 207 -84t84 -207q-2 -125 -84 -207t-207 -84q-66 0 -125 27q-59 -27 -125 -27q-125 2 -207 84t-84 207q2 125 84 207t207 84zM291 335q0 -70 34 -127t91 -90q57 33 91 90t34 127t-34 127t-91 90q-57 -33 -91 -90t-34 -127z" />
    <glyph glyph-name="set-none" unicode="&#xfc7c;" horiz-adv-x="832" arabic-form="final" 
d="M291 626q-125 -2 -207 -84t-84 -207q2 -125 84 -207t207 -84q66 0 125 27q59 -27 125 -27q125 2 207 84t84 207q-2 125 -84 207t-207 84q-66 0 -125 -27q-59 27 -125 27zM291 544q21 0 41 -4q-39 -43 -60.5 -94.5t-21.5 -110.5t21.5 -110.5t60.5 -92.5q-20 -6 -41 -6
q-88 2 -147.5 61.5t-61.5 147.5q2 88 61.5 147.5t147.5 61.5zM541 544q88 -2 147.5 -61.5t61.5 -147.5q-2 -88 -61.5 -147.5t-147.5 -61.5q-21 0 -41 4q39 43 60.5 94.5t21.5 110.5t-21.5 110.5t-60.5 92.5q20 6 41 6zM416 501q39 -29 61.5 -73t22.5 -93t-22.5 -93
t-61.5 -73q-39 29 -61.5 73t-22.5 93t22.5 93t61.5 73z" />
    <glyph glyph-name="set-right" unicode="&#xfc7d;" horiz-adv-x="832" arabic-form="final" 
d="M541 44q-66 0 -125 27q-59 -27 -125 -27q-125 2 -207 84t-84 207q2 125 84 207t207 84q66 0 125 -27q59 27 125 27q125 -2 207 -84t84 -207q-2 -125 -84 -207t-207 -84zM291 126l41 6q-39 41 -60.5 92.5t-21.5 110.5t21.5 110.5t60.5 94.5l-41 4q-88 -2 -147.5 -61.5
t-61.5 -147.5q2 -88 61.5 -147.5t147.5 -61.5zM416 169q39 29 61.5 73t22.5 93t-22.5 93t-61.5 73q-39 -29 -61.5 -73t-22.5 -93t22.5 -93t61.5 -73z" />
    <glyph glyph-name="shield-half-full" unicode="&#xfc7e;" horiz-adv-x="750" arabic-form="final" 
d="M750 376q-4 -178 -107.5 -316.5t-267.5 -183.5q-164 45 -267.5 183.5t-107.5 316.5v250l375 168l375 -168v-250zM375 -40q121 35 205 151.5t86 256.5v205l-291 129v-742z" />
    <glyph glyph-name="sign-direction" unicode="&#xfc7f;" horiz-adv-x="708" arabic-form="final" 
d="M313 335h-313l104 104l-104 105h313v166l41 41l41 -41v-166h209l104 -105l-104 -104h-209v-334q35 0 59.5 -23.5t24.5 -58.5h-250q0 35 24.5 58.5t59.5 23.5v334z" />
    <glyph glyph-name="sign-text" unicode="&#xfc80;" horiz-adv-x="750" arabic-form="final" 
d="M334 710l41 41l41 -41v-84h293q18 0 29.5 -11.5t11.5 -29.5v-416q0 -18 -11.5 -29.5t-29.5 -13.5h-293v-125q35 0 59.5 -23.5t24.5 -58.5h-250q0 35 24.5 58.5t59.5 23.5v125h-293q-18 2 -29.5 13.5t-11.5 29.5v416q0 18 11.5 29.5t29.5 11.5h293v84zM125 501v-82h500v82
h-500zM125 335v-84h291v84h-291z" />
    <glyph glyph-name="signal-off" unicode="&#xfc81;" horiz-adv-x="750" arabic-form="final" 
d="M625 752v-549l125 -125v674h-125zM53 668l-53 -53l322 -322h-113v-291h125v281l82 -84v-197h125v72l156 -156l53 55zM416 502v-92l125 -125v217h-125zM0 127v-125h125v125h-125z" />
    <glyph glyph-name="square-root" unicode="&#xfc82;" horiz-adv-x="832" arabic-form="final" 
d="M406 154l117 118l-117 118l59 60l117 -120l119 120l59 -60l-119 -118l119 -118l-59 -58l-119 116l-117 -116zM0 396h125l96 -224l111 434h500v-84h-436l-119 -458h-101l-106 250h-70v82z" />
    <glyph glyph-name="sticker-emoji" unicode="&#xfc83;" horiz-adv-x="832" arabic-form="final" 
d="M145 751q-61 0 -103 -42t-42 -103v-542q0 -61 42 -103t103 -42h437l250 250v437q0 61 -42 103t-103 42h-542zM156 669h520q31 -2 51.5 -22.5t22.5 -51.5v-385h-63q-62 -2 -103 -43t-43 -103v-63h-385q-31 2 -51.5 22.5t-22.5 51.5v520q2 31 22.5 51.5t51.5 22.5zM518 554
q-10 0 -20 -4q-29 -8 -44 -33.5t-7 -56.5q2 -10 8 -18l135 36q0 12 -2 21q-8 23 -26.5 38t-43.5 17zM256 481q-10 0 -20 -1q-29 -10 -43.5 -35.5t-6.5 -54.5q2 -10 9 -20l133 37q0 10 -2 20q-6 25 -25.5 39.5t-44.5 14.5zM613 366l-381 -105q43 -47 102 -65.5t121.5 -2
t104 62.5t53.5 110z" />
    <glyph glyph-name="summit" unicode="&#xfc84;" horiz-adv-x="832" arabic-form="final" 
d="M541 710h84l207 -84l-207 -82v-133l207 -451h-832l250 334l145 -197l146 314v299z" />
    <glyph glyph-name="sword-cross" unicode="&#xfc85;" horiz-adv-x="887" arabic-form="final" 
d="M202 736l496 -496l88 88l58 -58l-101 -102l133 -133q12 -14 11.5 -30.5t-11.5 -27.5l-32 -32q-12 -12 -28.5 -11.5t-29.5 11.5l-133 133l-102 -103l-58 58l88 90l-496 496v117h117zM606 422l197 197v117h-117l-197 -197zM399 213l-117 119l-92 -92l-88 88l-58 -58
l101 -102l-133 -135q-12 -12 -11.5 -28.5t11.5 -29.5l32 -30q12 -12 28.5 -11.5t29.5 11.5l133 133l102 -103l58 58l-88 90z" />
    <glyph glyph-name="truck-fast" unicode="&#xfc86;" horiz-adv-x="990" arabic-form="final" 
d="M115 271l-31 63h218l-25 63h-203l-31 62h324l-25 62h-305l-37 63h156q2 35 25.5 58.5t58.5 25.5h500v-168h125l125 -166v-209h-84q0 -53 -35 -88t-89 -35t-89 35t-37 88h-166q-2 -53 -37 -88t-88 -35t-88 35t-37 88h-84v146h-41zM781 63q27 2 45 19.5t18 43.5t-18 44
t-44 18t-44 -18t-18 -44t18 -43.5t43 -19.5zM844 438h-104v-104h186zM365 63q27 2 45 19.5t18 43.5t-18 44t-45 18t-45 -18t-18 -44t18 -43.5t45 -19.5z" />
    <glyph glyph-name="yammer" unicode="&#xfc87;" horiz-adv-x="737" arabic-form="final" 
d="M409 591l-181 -465q0 -10 -36 -55t-128 -50q-18 0 -30.5 11.5t-12.5 29t12.5 29.5t30.5 12q47 4 66.5 25.5t19.5 26.5l15 41l-162 395q-6 18 1 33.5t23.5 21.5t32 0t21.5 -24l129 -312l121 312q8 18 22.5 24t31.5 0t23.5 -21.5t0.5 -33.5zM616 573q-12 0 -22.5 -7.5
t-85.5 -64.5t-79 -74q18 -4 103.5 34t97.5 44q21 8 22 33q0 14 -10 24.5t-26 10.5zM648 138q-6 10 -18 15.5t-98.5 43t-102.5 33.5q4 -18 79 -74.5t87 -62.5q18 -16 39 -4q14 8 18 21.5t-4 27.5zM718 362q-10 8 -23.5 6t-106.5 -13.5t-106 -25.5q14 -12 107.5 -21.5
t107.5 -9.5q21 -4 35 18q8 12 4 25t-18 21z" />
    <glyph glyph-name="cast-off" unicode="&#xfc88;" horiz-adv-x="976" arabic-form="final" 
d="M56 782l-56 -62l49 -43q-16 -21 -18 -51v-125h84v115l633 -572h-174v-84h266l80 -72l56 62zM261 710l92 -84h512v-463l84 -76v539q-2 37 -25.5 60.5t-58.5 23.5h-604zM31 419v-84q160 -4 265.5 -109.5t109.5 -265.5h84q-6 195 -135 324t-324 135zM31 251v-82
q90 -2 148.5 -61.5t60.5 -147.5h84q-4 125 -86 207t-207 84zM31 85v-125h125q0 53 -35 88t-90 37z" />
    <glyph glyph-name="help-box" unicode="&#xfc89;" horiz-adv-x="750" arabic-form="final" 
d="M334 85h82v84h-82v-84zM375 585q-70 -2 -117 -49t-49 -117h82q2 35 25.5 58.5t58.5 23.5t58.5 -23.5t25.5 -58.5q-8 -55 -62.5 -85t-62.5 -124h82q8 64 62.5 100.5t62.5 108.5q-2 70 -49 117t-117 49zM84 710h582q35 0 59.5 -24.5t24.5 -59.5v-582q0 -35 -24.5 -59.5
t-59.5 -24.5h-582q-35 0 -59.5 24.5t-24.5 59.5v582q0 35 24.5 59.5t59.5 24.5z" />
    <glyph glyph-name="timer-sand-full" unicode="&#xfc8a;" horiz-adv-x="601" arabic-form="final" 
d="M50 751v-250l166 -166l-166 -166v-250h500v250l-166 166l166 166v250h-500z" />
    <glyph glyph-name="waves" unicode="&#xfc8b;" horiz-adv-x="832" arabic-form="final" 
d="M0 106q68 33 137.5 57t139.5 27q68 -6 138.5 -42t139.5 -42q70 6 139.5 41.5t137.5 42.5v-126q-68 -6 -137.5 -42t-139.5 -42q-68 6 -138.5 42t-139.5 42q-70 -1 -139.5 -25.5t-137.5 -58.5v126zM0 356q68 33 137.5 57t139.5 27q68 -6 138.5 -42t139.5 -42
q70 6 139.5 41.5t137.5 42.5v-126q-68 -6 -137.5 -42t-139.5 -42q-68 6 -138.5 42t-139.5 42q-70 -1 -139.5 -25.5t-137.5 -58.5v126zM0 606q68 33 137.5 57t139.5 27q68 -6 138.5 -42t139.5 -42q70 6 139.5 41.5t137.5 42.5v-126q-68 -6 -137.5 -42t-139.5 -42
q-68 6 -138.5 42t-139.5 42q-70 -1 -139.5 -25.5t-137.5 -58.5v126z" />
    <glyph glyph-name="alarm-bell" unicode="&#xfc8c;" horiz-adv-x="832" arabic-form="final" 
d="M541 58v-139h-416v139q98 -57 208 -57t208 57zM832 669q0 35 -23.5 58.5t-58.5 23.5q-20 0 -38.5 -9t-29.5 -26q-20 -29 -15 -61.5t34 -53.5q21 -16 49 -16h10q53 -143 16.5 -282.5t-151.5 -238.5q-21 -16 -43 -30v-74h43v53q98 72 152.5 177.5t54.5 228.5q0 94 -33 182
q33 25 33 68zM666 419q-4 -143 -97.5 -236.5t-236.5 -97.5q-141 4 -235.5 97.5t-96.5 236.5q2 141 96.5 235.5t235.5 96.5q143 -2 236.5 -96.5t97.5 -235.5z" />
    <glyph glyph-name="alarm-light" unicode="&#xfc8d;" horiz-adv-x="876" arabic-form="final" 
d="M188 526l-88 88l59 58l88 -88zM479 772v-124h-82v124h82zM776 614l-88 -88l-59 58l88 88zM126 376v-84h-126v84h126zM750 376h126v-84h-126v84zM188 -20h500q35 0 58.5 -24t25.5 -58h-668q2 34 25.5 58t58.5 24zM438 604q105 -1 176.5 -71.5t73.5 -178.5v-332h-500v332
q2 107 73.5 177.5t176.5 72.5z" />
    <glyph glyph-name="android-head" unicode="&#xfc8e;" horiz-adv-x="832" arabic-form="final" 
d="M250 324q-23 -2 -38 -16.5t-15 -36t15 -36t37 -14.5t37 14.5t15 36t-15 36t-36 16.5zM582 324q-21 -2 -36 -16.5t-15 -36t15 -36t37 -14.5t37 14.5t15 36t-15 36t-38 16.5zM416 512q94 -2 174 -39l90 90q14 14 30.5 13.5t29 -13t12.5 -29t-14 -30.5l-74 -74
q78 -59 123 -145.5t45 -190.5h-832q0 104 45 190.5t123 145.5l-74 74q-14 14 -14 30.5t12.5 29t29.5 12.5t30 -13l90 -90q80 37 174 39z" />
    <glyph glyph-name="approval" unicode="&#xfc8f;" horiz-adv-x="918" arabic-form="final" 
d="M918 335l-102 115l14 155l-150 33l-78 133l-143 -61l-143 61l-78 -133l-150 -33l14 -153l-102 -117l102 -115l-14 -155l150 -35l78 -131l143 61l143 -61l78 133l150 33l-14 155zM375 126l-166 168l59 59l107 -108l275 274l59 -59z" />
    <glyph glyph-name="arrow-collapse-down" unicode="&#xfc90;" horiz-adv-x="832" arabic-form="final" 
d="M746 331l-330 -330l-330 330l59 59l230 -229v590h82v-590l230 231zM416 1h-416v-82h832v82h-416z" />
    <glyph glyph-name="arrow-collapse-left" unicode="&#xfc91;" horiz-adv-x="832" arabic-form="final" 
d="M412 5l-330 330l330 330l59 -59l-229 -230h590v-82h-590l231 -230zM82 335v416h-82v-832h82v416z" />
    <glyph glyph-name="arrow-collapse-right" unicode="&#xfc92;" horiz-adv-x="832" arabic-form="final" 
d="M420 665l330 -330l-330 -330l-59 59l229 230h-590v82h590l-229 230zM750 335v-416h82v832h-82v-416z" />
    <glyph glyph-name="arrow-collapse-up" unicode="&#xfc93;" horiz-adv-x="832" arabic-form="final" 
d="M86 339l330 330l330 -330l-59 -59l-230 229v-590h-82v590l-230 -229zM416 669h416v82h-832v-82h416z" />
    <glyph glyph-name="arrow-expand-down" unicode="&#xfc94;" horiz-adv-x="832" arabic-form="final" 
d="M832 669v82h-832v-82h375v-592l-230 231l-59 -59l330 -330l330 330l-59 59l-230 -231v592h375z" />
    <glyph glyph-name="arrow-expand-left" unicode="&#xfc95;" horiz-adv-x="832" arabic-form="final" 
d="M750 -81h82v832h-82v-375h-592l231 230l-59 59l-330 -330l330 -330l59 59l-231 230h592v-375z" />
    <glyph glyph-name="arrow-expand-right" unicode="&#xfc96;" horiz-adv-x="832" arabic-form="final" 
d="M82 751h-82v-832h82v375h592l-231 -230l59 -59l330 330l-330 330l-59 -59l231 -230h-592v375z" />
    <glyph glyph-name="arrow-expand-up" unicode="&#xfc97;" horiz-adv-x="832" arabic-form="initial" 
d="M0 1v-82h832v82h-375v592l230 -231l59 59l-330 330l-330 -330l59 -59l230 231v-592h-375z" />
    <glyph glyph-name="book-secure" unicode="&#xfc98;" horiz-adv-x="668" arabic-form="initial" 
d="M584 751h-250v-291l-104 62l-105 -62v291h-41q-35 0 -58.5 -23.5t-25.5 -58.5v-668q2 -35 25.5 -58.5t58.5 -23.5h500q35 0 58.5 23.5t25.5 58.5v668q-2 35 -25.5 58.5t-58.5 23.5zM584 1h-334v168h43v41q0 53 35 88t89 35t89 -35t37 -88v-41h41v-168zM459 210v-41h-84
v41q2 18 13.5 29.5t29.5 11.5t29.5 -11.5t11.5 -29.5z" />
    <glyph glyph-name="book-unsecure" unicode="&#xfc99;" horiz-adv-x="668" arabic-form="initial" 
d="M584 751h-250v-291l-104 62l-105 -62v291h-41q-35 0 -58.5 -23.5t-25.5 -58.5v-668q2 -35 25.5 -58.5t58.5 -23.5h500q35 0 58.5 23.5t25.5 58.5v668q-2 35 -25.5 58.5t-58.5 23.5zM584 1h-334v168h43v82q0 55 35 90t89 35t89 -35t37 -90h-84q0 18 -11.5 29.5t-29.5 11.5
t-29.5 -11.5t-13.5 -29.5v-82h209v-168z" />
    <glyph glyph-name="bus-articulated-end" unicode="&#xfc9a;" horiz-adv-x="792" arabic-form="initial" 
d="M792 584l-62 -63l62 -62l-62 -62l62 -63l-62 -63l62 -62h-375q-2 -53 -37 -88t-88.5 -35t-89 35t-35.5 88h-167v291q2 37 25 60.5t59 23.5h708zM667 521h-146v-103h146v103zM458 521h-166v-103h166v103zM230 521h-168v-103h168v103zM292 271q-27 0 -44.5 -17.5
t-17.5 -44.5t17.5 -44.5t44 -17.5t44 17.5t17.5 44.5t-18 44.5t-43 17.5z" />
    <glyph glyph-name="bus-articulated-front" unicode="&#xfc9b;" horiz-adv-x="918" arabic-form="initial" 
d="M0 584l63 -63l-63 -62l63 -62l-63 -63l63 -63l-63 -62h84q2 -53 37 -88t88 -35t88 35t37 88h250q2 -53 37 -88t88 -35t88 35t37 88h84v291q-2 37 -25.5 60.5t-58.5 23.5h-834zM125 521h105v-103h-105v103zM293 521h166v-103h-166v103zM521 521h167v-103h-167v103z
M750 521h105v-228l-105 82v146zM209 271q27 0 44.5 -17.5t17.5 -44.5t-17.5 -44.5t-44.5 -17.5t-44.5 17.5t-17.5 44.5t17.5 44.5t44.5 17.5zM709 271q27 0 44.5 -17.5t17.5 -44.5t-17.5 -44.5t-44.5 -17.5t-44.5 17.5t-17.5 44.5t17.5 44.5t44.5 17.5z" />
    <glyph glyph-name="bus-double-decker" unicode="&#xfc9c;" horiz-adv-x="918" arabic-form="initial" 
d="M84 668q-35 -2 -58.5 -25.5t-25.5 -58.5v-459h84q2 -53 37 -88t88 -35t88 35t37 88h250q2 -53 37 -88t88 -35t88 35t37 88h84v125q-2 37 -25.5 60.5t-58.5 23.5h-84v104h168v146q-2 35 -25.5 58.5t-58.5 25.5h-750zM63 605h167v-105h-167v105zM293 605h166v-105h-166v105
zM521 605h167v-105h-167v105zM750 605h105v-105h-105v105zM521 438h167v-104h-167v104zM63 438h167v-104h-167v104zM293 438h166v-104h-166v104zM209 188q27 0 44.5 -18t17.5 -44t-17.5 -44t-44.5 -18t-44.5 18t-17.5 44t17.5 44t44.5 18zM709 188q27 0 44.5 -18t17.5 -44
t-17.5 -44t-44.5 -18t-44.5 18t-17.5 44t17.5 44t44.5 18z" />
    <glyph glyph-name="bus-school" unicode="&#xfc9d;" horiz-adv-x="918" arabic-form="initial" 
d="M84 584q-35 0 -58.5 -23.5t-25.5 -60.5v-291h84q2 -53 37 -88t88 -35t88 35t37 88h250q2 -53 37 -88t88 -35t88 35t37 88h84v125q-2 35 -25.5 58.5t-58.5 25.5h-84v82q0 37 -23.5 60.5t-58.5 23.5h-584zM521 521h167v-103h-167v103zM63 521h167v-103h-167v103zM293 521
h166v-103h-166v103zM209 271q27 0 44.5 -17.5t17.5 -44.5t-17.5 -44.5t-44.5 -17.5t-44.5 17.5t-17.5 44.5t17.5 44.5t44.5 17.5zM709 271q27 0 44.5 -17.5t17.5 -44.5t-17.5 -44.5t-44.5 -17.5t-44.5 17.5t-17.5 44.5t17.5 44.5t44.5 17.5z" />
    <glyph glyph-name="bus-side" unicode="&#xfc9e;" horiz-adv-x="918" arabic-form="initial" 
d="M84 584q-35 0 -58.5 -23.5t-25.5 -60.5v-291h84q2 -53 37 -88t88 -35t88 35t37 88h250q2 -53 37 -88t88 -35t88 35t37 88h84v291q-2 37 -25.5 60.5t-58.5 23.5h-750zM63 521h167v-103h-167v103zM293 521h166v-103h-166v103zM521 521h167v-103h-167v103zM750 521h105v-228
l-105 82v146zM209 271q27 0 44.5 -17.5t17.5 -44.5t-17.5 -44.5t-44.5 -17.5t-44.5 17.5t-17.5 44.5t17.5 44.5t44.5 17.5zM709 271q27 0 44.5 -17.5t17.5 -44.5t-17.5 -44.5t-44.5 -17.5t-44.5 17.5t-17.5 44.5t17.5 44.5t44.5 17.5z" />
    <glyph glyph-name="camera-gopro" unicode="&#xfc9f;" horiz-adv-x="832" arabic-form="initial" 
d="M750 626h-209q-35 0 -58.5 -23.5t-25.5 -58.5v-209q2 -35 25.5 -58.5t58.5 -25.5h209q35 2 58.5 25.5t23.5 58.5v209q0 35 -23.5 58.5t-58.5 23.5zM645 314q-53 2 -88.5 37t-35.5 88.5t35.5 89t89 35.5t89 -35.5t35.5 -89t-35 -88.5t-90 -37zM645 376q-25 2 -43 19.5
t-18 44t17.5 44t44 17.5t44 -17.5t17.5 -44t-17.5 -44t-44.5 -19.5zM416 210v416h-334q-35 0 -58.5 -23.5t-23.5 -58.5v-418q0 -35 23.5 -58.5t58.5 -23.5h668q35 0 58.5 23.5t23.5 58.5v84h-416zM332 335h-250v209h250v-209z" />
    <glyph glyph-name="camera-metering-center" unicode="&#xfca0;" horiz-adv-x="832" arabic-form="initial" 
d="M82 669h668q35 -2 58.5 -25.5t23.5 -58.5v-500q0 -35 -23.5 -58.5t-58.5 -25.5h-668q-35 2 -58.5 25.5t-23.5 58.5v500q0 35 23.5 58.5t58.5 25.5zM82 585v-500h668v500h-668zM416 398q27 0 44.5 -18t17.5 -45t-17.5 -45t-44.5 -18t-44.5 18t-17.5 45t17.5 45t44.5 18z
M416 522q68 -2 118 -42t66 -104h-67q-14 37 -45 60.5t-72 23.5t-72.5 -23.5t-44.5 -60.5h-67q16 64 66 104t118 42zM416 148q-68 2 -118 42t-66 104h67q14 -37 45 -60.5t72 -23.5t72.5 23.5t44.5 60.5h67q-16 -64 -66 -104t-118 -42z" />
    <glyph glyph-name="camera-metering-matrix" unicode="&#xfca1;" horiz-adv-x="832" arabic-form="initial" 
d="M82 669h668q35 -2 58.5 -25.5t23.5 -58.5v-500q0 -35 -23.5 -58.5t-58.5 -25.5h-668q-35 2 -58.5 25.5t-23.5 58.5v500q0 35 23.5 58.5t58.5 25.5zM82 585v-500h668v500h-668zM145 522h230v-70q-27 -10 -46.5 -29.5t-29.5 -46.5h-154v146zM687 522v-146h-154
q-10 27 -29.5 46.5t-46.5 29.5v70h230zM687 148h-230v70q27 10 46.5 29.5t29.5 46.5h154v-146zM145 148v146h154q10 -27 29.5 -46.5t46.5 -29.5v-70h-230zM416 398q27 0 44.5 -18t17.5 -45t-17.5 -45t-44.5 -18t-44.5 18t-17.5 45t17.5 45t44.5 18z" />
    <glyph glyph-name="camera-metering-partial" unicode="&#xfca2;" horiz-adv-x="832" arabic-form="initial" 
d="M82 669h668q35 -2 58.5 -25.5t23.5 -58.5v-500q0 -35 -23.5 -58.5t-58.5 -25.5h-668q-35 2 -58.5 25.5t-23.5 58.5v500q0 35 23.5 58.5t58.5 25.5zM82 585v-500h668v500h-668zM416 522q68 -2 118 -42t66 -104h-67q-14 37 -45 60.5t-72 23.5t-72.5 -23.5t-44.5 -60.5h-67
q16 64 66 104t118 42zM416 148q-68 2 -118 42t-66 104h67q14 -37 45 -60.5t72 -23.5t72.5 23.5t44.5 60.5h67q-16 -64 -66 -104t-118 -42z" />
    <glyph glyph-name="camera-metering-spot" unicode="&#xfca3;" horiz-adv-x="832" arabic-form="initial" 
d="M82 669h668q35 -2 58.5 -25.5t23.5 -58.5v-500q0 -35 -23.5 -58.5t-58.5 -25.5h-668q-35 2 -58.5 25.5t-23.5 58.5v500q0 35 23.5 58.5t58.5 25.5zM82 585v-500h668v500h-668zM416 398q27 0 44.5 -18t17.5 -45t-17.5 -45t-44.5 -18t-44.5 18t-17.5 45t17.5 45t44.5 18z
" />
    <glyph glyph-name="cannabis" unicode="&#xfca4;" horiz-adv-x="668" arabic-form="initial" 
d="M313 -81v193q-14 -25 -48.5 -52.5t-96.5 -50.5q0 4 18.5 42t61.5 77q-41 -10 -102.5 -3t-145.5 44q4 4 67.5 27.5t153.5 15.5q-51 27 -107.5 94.5t-105.5 190.5q8 2 104.5 -45t176.5 -164q-53 162 -10 307.5t55 155.5q72 -170 73 -285t-26 -176q78 115 174.5 162
t104.5 45q-49 -123 -105.5 -190.5t-107.5 -94.5q90 8 153.5 -15.5t67.5 -27.5q-84 -37 -145.5 -44t-102.5 3q43 -39 61.5 -77t18.5 -42q-62 23 -96.5 50.5t-48.5 52.5v-193h-42z" />
    <glyph glyph-name="car-convertible" unicode="&#xfca5;" horiz-adv-x="918" arabic-form="initial" 
d="M625 584l-41 -31l104 -135h-167v62h-62v-62h-375q-35 -2 -58.5 -25.5t-25.5 -58.5v-125h84q2 -53 37 -88t88 -35t88 35t37 88h250q2 -53 37 -88t88 -35t88 35t37 88h84v125q-2 35 -25.5 58.5t-58.5 25.5h-84zM209 271q27 0 44.5 -17.5t17.5 -44.5t-17.5 -44.5
t-44.5 -17.5t-44.5 17.5t-17.5 44.5t17.5 44.5t44.5 17.5zM709 271q27 0 44.5 -17.5t17.5 -44.5t-17.5 -44.5t-44.5 -17.5t-44.5 17.5t-17.5 44.5t17.5 44.5t44.5 17.5z" />
    <glyph glyph-name="car-estate" unicode="&#xfca6;" horiz-adv-x="918" arabic-form="initial" 
d="M84 584h541l125 -166h84q35 -2 58.5 -25.5t25.5 -58.5v-125h-84q-2 -53 -37 -88t-88 -35t-88 35t-37 88h-250q-2 -53 -37 -88t-88 -35t-88 35t-37 88h-84v291q2 37 25.5 60.5t58.5 23.5zM63 521v-103h334v103h-334zM459 521v-103h215l-80 103h-135zM209 271
q-27 0 -44.5 -17.5t-17.5 -44.5t17.5 -44.5t44.5 -17.5t44.5 17.5t17.5 44.5t-17.5 44.5t-44.5 17.5zM709 271q-27 0 -44.5 -17.5t-17.5 -44.5t17.5 -44.5t44.5 -17.5t44.5 17.5t17.5 44.5t-17.5 44.5t-44.5 17.5z" />
    <glyph glyph-name="car-hatchback" unicode="&#xfca7;" horiz-adv-x="918" arabic-form="initial" 
d="M625 584h-416l-209 -250v-125h84q2 -53 37 -88t88 -35t88 35t37 88h250q2 -53 37 -88t88 -35t88 35t37 88h84v125q-2 35 -25.5 58.5t-58.5 25.5h-84zM230 521h167v-103h-250zM459 521h146l81 -103h-227v103zM209 271q27 0 44.5 -17.5t17.5 -44.5t-17.5 -44.5t-44.5 -17.5
t-44.5 17.5t-17.5 44.5t17.5 44.5t44.5 17.5zM709 271q27 0 44.5 -17.5t17.5 -44.5t-17.5 -44.5t-44.5 -17.5t-44.5 17.5t-17.5 44.5t17.5 44.5t44.5 17.5z" />
    <glyph glyph-name="car-pickup" unicode="&#xfca8;" horiz-adv-x="918" arabic-form="initial" 
d="M625 584h-228v-166h-397v-209h84q2 -53 37 -88t88 -35t88 35t37 88h250q2 -53 37 -88t88 -35t88 35t37 88h84v125q-2 35 -25.5 58.5t-58.5 25.5h-84zM459 521h146l81 -103h-227v103zM209 271q27 0 44.5 -17.5t17.5 -44.5t-17.5 -44.5t-44.5 -17.5t-44.5 17.5t-17.5 44.5
t17.5 44.5t44.5 17.5zM709 271q27 0 44.5 -17.5t17.5 -44.5t-17.5 -44.5t-44.5 -17.5t-44.5 17.5t-17.5 44.5t17.5 44.5t44.5 17.5z" />
    <glyph glyph-name="car-side" unicode="&#xfca9;" horiz-adv-x="918" arabic-form="initial" 
d="M625 584l125 -166h84q35 -2 58.5 -25.5t25.5 -58.5v-125h-84q-2 -53 -37 -88t-88 -35t-88 35t-37 88h-250q-2 -53 -37 -88t-88 -35t-88 35t-37 88h-84v125q2 35 25.5 58.5t58.5 25.5l125 166h416zM397 521h-157l-78 -103h235v103zM459 521v-103h215l-80 103h-135z
M209 271q-27 0 -44.5 -17.5t-17.5 -44.5t17.5 -44.5t44.5 -17.5t44.5 17.5t17.5 44.5t-17.5 44.5t-44.5 17.5zM709 271q-27 0 -44.5 -17.5t-17.5 -44.5t17.5 -44.5t44.5 -17.5t44.5 17.5t17.5 44.5t-17.5 44.5t-44.5 17.5z" />
    <glyph glyph-name="car-sports" unicode="&#xfcaa;" horiz-adv-x="918" arabic-form="initial" 
d="M459 533h-209l-125 -105h-41q-35 0 -58.5 -23.5t-25.5 -58.5v-125h92q14 -39 45 -61.5t72 -22.5t72.5 22.5t44.5 61.5h266q14 -39 45 -61.5t72 -22.5t72.5 22.5t44.5 61.5h92v41q-2 33 -27.5 50.5t-56.5 33.5zM178 387l93 84h167l167 -84h-427zM209 324q27 0 44.5 -17.5
t17.5 -44.5t-17.5 -44.5t-44.5 -17.5t-44.5 17.5t-17.5 44.5t17.5 44.5t44.5 17.5zM709 324q27 0 44.5 -17.5t17.5 -44.5t-17.5 -44.5t-44.5 -17.5t-44.5 17.5t-17.5 44.5t17.5 44.5t44.5 17.5z" />
    <glyph glyph-name="caravan" unicode="&#xfcab;" horiz-adv-x="832" arabic-form="initial" 
d="M82 668q-35 -2 -58.5 -25.5t-23.5 -58.5v-459h82q2 -53 37 -88t89 -35t89 35t35 88h500v84h-125v375q0 35 -23.5 58.5t-58.5 25.5h-543zM125 459h166v-125h-166v125zM416 459h166v-250h-166v250zM207 168q18 -2 29.5 -13.5t11.5 -29.5t-11.5 -29.5t-29.5 -11.5
t-29.5 11.5t-11.5 29.5t11.5 29.5t29.5 13.5z" />
    <glyph glyph-name="cctv" unicode="&#xfcac;" horiz-adv-x="832" arabic-form="initial" 
d="M672 649q-23 2 -47 -12l-361 -209q-29 -18 -38 -50t8 -63l63 -107q18 -31 50 -40t63 8l74 43q18 -29 49 -43v-74q0 -35 23.5 -57.5t60.5 -24.5h215v82h-215v74q27 14 44 39.5t18 54.5t-15 53l106 62q31 18 39.5 50t-8.5 64l-63 107q-23 39 -66 43zM176 305l-176 -29
l145 -252l113 137z" />
    <glyph glyph-name="chart-donut" unicode="&#xfcad;" horiz-adv-x="832" arabic-form="initial" 
d="M457 750v-125q109 -18 178.5 -97t71.5 -192q0 -57 -20 -105l110 -65q35 78 35 170q-4 166 -108.5 280t-266.5 134zM416 45q-125 2 -207 84t-84 207q2 113 71.5 192t178.5 97v125q-162 -20 -266.5 -134t-108.5 -280q4 -178 121 -295t295 -121q104 0 190.5 46t145.5 124
l-109 64q-39 -53 -98 -81t-129 -28z" />
    <glyph glyph-name="chart-donut-variant" unicode="&#xfcae;" horiz-adv-x="832" arabic-form="initial" 
d="M457 750q162 -20 266.5 -134t108.5 -280q0 -92 -35 -170l-110 65q20 49 20 105q-2 113 -71.5 192t-178.5 97v125zM416 45q70 0 129 28.5t98 80.5l109 -64q-59 -78 -145.5 -124t-190.5 -46q-178 4 -295 122t-121 294q4 166 108.5 280.5t266.5 133.5v-125
q-109 -18 -178.5 -97t-71.5 -192q2 -125 84 -207t207 -84zM416 586q105 -2 176.5 -73.5t73.5 -176.5q-2 -96 -59.5 -163t-149.5 -83v129q37 14 60.5 45t23.5 72q-2 53 -37 88t-88 37l-23 -2l-65 111q41 16 88 16zM166 336q0 59 24.5 107.5t67.5 85.5l62 -111
q-29 -35 -29 -82q0 -41 23.5 -72.5t60.5 -44.5v-129q-92 16 -149.5 83t-59.5 163z" />
    <glyph glyph-name="chart-line-variant" unicode="&#xfcaf;" horiz-adv-x="832" arabic-form="initial" 
d="M62 64l250 250l166 -166l354 398l-59 60l-295 -334l-166 167l-312 -313z" />
    <glyph glyph-name="chili-hot" unicode="&#xfcb0;" horiz-adv-x="668" arabic-form="initial" 
d="M574 455l49 31q20 -10 32.5 -29.5t12.5 -42.5v-490q-21 -8 -167 83t-167 364v43q0 21 10.5 41t30.5 29l61 -29l64 41zM418 746q49 0 83 -31t42 -78q31 -10 54.5 -31.5t37.5 -50.5l-61 -38l-74 42l-64 -42l-71 36q27 61 92 84q-12 25 -39 27v82zM250 414q8 -242 89 -340.5
t161 -149.5q-20 -8 -166 83t-166 364v43q0 21 10.5 41t28.5 29l57 -27q-14 -20 -14 -43zM270 517l-71 36q27 61 90 84q-10 25 -39 27v82q51 0 84 -31v-51q29 -2 39 -27q-31 -10 -56.5 -37.5t-46.5 -82.5zM84 414q6 -242 88 -340.5t162 -149.5q-21 -8 -166.5 83t-167.5 364
v43q0 21 11.5 41t29.5 29l55 -27q-12 -20 -12 -43zM102 517l-69 36q25 61 90 84q-10 25 -39 27v82q49 0 84 -31v-51q27 -2 39 -27q-31 -10 -56.5 -37.5t-48.5 -82.5z" />
    <glyph glyph-name="chili-medium" unicode="&#xfcb1;" horiz-adv-x="601" arabic-form="initial" 
d="M456 455l52 31q19 -10 31 -29.5t11 -42.5v-490q-20 -8 -166 83t-168 364v43q0 21 12 41t30 29l60 -29l66 41zM300 746q50 0 84 -31t42 -78q31 -10 55 -31.5t37 -50.5l-62 -38l-72 42l-66 -42l-68 36q25 61 90 84q-11 25 -40 27v82zM134 414q6 -242 87 -340.5t163 -149.5
q-20 -8 -166 83t-168 364v43q0 21 11 41t31 29l54 -27q-12 -20 -12 -43zM152 517l-70 36q26 61 92 84q-12 25 -40 27v82q50 0 82 -31v-51q29 -2 40 -27q-29 -10 -56 -37.5t-48 -82.5z" />
    <glyph glyph-name="chili-mild" unicode="&#xfcb2;" horiz-adv-x="601" arabic-form="initial" 
d="M372 455l52 31q19 -10 31 -29.5t11 -42.5v-490q-19 -8 -165 83t-167 364v43q0 21 11 41t29 29l62 -29l64 41zM216 746q50 0 84.5 -31t41.5 -78q31 -10 55 -31.5t39 -50.5l-64 -38l-72 42l-64 -42l-70 36q26 61 90 84q-11 25 -40 27v82z" />
    <glyph glyph-name="cloud-braces" unicode="&#xfcb3;" horiz-adv-x="1000" arabic-form="initial" 
d="M250 1q-105 4 -176.5 74.5t-73.5 175.5q2 100 64.5 168t158.5 80q41 76 113 122t164 48q115 -2 199 -71.5t108 -178.5q82 -8 136.5 -66.5t56.5 -142.5q-2 -88 -60.5 -147.5t-148.5 -61.5h-541zM771 335h-21q-18 0 -29.5 11.5t-11.5 29.5v43q-2 35 -25.5 58.5t-58.5 23.5
h-63v-82h63v-43q0 -35 24.5 -58.5t59.5 -23.5q-35 -2 -59.5 -25.5t-24.5 -58.5v-41h-63v-84h63q35 0 58.5 24.5t25.5 59.5v41q0 18 11.5 29.5t29.5 11.5h21v84zM229 335v-84h21q18 0 29.5 -11.5t11.5 -29.5v-41q2 -35 25.5 -59.5t58.5 -24.5h63v84h-63v41q0 35 -24.5 58.5
t-59.5 25.5q35 0 59.5 23.5t24.5 58.5v43h63v82h-63q-35 0 -58.5 -23.5t-25.5 -58.5v-43q0 -18 -11.5 -29.5t-29.5 -11.5h-21z" />
    <glyph glyph-name="cloud-tags" unicode="&#xfcb4;" horiz-adv-x="1000" arabic-form="initial" 
d="M250 1q-105 4 -176.5 74.5t-73.5 175.5q2 100 64.5 168t158.5 80q41 76 113 122t164 48q115 -2 199 -71.5t108 -178.5q82 -8 136.5 -66.5t56.5 -142.5q-2 -88 -60.5 -147.5t-148.5 -61.5h-541zM379 485l-191 -191l191 -191l59 58l-133 133l133 133zM621 485l-59 -58
l133 -133l-133 -133l59 -58l191 191z" />
    <glyph glyph-name="console-line" unicode="&#xfcb5;" horiz-adv-x="771" arabic-form="initial" 
d="M437 85v125h334v-125h-334zM250 335l-250 250h175l207 -207q18 -20 18 -45t-18 -43l-205 -205h-177z" />
    <glyph glyph-name="corn" unicode="&#xfcb6;" horiz-adv-x="832" arabic-form="initial" 
d="M375 335h-92q51 -31 92 -70v70zM207 376q12 164 68.5 268.5t140.5 106.5q84 -2 141.5 -108.5t67.5 -270.5q94 45 207 47q-158 -102 -200 -290.5t-216 -209.5q-166 21 -209 209.5t-207 290.5q113 -2 207 -43zM375 376v84h-115l-10 -84h125zM375 501v84h-82
q-16 -37 -25 -84h107zM375 626v72q-35 -21 -63 -72h63zM416 710v-84h41v-41h-41v-84h84v-41h-84v-84h125v-41h-125v-84h84v-41h-74q37 -45 59.5 -91t26.5 -85q33 53 51.5 133t18.5 178q-4 152 -51 256.5t-115 108.5z" />
    <glyph glyph-name="currency-chf" unicode="&#xfcb7;" horiz-adv-x="601" arabic-form="initial" 
d="M112 710h459v-84h-375v-250h334v-82h-334v-125h84v-84h-84v-125h-84v125h-82v84h82v541z" />
    <glyph glyph-name="currency-cny" unicode="&#xfcb8;" horiz-adv-x="601" arabic-form="initial" 
d="M260 -40v209h-210v82h210v14l-36 70h-174v84h134l-144 291h94l166 -342l166 342h94l-142 -291h132v-84h-174l-34 -70v-14h208v-82h-208v-209h-82z" />
    <glyph glyph-name="currency-eth" unicode="&#xfcb9;" horiz-adv-x="601" arabic-form="initial" 
d="M300 763l-260 -438l260 -156l260 156zM40 272l260 -365l260 365l-260 -156z" />
    <glyph glyph-name="currency-jpy" unicode="&#xfcba;" horiz-adv-x="601" arabic-form="initial" 
d="M260 -40v209h-210v82h210v14l-36 70h-174v84h134l-144 291h94l166 -342l166 342h94l-142 -291h132v-84h-174l-34 -70v-14h208v-82h-208v-209h-82z" />
    <glyph glyph-name="currency-krw" unicode="&#xfcbb;" horiz-adv-x="832" arabic-form="initial" 
d="M0 710h82l57 -250h166l56 250h110l56 -250h166l57 250h82l-55 -250h55v-84h-74l-18 -82h92v-84h-111l-55 -250h-111l-55 250h-168l-55 -250h-111l-55 250h-111v84h92l-18 82h-74v84h55zM463 376h-94l-17 -82h128zM221 85l29 125h-57zM287 376h-131l20 -82h92zM611 85
l28 125h-57zM676 376h-131l19 -82h92zM416 585l-27 -125h54z" />
    <glyph glyph-name="currency-sign" unicode="&#xfcbc;" horiz-adv-x="840" arabic-form="initial" 
d="M836 334q0 66 -21.5 129.5t-60.5 118.5l82 82l-86 90l-82 -84q-115 80 -248 80t-248 -82l-82 82l-90 -86l84 -82q-80 -115 -80 -248t82 -248l-82 -82l88 -88l84 82q113 -80 247 -80t247 80l84 -82l86 88l-82 82q39 55 58.5 118.5t19.5 129.5zM420 43q-125 2 -207 84
t-84 207q2 125 84 207t207 84q125 -2 207 -84t84 -207q-2 -125 -84 -207t-207 -84z" />
    <glyph glyph-name="currency-twd" unicode="&#xfcbd;" horiz-adv-x="750" arabic-form="initial" 
d="M0 376h750v-82h-250v-250h250v-84h-250q-35 0 -58.5 24.5t-25.5 59.5v250h-109l-194 -334l-72 41l170 293h-211v82zM84 710h582v-84h-582v84z" />
    <glyph glyph-name="desktop-classic" unicode="&#xfcbe;" horiz-adv-x="832" arabic-form="initial" 
d="M166 751q-35 0 -58.5 -23.5t-25.5 -58.5v-334q2 -35 25.5 -58.5t58.5 -25.5h500q35 2 58.5 25.5t25.5 58.5v334q-2 35 -25.5 58.5t-58.5 23.5h-500zM166 669h500v-334h-500v334zM82 210q-35 0 -58.5 -23.5t-23.5 -60.5v-125q0 -35 23.5 -58.5t58.5 -23.5h668
q35 0 58.5 23.5t23.5 58.5v125q0 37 -23.5 60.5t-58.5 23.5h-668zM250 126h500v-125h-500v125zM291 95v-63h166v63h-166zM541 95v-63h166v63h-166z" />
    <glyph glyph-name="dip-switch" unicode="&#xfcbf;" horiz-adv-x="832" arabic-form="initial" 
d="M41 669h166q18 -2 29.5 -13.5t13.5 -29.5v-582q-2 -18 -13.5 -29.5t-29.5 -13.5h-166q-18 2 -29.5 13.5t-11.5 29.5v582q0 18 11.5 29.5t29.5 13.5zM332 669h168q18 -2 29.5 -13.5t11.5 -29.5v-582q0 -18 -11.5 -29.5t-29.5 -13.5h-168q-18 2 -29.5 13.5t-11.5 29.5v582
q0 18 11.5 29.5t29.5 13.5zM625 669h166q18 -2 29.5 -13.5t11.5 -29.5v-582q0 -18 -11.5 -29.5t-29.5 -13.5h-166q-18 2 -29.5 13.5t-13.5 29.5v582q2 18 13.5 29.5t29.5 13.5zM82 85h84v209h-84v-209zM375 376h82v209h-82v-209zM666 85h84v209h-84v-209z" />
    <glyph glyph-name="donkey" unicode="&#xfcc0;" horiz-adv-x="798" arabic-form="initial" 
d="M788 413l-2 4l-137 137v41q-2 20 -21 21q-8 0 -16 -7l-152 -139h-270q-45 -2 -70 -39l-112 -111q-10 -14 -7.5 -30.5t17.5 -28.5q23 -16 47 0l43 39v-246h125v166h207v-166h125v215q2 35 25 58l59 59l84 -41q10 -6 20 -6q20 2 32 14.5t12.5 30t-9.5 29.5z" />
    <glyph glyph-name="dots-horizontal-circle" unicode="&#xfcc1;" horiz-adv-x="832" arabic-form="initial" 
d="M416 751q178 -4 295 -121t121 -295q-4 -178 -121 -295t-295 -121q-178 4 -295 121t-121 295q4 178 121 295t295 121zM416 398q-27 0 -44.5 -18t-17.5 -45t17.5 -45t44.5 -18t44.5 18t17.5 45t-17.5 45t-44.5 18zM187 398q-27 0 -44.5 -18t-17.5 -45t17.5 -45t44 -18
t44 18t17.5 45t-18 45t-43 18zM645 398q-25 0 -43 -18t-18 -45t17.5 -45t44 -18t44 18t17.5 45t-17.5 45t-44.5 18z" />
    <glyph glyph-name="dots-vertical-circle" unicode="&#xfcc2;" horiz-adv-x="832" arabic-form="initial" 
d="M0 335q4 178 121 295t295 121q178 -4 295 -121t121 -295q-4 -178 -121 -295t-295 -121q-178 4 -295 121t-121 295zM354 335q0 -27 17.5 -45t44.5 -18t44.5 18t17.5 45t-17.5 45t-44.5 18t-44.5 -18t-17.5 -45zM354 106q0 -27 17.5 -44.5t44.5 -17.5t44.5 17.5t17.5 44
t-17.5 44t-44.5 17.5t-44.5 -18t-17.5 -43zM354 564q0 -25 17.5 -43t44.5 -18t44.5 17.5t17.5 44t-17.5 44t-44.5 17.5t-44.5 -17.5t-17.5 -44.5z" />
    <glyph glyph-name="ear-hearing" unicode="&#xfcc3;" horiz-adv-x="750" arabic-form="initial" 
d="M584 -16q-20 0 -33 8q-21 11 -38 32t-33.5 67.5t-43 74t-55.5 48.5q-25 20 -49.5 44t-48.5 62q-33 62 -33 124q2 90 60.5 148t148.5 58t147.5 -58t59.5 -148h84q-2 124 -84 206.5t-207 83.5q-127 -1 -208 -83.5t-85 -206.5q2 -83 45 -162q29 -52 60.5 -82t57.5 -49
t44 -38.5t27 -48.5q20 -56 46.5 -91t69.5 -57q31 -13 68 -14q70 2 117 49t49 117h-84q0 -34 -23.5 -58t-58.5 -26zM193 710l-58 58q-62 -62 -98.5 -145t-36.5 -179t36 -179t99 -145l58 58q-53 50 -81 119t-28 147t29 146.5t80 119.5zM354 444q2 -46 31 -75.5t73 -29t73.5 30
t29.5 74t-29.5 74.5t-73.5 30t-73 -30t-31 -74z" />
    <glyph glyph-name="elephant" unicode="&#xfcc4;" horiz-adv-x="832" arabic-form="initial" 
d="M728 189q-2 -18 -20.5 -18t-20.5 18v292q-4 61 -53.5 103t-113.5 42h-354q-70 -2 -117 -49t-49 -117v-416h166v166h209v-166h166v187q2 18 20.5 18t20.5 -18v-62q2 -55 37 -90t89 -35t89 35t35 90v82h-104v-62z" />
    <glyph glyph-name="eventbrite" unicode="&#xfcc5;" horiz-adv-x="832" arabic-form="initial" 
d="M832 576q0 43 -24.5 76.5t-63.5 48.5q-64 12 -320 30.5t-305 20.5q-55 -6 -90 -49q-29 -37 -29 -84v-562q0 -33 13.5 -62.5t41.5 -49.5q35 -27 80 -26t277 21l289 23q53 4 92 40t39 89v484zM650 523q-4 -8 -7 -17q-10 -25 -38 -24h-117q-74 0 -101 2q-10 0 -12 -9
q-8 -43 -18 -88h161h13q18 -4 24.5 -12t5 -26.5t-12.5 -36t-32 -17.5h-170q-8 2 -10 -8l-20 -94v-5h223q25 2 35 -24q6 -21 -3.5 -40.5t-29.5 -31.5q-10 -2 -21 -4l-274 -4q-21 -2 -39 10q-20 18 -16 43q8 37 39.5 188.5t42.5 205.5q2 25 21.5 41t45.5 14l140 -2l133 -4
q49 -2 37 -57z" />
    <glyph glyph-name="food-croissant" unicode="&#xfcc6;" horiz-adv-x="832" arabic-form="initial" 
d="M832 64l-125 82l125 84v-166zM541 230l166 250l125 -166l-166 -124zM125 146l-125 -82v166zM291 230l-125 -40l-166 124l125 166zM500 606l166 -84l-209 -292h-82l-209 292l166 84h168z" />
    <glyph glyph-name="forklift" unicode="&#xfcc7;" horiz-adv-x="832" arabic-form="initial" 
d="M166 668v-293h-84q-35 0 -58.5 -23.5t-23.5 -58.5v-168q0 -53 35 -88t89 -35t89 35t37 88h82q2 -53 37 -88t89 -35t89 35t35 88v168l-166 375h-250zM625 625v-582h207v62h-145v520h-62zM228 605h155l137 -312h-292v312zM125 188q25 0 43 -18t18 -44t-18 -44t-44 -18
t-44 18t-18 44t18 44t45 18zM457 188q27 0 45 -18t18 -44t-18 -44t-44 -18t-44 18t-18 44t18 44t43 18z" />
    <glyph glyph-name="fuel" unicode="&#xfcc8;" horiz-adv-x="709" arabic-form="initial" 
d="M0 730h125q18 0 29 -12l88 -86l33 32q25 26 59 26h250q31 0 59 -26l41 -40q25 -28 25 -60v-540q-2 -35 -25.5 -59.5t-58.5 -24.5h-416q-35 0 -59.5 24t-24.5 60v456q0 34 25 60l32 32l-75 76h-107v82zM334 606v-82h250v82h-250zM350 356l-82 84h-59v-60l82 -84v-132
l-82 -82v-58h59l82 82h132l84 -82h59v58l-84 82v132l84 84v60h-59l-84 -84h-132zM375 274h84v-84h-84v84z" />
    <glyph glyph-name="gesture" unicode="&#xfcc9;" horiz-adv-x="756" arabic-form="initial" 
d="M72 548q21 23 41 39t30 12q16 -8 8 -27.5t-21 -37t-62 -99.5q-50 -83 -56 -163q1 -82 57 -124q23 -18 51.5 -23t57.5 5q33 10 63.5 40t63.5 75q39 49 85 94t85 49q49 -2 60.5 -25.5t11.5 -48.5q-115 -25 -169 -95.5t-53 -127.5t38.5 -93t94 -38t118 53.5t78.5 202.5h102
v103h-104q-2 57 -39 113.5t-128 60.5q-70 -2 -125 -43t-81 -74q-20 -25 -52 -64l-43 -49q-8 -10 -20.5 -22.5t-26.5 -12.5t-20 22t6 58.5t36.5 79.5t39.5 66q25 35 40 65.5t15 71.5q-4 66 -39 93.5t-66 25.5q-41 -2 -72.5 -21.5t-41.5 -31.5q-21 -21 -35 -39zM459 62
q-10 0 -19.5 7.5t-11.5 23.5q0 21 27.5 57.5t91.5 57.5q-10 -84 -37.5 -115t-50.5 -31z" />
    <glyph glyph-name="google-analytics" unicode="&#xfcca;" horiz-adv-x="750" arabic-form="initial" 
d="M666 710q35 0 59.5 -24.5t24.5 -59.5v-582q0 -35 -24.5 -59.5t-59.5 -24.5h-166v666q0 35 24.5 59.5t59.5 24.5h82zM84 -40q-35 0 -59.5 24.5t-24.5 59.5v82q0 35 24.5 59.5t59.5 24.5h166v166q0 35 24.5 59.5t59.5 24.5h145v-500h-395z" />
    <glyph glyph-name="google-assistant" unicode="&#xfccb;" horiz-adv-x="832" arabic-form="initial" 
d="M250 730q105 -1 175.5 -73t74.5 -177q-4 -104 -74.5 -176t-175.5 -74q-107 2 -177.5 74t-72.5 176q2 106 72.5 177.5t177.5 72.5zM791 522q18 0 29.5 -12t11.5 -30t-11.5 -29.5t-29.5 -11t-29.5 12t-11.5 29t11.5 29.5t29.5 12zM645 440q45 -2 74 -32t29 -73t-29.5 -73
t-73 -30t-73 30t-29.5 73t29.5 73t72.5 32zM645 190q55 -2 90 -37t35 -89t-35.5 -89t-89 -35t-89 34.5t-35.5 89t35.5 89t88.5 37.5z" />
    <glyph glyph-name="headphones-off" unicode="&#xfccc;" horiz-adv-x="813" arabic-form="initial" 
d="M375 783q-160 -4 -265.5 -110.5t-109.5 -264.5v-293q0 -39 21 -68l229 228v49h-166v84q2 123 84 205t207 86q62 0 116 -23.5t95 -66.5l59 61q-53 53 -121.5 82t-148.5 31zM760 678l-739 -739l53 -52l104 103h72v72l250 250v-322h125q53 2 88 37t37 88v293q0 68 -23 131
l86 86zM660 472q6 -31 6 -64v-84h-154z" />
    <glyph glyph-name="high-definition" unicode="&#xfccd;" horiz-adv-x="601" arabic-form="initial" 
d="M10 544h82v-168h84v168h84v-418h-84v168h-84v-168h-82v418zM342 544h124q56 -2 90.5 -37t35.5 -88v-168q0 -53 -35 -88t-91 -37h-124v418zM466 210q18 0 30 11.5t14 29.5v168q-2 18 -14 29.5t-30 11.5h-40v-250h40z" />
    <glyph glyph-name="home-assistant" unicode="&#xfcce;" horiz-adv-x="881" arabic-form="initial" 
d="M847 280h-74v-334h-293v140l117 116l30 -6q37 0 61 26t24 63t-24 61t-61.5 24t-61.5 -24t-26 -62l4 -28l-63 -66v230q21 12 34 31.5t13 46.5q-2 37 -26.5 61t-61.5 24.5t-61.5 -24t-26.5 -61.5q0 -26 13 -47t34 -31v-230l-63 66l4 28q-2 38 -26 62t-61.5 24t-61.5 -24
t-24 -61.5t24 -62.5q23 -26 61 -26l30 6l117 -116v-140h-293v334h-72q-14 0 -23.5 1.5t-9.5 8.5t9.5 18.5t25.5 25.5l363 362q10 12 20.5 20t20.5 8t20.5 -8t20.5 -20l168 -166v42h82v-126l117 -114l24 -26q10 -12 9.5 -18t-10 -7t-23.5 -1zM251 322q16 0 27 -11t11 -27
t-11 -26t-26.5 -10t-26.5 10t-11 26.5t10.5 27t26.5 10.5zM627 322q16 0 26.5 -11t10.5 -27t-11 -26t-26.5 -10t-26.5 10t-11 26.5t11 27t27 10.5zM439 534q16 0 26.5 -10.5t10.5 -27t-10.5 -26t-26.5 -10t-26.5 9t-10.5 26t10.5 27.5t26.5 11z" />
    <glyph glyph-name="home-automation" unicode="&#xfccf;" horiz-adv-x="832" arabic-form="initial" 
d="M416 690l-416 -376h125v-334h582v334h125zM416 460q74 -1 137.5 -27t112.5 -73l-51 -52q-37 40 -88.5 61t-110.5 21t-110.5 -21t-88.5 -61l-51 52q49 46 112.5 72t137.5 28zM416 322q45 -1 83 -16.5t67 -45.5l-50 -50q-39 40 -100 40t-100 -40l-50 50q29 28 67 44.5
t83 17.5zM416 182q29 0 49.5 -20t20.5 -48.5t-20.5 -48.5t-49.5 -20.5t-49.5 19.5t-20.5 49t20.5 49t49.5 20z" />
    <glyph glyph-name="home-circle" unicode="&#xfcd0;" horiz-adv-x="836" arabic-form="initial" 
d="M713 630q-59 61 -135 92t-160 31t-160 -31.5t-135.5 -91t-91 -135.5t-31.5 -160t31.5 -160t91 -135.5t135.5 -91t160 -31.5t160 31.5t135.5 91t91 135.5t31.5 160t-31 160t-92 135zM627 335v-250h-147v209h-124v-209h-147v250h-82l291 291l312 -291h-103z" />
    <glyph glyph-name="language-go" unicode="&#xfcd1;" horiz-adv-x="669" arabic-form="initial" 
d="M391 683q16 0 26.5 -10t10.5 -25.5t-11 -26.5t-26.5 -11t-25.5 11t-10 26.5t10 25.5t26 10zM184 673q16 0 25.5 -11t9.5 -26.5t-10 -25.5t-25.5 -10t-26.5 10t-11 25.5t11 26.5t27 11zM574 745q25 0 43 -17.5t18 -43t-14 -42t-37 -22.5l-4 -6q29 -92 28 -175t-3 -89
q25 -16 47 -31t16 -31q-12 -14 -35.5 -8t-25.5 8q8 -213 -20 -271.5t-34 -52.5q4 -2 19 -28q14 -26 2 -44q-20 -12 -45 7.5t-29 23.5q-4 -2 -65.5 -20.5t-121.5 -20.5q-57 2 -100 20.5t-45 20.5q-25 -23 -49.5 -34t-34.5 3q-4 18 12.5 44t18.5 28q-64 49 -61 182.5t9 151.5
q-10 -10 -31.5 -21t-31.5 11q-2 23 28.5 37t34.5 14q-12 113 -9 178.5t10 94.5q-21 4 -33.5 20.5t-12.5 42t17.5 43t42.5 17.5q16 0 29 -6q35 25 93 41t128 18q66 -2 121 -15.5t92 -37.5q13 10 33 10zM428 735q-35 0 -58.5 -24.5t-23.5 -59.5t23.5 -58.5t58.5 -23.5
t58.5 23.5t23.5 58.5t-23.5 59.5t-58.5 24.5zM219 725q-35 -2 -58.5 -25t-23.5 -58.5t23.5 -59t58.5 -23.5t59.5 23.5t24.5 59t-24.5 58.5t-59.5 25zM328 526q-20 0 -32.5 -5.5t-12.5 -15.5t20 -16v-25q0 -10 10 -10h31q10 0 11 10v25q20 6 20 16t-13 15.5t-34 5.5z" />
    <glyph glyph-name="language-r" unicode="&#xfcd2;" horiz-adv-x="832" arabic-form="initial" 
d="M416 655q-176 -2 -294 -81t-122 -198q2 -104 97.5 -179t244.5 -94v-88h142v88q53 6 100 19l59 -107h160l-98 162q61 39 94 89.5t33 109.5q-4 119 -122 198t-294 81zM480 548q133 0 217 -47t86 -145q0 -55 -26.5 -91.5t-72.5 -60.5q-6 2 -10 6q-12 6 -26 10l-13 4
q8 -2 61.5 20.5t61.5 111.5q-8 90 -64.5 110.5t-64.5 16.5h-287v-298q-80 23 -129 68t-49 103q2 80 91.5 135t224.5 57zM486 382h86q2 0 19.5 -5t19.5 -34q-2 -29 -19.5 -36t-19.5 -5h-86v80zM484 198h39q10 0 18 -7.5t16 -19.5q-33 -6 -73 -6v33z" />
    <glyph glyph-name="lava-lamp" unicode="&#xfcd3;" horiz-adv-x="601" arabic-form="initial" 
d="M216 710l-82 -541h332l-82 541h-168zM280 595q13 0 22 -9t8.5 -21.5t-9.5 -21.5t-21 -9t-21 9t-9 21.5t9 21.5t21 9zM322 481q18 -2 29.5 -13.5t11 -29t-12 -29t-29 -11.5t-29.5 11.5t-12 29t12 29t30 13.5zM280 335q26 0 44 -17.5t18 -45t-18 -45t-44.5 -17.5t-44 17.5
t-17.5 45t18 45t44 17.5zM134 126l82 -82l-82 -84h332l-82 84l82 82h-332z" />
    <glyph glyph-name="led-strip" unicode="&#xfcd4;" horiz-adv-x="766" arabic-form="initial" 
d="M0 483l500 -502l31 30l59 -59l59 59l-59 58l59 59l58 -59l59 59l-59 59l30 31l-502 500zM117 483l118 118l384 -383l-119 -119zM176 483l59 -60l60 60l-60 59zM266 394l58 -59l59 59l-59 58zM354 306l58 -59l59 59l-59 58zM442 218l58 -59l59 59l-59 58z" />
    <glyph glyph-name="locker" unicode="&#xfcd5;" horiz-adv-x="601" arabic-form="initial" 
d="M134 751h332q35 0 59.5 -23.5t24.5 -58.5v-668q0 -35 -24 -58.5t-60 -23.5h-332q-34 0 -58.5 23.5t-25.5 58.5v668q0 35 24.5 58.5t59.5 23.5zM134 669v-668h332v668h-332zM216 294h84v-168h-84v168zM216 585h168v-63h-168v63zM216 460h168v-62h-168v62z" />
    <glyph glyph-name="locker-multiple" unicode="&#xfcd6;" horiz-adv-x="918" arabic-form="initial" 
d="M84 751h750q35 0 58.5 -23.5t25.5 -58.5v-668q-2 -35 -25.5 -58.5t-58.5 -23.5h-750q-35 0 -58.5 23.5t-25.5 58.5v668q2 35 25.5 58.5t58.5 23.5zM500 669v-668h334v668h-334zM84 669v-668h334v668h-334zM168 294h82v-168h-82v168zM168 585h166v-63h-166v63zM168 460
h166v-62h-166v62zM584 294h84v-168h-84v168zM584 585h166v-63h-166v63zM584 460h166v-62h-166v62z" />
    <glyph glyph-name="map-marker-outline" unicode="&#xfcd7;" horiz-adv-x="601" arabic-form="initial" 
d="M301 564q45 0 74.5 -29.5t29 -74.5t-30 -74.5t-74 -29.5t-74.5 29.5t-30 74.5t30 74.5t75 29.5zM300 751q125 -2 207.5 -84t84.5 -207q-18 -178 -146 -352.5t-146 -188.5q-18 14 -145 188.5t-145 352.5q1 125 83.5 207t206.5 84zM300 669q-88 -2 -147.5 -61.5
t-60.5 -147.5q-6 -27 26.5 -113t181.5 -291q150 205 183 291t27 113q-2 88 -62 147.5t-148 61.5z" />
    <glyph glyph-name="metronome" unicode="&#xfcd8;" horiz-adv-x="717" arabic-form="initial" 
d="M334 757l-143 -39l-187 -703q-4 -8 -4 -20q2 -35 25.5 -58.5t58.5 -23.5h500q35 0 58.5 23.5t25.5 58.5q0 12 -4 20l-57 212l-64 -64l8 -43h-158l119 119l-59 59l-178 -178h-158l147 543h140l63 -227l66 69l-56 213zM303 620v-406l62 62v344h-62zM658 505l-117 -119
l-29 29l-59 -59l117 -117l59 59l-29 29l117 119z" />
    <glyph glyph-name="metronome-tick" unicode="&#xfcd9;" horiz-adv-x="668" arabic-form="initial" 
d="M334 757l-143 -39l-189 -709l-2 -14q2 -35 25.5 -58.5t58.5 -23.5h500q35 0 58.5 23.5t25.5 58.5l-2 14l-189 709zM264 663h140l147 -543h-176v209h-82v-209h-176zM293 620v-166h-43v-84h168v84h-43v166h-82z" />
    <glyph glyph-name="micro-sd" unicode="&#xfcda;" horiz-adv-x="668" arabic-form="initial" 
d="M168 751q-35 0 -59.5 -23.5t-24.5 -58.5v-293l-84 -82v-293q2 -35 25.5 -58.5t58.5 -23.5h500q35 0 58.5 23.5t25.5 58.5v668q-2 35 -25.5 58.5t-58.5 23.5h-416zM209 669h84v-168h-84v168zM334 669h84v-168h-84v168zM459 669h84v-168h-84v168z" />
    <glyph glyph-name="mixer" unicode="&#xfcdb;" horiz-adv-x="832" arabic-form="initial" 
d="M152 671l239 -322q10 -12 0 -26l-246 -330q-23 -25 -57.5 -26t-60 22.5t-27.5 55.5t18 61l171 231l-171 228q-20 27 -18 60.5t27 57.5l6 4q29 21 63.5 16t55.5 -32zM680 671q21 27 55.5 32t63.5 -16l6 -4q25 -23 27 -56.5t-18 -61.5l-171 -228l171 -231q20 -29 18 -61
t-27.5 -55.5t-59.5 -22.5t-58 26l-246 330q-10 14 0 26z" />
    <glyph glyph-name="movie-roll" unicode="&#xfcdc;" horiz-adv-x="832" arabic-form="initial" 
d="M416 751q178 -4 295 -121t121 -295q-4 -178 -121 -295t-295 -121q-178 4 -295 121t-121 295q4 178 121 295t295 121zM416 669q-45 -2 -74.5 -31.5t-29.5 -73t29.5 -73t74.5 -29.5t74.5 29.5t29.5 73t-29.5 73t-74.5 31.5zM100 439q-14 -43 5.5 -80.5t61.5 -51t79 5
t51 61.5t-6 79t-62 50t-78.5 -4.5t-50.5 -59.5zM732 439q-14 41 -50.5 59.5t-78.5 5.5t-62 -50t-6 -79t51 -61.5t79 -6t61.5 51t5.5 80.5zM221 65q37 -25 78 -18t66.5 43t19.5 77t-42 66.5t-77 19.5t-67.5 -42t-19.5 -77.5t42 -68.5zM611 65q35 27 42 68.5t-19.5 77.5
t-67.5 42t-76 -19.5t-42 -66.5t18.5 -77t67.5 -43t77 18zM416 398q-27 0 -44.5 -18t-17.5 -45t17.5 -45t44.5 -18t44.5 18t17.5 45t-17.5 45t-44.5 18z" />
    <glyph glyph-name="mushroom" unicode="&#xfcdd;" horiz-adv-x="832" arabic-form="initial" 
d="M416 751q178 -4 295 -121t121 -295q0 -35 -23.5 -58.5t-58.5 -25.5h-668q-35 2 -58.5 25.5t-23.5 58.5q4 178 121 295t295 121zM416 501q35 2 58.5 25.5t23.5 58.5t-23.5 58.5t-58.5 23.5t-58.5 -23.5t-23.5 -58.5t23.5 -58.5t58.5 -25.5zM625 335q35 0 58.5 24.5
t23.5 59.5t-23.5 58.5t-58.5 23.5t-59.5 -23.5t-24.5 -58.5t24.5 -59.5t59.5 -24.5zM207 335q35 0 59.5 24.5t24.5 59.5t-24.5 58.5t-59.5 23.5t-58.5 -23.5t-23.5 -58.5t23.5 -59.5t58.5 -24.5zM541 210l53 -186l4 -23q-2 -35 -25.5 -58.5t-58.5 -23.5h-196
q-35 0 -58.5 23.5t-25.5 58.5l4 23l53 186h250z" />
    <glyph glyph-name="mushroom-outline" unicode="&#xfcde;" horiz-adv-x="832" arabic-form="initial" 
d="M82 335h668q-2 119 -71.5 206t-178.5 116q-6 -31 -29.5 -51.5t-54.5 -20.5t-54.5 20.5t-29.5 51.5q-109 -29 -178.5 -116t-71.5 -206zM416 751q178 -4 295 -121t121 -295q0 -35 -23.5 -58.5t-58.5 -25.5h-668q-35 2 -58.5 25.5t-23.5 58.5q4 178 121 295t295 121z
M478 126h-124l-36 -125h196zM541 210l41 -146l12 -40l4 -23q-2 -35 -25.5 -58.5t-58.5 -23.5h-196l-19 2q-35 10 -52 38q-17 27 -9 63l53 188h250zM582 544q35 -2 59.5 -25.5t24.5 -58.5t-24.5 -58.5t-59.5 -23.5t-58.5 23.5t-23.5 58.5t23.5 58.5t58.5 25.5zM250 544
q35 -2 58.5 -25.5t23.5 -58.5t-23.5 -58.5t-58.5 -23.5t-59.5 23.5t-24.5 58.5t24.5 58.5t59.5 25.5z" />
    <glyph glyph-name="nintendo-switch" unicode="&#xfcdf;" horiz-adv-x="832" arabic-form="medial" 
d="M334 -15h-121q-61 2 -103 44t-44 103v406q2 61 44 103t103 44h121v-700zM213 751q-92 -2 -151.5 -61.5t-61.5 -151.5v-406q2 -92 61.5 -151.5t151.5 -61.5h189v832h-189zM129 501q0 -33 22.5 -54.5t55.5 -21.5t55.5 21.5t22.5 54.5t-22.5 55.5t-55.5 22.5t-55.5 -22.5
t-22.5 -55.5zM650 376q35 0 58.5 -23.5t23.5 -59.5t-23 -59.5t-59.5 -23.5t-60 23.5t-23.5 59.5t23.5 59.5t60.5 23.5zM619 -81q92 2 151.5 61.5t61.5 151.5v406q-2 92 -61.5 151.5t-151.5 61.5h-135v-832h135z" />
    <glyph glyph-name="null" unicode="&#xfce0;" horiz-adv-x="684" arabic-form="medial" 
d="M342 751q59 0 110.5 -22.5t94.5 -63.5l70 90l67 -51l-84 -105q35 -55 55.5 -121.5t20.5 -142.5q-4 -176 -97.5 -294t-236.5 -122q-59 0 -110.5 22.5t-94.5 63.5l-70 -90l-67 51l84 105q-35 55 -55.5 121.5t-20.5 142.5q4 176 97.5 294t236.5 122zM342 669
q-105 -4 -176.5 -97.5t-73.5 -236.5q2 -109 47 -193l355 457q-64 68 -152 70zM342 1q105 4 176.5 97.5t73.5 236.5q-2 109 -47 193l-355 -457q64 -68 152 -70z" />
    <glyph glyph-name="passport" unicode="&#xfce1;" horiz-adv-x="668" arabic-form="medial" 
d="M84 751q-35 0 -58.5 -23.5t-25.5 -58.5v-668q2 -35 25.5 -58.5t58.5 -23.5h500q35 0 58.5 23.5t25.5 58.5v668q-2 35 -25.5 58.5t-58.5 23.5h-500zM334 626q88 -2 147.5 -60.5t61.5 -146.5q-2 -90 -61.5 -148.5t-147.5 -60.5q-88 2 -147.5 60.5t-61.5 148.5
q2 88 61.5 146.5t147.5 60.5zM334 585q-25 -39 -39 -84h78q-12 45 -39 84zM279 575q-59 -20 -90 -74h61q11 39 29 74zM389 575q18 -35 29 -74h61q-31 53 -90 74zM172 460q-4 -20 -4 -41t4 -43h70q-2 21 -2 42t2 42h-70zM285 460q-4 -20 -4 -41t4 -43h98q2 21 2 42.5t-2 41.5
h-98zM426 460q2 -21 2 -41.5t-2 -42.5h70q4 21 4 42.5t-4 41.5h-70zM189 335q31 -53 90 -74q-18 35 -29 74h-61zM295 335q14 -45 39 -84q27 39 39 84h-78zM418 335q-12 -39 -29 -74q59 21 90 74h-61zM125 126h418v-82h-418v82z" />
    <glyph glyph-name="periodic-table-co2" unicode="&#xfce2;" horiz-adv-x="729" arabic-form="medial" 
d="M84 564q-35 -1 -59.5 -25t-24.5 -59v-250q0 -34 24.5 -58t59.5 -26h125v84h-125v250h125v84h-125zM334 564q-35 -1 -59.5 -25t-24.5 -59v-250q0 -34 24.5 -58t59.5 -26h82q35 2 59.5 26t24.5 58v250q0 35 -24.5 59t-59.5 25h-82zM334 480h82v-250h-82v250zM541 418v-62
h125v-64h-62q-25 0 -43 -17.5t-20 -44.5v-124h188v62h-125v62h62q27 0 45 18q18 16 18 44v64q0 26 -18 44t-45 18h-125z" />
    <glyph glyph-name="pipe" unicode="&#xfce3;" horiz-adv-x="832" arabic-form="medial" 
d="M832 251h-82v-82h-250v125h82v82h-82v209q-2 35 -25.5 58.5t-58.5 25.5h-334v82h-82v-332h82v82h250v-125h-82v-82h82v-209q2 -35 25.5 -58.5t58.5 -25.5h334v-82h82v332z" />
    <glyph glyph-name="pipe-disconnected" unicode="&#xfce4;" horiz-adv-x="832" arabic-form="medial" 
d="M582 460v-84h-332v84h82v41h-250v-82h-82v332h82v-82h334q35 -2 58.5 -25.5t25.5 -58.5v-125h82zM332 210v-125q2 -35 25.5 -58.5t58.5 -25.5h334v-82h82v332h-82v-82h-250v41h82v84h-332v-84h82z" />
    <glyph glyph-name="power-socket-eu" unicode="&#xfce5;" horiz-adv-x="832" arabic-form="medial" 
d="M228 398q27 0 45 -18t18 -45t-17.5 -45t-45 -18t-45 18t-17.5 45t17.5 45t44.5 18zM604 398q27 0 44.5 -18t17.5 -45t-17.5 -45t-45 -18t-45 18t-17.5 45t18 45t45 18zM92 751h648q39 0 65.5 -26.5t26.5 -65.5v-648q0 -39 -26.5 -65.5t-65.5 -26.5h-648q-39 0 -65.5 26.5
t-26.5 65.5v648q0 39 26.5 65.5t65.5 26.5zM416 669q-143 -4 -236.5 -97.5t-97.5 -236.5q4 -143 97.5 -236.5t236.5 -97.5q143 4 236.5 97.5t97.5 236.5q-4 143 -97.5 236.5t-236.5 97.5z" />
    <glyph glyph-name="power-socket-uk" unicode="&#xfce6;" horiz-adv-x="832" arabic-form="medial" 
d="M520 263h146v-94h-146v94zM166 263h146v-94h-146v94zM375 585h82v-166h-82v166zM92 751q-39 0 -65.5 -26.5t-26.5 -65.5v-648q0 -39 26.5 -65.5t65.5 -26.5h648q39 0 65.5 26.5t26.5 65.5v648q0 39 -26.5 65.5t-65.5 26.5h-648zM416 669q143 -4 236.5 -97.5t97.5 -236.5
q-4 -143 -97.5 -236.5t-236.5 -97.5q-143 4 -236.5 97.5t-97.5 236.5q4 143 97.5 236.5t236.5 97.5z" />
    <glyph glyph-name="power-socket-us" unicode="&#xfce7;" horiz-adv-x="832" arabic-form="medial" 
d="M250 544h82v-209h-82v209zM92 751h648q39 0 65.5 -26.5t26.5 -65.5v-648q0 -39 -26.5 -65.5t-65.5 -26.5h-648q-39 0 -65.5 26.5t-26.5 65.5v648q0 39 26.5 65.5t65.5 26.5zM416 669q-143 -4 -236.5 -97.5t-97.5 -236.5q4 -143 97.5 -236.5t236.5 -97.5q143 4 236.5 97.5
t97.5 236.5q-4 143 -97.5 236.5t-236.5 97.5zM500 522h82v-166h-82v166zM354 157q0 27 17.5 45t44.5 18t44.5 -17.5t17.5 -45.5v-31h-124v31z" />
    <glyph glyph-name="rice" unicode="&#xfce8;" horiz-adv-x="832" arabic-form="medial" 
d="M832 366h-96q-10 34 -25.5 67t-36.5 57l142 228l-70 44l-135 -212q-12 10 -23.5 16t-25.5 12l38 150l-80 22l-34 -142q-35 8 -70 8q-117 -2 -204 -71.5t-116 -178.5h-96q2 -130 70.5 -230t179.5 -154v-74h332v74q111 53 179.5 153.5t70.5 230.5zM416 534
q82 -2 144.5 -48.5t87.5 -119.5h-464q25 73 87.5 119.5t144.5 48.5z" />
    <glyph glyph-name="ring" unicode="&#xfce9;" horiz-adv-x="668" arabic-form="medial" 
d="M334 419l-166 232l66 100h200l66 -100zM480 552l-50 -71q70 -29 111 -89.5t43 -140.5q-2 -105 -73.5 -175.5t-176.5 -74.5q-105 4 -176.5 74.5t-73.5 175.5q2 80 43 140.5t111 89.5l-50 71q-84 -41 -135 -120t-53 -181q4 -141 97.5 -235.5t236.5 -96.5q143 2 236.5 96.5
t97.5 235.5q-2 102 -53 181t-135 120z" />
    <glyph glyph-name="sass" unicode="&#xfcea;" horiz-adv-x="832" arabic-form="medial" 
d="M416 751q178 -4 295 -121t121 -295q-4 -178 -121 -295t-295 -121q-178 4 -295 121t-121 295q4 178 121 295t295 121zM332 196q10 -33 0 -62l-2 -8l-2 -4q-8 -16 -19 -29q-20 -20 -41.5 -26.5t-32 0t-6 29t28 46t47 38t25.5 14.5zM678 573q-18 57 -93 72.5t-165 -15.5
q-53 -18 -104.5 -46t-92.5 -67q-47 -45 -61 -81.5t-10 -51.5q16 -57 71 -98l91 -68q-14 -6 -59.5 -34.5t-67.5 -67.5q-16 -37 -5 -62.5t25 -29.5q43 -10 81 7t60.5 51t24.5 69.5t-10 58.5q25 8 65 4q53 -10 70.5 -33.5t14.5 -39t-11 -23.5t-14 -11.5t-5 -6.5t7 -2t21.5 12.5
t17.5 38.5q2 35 -28 63.5t-87 30.5q-47 -2 -66 -10l-2 4q-41 35 -85 69.5t-46 83.5q-4 20 24.5 63.5t141.5 104.5q100 45 167 41t83 -35q18 -45 -35 -102t-155 -72q-37 -2 -57.5 6.5t-26.5 14.5q-8 10 -9 8q-6 -6 -2 -14.5t16.5 -19.5t32 -18t60.5 -6t98 21q62 25 99.5 79.5
t25.5 111.5z" />
    <glyph glyph-name="send-secure" unicode="&#xfceb;" horiz-adv-x="916" arabic-form="medial" 
d="M875 148v20q-2 44 -31.5 73.5t-73 29t-73 -30t-31.5 -72.5v-20q-18 0 -29.5 -12t-11.5 -30v-168q0 -18 11.5 -29.5t29.5 -10.5h209q18 0 29.5 11.5t11.5 28.5v168q0 18 -11.5 30t-29.5 12zM832 148h-125v20q2 26 19.5 44t44 18t44 -18t17.5 -44v-20zM875 398l-875 -376
v292l625 84l-625 84v290z" />
    <glyph glyph-name="soy-sauce" unicode="&#xfcec;" horiz-adv-x="601" arabic-form="medial" 
d="M380 520q0 21 4 38l8 25h26l36 104h34v62h-376v-62h34l38 -104h24q12 -21 12 -63q-10 -47 -85 -169.5t-85 -249.5v-84q2 -45 74 -70.5t177 -25.5t176.5 25.5t72.5 70.5v84q-10 127 -85 249.5t-85 169.5zM300.5 208q-34.5 0 -58.5 24.5t-24 59.5t24 58.5t58.5 23.5
t58.5 -23.5t23.5 -58.5t-24 -59.5t-58 -24.5z" />
    <glyph glyph-name="standard-definition" unicode="&#xfced;" horiz-adv-x="601" arabic-form="medial" 
d="M342 544h124q56 -2 90.5 -37t35.5 -88v-168q0 -53 -35 -88t-91 -37h-124v418zM466 210q18 0 30 11.5t14 29.5v168q-2 18 -14 29.5t-30 11.5h-40v-250h40zM92 544h168v-84h-168v-84h84q34 0 58 -23.5t26 -58.5v-84q-2 -35 -26 -58.5t-58 -25.5h-166v84h166v84h-84
q-35 0 -59 23.5t-23 58.5v84q0 35 23.5 58.5t58.5 25.5z" />
    <glyph glyph-name="surround-sound-2-0" unicode="&#xfcee;" horiz-adv-x="750" arabic-form="medial" 
d="M584 544h82q35 -2 59.5 -25.5t24.5 -58.5v-250q0 -35 -24.5 -58.5t-59.5 -25.5h-82q-35 2 -59.5 25.5t-24.5 58.5v250q0 35 24.5 58.5t59.5 25.5zM584 460v-250h82v250h-82zM250 126h-250v84l166 250h-166v84h166q35 -2 59.5 -25.5t24.5 -58.5q0 -27 -14 -47l-136 -203
h150v-84zM375 126q-18 2 -29.5 13.5t-11.5 29.5t11.5 29.5t29.5 11.5t29.5 -11.5t11.5 -29.5t-11.5 -29.5t-29.5 -13.5z" />
    <glyph glyph-name="surround-sound-3-1" unicode="&#xfcef;" horiz-adv-x="668" arabic-form="medial" 
d="M375 126q-18 2 -29.5 13.5t-11.5 29.5t11.5 29.5t29.5 11.5t29.5 -11.5t11.5 -29.5t-11.5 -29.5t-29.5 -13.5zM625 544v-334h43v-84h-168v84h43v250h-43l43 84h82zM0 544h168q35 -2 58.5 -25.5t23.5 -58.5v-250q0 -35 -23.5 -58.5t-58.5 -25.5h-168v84h168v84h-125v82
h125v84h-168v84z" />
    <glyph glyph-name="surround-sound-5-1" unicode="&#xfcf0;" horiz-adv-x="668" arabic-form="medial" 
d="M375 126q-18 2 -29.5 13.5t-11.5 29.5t11.5 29.5t29.5 11.5t29.5 -11.5t11.5 -29.5t-11.5 -29.5t-29.5 -13.5zM625 544v-334h43v-84h-168v84h43v250h-43l43 84h82zM84 294q-35 0 -58.5 23.5t-25.5 58.5v168h250v-84h-166v-84h84q35 0 58.5 -23.5t23.5 -58.5v-84
q0 -35 -23.5 -58.5t-58.5 -25.5h-168v84h168v84h-84z" />
    <glyph glyph-name="surround-sound-7-1" unicode="&#xfcf1;" horiz-adv-x="601" arabic-form="medial" 
d="M300 126q-18 2 -29.5 13.5t-11 29.5t12 29.5t29 11.5t29.5 -11.5t12 -29.5t-12 -29.5t-30 -13.5zM550 544v-334h42v-84h-166v84h40v250h-40l40 84h84zM260 544l-126 -418h-84l100 334h-140v84h250z" />
    <glyph glyph-name="television-classic" unicode="&#xfcf2;" horiz-adv-x="832" arabic-form="medial" 
d="M256 710l-59 -59l108 -107h-223q-35 -2 -58.5 -25.5t-23.5 -58.5v-416q0 -37 23.5 -60.5t58.5 -23.5h668q35 0 58.5 23.5t23.5 60.5v416q0 35 -23.5 58.5t-58.5 25.5h-223l108 107l-59 59l-160 -160zM82 460h543v-416h-543v416zM728 460q18 0 30 -11.5t12 -29.5
t-12 -29.5t-29.5 -11.5t-29.5 11.5t-12 29.5t11.5 29.5t29.5 11.5zM728 335q18 0 30 -11.5t12 -29.5t-12 -29.5t-29.5 -11.5t-29.5 11.5t-12 29.5t11.5 29.5t29.5 11.5z" />
    <glyph glyph-name="textbox-password" unicode="&#xfcf3;" horiz-adv-x="832" arabic-form="medial" 
d="M625 544h207v-418h-207v-82q0 -18 11.5 -29.5t29.5 -13.5h84v-82h-105q-18 0 -39.5 11.5t-23.5 29.5q-2 -18 -22.5 -29.5t-39.5 -11.5h-104v82h84q18 2 29.5 13.5t11.5 29.5v582q0 18 -11.5 29.5t-29.5 13.5h-84v82h104q20 0 40 -11.5t22 -29.5q2 18 23.5 29.5t39.5 11.5
h105v-82h-84q-18 -2 -29.5 -13.5t-11.5 -29.5v-82zM0 544h457v-84h-375v-250h375v-84h-457v418zM750 210v250h-125v-250h125zM270 335q0 27 -18 45t-44 18t-44 -18t-18 -45t18 -45t44 -18t44 18t18 45zM457 382q-20 18 -44 16t-42.5 -22t-17 -44t20.5 -42t42 -18t41 16v94z
" />
    <glyph glyph-name="thought-bubble" unicode="&#xfcf4;" horiz-adv-x="832" arabic-form="medial" 
d="M62 64q25 -1 43 -19t18 -44.5t-17.5 -44t-44 -17t-44 18t-17.5 44t17.5 44t44.5 18.5zM270 190q45 -2 74 -32t29 -73t-29.5 -73t-73 -30t-73 30t-29.5 73t29.5 73t72.5 32zM520 230q-37 0 -69.5 15t-55.5 43q-23 -28 -54.5 -43t-70.5 -15q-62 2 -106.5 39.5t-58.5 98.5
q-47 18 -76 59.5t-29 94.5q2 72 49 118.5t117 49.5q16 0 31 -4q47 43 115 44q37 0 69.5 -14.5t55.5 -41.5q23 26 54.5 41t70.5 15q62 -1 106.5 -38.5t58.5 -97.5q47 -18 76 -60t29 -94q-2 -72 -49 -119t-117 -49l-31 4q-47 -44 -115 -46z" />
    <glyph glyph-name="thought-bubble-outline" unicode="&#xfcf5;" horiz-adv-x="832" arabic-form="isolated" 
d="M62 64q25 -1 43 -19t18 -44.5t-17.5 -44t-44 -17t-44 18t-17.5 44t17.5 44t44.5 18.5zM270 190q45 -2 74 -32t29 -73t-29.5 -73t-73 -30t-73 30t-29.5 73t29.5 73t72.5 32zM520 230q-37 0 -69.5 15t-55.5 43q-23 -28 -54.5 -43t-70.5 -15q-62 2 -106.5 39.5t-58.5 98.5
q-47 18 -76 59.5t-29 94.5q2 72 49 118.5t117 49.5l31 -4q47 43 115 44q37 0 69.5 -14.5t55.5 -41.5q23 26 54.5 41t70.5 15q62 -1 106.5 -38.5t58.5 -97.5q47 -18 76 -60t29 -94q-2 -72 -49 -119t-117 -49l-31 4q-47 -44 -115 -46zM166 606q-35 0 -58.5 -24.5t-23.5 -59.5
t23.5 -59t58.5 -23q21 0 39 8q-18 -22 -18 -52q0 -34 23.5 -58t61 -24t60.5 28l63 70l62 -70q25 -28 63 -28q33 0 55.5 20t28.5 50q23 -26 62 -28q35 0 58.5 24t23.5 59t-23.5 59t-58.5 24q-21 0 -39 -8q18 20 18 50q0 35 -23.5 59t-61 23.5t-60.5 -26.5l-64 -72l-61 72
q-23 26 -63 26q-33 0 -55.5 -19t-28.5 -51q-24 28 -62 30zM270 126q-18 -1 -30 -13t-12 -29.5t12 -29.5t29.5 -12t29.5 12t12 30t-11.5 29.5t-29.5 12.5z" />
    <glyph glyph-name="trackpad" unicode="&#xfcf6;" horiz-adv-x="832" arabic-form="isolated" 
d="M82 710h668q35 0 58.5 -24.5t23.5 -59.5v-582q0 -35 -23.5 -59.5t-58.5 -24.5h-668q-35 0 -58.5 24.5t-23.5 59.5v582q0 35 23.5 59.5t58.5 24.5zM82 626v-332h668v332h-668zM82 44h293v166h-293v-166zM750 44v166h-293v-166h293z" />
    <glyph glyph-name="ultra-high-definition" unicode="&#xfcf7;" horiz-adv-x="918" arabic-form="isolated" 
d="M334 544h84v-168h82v168h84v-418h-84v168h-82v-168h-84v418zM668 544h125q53 -2 88 -37t37 -88v-168q-2 -53 -37 -88t-88 -37h-125v418zM793 210q18 0 29.5 11.5t11.5 29.5v168q0 18 -11.5 29.5t-29.5 11.5h-43v-250h43zM250 251q0 -53 -35 -88t-89 -35t-89 35t-37 88
v293h84v-293q0 -18 11.5 -29.5t29.5 -11.5t29.5 11.5t13.5 29.5v293h82v-293z" />
    <glyph glyph-name="van-passenger" unicode="&#xfcf8;" horiz-adv-x="918" arabic-form="isolated" 
d="M84 606q-35 -2 -58.5 -26t-25.5 -58v-334h84q2 -53 37 -88t88 -35.5t88 34.5t37 89h250q2 -53 37 -88t88 -35.5t88 34.5t37 89h84v168q-2 34 -25.5 58t-58.5 24l-125 168h-625zM84 542h166v-104h-166v104zM334 542h166v-104h-166v104zM584 542h104l82 -104h-186v104z
M209 250q27 0 44.5 -18t17.5 -43.5t-17.5 -44t-44.5 -18.5t-44.5 18t-17.5 44t17.5 44t44.5 18zM709 250q27 0 44.5 -18t17.5 -43.5t-17.5 -44t-44.5 -18.5t-44.5 18t-17.5 44t17.5 44t44.5 18z" />
    <glyph glyph-name="van-utility" unicode="&#xfcf9;" horiz-adv-x="918" arabic-form="isolated" 
d="M84 606q-35 -2 -58.5 -26t-25.5 -58v-334h84q2 -53 37 -88t88 -35.5t88 34.5t37 89h250q2 -53 37 -88t88 -35.5t88 34.5t37 89h84v168q-2 34 -25.5 58t-58.5 24l-125 168h-625zM584 542h104l82 -104h-186v104zM209 250q27 0 44.5 -18t17.5 -43.5t-17.5 -44t-44.5 -18.5
t-44.5 18t-17.5 44t17.5 44t44.5 18zM709 250q27 0 44.5 -18t17.5 -43.5t-17.5 -44t-44.5 -18.5t-44.5 18t-17.5 44t17.5 44t44.5 18z" />
    <glyph glyph-name="vanish" unicode="&#xfcfa;" horiz-adv-x="750" arabic-form="isolated" 
d="M541 294v82h209v-82h-209zM492 511l119 119l59 -59l-119 -119zM334 169h82v-209h-82v209zM334 710h82v-209h-82v209zM80 99l119 119l59 -59l-119 -119zM80 571l59 59l119 -119l-59 -59zM209 294h-209v82h209v-82zM670 99l-59 -59l-119 119l59 59z" />
    <glyph glyph-name="video-3d" unicode="&#xfcfb;" horiz-adv-x="601" arabic-form="isolated" 
d="M10 544h166q34 -2 58 -25.5t26 -58.5v-250q-2 -35 -26 -58.5t-58 -25.5h-166v84h166v84h-126v82h126v84h-166v84zM342 544h124q56 -2 90.5 -37t35.5 -88v-168q0 -53 -35 -88t-91 -37h-124v418zM466 210q18 0 30 11.5t14 29.5v168q-2 18 -14 29.5t-30 11.5h-40v-250h40z
" />
    <glyph glyph-name="wall" unicode="&#xfcfc;" horiz-adv-x="832" arabic-form="isolated" 
d="M41 190h375v-210h-375v210zM0 440h250v-210h-250v210zM291 440h250v-210h-250v210zM582 440h250v-210h-250v210zM457 190h334v-210h-334v210zM41 690h334v-210h-334v210zM416 690h375v-210h-375v210z" />
    <glyph glyph-name="xmpp" unicode="&#xfcfd;" horiz-adv-x="832" arabic-form="isolated" 
d="M416 170q-72 74 -118 178t-48 216l-250 84q6 -179 112.5 -313.5t242.5 -214.5q-74 -55 -148 -56v-42q39 0 93 15.5t116 48.5q62 -32 116 -47.5t93 -16.5v42q-74 1 -148 56q137 80 243 215t112 313l-250 -84q0 -112 -47 -215.5t-119 -178.5z" />
    <glyph glyph-name="account-multiple-plus-outline" unicode="&#xfcfe;" horiz-adv-x="1000" arabic-form="isolated" 
d="M562 626q-62 0 -103 -42t-41 -103.5t41 -102.5t103 -43q47 0 84 27q35 -27 83 -27q62 2 103 43t41 102.5t-41 103.5t-103 42q-47 0 -83 -27q-35 27 -84 27zM562 564q35 0 59 -23.5t24 -59t-23.5 -59.5t-59 -24t-59 24t-23.5 59.5t23.5 59t58.5 23.5zM729 564
q35 0 59 -23.5t24 -59t-24 -59.5t-59 -24q-21 0 -41 11q20 31 20 71q0 41 -20 74q20 10 41 10zM125 501v-125h-125v-82h125v-125h84v125h125v82h-125v125h-84zM562 294q-76 0 -168.5 -34t-102.5 -103v-113h709v113q-8 68 -101.5 102.5t-169.5 34.5q-35 0 -83 -10
q-47 10 -84 10zM562 231q80 -4 143 -29t66 -45v-51h-417v51q4 20 66 45t142 29zM795 224q61 -12 101 -31.5t42 -35.5v-51h-104v51q-2 40 -39 67z" />
    <glyph glyph-name="account-plus-outline" unicode="&#xfcff;" horiz-adv-x="918" arabic-form="isolated" 
d="M584 669q-70 -2 -117 -49t-47 -118t47 -118t117 -47t117 47t47 118t-47 118t-117 49zM584 589q37 0 61.5 -25.5t24.5 -62.5t-24.5 -61.5t-61.5 -24.5t-61.5 24.5t-24.5 61.5t24.5 62.5t61.5 25.5zM125 544v-125h-125v-84h125v-125h84v125h125v84h-125v125h-84zM584 294
q-94 0 -208 -42t-126 -126v-125h668v125q-12 84 -126 126t-208 42zM584 214q98 -2 174 -33.5t80 -54.5v-45h-508v45q4 23 80 54.5t174 33.5z" />
    <glyph glyph-name="allo" unicode="&#xfd00;" horiz-adv-x="832" arabic-form="isolated" 
d="M832 336v-375q0 -31 -28.5 -40t-45.5 17l-65 87q-117 -105 -277 -105q-172 0 -294 122t-122 294t122 294t294 122t294 -122t122 -294z" />
    <glyph glyph-name="artist" unicode="&#xfd01;" horiz-adv-x="791" arabic-form="isolated" 
d="M334 251q61 0 133 -18q-51 -55 -51 -127q0 -57 33 -105h-449v84q0 74 114.5 120t219.5 46zM646 419h145v-84h-82v-229q0 -43 -31.5 -74t-74 -31t-73 31.5t-30.5 74t30.5 73t73.5 30.5q20 0 42 -10v219zM334 335q-68 0 -118 49t-50 117t50 118t118 50t117 -50t49 -118
t-49 -117t-117 -49z" />
    <glyph glyph-name="atlassian" unicode="&#xfd02;" horiz-adv-x="833" arabic-form="isolated" 
d="M246 366q-6 8 -15.5 10t-15.5 -3t-10 -11l-203 -408q-8 -21 10 -33q6 -4 11 -2h286q14 0 21 12q45 102 21.5 223.5t-105.5 211.5zM396 739q-78 -123 -85.5 -262.5t54.5 -270.5l137 -275q8 -12 21 -12h286q21 2 23 23q2 6 -2 12l-193 385q-168 338 -200 400q-4 8 -12.5 11
t-16.5 -1t-12 -10z" />
    <glyph glyph-name="azure" unicode="&#xfd03;" horiz-adv-x="832" arabic-form="isolated" 
d="M459 659l-270 -576l-189 2l211 365zM488 612l344 -601h-635l387 70l-203 240z" />
    <glyph glyph-name="basketball" unicode="&#xfd04;" horiz-adv-x="832" arabic-form="isolated" 
d="M14 226q37 14 78 13q84 0 146 -52l-131 -131q-66 76 -93 170zM564 427q123 -92 266 -45q2 -14 2 -47q0 -64 -29.5 -143.5t-72.5 -127.5l-263 263zM281 142q66 -96 28 -209q-90 25 -157 80zM424 284l263 -263q-137 -119 -318 -100q14 41 14 90q0 39 -17.5 90.5t-41.5 85.5
zM283 231q-59 51 -135 66t-146 -9q-2 14 -2 47q0 64 29.5 143.5t72.5 127.5l277 -279zM564 513q-84 104 -39 224q39 -10 89 -38t81 -55zM818 444q-37 -14 -78 -13q-68 0 -131 41l129 127q55 -69 80 -155zM424 372l-279 277q137 119 318 100q-14 -41 -14 -88t20.5 -103.5
t50.5 -89.5z" />
    <glyph glyph-name="battery-charging-wireless" unicode="&#xfd05;" horiz-adv-x="875" arabic-form="isolated" 
d="M457 669h-82v82h-250v-82h-84q-18 -2 -29.5 -13.5t-11.5 -29.5v-666q0 -18 11.5 -29.5t29.5 -11.5h416q18 0 29.5 11.5t13.5 29.5v666q-2 18 -13.5 29.5t-29.5 13.5zM752 630l-59 -59q98 -104 98 -236.5t-98 -235.5l59 -59q123 129 123 295t-123 295zM635 511l-59 -59
q49 -51 49 -117t-49 -117l59 -59q72 76 72 176t-72 176z" />
    <glyph glyph-name="battery-charging-wireless-10" unicode="&#xfd06;" horiz-adv-x="875" arabic-form="isolated" 
d="M752 630l-59 -59q98 -104 98 -236.5t-98 -235.5l59 -59q123 129 123 295t-123 295zM635 511l-59 -59q49 -51 49 -117t-49 -117l59 -59q72 76 72 176t-72 176zM457 669h-82v82h-250v-82h-84q-18 -2 -29.5 -13.5t-11.5 -29.5v-666q0 -18 11.5 -29.5t29.5 -11.5h416
q18 0 29.5 11.5t13.5 29.5v666q-2 18 -13.5 29.5t-29.5 13.5zM416 64h-334v521h334v-521z" />
    <glyph glyph-name="battery-charging-wireless-20" unicode="&#xfd07;" horiz-adv-x="875" arabic-form="isolated" 
d="M752 630l-59 -59q98 -104 98 -236.5t-98 -235.5l59 -59q123 129 123 295t-123 295zM635 511l-59 -59q49 -51 49 -117t-49 -117l59 -59q72 76 72 176t-72 176zM457 669h-82v82h-250v-82h-84q-18 -2 -29.5 -13.5t-11.5 -29.5v-666q0 -18 11.5 -29.5t29.5 -11.5h416
q18 0 29.5 11.5t13.5 29.5v666q-2 18 -13.5 29.5t-29.5 13.5zM416 126h-334v459h334v-459z" />
    <glyph glyph-name="battery-charging-wireless-30" unicode="&#xfd08;" horiz-adv-x="875" arabic-form="isolated" 
d="M752 630l-59 -59q98 -104 98 -236.5t-98 -235.5l59 -59q123 129 123 295t-123 295zM635 511l-59 -59q49 -51 49 -117t-49 -117l59 -59q72 76 72 176t-72 176zM457 669h-82v82h-250v-82h-84q-18 -2 -29.5 -13.5t-11.5 -29.5v-666q0 -18 11.5 -29.5t29.5 -11.5h416
q18 0 29.5 11.5t13.5 29.5v666q-2 18 -13.5 29.5t-29.5 13.5zM416 169h-334v416h334v-416z" />
    <glyph glyph-name="battery-charging-wireless-40" unicode="&#xfd09;" horiz-adv-x="875" arabic-form="isolated" 
d="M752 630l-59 -59q98 -104 98 -236.5t-98 -235.5l59 -59q123 129 123 295t-123 295zM635 511l-59 -59q49 -51 49 -117t-49 -117l59 -59q72 76 72 176t-72 176zM457 669h-82v82h-250v-82h-84q-18 -2 -29.5 -13.5t-11.5 -29.5v-666q0 -18 11.5 -29.5t29.5 -11.5h416
q18 0 29.5 11.5t13.5 29.5v666q-2 18 -13.5 29.5t-29.5 13.5zM416 231h-334v354h334v-354z" />
    <glyph glyph-name="battery-charging-wireless-50" unicode="&#xfd0a;" horiz-adv-x="875" arabic-form="isolated" 
d="M752 630l-59 -59q98 -104 98 -236.5t-98 -235.5l59 -59q123 129 123 295t-123 295zM635 511l-59 -59q49 -51 49 -117t-49 -117l59 -59q72 76 72 176t-72 176zM457 669h-82v82h-250v-82h-84q-18 -2 -29.5 -13.5t-11.5 -29.5v-666q0 -18 11.5 -29.5t29.5 -11.5h416
q18 0 29.5 11.5t13.5 29.5v666q-2 18 -13.5 29.5t-29.5 13.5zM416 294h-334v291h334v-291z" />
    <glyph glyph-name="battery-charging-wireless-60" unicode="&#xfd0b;" horiz-adv-x="875" arabic-form="isolated" 
d="M752 630l-59 -59q98 -104 98 -236.5t-98 -235.5l59 -59q123 129 123 295t-123 295zM635 511l-59 -59q49 -51 49 -117t-49 -117l59 -59q72 76 72 176t-72 176zM457 669h-82v82h-250v-82h-84q-18 -2 -29.5 -13.5t-11.5 -29.5v-666q0 -18 11.5 -29.5t29.5 -11.5h416
q18 0 29.5 11.5t13.5 29.5v666q-2 18 -13.5 29.5t-29.5 13.5zM416 353h-334v232h334v-232z" />
    <glyph glyph-name="battery-charging-wireless-70" unicode="&#xfd0c;" horiz-adv-x="875" arabic-form="isolated" 
d="M752 630l-59 -59q98 -104 98 -236.5t-98 -235.5l59 -59q123 129 123 295t-123 295zM635 511l-59 -59q49 -51 49 -117t-49 -117l59 -59q72 76 72 176t-72 176zM457 669h-82v82h-250v-82h-84q-18 -2 -29.5 -13.5t-11.5 -29.5v-666q0 -18 11.5 -29.5t29.5 -11.5h416
q18 0 29.5 11.5t13.5 29.5v666q-2 18 -13.5 29.5t-29.5 13.5zM416 419h-334v166h334v-166z" />
    <glyph glyph-name="battery-charging-wireless-80" unicode="&#xfd0d;" horiz-adv-x="875" arabic-form="isolated" 
d="M752 630l-59 -59q98 -104 98 -236.5t-98 -235.5l59 -59q123 129 123 295t-123 295zM635 511l-59 -59q49 -51 49 -117t-49 -117l59 -59q72 76 72 176t-72 176zM457 669h-82v82h-250v-82h-84q-18 -2 -29.5 -13.5t-11.5 -29.5v-666q0 -18 11.5 -29.5t29.5 -11.5h416
q18 0 29.5 11.5t13.5 29.5v666q-2 18 -13.5 29.5t-29.5 13.5zM416 460h-334v125h334v-125z" />
    <glyph glyph-name="battery-charging-wireless-90" unicode="&#xfd0e;" horiz-adv-x="875" arabic-form="isolated" 
d="M752 630l-59 -59q98 -104 98 -236.5t-98 -235.5l59 -59q123 129 123 295t-123 295zM635 511l-59 -59q49 -51 49 -117t-49 -117l59 -59q72 76 72 176t-72 176zM457 669h-82v82h-250v-82h-84q-18 -2 -29.5 -13.5t-11.5 -29.5v-666q0 -18 11.5 -29.5t29.5 -11.5h416
q18 0 29.5 11.5t13.5 29.5v666q-2 18 -13.5 29.5t-29.5 13.5zM416 522h-334v63h334v-63z" />
    <glyph glyph-name="battery-charging-wireless-alert" unicode="&#xfd0f;" horiz-adv-x="875" arabic-form="isolated" 
d="M457 669h-82v82h-250v-82h-84q-18 -2 -29.5 -13.5t-11.5 -29.5v-666q0 -18 11.5 -29.5t29.5 -11.5h416q18 0 29.5 11.5t13.5 29.5v666q-2 18 -13.5 29.5t-29.5 13.5zM291 85h-84v84h84v-84zM291 251h-84v209h84v-209zM752 630l-59 -59q98 -104 98 -236.5t-98 -235.5
l59 -59q123 129 123 295t-123 295zM635 511l-59 -59q49 -51 49 -117t-49 -117l59 -59q72 76 72 176t-72 176z" />
    <glyph glyph-name="battery-charging-wireless-outline" unicode="&#xfd10;" horiz-adv-x="875" arabic-form="isolated" 
d="M752 630l-59 -59q98 -104 98 -236.5t-98 -235.5l59 -59q123 129 123 295t-123 295zM635 511l-59 -59q49 -51 49 -117t-49 -117l59 -59q72 76 72 176t-72 176zM457 669h-82v82h-250v-82h-84q-18 -2 -29.5 -13.5t-11.5 -29.5v-666q0 -18 11.5 -29.5t29.5 -11.5h416
q18 0 29.5 11.5t13.5 29.5v666q-2 18 -13.5 29.5t-29.5 13.5zM416 1h-334v584h334v-584z" />
    <glyph glyph-name="bitcoin" unicode="&#xfd11;" horiz-adv-x="606" arabic-form="final" 
d="M0 626h146v125h82v-125h63v125h83v-125q168 -14 185 -125t-81 -135q133 -14 128 -158q-6 -143 -232 -164v-125h-83v125h-63v-125h-82v125h-146l21 82h41q18 2 29.5 13.5t11.5 29.5v332q0 18 -11.5 29.5t-29.5 13.5h-62v82zM228 544v-168q12 -2 94 8t94 76q-12 66 -94 77
t-94 7zM228 314v-188q16 -2 115.5 12.5t114.5 81.5q-16 68 -115 83t-115 11z" />
    <glyph glyph-name="briefcase-outline" unicode="&#xfd12;" horiz-adv-x="832" arabic-form="final" 
d="M750 564q35 0 58.5 -24t23.5 -60v-456q0 -35 -23.5 -59.5t-58.5 -24.5h-668q-35 0 -58.5 24t-23.5 60v456q0 35 23.5 59.5t58.5 24.5h168v84q0 35 23.5 59t58.5 23h168q35 0 58.5 -23.5t23.5 -58.5v-84h168zM82 480v-456h668v456h-668zM500 564v84h-168v-84h168z" />
    <glyph glyph-name="cellphone-wireless" unicode="&#xfd13;" horiz-adv-x="916" arabic-form="final" 
d="M795 630q57 -57 89 -133t32 -162t-32 -162t-89 -133l-59 59q47 47 72.5 106.5t25.5 129.5t-25.5 129.5t-72.5 106.5zM678 511q33 -33 52.5 -78t19.5 -98t-19.5 -98t-52.5 -78l-59 59q47 47 47 117t-47 117zM500 419q35 -2 59.5 -25.5t24.5 -58.5t-24.5 -58.5t-59.5 -23.5
t-58.5 23.5t-23.5 58.5t23.5 58.5t58.5 25.5zM438 794q45 -2 74 -31.5t31 -73.5v-188h-84v168h-375v-625h375v125h84v-188q-2 -45 -31.5 -74t-73.5 -31h-333q-45 2 -74 31.5t-31 73.5v708q2 45 31.5 74t73.5 31h333z" />
    <glyph glyph-name="clover" unicode="&#xfd14;" horiz-adv-x="832" arabic-form="final" 
d="M416 368q104 92 156.5 152.5t52.5 119.5q-2 49 -34 80t-81 31q-57 0 -94 -41q-37 41 -96 41q-49 0 -80 -33t-33 -80q0 -57 52.5 -117.5t156.5 -152.5zM383 335q-92 104 -152.5 156.5t-119.5 52.5q-49 -2 -80 -34t-31 -81q0 -57 41 -94q-41 -37 -41 -96q0 -49 33 -80
t80 -33q57 0 117.5 52.5t152.5 156.5zM451 335q90 -104 150.5 -156.5t119.5 -52.5q49 2 80 34t31 81q0 57 -41 94q41 37 41 96q0 49 -33 80t-80 33q-57 0 -117.5 -52.5t-150.5 -156.5zM416 302q-104 -92 -156.5 -152.5t-52.5 -119.5q2 -49 34 -80t81 -31q57 0 94 41
q37 -41 96 -41q49 0 80 33t33 80q0 57 -52.5 117.5t-156.5 152.5z" />
    <glyph glyph-name="comment-question" unicode="&#xfd15;" horiz-adv-x="832" arabic-form="final" 
d="M82 751h668q35 0 58.5 -23.5t23.5 -58.5v-500q0 -35 -23.5 -59.5t-58.5 -24.5h-254l-154 -154q-14 -12 -30 -12h-21q-18 0 -29.5 11.5t-11.5 29.5v125h-168q-35 0 -58.5 24.5t-23.5 59.5v500q0 35 23.5 58.5t58.5 23.5zM424 606q-55 0 -90 -23t-31 -68h82q0 18 11.5 26.5
t29 8.5t29.5 -11t12 -28.5t-10 -31t-25 -23.5q-33 -20 -45 -34.5t-12 -45.5h82q0 18 6 28.5t21 20.5q29 14 48 36t19 50q0 43 -34 69t-93 26zM375 335v-84h82v84h-82z" />
    <glyph glyph-name="content-save-outline" unicode="&#xfd16;" horiz-adv-x="750" arabic-form="final" 
d="M500 626v-166h-416v-416h180q-25 23 -40 54.5t-15 70.5q2 70 49 117t117 47t117 -47t49 -117q0 -39 -14.5 -70.5t-40.5 -54.5h180v465l-117 117h-49zM84 544h332v82h-332v-82zM584 710l166 -166v-500q0 -35 -24.5 -59.5t-59.5 -24.5h-582q-37 0 -60.5 24.5t-23.5 59.5
v582q0 35 24.5 59.5t59.5 24.5h500zM375 251q-35 0 -58.5 -23.5t-23.5 -58.5t23.5 -59.5t58.5 -24.5t58.5 24.5t23.5 59.5t-23.5 58.5t-58.5 23.5z" />
    <glyph glyph-name="delete-restore" unicode="&#xfd17;" horiz-adv-x="601" arabic-form="final" 
d="M384 251h82l-166 168l-166 -168h82v-166h168v166zM50 544h500v-500q0 -33 -25 -58.5t-59 -25.5h-332q-32 0 -58 25.5t-26 58.5v500zM592 669v-84h-582v84h144l42 41h208l42 -41h146z" />
    <glyph glyph-name="door" unicode="&#xfd18;" horiz-adv-x="601" arabic-form="final" 
d="M134 710q-37 0 -60.5 -23.5t-23.5 -60.5v-666h500v666q0 37 -23.5 60.5t-60.5 23.5h-332zM134 626h332v-582h-332v582zM342 376v-82h84v82h-84z" />
    <glyph glyph-name="door-closed" unicode="&#xfd19;" horiz-adv-x="832" arabic-form="final" 
d="M582 376h84v-82h-84v82zM416 710h291q37 0 60.5 -23.5t23.5 -60.5v-582h41v-84h-832v84h332v582q2 37 25.5 60.5t58.5 23.5zM416 626v-582h291v582h-291z" />
    <glyph glyph-name="door-open" unicode="&#xfd1a;" horiz-adv-x="832" arabic-form="final" 
d="M416 710q-35 0 -58.5 -23.5t-25.5 -60.5h-291v-582h-41v-84h832v84h-41v582q0 37 -23.5 60.5t-60.5 23.5h-291zM416 626h291v-582h-291v582zM125 376h82v-82h-82v82z" />
    <glyph glyph-name="fan-off" unicode="&#xfd1b;" horiz-adv-x="834" arabic-form="final" 
d="M437 751q-90 -2 -123 -67.5t-11 -159.5l238 -238q27 -6 53.5 -21.5t42.5 -42.5q43 -76 116 -60.5t81 152.5q-6 113 -102.5 137.5t-217.5 -38.5q-20 25 -51 37q6 31 21.5 59.5t46.5 44.5q76 45 59.5 117t-153.5 80zM53 669l-53 -53l102 -103q-39 0 -70.5 -38t-31.5 -119
q4 -111 100.5 -136.5t217.5 37.5q20 -25 51 -39q-6 -29 -21.5 -56.5t-44.5 -45.5q-76 -45 -60.5 -117t152.5 -80q72 0 108 44t36 114l158 -158l53 53z" />
    <glyph glyph-name="file-percent" unicode="&#xfd1c;" horiz-adv-x="668" arabic-form="final" 
d="M418 751l250 -250v-500q-2 -35 -25.5 -58.5t-58.5 -23.5h-500q-35 0 -58.5 23.5t-25.5 58.5v668q2 35 25.5 58.5t58.5 23.5h334zM141 1l318 320l-57 55l-318 -318zM375 460h230l-230 229v-229zM146 376q-27 0 -44.5 -17.5t-17.5 -44t17.5 -44t45 -17.5t45 17.5t17.5 44
t-18 44t-45 17.5zM396 126q-27 0 -44.5 -17.5t-17.5 -44t17.5 -44t45 -17.5t45 17.5t17.5 44t-18 44t-45 17.5z" />
    <glyph glyph-name="finance" unicode="&#xfd1d;" horiz-adv-x="777" arabic-form="final" 
d="M27 294h166v-418h-166v418zM318 251h168v-375h-168v375zM611 460h166v-584h-166v584zM611 794h166v-168h-41v82l-336 -336l-164 166l-191 -191l-45 45l236 234l164 -164l291 289h-80v43z" />
    <glyph glyph-name="flash-circle" unicode="&#xfd1e;" horiz-adv-x="832" arabic-form="final" 
d="M395 1l203 406h-141v262l-207 -406h145v-262zM416 751q172 0 294 -122t122 -294t-122 -294t-294 -122t-294 122t-122 294t122 294t294 122z" />
    <glyph glyph-name="floor-plan" unicode="&#xfd1f;" horiz-adv-x="750" arabic-form="final" 
d="M291 626v-207h-41v207h-166v-332h166v41h41v-209h-41v125h-166v-207h291v82h41v-82h250v82h84v-166h-750v750h750v-500h-84v209h-250v-209h-41v250h291v166h-375z" />
    <glyph glyph-name="forum-outline" unicode="&#xfd20;" horiz-adv-x="832" arabic-form="final" 
d="M82 751q-35 0 -58.5 -23.5t-23.5 -58.5v-543l166 168h375q35 0 58.5 23.5t25.5 58.5v293q-2 35 -25.5 58.5t-58.5 23.5h-459zM82 669h459v-293h-375l-84 -82v375zM707 585v-84h43v-416l-84 84h-416v41h-84v-41q0 -35 24.5 -59.5t59.5 -24.5h416l166 -166v582
q0 35 -23.5 59.5t-58.5 24.5h-43z" />
    <glyph glyph-name="golf" unicode="&#xfd21;" horiz-adv-x="709" arabic-form="final" 
d="M646 85q27 0 45 -17.5t18 -45t-17.5 -45t-45 -17.5t-45 17.5t-17.5 45t17.5 45t44.5 17.5zM543 589l-250 -129v-377q90 -6 147.5 -27.5t59.5 -54.5q-2 -35 -72.5 -58.5t-176.5 -23.5t-176.5 23.5t-74.5 58.5q2 23 35 43t90 29v-72h84v750z" />
    <glyph glyph-name="google-home" unicode="&#xfd22;" horiz-adv-x="601" arabic-form="final" 
d="M136 509q-34 0 -40 6l-18 -254q32 -20 85 -32.5t152.5 -6.5t208.5 43l-34 392q-56 -55 -162 -101q-96 -41 -164 -47h-28zM132 610q-43 -37 -35.5 -50.5t61.5 -7.5q67 6 154 43q59 25 101.5 54.5t59 49t12 28t-38.5 8.5q-71 0 -176 -45q-90 -39 -138 -80zM524 741
q4 -8 4 -17l48 -600q0 -107 -74 -168.5t-200 -61.5t-201 63t-75 171l28 435q0 16 14 35.5t26 31.5l14 12q61 51 146 87q58 25 114 38t99.5 8t56.5 -34z" />
    <glyph glyph-name="guy-fawkes-mask" unicode="&#xfd23;" horiz-adv-x="750" arabic-form="final" 
d="M750 294q-4 -160 -109.5 -265.5t-265.5 -109.5q-160 4 -265.5 109.5t-109.5 265.5l2 355q82 49 176.5 75.5t197.5 26.5t197.5 -25.5t176.5 -72.5v-359zM416 5q109 18 178.5 97t71.5 192v309q-133 64 -289 66q-160 -2 -297 -70l4 -305q2 -113 71.5 -192.5t178.5 -96.5v80
h82v-80zM334 169h-125l-84 125l125 -43h41l43 43h82l43 -43h41l125 43l-84 -125h-125l-41 41zM125 458q41 41 103.5 41t105.5 -41q-43 -39 -105.5 -39t-103.5 39zM416 458q41 41 103.5 41t105.5 -41q-43 -39 -105.5 -39t-103.5 39z" />
    <glyph glyph-name="home-account" unicode="&#xfd24;" horiz-adv-x="832" arabic-form="final" 
d="M416 690l-416 -376h125v-334h582v334h125zM416 450q39 0 65.5 -27t26.5 -67t-26.5 -66.5t-65.5 -26t-65.5 27t-26.5 66.5t26.5 66.5t65.5 26.5zM416 190q53 0 117.5 -24t70.5 -70v-32h-376v32q6 46 70.5 70t117.5 24z" />
    <glyph glyph-name="home-heart" unicode="&#xfd25;" horiz-adv-x="832" arabic-form="final" 
d="M0 314l416 376l416 -376h-125v-334h-582v334h-125zM416 64l29 28q82 72 130 127.5t50 112.5q-2 50 -34 81.5t-81 34.5q-27 0 -51.5 -12t-42.5 -34q-18 22 -42 34t-52 12q-49 -2 -81 -35t-34 -81q2 -56 50 -112t130 -128z" />
    <glyph glyph-name="hot-tub" unicode="&#xfd26;" horiz-adv-x="832" arabic-form="final" 
d="M207 690q35 -2 59.5 -26t24.5 -58.5t-24.5 -58.5t-59.5 -23.5t-58.5 24t-23.5 58t23.5 58.5t58.5 26zM381 356h451v-334q0 -35 -23.5 -59t-58.5 -23h-668q-35 0 -58.5 23.5t-23.5 58.5v334h125v30q0 41 26.5 68t67.5 26q21 0 38.5 -7.5t31.5 -22.5l57 -66q15 -14 35 -28z
M207 22v250h-82v-250h82zM375 22v250h-84v-250h84zM541 22v250h-84v-250h84zM707 22v250h-82v-250h82zM693 612q31 -32 46 -72t9 -82l-4 -18h-78l4 22q8 52 -27 92l-4 2q-31 34 -46 74t-9 82l4 18h78l-4 -24q-8 -52 27 -92zM527 612q31 -32 46 -72t7 -82l-2 -18h-78l4 22
q8 52 -29 92l-2 2q-33 34 -47 74t-8 82l2 18h80l-4 -24q-10 -52 27 -92z" />
    <glyph glyph-name="hulu" unicode="&#xfd27;" horiz-adv-x="624" arabic-form="final" 
d="M624 302v-383h-199v336q-2 23 -17.5 39t-36.5 16h-121q-23 0 -38 -16t-17 -39v-336h-195v832h199v-266q20 8 39 8h199q80 -2 132.5 -56.5t54.5 -134.5z" />
    <glyph glyph-name="ice-cream" unicode="&#xfd28;" horiz-adv-x="601" arabic-form="final" 
d="M300 751q71 -2 117.5 -49t48.5 -119q38 -8 61.5 -36t22.5 -66q-1 -45 -31 -74t-73 -31h-292q-43 2 -72.5 31.5t-31.5 73.5q0 37 24 65.5t60 38.5q2 70 49 117t117 49zM176 335h250l-84 -416h-82z" />
    <glyph glyph-name="image-off" unicode="&#xfd29;" horiz-adv-x="834" arabic-form="final" 
d="M55 752l-55 -53l84 -84v-529q0 -35 24.5 -59.5t59.5 -24.5h529l84 -84l53 55zM160 752l674 -674v590q0 37 -24.5 60.5t-59.5 23.5h-590zM313 314l105 -124l41 52l113 -115h-404z" />
    <glyph glyph-name="karate" unicode="&#xfd2a;" horiz-adv-x="783" arabic-form="final" 
d="M687 760q-31 18 -62.5 9t-50 -40t-9.5 -62t39 -49.5t62.5 -10t51 40t9.5 62.5t-40 50zM783 424l-108 -184l-72 40l72 126l-64 54l-131 -226v-336h-84v356l-396 232l41 72l324 -188l101 172l-267 98l31 78l291 -106q23 -10 47 -22l35 -20q21 -12 41 -30z" />
    <glyph glyph-name="ladybug" unicode="&#xfd2b;" horiz-adv-x="668" arabic-form="final" 
d="M334 603q47 0 90 -12l68 119q8 14 24.5 19t32 -4t19.5 -25.5t-5 -32.5l-63 -107q78 -47 123 -123h-578q45 76 123 123l-63 107q-10 16 -5.5 32.5t20 25.5t32 4t24.5 -19l68 -119q43 12 90 12zM668 271q-4 -135 -88 -226.5t-215 -105.5v436h285q18 -48 18 -104zM0 271
q0 56 18 104h285v-436q-131 14 -215 105.5t-88 226.5z" />
    <glyph glyph-name="notebook" unicode="&#xfd2c;" horiz-adv-x="750" arabic-form="final" 
d="M0 544v82h84v43q0 35 23.5 58.5t58.5 23.5h250v-291l105 62l104 -62v291h41q35 0 58.5 -24.5t25.5 -57.5v-668q-2 -33 -25.5 -57.5t-58.5 -24.5h-500q-33 0 -57.5 24.5t-24.5 57.5v43h-84v82h84v168h-84v82h84v168h-84zM166 376h-82v-82h82v82zM166 544v82h-82v-82h82z
M166 44v82h-82v-82h82z" />
    <glyph glyph-name="phone-return" unicode="&#xfd2d;" horiz-adv-x="750" arabic-form="initial" 
d="M750 574v-208h-63v146h-234l102 -102l-45 -44l-176 178l176 176l45 -44l-102 -102h297zM242 468q18 18 10 40q-23 74 -23 150q0 18 -12 30t-30 12h-146q-18 0 -29.5 -12t-11.5 -30q8 -301 208 -500.5t501 -207.5q18 0 29.5 11.5t11.5 28.5v148q0 18 -11.5 29.5
t-29.5 10.5q-76 0 -148 24q-25 7 -43 -10l-92 -92q-88 46 -158.5 115.5t-115.5 160.5z" />
    <glyph glyph-name="poker-chip" unicode="&#xfd2e;" horiz-adv-x="918" arabic-form="initial" 
d="M918 335q-6 -195 -135 -324t-324 -135q-195 6 -324 135t-135 324q6 195 135 324t324 135q195 -6 324 -135t135 -324zM500 665q68 -8 126 -41t99 -88l72 43q-53 72 -129 117t-168 55v-86zM121 579l72 -43q41 55 99 88t126 41v86q-92 -10 -168 -55t-129 -117zM80 165l72 41
q-27 62 -27 128.5t27 129.5l-72 41q-37 -82 -37 -170t37 -170zM418 5q-68 8 -126 41t-99 88l-72 -43q53 -72 129 -117t168 -55v86zM797 91l-72 43q-41 -55 -99 -88t-126 -41v-84q90 10 167 54t130 116zM838 165q37 82 37 170t-37 170l-72 -41q27 -62 27 -128.5t-27 -129.5z
M584 335l-125 209l-125 -209l125 -209z" />
    <glyph glyph-name="shape" unicode="&#xfd2f;" horiz-adv-x="789" arabic-form="initial" 
d="M334 271v-333h-334v333h334zM375 750l229 -375h-458zM604 293q80 -2 132.5 -54.5t52.5 -133t-52.5 -133t-133 -52.5t-133 52.5t-52.5 133t53 133t133 54.5z" />
    <glyph glyph-name="shape-outline" unicode="&#xfd30;" horiz-adv-x="789" arabic-form="initial" 
d="M334 271v-333h-334v333h334zM250 188h-166v-167h166v167zM375 750l229 -375h-458zM375 590l-80 -131h160zM604 293q80 -2 132.5 -54.5t52.5 -133t-52.5 -133t-133 -52.5t-133 52.5t-52.5 133t53 133t133 54.5zM604 209q-43 -2 -72.5 -31.5t-29.5 -73t29.5 -73t73 -29.5
t73 29.5t29.5 73t-29 73t-74 31.5z" />
    <glyph glyph-name="ship-wheel" unicode="&#xfd31;" horiz-adv-x="914" arabic-form="initial" 
d="M41 376l84 -4q10 72 44 131t91 100l-47 72q-10 16 -5 32.5t20.5 25t31 3.5t25.5 -20l39 -74q61 25 133 25t133 -25l39 74q10 16 25.5 20.5t31 -4t20.5 -25.5t-5 -32l-47 -72q57 -41 91 -100t44 -131l84 4q18 0 29.5 -11.5t11.5 -29.5t-11.5 -29.5t-29.5 -11.5l-84 4
q-10 -72 -44 -131t-91 -100l47 -72q10 -16 5 -32.5t-20.5 -25t-31 -3.5t-25.5 20l-39 74q-61 -25 -133 -25t-133 25l-39 -74q-10 -16 -25.5 -20.5t-31 4t-20.5 25.5t5 32l47 72q-57 41 -91 100t-44 131l-84 -4q-18 0 -29.5 11.5t-11.5 29.5t11.5 29.5t29.5 11.5zM334 362
q10 39 39 65l-68 105q-39 -29 -63.5 -71t-32.5 -93zM457 460q20 0 37 -6l59 111q-45 20 -96 20t-96 -20l59 -111q17 6 37 6zM580 362l125 6q-8 51 -32.5 93t-63.5 71l-68 -105q29 -26 39 -65zM580 308q-10 -39 -39 -65l68 -105q39 29 63.5 71t32.5 93zM457 210q-20 0 -37 6
l-59 -111q45 -20 96 -20t96 20l-59 111q-17 -6 -37 -6zM334 308l-125 -6q8 -51 32.5 -93t63.5 -71l68 105q-29 26 -39 65z" />
    <glyph glyph-name="soccer-field" unicode="&#xfd32;" horiz-adv-x="832" arabic-form="initial" 
d="M82 669q-35 -2 -58.5 -25.5t-23.5 -58.5v-500q0 -35 23.5 -58.5t58.5 -25.5h668q35 2 58.5 25.5t23.5 58.5v500q0 35 -23.5 58.5t-58.5 25.5h-668zM82 585h293v-88q-57 -16 -91 -59.5t-34 -102.5t34 -102.5t91 -59.5v-88h-293v84h125v332h-125v84zM457 585h293v-84h-125
v-332h125v-84h-293v88q57 16 91 59.5t34 102.5t-34 102.5t-91 59.5v88zM82 419h43v-168h-43v168zM707 419h43v-168h-43v168zM457 407q20 -12 31.5 -30.5t11.5 -41.5t-11.5 -42t-31.5 -30v144zM375 407v-144q-20 12 -31.5 30.5t-11.5 41.5t11.5 41.5t31.5 30.5z" />
    <glyph glyph-name="table-column" unicode="&#xfd33;" horiz-adv-x="601" arabic-form="initial" 
d="M134 751h332q35 0 59.5 -23.5t24.5 -58.5v-668q0 -35 -24 -58.5t-60 -23.5h-332q-34 0 -58.5 23.5t-25.5 58.5v668q0 35 24.5 58.5t59.5 23.5zM134 419v-168h332v168h-332zM134 169v-168h332v168h-332zM134 669v-168h332v168h-332z" />
    <glyph glyph-name="table-of-contents" unicode="&#xfd34;" horiz-adv-x="750" arabic-form="medial" 
d="M0 460h584v84h-584v-84zM0 294h584v82h-584v-82zM0 126h584v84h-584v-84zM666 126h84v84h-84v-84zM666 544v-84h84v84h-84zM666 294h84v82h-84v-82z" />
    <glyph glyph-name="table-row" unicode="&#xfd35;" horiz-adv-x="832" arabic-form="medial" 
d="M832 251q0 -35 -23.5 -58.5t-58.5 -23.5h-668q-35 0 -58.5 23.5t-23.5 58.5v168q0 35 23.5 58.5t58.5 23.5h668q35 0 58.5 -23.5t23.5 -58.5v-168zM82 251h168v168h-168v-168zM332 251h168v168h-168v-168zM582 251h168v168h-168v-168z" />
    <glyph glyph-name="table-settings" unicode="&#xfd36;" horiz-adv-x="750" arabic-form="medial" 
d="M166 2h84v-84h-84v84zM334 2h82v-84h-82v84zM500 2h84v-84h-84v84zM84 752h582q35 -2 59.5 -25.5t24.5 -58.5v-500q0 -35 -24.5 -58.5t-59.5 -25.5h-582q-35 2 -59.5 25.5t-24.5 58.5v500q0 35 24.5 58.5t59.5 25.5zM84 584v-166h250v166h-250zM416 584v-166h250v166
h-250zM84 334v-166h250v166h-250zM416 334v-166h250v166h-250z" />
    <glyph glyph-name="television-box" unicode="&#xfd37;" horiz-adv-x="750" arabic-form="medial" 
d="M84 710h582q35 0 59.5 -24.5t24.5 -59.5v-582q0 -35 -24.5 -59.5t-59.5 -24.5h-582q-35 0 -59.5 24.5t-24.5 59.5v582q0 35 24.5 59.5t59.5 24.5zM541 169l125 332h-103l-63 -187l-63 187h-353v-82h125v-250h82v250h74l94 -250h82z" />
    <glyph glyph-name="television-classic-off" unicode="&#xfd38;" horiz-adv-x="832" arabic-form="medial" 
d="M0 658l53 53l738 -738l-53 -55l-84 84h-572q-35 0 -58.5 23.5t-23.5 60.5v416q0 31 20.5 54.5t51.5 29.5zM256 752l160 -160l160 160l59 -59l-108 -107h223q35 -2 58.5 -25.5t23.5 -58.5v-416q0 -21 -10 -39l-197 197v258h-258l-84 84h22l-108 107zM82 502v-416h490
l-418 416h-72zM728 502q-18 0 -29.5 -11.5t-11.5 -29.5t12 -29.5t29.5 -11.5t29.5 11.5t12 29.5t-12 29.5t-30 11.5zM728 377q-18 0 -29.5 -11.5t-11.5 -29.5t12 -29.5t29.5 -11.5t29.5 11.5t12 29.5t-12 29.5t-30 11.5z" />
    <glyph glyph-name="television-off" unicode="&#xfd39;" horiz-adv-x="938" arabic-form="medial" 
d="M0 710l53 52l801 -800l-53 -54l-125 126h-31v-84h-332v84h-209q-35 0 -58.5 23.5t-25.5 58.5v500q2 31 20 52zM854 116v500h-549l-84 84h633q35 0 58.5 -24.5t25.5 -59.5v-500q-2 -26 -16.5 -47t-38.5 -31l-78 78h49zM104 116h488l-488 490v-490z" />
    <glyph glyph-name="towing" unicode="&#xfd3a;" horiz-adv-x="918" arabic-form="medial" 
d="M584 419h225l-139 166h-86v-166zM688 64q25 0 43.5 18.5t18.5 43.5t-18.5 44t-44 19t-44 -19t-18.5 -44t19 -43.5t44 -18.5zM209 64q27 0 44.5 18.5t17.5 43.5t-17.5 44t-44.5 19t-44.5 -19t-17.5 -44t17.5 -43.5t44.5 -18.5zM709 669l209 -250v-293h-105
q0 -51 -37.5 -88t-88 -37t-87.5 37t-37 88h-229q0 -51 -37 -88t-88 -37t-88 37t-37 88h-84v168h342l-258 203v-121h-84v250h43l457 -252v295h209z" />
    <glyph glyph-name="upload-multiple" unicode="&#xfd3b;" horiz-adv-x="601" arabic-form="medial" 
d="M176 230v250h-166l290 292l292 -292h-166v-250h-250zM10 64v84h582v-84h-582zM592 -20h-582v-82h582v82z" />
    <glyph glyph-name="video-4k-box" unicode="&#xfd3c;" horiz-adv-x="750" arabic-form="final" 
d="M84 710h582q35 0 59.5 -24.5t24.5 -59.5v-582q0 -35 -24.5 -59.5t-59.5 -24.5h-582q-35 0 -59.5 24.5t-24.5 59.5v582q0 35 24.5 59.5t59.5 24.5zM629 210l-84 125l84 125h-72l-82 -125v125h-63v-250h63v125l82 -125h72zM369 272v63h-41v125h-62v-125h-63v125h-62v-188
h125v-62h62v62h41z" />
    <glyph glyph-name="video-input-antenna" unicode="&#xfd3d;" horiz-adv-x="918" arabic-form="isolated" 
d="M459 614q-125 -2 -207 -84.5t-84 -207.5h82q2 89 61.5 148.5t147.5 61.5q88 -2 147.5 -62t61.5 -148h82q-2 125 -84 207.5t-207 84.5zM500 226q29 14 46 38.5t17 57.5q0 46 -29.5 75.5t-74.5 29t-74.5 -30t-29.5 -74.5q0 -31 17 -56.5t46 -39.5v-136l-143 -142l59 -60
l125 126l125 -126l59 60l-143 142v136zM459 782q-195 -6 -324 -135t-135 -325h84q4 161 109.5 266t265.5 110q160 -5 265.5 -110t109.5 -266h84q-6 196 -135 325t-324 135z" />
    <glyph glyph-name=".notdef" 
d="M90 1050h420v-1400h-420v1400zM456 -298v1296h-311v-1296h311zM307 173q0 -11 -7.5 -17.5t-17.5 -6.5t-17.5 6.5t-7.5 17.5v84q53 3 72 19.5t19 57.5q0 33 -13 51t-48 18q-29 0 -52 -11q-7 -3 -13 -3q-24 0 -24 23q0 19 29.5 29t63.5 10q111 0 111 -115q0 -104 -95 -118
v-45zM247 85q0 15 10 25t25 10t25 -10t10 -25q0 -16 -10 -26.5t-25 -10.5t-25 10.5t-10 26.5z" />
    <glyph glyph-name=".null" horiz-adv-x="0" 
 />
    <glyph glyph-name="nonmarkingreturn" horiz-adv-x="333" 
 />
    <glyph glyph-name="CR" unicode="&#xd;" 
 />
    <glyph glyph-name="space" unicode=" " 
 />
    <glyph glyph-name="exclam" unicode="!" 
d="M345 689l-9 -462h-75l-10 462h94zM299 123q29 0 48 -19.5t19 -47.5q0 -29 -19 -48t-48 -19t-48 19.5t-19 47.5t19.5 47.5t47.5 19.5z" />
    <glyph glyph-name="quotedbl" unicode="&#x22;" 
d="M179 479l-15 260h105l-16 -260h-74zM347 479l-16 260h105l-15 -260h-74z" />
    <glyph glyph-name="numbersign" unicode="#" 
d="M458 456l-29 -222h81v-64h-91l-21 -170h-71l22 170h-145l-23 -170h-71l22 170h-79v64h87l31 222h-81v66h89l23 167h71l-23 -167h146l23 167h71l-23 -167h80v-66h-89zM212 234h145l31 222h-147z" />
    <glyph glyph-name="dollar" unicode="$" 
d="M346 848v-150q106 -11 183 -80l-51 -53q-59 54 -132 63v-227q41 -14 72.5 -30.5t60 -41.5t44 -60.5t15.5 -79.5q0 -75 -50 -129.5t-142 -66.5v-146h-68v143q-120 6 -209 93l50 56q71 -71 159 -78v276q-183 61 -183 191q0 64 47.5 112.5t135.5 57.5v150h68zM278 626
q-43 -7 -68.5 -31.5t-25.5 -65.5q0 -37 20.5 -61t73.5 -45v203zM346 314v-249q101 20 101 123q0 43 -23 73t-78 53z" />
    <glyph glyph-name="glyph9" unicode="%" 
d="M505 707l53 -35l-473 -692l-53 35zM166 700q68 0 107.5 -46.5t39.5 -114.5q0 -66 -39.5 -113.5t-107.5 -47.5q-67 0 -107 47.5t-40 113.5q0 68 40 114.5t107 46.5zM166 640q-31 0 -50.5 -26t-19.5 -75q0 -47 19.5 -74.5t50.5 -27.5q32 0 50.5 25.5t18.5 76.5
q0 101 -69 101zM436 316q68 0 107.5 -46.5t39.5 -113.5t-39.5 -114.5t-107.5 -47.5q-67 0 -107 47.5t-40 114.5t40 113.5t107 46.5zM436 256q-32 0 -51 -25t-19 -75q0 -48 19.5 -75.5t50.5 -27.5q32 0 50.5 25.5t18.5 77.5q0 100 -69 100z" />
    <glyph glyph-name="ampersand" unicode="&#x26;" 
d="M279 699q49 0 88.5 -16t78.5 -59l-50 -46q-52 58 -118 58q-52 0 -79 -28t-27 -74t36 -80t88 -34h278v-67h-90v-272q-73 -92 -207 -92q-110 0 -166.5 60.5t-56.5 145.5q0 77 40.5 126.5t115.5 65.5v3q-120 28 -120 144q0 69 52 117t137 48zM407 353h-124q-71 0 -109 -47.5
t-38 -107.5t36 -100.5t107 -40.5q87 0 128 52v244z" />
    <glyph glyph-name="quotesingle" unicode="'" 
d="M263 479l-16 260h106l-16 -260h-74z" />
    <glyph glyph-name="parenleft" unicode="(" 
d="M213 350q0 -149 49.5 -245.5t163.5 -198.5l-43 -46q-65 53 -109.5 101.5t-80 107t-52 128t-16.5 153.5t16.5 153.5t52 128t80 107t109.5 101.5l43 -46q-115 -102 -164 -198t-49 -246z" />
    <glyph glyph-name="parenright" unicode=")" 
d="M387 350q0 150 -49 246t-164 198l43 46q65 -53 109.5 -101.5t80 -107t52 -128t16.5 -153.5t-16.5 -153.5t-52 -128t-80 -107t-109.5 -101.5l-43 46q114 102 163.5 198.5t49.5 245.5z" />
    <glyph glyph-name="glyph14" unicode="*" 
d="M258 578l6 -202l-190 68l-26 -79l194 -58l-123 -160l67 -49l114 168l114 -168l67 49l-123 160l194 58l-26 79l-190 -68l6 202h-84z" />
    <glyph glyph-name="glyph15" unicode="+" 
d="M338 545v-199h196v-70h-196v-199h-78v199h-194v70h194v199h78z" />
    <glyph glyph-name="comma" unicode="," 
d="M300 165q34 0 57.5 -23.5t23.5 -56.5q0 -37 -19 -79l-81 -185h-76l47 197q-32 24 -32 66q0 34 23 57.5t57 23.5z" />
    <glyph glyph-name="hyphen" unicode="-" 
d="M100 277v72h400v-72h-400z" />
    <glyph glyph-name="period" unicode="." 
d="M211 77q0 37 25.5 62.5t62.5 25.5q38 0 63 -25.5t25 -62.5q0 -38 -25 -63t-63 -25q-37 0 -62.5 25.5t-25.5 62.5z" />
    <glyph glyph-name="glyph19" unicode="/" 
d="M121 -103l-68 30l427 882l67 -32z" />
    <glyph glyph-name="zero" unicode="0" 
d="M300 700q110 0 167.5 -91.5t57.5 -263.5q0 -173 -57.5 -264.5t-167.5 -91.5t-167.5 91.5t-57.5 264.5q0 172 57.5 263.5t167.5 91.5zM300 632q-137 0 -137 -287q0 -114 18 -180l210 423q-32 44 -91 44zM300 57q137 0 137 288q0 115 -18 181l-209 -426q32 -43 90 -43z" />
    <glyph glyph-name="one" unicode="1" 
d="M374 68h143v-68h-397v68h169v529l-157 -95l-37 59l205 128h74v-621z" />
    <glyph glyph-name="two" unicode="2" 
d="M269 700q95 0 151.5 -54t56.5 -138q0 -93 -66 -184.5t-242 -251.5h324l-10 -72h-410v68q196 187 256 270t60 167q0 58 -33 91t-91 33q-49 0 -81.5 -16.5t-66.5 -56.5l-58 45q81 99 210 99z" />
    <glyph glyph-name="three" unicode="3" 
d="M269 700q95 0 153 -50t58 -123q0 -60 -39 -104.5t-95 -55.5q65 -5 110.5 -49t45.5 -120q0 -90 -66.5 -149.5t-172.5 -59.5q-61 0 -117.5 23t-93.5 68l56 46q58 -68 153 -68q72 0 112.5 37.5t40.5 102.5q0 131 -143 131h-57l10 67h41q54 0 92 30.5t38 89.5
q0 55 -36.5 85.5t-93.5 30.5q-77 0 -146 -63l-46 51q84 80 196 80z" />
    <glyph glyph-name="four" unicode="4" 
d="M528 235v-68h-89v-167h-81v167h-286v62l202 471l70 -30l-183 -435h198l7 195h73v-195h89z" />
    <glyph glyph-name="five" unicode="5" 
d="M487 689l-12 -68h-272v-217q53 30 118 30q86 0 137.5 -57t51.5 -159q0 -104 -63.5 -166.5t-169.5 -62.5q-115 0 -200 82l52 51q63 -64 148 -64q69 0 107 42t38 121q0 147 -125 147q-41 0 -107 -23h-68v344h365z" />
    <glyph glyph-name="six" unicode="6" 
d="M330 448q84 0 139.5 -55.5t55.5 -160.5q0 -112 -62 -177.5t-155 -65.5q-229 0 -229 336q0 173 68 274t188 101q75 0 137 -41l-33 -56q-49 29 -105 29q-78 0 -123 -74.5t-47 -201.5q62 92 166 92zM308 57q64 0 97.5 45.5t33.5 126.5q0 151 -122 151q-94 0 -152 -97
q2 -118 36 -172t107 -54z" />
    <glyph glyph-name="seven" unicode="7" 
d="M230 -9l-78 23l268 605h-323v70h408v-65z" />
    <glyph glyph-name="eight" unicode="8" 
d="M506 525q0 -90 -119 -156q70 -29 109 -76t39 -108q0 -86 -65 -141t-172 -55q-108 0 -170.5 55t-62.5 139q0 115 139 180q-57 27 -83.5 63.5t-26.5 93.5q0 87 64 133.5t142 46.5q83 0 144.5 -45t61.5 -130zM176 519q0 -29 9 -48.5t33.5 -34.5t44.5 -23t65 -23
q51 30 73.5 58.5t22.5 72.5q0 52 -32.5 82.5t-91.5 30.5t-91.5 -30t-32.5 -85zM446 183q0 27 -10 48.5t-22 35t-42 28.5t-48.5 22t-62.5 22q-107 -50 -107 -156q0 -59 37 -92.5t107 -33.5t109 35t39 91z" />
    <glyph glyph-name="nine" unicode="9" 
d="M289 699q113 0 169 -70t56 -196q0 -110 -20 -184.5t-68 -126t-112 -83t-167 -60.5l-20 64q147 38 221.5 106t76.5 188q-56 -82 -161 -85q-88 -1 -143 59t-55 161q0 107 63 167t160 60zM279 320q87 1 148 91q2 121 -31 170.5t-107 49.5q-135 0 -135 -162
q0 -77 32.5 -113.5t92.5 -35.5z" />
    <glyph glyph-name="colon" unicode=":" 
d="M219 431q0 33 23 56.5t57 23.5q35 0 58 -23.5t23 -56.5q0 -34 -23 -58t-58 -24q-34 0 -57 24t-23 58zM219 70q0 33 23 57t57 24q35 0 58 -23.5t23 -57.5q0 -35 -23 -58t-58 -23q-34 0 -57 23t-23 58z" />
    <glyph glyph-name="semicolon" unicode=";" 
d="M299 511q35 0 58 -23.5t23 -56.5q0 -34 -23 -58t-58 -24q-34 0 -57 24t-23 58q0 33 23 56.5t57 23.5zM299 166q34 0 57.5 -23.5t23.5 -57.5q0 -36 -19 -79l-82 -186h-76l48 198q-32 24 -32 67q0 34 23 57.5t57 23.5z" />
    <glyph glyph-name="less" unicode="&#x3c;" 
d="M472 594l41 -64l-353 -217l353 -219l-45 -61l-380 237v87z" />
    <glyph glyph-name="glyph33" unicode="=" 
d="M494 442v-72h-388v72h388zM494 252v-72h-388v72h388z" />
    <glyph glyph-name="greater" unicode="&#x3e;" 
d="M129 594l384 -238v-86l-380 -237l-45 62l353 218l-353 217z" />
    <glyph glyph-name="glyph35" unicode="?" 
d="M299 700q89 0 143.5 -46.5t54.5 -108.5q0 -44 -18.5 -76t-45 -51.5t-53.5 -38.5t-45.5 -48.5t-18.5 -69.5v-34h-84v39q0 45 18 79t44 55.5t52.5 40.5t44.5 43.5t18 55.5q0 42 -33 66t-85 24q-81 0 -142 -74l-59 45q84 99 209 99zM277 123q29 0 48 -19.5t19 -47.5
q0 -29 -19 -48t-48 -19t-48 19.5t-19 47.5t19.5 47.5t47.5 19.5z" />
    <glyph glyph-name="glyph36" unicode="@" 
d="M284 700q75 0 130.5 -24.5t87.5 -62.5t51.5 -94.5t26 -111t6.5 -122.5q0 -201 -30.5 -288.5t-116.5 -87.5q-57 0 -88 48.5t-30 94.5h-4q-40 -98 -137 -98q-78 0 -114 61.5t-36 167.5q0 129 50.5 193.5t145.5 64.5q72 0 141 -37v-296q0 -74 18.5 -102.5t51.5 -28.5
q22 0 35.5 20t19 69.5t6.5 88.5t1 121v8q0 79 -8 135t-30 106t-66 75.5t-110 25.5q-124 0 -227 -92l-49 57q127 109 275 109zM229 379q-66 0 -92 -47t-26 -149q0 -166 79 -166q23 0 41 8t30 23t18 26t12 26q1 3 2 5v260q-29 14 -64 14z" />
    <glyph glyph-name="A" unicode="A" 
d="M434 176h-273l-55 -176h-86l225 689h110l224 -689h-90zM184 248h227l-113 367z" />
    <glyph glyph-name="B" unicode="B" 
d="M540 196q0 -54 -22 -93.5t-60 -61t-82 -31.5t-94 -10h-186v689h170q49 0 90 -8.5t77 -27.5t56.5 -54t20.5 -84q0 -62 -37 -99.5t-92 -50.5q159 -27 159 -169zM421 510q0 108 -135 108h-103v-222h111q127 0 127 114zM448 193q0 131 -148 131h-117v-252h114q151 0 151 121z
" />
    <glyph glyph-name="C" unicode="C" 
d="M358 700q64 0 110 -16.5t90 -50.5l-49 -57q-61 51 -145 51q-93 0 -151.5 -67.5t-58.5 -214.5q0 -146 57 -214t152 -68q87 0 160 57l45 -56q-77 -75 -206 -75q-131 0 -215 94t-84 262q0 167 84.5 261t210.5 94z" />
    <glyph glyph-name="D" unicode="D" 
d="M553 348q0 -83 -19 -146.5t-49 -101t-72.5 -61t-83.5 -31.5t-88 -8h-158v689h147q53 0 96.5 -7.5t87 -30t73 -59.5t48 -99t18.5 -145zM460 348q0 85 -18.5 142.5t-51.5 83.5t-65 35t-74 9h-81v-548h82q41 0 75 12t65.5 41t49.5 86t18 139z" />
    <glyph glyph-name="E" unicode="E" 
d="M212 617v-232h256v-71h-256v-244h314v-70h-400v689h391l-10 -72h-295z" />
    <glyph glyph-name="F" unicode="F" 
d="M225 617v-241h270v-70h-270v-306h-87v689h406l-10 -72h-309z" />
    <glyph glyph-name="G" unicode="G" 
d="M314 -11q-126 0 -197.5 90.5t-71.5 265.5q0 169 84.5 262t204.5 93q65 0 109 -18t87 -58l-52 -54q-61 57 -144 57q-84 0 -140 -67t-56 -215q0 -147 45.5 -215t137.5 -68q73 0 131 33v209h-135l-10 73h232v-328q-106 -60 -225 -60z" />
    <glyph glyph-name="H" unicode="H" 
d="M430 0v327h-260v-327h-87v689h87v-291h260v291h87v-689h-87z" />
    <glyph glyph-name="I" unicode="I" 
d="M497 689v-70h-153v-550h153v-69h-394v69h153v550h-153v70h394z" />
    <glyph glyph-name="J" unicode="J" 
d="M497 689v-460q0 -46 -12 -86.5t-37.5 -76.5t-73.5 -57t-113 -21q-105 0 -188 63l38 57q75 -47 149 -47q72 0 111 45.5t39 126.5v385h-204v71h291z" />
    <glyph glyph-name="K" unicode="K" 
d="M192 0h-87v689h87v-689zM197 368l270 321h101l-269 -316l288 -373h-109z" />
    <glyph glyph-name="L" unicode="L" 
d="M136 0v689h86v-612h315l-11 -77h-390z" />
    <glyph glyph-name="M" unicode="M" 
d="M531 689l39 -689h-84l-21 360q-6 95 -6 249l-116 -485h-87l-124 485q6 -113 -2 -249l-18 -360h-82l39 689h121l112 -472l107 472h122z" />
    <glyph glyph-name="N" unicode="N" 
d="M395 0l-243 605q12 -180 12 -260v-345h-81v689h118l247 -608q0 5 -3.5 48.5t-6 101.5t-2.5 113v345h81v-689h-122z" />
    <glyph glyph-name="O" unicode="O" 
d="M553 344q0 -161 -65.5 -258t-187.5 -97q-123 0 -188 95t-65 259q0 161 65.5 259t187.5 98t187.5 -96.5t65.5 -259.5zM463 344q0 141 -39 212t-124 71t-124 -71.5t-39 -212.5q0 -281 163 -281q85 0 124 70.5t39 211.5z" />
    <glyph glyph-name="P" unicode="P" 
d="M557 477q0 -115 -71 -168t-195 -53h-89v-256h-86v689h175q127 0 196.5 -53t69.5 -159zM464 476q0 144 -162 144h-100v-295h97q78 0 121.5 34t43.5 117z" />
    <glyph glyph-name="Q" unicode="Q" 
d="M554 344q0 -239 -143 -317q74 -15 115.5 -52t66.5 -112l-92 -36q-34 85 -80 124t-131 39q-117 0 -181 95.5t-64 257.5q0 161 66 259t189 98q122 0 188 -96.5t66 -259.5zM463 344q0 141 -39 212t-124 71q-164 0 -164 -284q0 -281 164 -281q85 0 124 70.5t39 211.5z" />
    <glyph glyph-name="R" unicode="R" 
d="M537 495q0 -74 -46 -122.5t-122 -67.5l205 -305h-104l-189 295h-93v-295h-86v689h176q259 0 259 -194zM445 495q0 66 -38 95t-119 29h-100v-256h101q156 0 156 132z" />
    <glyph glyph-name="S" unicode="S" 
d="M537 191q0 -91 -67 -146.5t-185 -55.5q-152 0 -242 87l52 59q79 -74 191 -74q68 0 114 33t46 95q0 51 -31.5 80t-118.5 54q-112 33 -167 77.5t-55 121.5q0 78 62 128t161 50q128 0 220 -79l-52 -56q-71 62 -165 62q-60 0 -99 -26t-39 -76q0 -44 37 -71t136 -56
q97 -28 149.5 -73t52.5 -134z" />
    <glyph glyph-name="T" unicode="T" 
d="M342 614v-614h-87v614h-215v75h519l-9 -75h-208z" />
    <glyph glyph-name="U" unicode="U" 
d="M528 689v-466q0 -105 -62.5 -169.5t-166.5 -64.5q-105 0 -166 64t-61 170v466h87v-469q0 -78 36 -117t104 -39q141 0 141 156v469h88z" />
    <glyph glyph-name="V" unicode="V" 
d="M302 99l186 590h87l-230 -689h-90l-230 689h93z" />
    <glyph glyph-name="W" unicode="W" 
d="M595 689l-104 -689h-114l-79 520l-80 -520h-117l-96 689h87l73 -594l83 514h106l79 -514l82 594h80z" />
    <glyph glyph-name="X" unicode="X" 
d="M49 689h100l151 -265l152 265h93l-195 -317l219 -372h-100l-171 311l-174 -311h-93l216 367z" />
    <glyph glyph-name="Y" unicode="Y" 
d="M344 266v-266h-88v265l-233 424h96l183 -346l185 346h90z" />
    <glyph glyph-name="Z" unicode="Z" 
d="M167 75h360l-10 -75h-445v70l363 544h-327v75h420v-72z" />
    <glyph glyph-name="bracketleft" unicode="[" 
d="M184 -115v930h251v-72h-171v-787h171v-71h-251z" />
    <glyph glyph-name="backslash" unicode="\" 
d="M53 777l66 32l428 -882l-68 -30z" />
    <glyph glyph-name="bracketright" unicode="]" 
d="M416 815v-930h-251v71h171v787h-171v72h251z" />
    <glyph glyph-name="asciicircum" unicode="^" 
d="M337 840l189 -313h-91l-136 237l-135 -237h-90l189 313h74z" />
    <glyph glyph-name="underscore" unicode="_" 
d="M50 -182v74h500v-74h-500z" />
    <glyph glyph-name="grave" unicode="`" 
d="M387 622l-203 93l46 72l184 -119z" />
    <glyph glyph-name="a" unicode="a" 
d="M478 115q0 -31 10 -45.5t33 -21.5l-21 -60q-77 10 -96 75q-57 -74 -165 -74q-79 0 -124.5 44t-45.5 118q0 81 63.5 125t182.5 44h78v43q0 105 -125 105q-60 0 -137 -27l-23 64q93 33 173 33q96 0 146.5 -45t50.5 -125v-253zM260 52q39 0 74.5 20t58.5 55v135h-76
q-158 0 -158 -110q0 -100 101 -100z" />
    <glyph glyph-name="b" unicode="b" 
d="M184 458q61 80 151 80q101 0 149 -72t48 -202q0 -124 -55 -199.5t-154 -75.5q-91 0 -143 66l-6 -55h-74v739l84 10v-291zM304 57q137 0 137 207q0 206 -125 206q-74 0 -132 -84v-261q44 -68 120 -68z" />
    <glyph glyph-name="c" unicode="c" 
d="M339 61q69 0 137 46l40 -55q-33 -29 -82 -46t-95 -17q-117 0 -182.5 73.5t-65.5 198.5q0 122 66.5 199.5t181.5 77.5q102 0 176 -62l-41 -55q-69 46 -136 46q-71 0 -113.5 -52.5t-42.5 -153.5t42.5 -150.5t114.5 -49.5z" />
    <glyph glyph-name="d" unicode="d" 
d="M416 749l84 -10v-739h-74l-8 69q-57 -80 -149 -80q-100 0 -150.5 73t-50.5 201q0 121 55.5 198t150.5 77q87 0 142 -63v274zM296 470q-66 0 -101.5 -52t-35.5 -155q0 -207 127 -207q75 0 130 84v262q-46 68 -120 68z" />
    <glyph glyph-name="e" unicode="e" 
d="M167 234q3 -87 45.5 -131t107.5 -44q70 0 141 47l39 -56q-79 -61 -180 -61q-114 0 -177.5 74.5t-63.5 199.5q0 121 62.5 198t166.5 77q100 0 157.5 -69.5t57.5 -189.5q0 -23 -2 -45h-354zM309 469q-61 0 -99 -43.5t-43 -127.5h274q-1 83 -36 127t-96 44z" />
    <glyph glyph-name="f" unicode="f" 
d="M411 749q75 0 143 -28l-27 -63q-50 22 -113 22q-110 0 -110 -87v-107h178l-9 -67h-169v-419h-85v419h-125v67h125v105q0 71 54.5 114.5t137.5 43.5z" />
    </font>
</defs>
</svg>
